<svg xmlns="http://www.w3.org/2000/svg" viewBox="0 0 386 95"><path d="M0 47.503v47.502l193.25-.252L386.5 94.5l.26-47.25.26-47.25H0v47.503M.462 48c0 26.125.129 36.813.287 23.75.158-13.062.158-34.437 0-47.5C.591 11.188.462 21.875.462 48M46.5 35.159c-16.838 6.185-11.8 33.839 5.459 29.962 5.072-1.14 4.629-.625 5.363-6.241.735-5.62.471-5.936-3.838-4.614-2.567.788-3.783.731-4.944-.233C44.725 50.867 48.377 45 54.161 45c2.457 0 2.782-.434 3.398-4.546.375-2.501.44-4.788.144-5.084-1.129-1.129-8.334-1.265-11.203-.211m69.689-.445c-2.967.566-2.919.342-3.6 16.586l-.579 13.799 5.745-.299 5.745-.3.5-10.167c.513-10.436.981-12.081 3.072-10.789 1.25.773.781 15.077-.613 18.706-.599 1.558.052 1.75 5.934 1.75H139V53.468c0-12.455-1.307-16.524-5.922-18.436-2.525-1.045-3.712-1.064-5.846-.092-1.868.851-2.787.894-3.039.14-.356-1.07-3.551-1.217-8.004-.366m61.125 1.236c-8.319 5.072-6.648 15.973 2.69 17.551 5.098.861 5.315 2.865.246 2.266-2.062-.244-4.493-.772-5.4-1.174-2.593-1.148-3.79 7.246-1.294 9.072 2.484 1.816 7.796 2.679 11.832 1.922C197.41 63.332 197.931 46 185.977 46c-3.248 0-4.913-1.654-2.239-2.225.969-.207 3.197-.07 4.951.305 3.603.77 4.311-.141 4.311-5.555 0-2.097-.58-3.534-1.582-3.918-3.367-1.292-10.969-.568-14.104 1.343m118.315-1.159c-.268.435-.807 7.349-1.197 15.364l-.708 14.574 15.094-.061c14.414-.059 15.108-.154 15.388-2.105.457-3.173 3.611-3.173 4.818 0 .982 2.583 1.268 2.681 6.139 2.104 6.579-.779 6.355-.147 3.481-9.814a1113.885 1113.885 0 0 1-4.092-14.103L332.944 35h-5.937c-7.032 0-6.633-.526-10.623 14-1.974 7.188-2.984 9.633-3.2 7.75-.286-2.481-.702-2.75-4.255-2.75h-3.939l.655-10 .656-10h-5.092c-2.8 0-5.311.356-5.58.791M67.286 36.099c-7.42 2.169-11.617 13.868-7.389 20.597 7.199 11.457 22.452 8.341 25.431-5.196.263-1.197.487-.676.556 1.3.247 7.029 6.318 13.119 11.724 11.762 1.351-.339 2.392-.156 2.392.419 0 .56 2.025 1.019 4.5 1.019s4.5-.177 4.5-.393c0-.216.675-6.785 1.499-14.597C112.219 34.712 112.29 35 106.57 35h-4.312l-.676 7.25c-.812 8.713-2.353 13.995-3.927 13.462-1.317-.447-1.409-7.754-.188-14.962l.805-4.75h-5.167c-5.718 0-5.785.072-7.056 7.65-.471 2.807-.863 3.724-.931 2.177-.131-2.963-4.256-8.454-6.912-9.199-4.334-1.216-7.966-1.392-10.92-.529M140 40.468c0 5.48.028 5.532 3 5.532h3l.014 7.25c.02 10.925.406 11.75 5.486 11.75 5.114 0 5.466-.786 5.486-12.25L157 45h2.981c3.211 0 4.52-2.429 3.852-7.148-.325-2.298-.602-2.358-12.083-2.634L140 34.937v5.531m54.725-.719c-.65 5.766-.394 6.251 3.296 6.251h2.904l.287 9.25.288 9.25 4.607.299 4.608.299.642-4.689c.354-2.578.643-7.1.643-10.049 0-5.234.067-5.36 2.868-5.36 2.614 0 2.919-.373 3.433-4.205.784-5.847.889-5.795-11.73-5.795H195.26l-.535 4.749m30.316-2.499c-.505 1.237-1.879 5.625-3.056 9.75-1.176 4.125-2.778 9.489-3.559 11.92-1.719 5.348-1.755 5.305 4.99 5.865 5.078.421 5.435.302 5.749-1.908.488-3.431 3.598-3.632 4.859-.314.982 2.583 1.268 2.681 6.139 2.104 6.603-.782 6.397-.204 3.516-9.836a1169.645 1169.645 0 0 1-4.113-14.081L237.944 35h-5.993c-5.278 0-6.103.269-6.91 2.25m30.459-1.4C239.745 40.973 242.625 66 258.97 66c6.602 0 8.03-1.251 8.03-7.035 0-5.519.09-5.419-3.453-3.804-1.913.871-3.169.876-5.047.021-5.086-2.318-1.949-9.182 4.197-9.182 2.817 0 3.083-.312 3.631-4.25.843-6.062-3.333-8.338-10.828-5.9m28.167-.183c-.367.366-.667 3.092-.667 6.057C283 49.023 281.166 56 279.247 56c-1.269 0-1.409-1.098-.862-6.75 1.367-14.106 1.795-12.71-4-13.048-5.997-.348-6.388.459-6.381 13.173.005 10.594 4.382 16.598 11.118 15.251 1.596-.32 2.878-.142 2.878.399 0 .536 1.944.975 4.319.975h4.32l1.6-14.726c.88-8.099 1.385-15.074 1.122-15.5-.585-.945-8.765-1.036-9.694-.107M68.713 46.621c-2.649 2.649.704 8.016 4.296 6.876 3.271-1.038 2.432-6.887-1.046-7.293-1.396-.163-2.859.025-3.25.417M231 51c0 1.1.408 2 .906 2 .499 0 .671-.9.384-2-.288-1.1-.696-2-.907-2-.21 0-.383.9-.383 2m95 0c0 1.1.408 2 .906 2 .499 0 .671-.9.384-2-.288-1.1-.696-2-.907-2-.21 0-.383.9-.383 2" fill-rule="evenodd"/></svg>