<?xml version="1.0" encoding="UTF-8" standalone="no"?>
<!-- Created with Inkscape (http://www.inkscape.org/) -->

<svg
   width="811.19611"
   height="1656.5516"
   viewBox="0 0 231.77032 473.30046"
   version="1.1"
   id="svg1"
   inkscape:version="1.3 (0e150ed6c4, 2023-07-21)"
   sodipodi:docname="knot logo design.svg"
   xmlns:inkscape="http://www.inkscape.org/namespaces/inkscape"
   xmlns:sodipodi="http://sodipodi.sourceforge.net/DTD/sodipodi-0.dtd"
   xmlns="http://www.w3.org/2000/svg"
   xmlns:svg="http://www.w3.org/2000/svg">
  <sodipodi:namedview
     id="namedview1"
     pagecolor="#1007c8"
     bordercolor="#2c2a19"
     borderopacity="1"
     inkscape:showpageshadow="2"
     inkscape:pageopacity="0"
     inkscape:pagecheckerboard="0"
     inkscape:deskcolor="#5a5a5a"
     inkscape:document-units="px"
     showgrid="false"
     guidecolor="#7602cb"
     guideopacity="1"
     guidehicolor="#b42100"
     guidehiopacity="1"
     inkscape:zoom="0.70710678"
     inkscape:cx="-176.06959"
     inkscape:cy="480.83261"
     inkscape:current-layer="layer1"
     showguides="true">
    <inkscape:grid
       id="grid1"
       units="px"
       originx="75.913241"
       originy="407.5509"
       spacingx="0.26458333"
       spacingy="0.26458334"
       empcolor="#e499e5"
       empopacity="0.60784314"
       color="#0099e5"
       opacity="0.65098039"
       empspacing="5"
       dotted="false"
       gridanglex="30"
       gridanglez="30"
       visible="false" />
    <inkscape:page
       x="0"
       y="0"
       width="231.77032"
       height="473.30045"
       id="page1"
       margin="0"
       bleed="0" />
    <inkscape:page
       x="233.88606"
       y="114.08734"
       width="102.04926"
       height="91.213196"
       id="page2"
       margin="4.9030156 0 0"
       bleed="0" />
    <inkscape:page
       x="342.4682"
       y="114.79449"
       width="98.365074"
       height="89.651276"
       id="page3"
       margin="0"
       bleed="0" />
    <inkscape:page
       x="232.89252"
       y="210.34135"
       width="208.15067"
       height="119.74061"
       id="page5"
       margin="0 0 0 2.9418094"
       bleed="0" />
    <inkscape:page
       x="232.38695"
       y="332.63693"
       width="209.06976"
       height="151.40057"
       id="page6"
       margin="0"
       bleed="0" />
    <inkscape:page
       x="231.53857"
       y="488.79211"
       width="209.56889"
       height="279.89212"
       id="page4"
       margin="0"
       bleed="0" />
    <inkscape:page
       x="235.46098"
       y="9.9776363"
       width="98.900833"
       height="93.577553"
       id="page7"
       margin="0"
       bleed="0" />
    <inkscape:page
       x="342.76697"
       y="9.697464"
       width="100.30169"
       height="95.538757"
       id="page8"
       margin="0"
       bleed="0" />
    <sodipodi:guide
       position="124.57143,441.30047"
       orientation="0,-1"
       id="guide25"
       inkscape:locked="false" />
  </sodipodi:namedview>
  <defs
     id="defs1" />
  <g
     inkscape:label="Layer 1"
     inkscape:groupmode="layer"
     id="layer1"
     transform="translate(21.689496,116.44311)">
    <path
       d="M 51.707267,7.8080062 48.170995,4.2717339 45.894209,6.539033 49.430482,10.075305 Z"
       style="stroke-linejoin:bevel"
       id="path551" />
    <path
       d="m 62.336732,-2.7779313 1.012277,-1.0083706 -3.535715,-3.5362723 -1.012835,1.0089286 z"
       style="fill:#d45500;stroke-linejoin:bevel"
       id="path548" />
    <path
       d="m 70.665415,9.5920464 -1.012277,1.0083706 2.723772,2.723772 c 0.103187,0.103187 0.192401,0.208274 0.268416,0.314174 0.07601,0.1059 0.138729,0.212568 0.189174,0.319197 0.05044,0.106628 0.08848,0.213265 0.114955,0.318638 0.02648,0.105373 0.04165,0.209809 0.04576,0.311942 0.0041,0.102134 -0.0029,0.20164 -0.01953,0.298549 -0.01666,0.09691 -0.04287,0.190991 -0.07868,0.280692 -0.03582,0.0897 -0.08111,0.175071 -0.134487,0.255581 -0.05338,0.08051 -0.114818,0.156113 -0.184152,0.225446 l -1.414062,1.414062 c -0.06933,0.06933 -0.145008,0.13137 -0.225447,0.18471 -0.08044,0.05334 -0.165998,0.09818 -0.25558,0.133929 -0.08958,0.03575 -0.183368,0.06211 -0.280134,0.07868 -0.09677,0.01657 -0.19656,0.02318 -0.298549,0.01897 -0.101989,-0.0042 -0.206133,-0.01918 -0.311384,-0.04576 -0.105252,-0.02658 -0.211527,-0.06496 -0.31808,-0.115513 -0.106554,-0.05055 -0.213302,-0.113058 -0.319197,-0.189174 -0.105895,-0.07612 -0.210898,-0.165698 -0.314174,-0.268974 l -2.731027,-2.731026 -1.012835,1.00837 2.732701,2.732701 c 0.163749,0.163749 0.337095,0.307591 0.516741,0.431362 0.179647,0.123771 0.365609,0.227615 0.555804,0.311942 0.190195,0.08433 0.384406,0.148781 0.579799,0.194196 0.195394,0.04542 0.392369,0.07165 0.587612,0.07868 0.195243,0.007 0.38894,-0.0049 0.578683,-0.03571 0.189742,-0.03081 0.375236,-0.08032 0.554129,-0.148438 0.178893,-0.06812 0.351258,-0.155146 0.513951,-0.260044 0.162694,-0.104898 0.315887,-0.227718 0.457031,-0.368862 l 1.414063,-1.414062 c 0.141144,-0.141144 0.264483,-0.294859 0.36942,-0.45759 0.104936,-0.16273 0.191302,-0.334993 0.259486,-0.513951 0.06818,-0.178957 0.118107,-0.364306 0.148996,-0.554129 0.03089,-0.189823 0.04322,-0.383912 0.03627,-0.579241 -0.007,-0.195329 -0.03335,-0.392137 -0.07868,-0.587612 -0.04534,-0.195474 -0.109935,-0.389539 -0.194196,-0.579799 -0.08426,-0.190259 -0.188209,-0.376677 -0.311942,-0.556361 -0.123734,-0.179685 -0.267056,-0.352435 -0.430804,-0.516183 z"
       style="fill:#d45500;stroke-linejoin:bevel"
       id="path545" />
    <path
       d="m 72.689968,7.5758633 -2.024553,2.0161831 2.72154,2.7215406 c 0.163748,0.163748 0.30707,0.336498 0.430804,0.516183 0.123733,0.179684 0.22768,0.366102 0.311942,0.556361 0.08426,0.19026 0.148861,0.384325 0.194196,0.579799 0.04533,0.195475 0.07173,0.392283 0.07868,0.587612 0.007,0.195329 -0.0054,0.389418 -0.03627,0.579241 -0.03089,0.189823 -0.08081,0.375172 -0.148996,0.554129 -0.06818,0.178958 -0.15455,0.351221 -0.259486,0.513951 -0.104937,0.162731 -0.228276,0.316446 -0.36942,0.45759 l -1.414063,1.414062 c -0.141144,0.141144 -0.294337,0.263964 -0.457031,0.368862 -0.162693,0.104898 -0.335058,0.191925 -0.513951,0.260044 -0.178893,0.06812 -0.364387,0.11763 -0.554129,0.148438 -0.189743,0.03081 -0.38344,0.04275 -0.578683,0.03571 -0.195243,-0.007 -0.392218,-0.03327 -0.587612,-0.07868 -0.195393,-0.04541 -0.389604,-0.10987 -0.579799,-0.194196 -0.190195,-0.08433 -0.376157,-0.188171 -0.555804,-0.311942 -0.179646,-0.123771 -0.352992,-0.267613 -0.516741,-0.431362 l -2.732701,-2.732701 -2.024553,2.016183 2.737165,2.737165 c 0.145473,0.145473 0.296523,0.282244 0.452567,0.410715 0.156044,0.128471 0.31696,0.248599 0.482143,0.359933 0.330367,0.222668 0.677381,0.410865 1.035714,0.564174 0.358333,0.153309 0.727835,0.271485 1.102679,0.354353 0.374843,0.08287 0.755145,0.130396 1.135044,0.141741 0.3799,0.01134 0.759313,-0.01352 1.132813,-0.07478 0.18675,-0.03063 0.372243,-0.07043 0.555245,-0.11942 0.183002,-0.04898 0.363473,-0.107191 0.541295,-0.174665 0.177822,-0.06747 0.352785,-0.143812 0.523996,-0.229911 0.17121,-0.0861 0.339064,-0.181971 0.502232,-0.28683 0.163167,-0.104859 0.321754,-0.21888 0.475446,-0.342634 0.153692,-0.123754 0.302528,-0.256769 0.445313,-0.399554 l 1.414062,-1.41462 c 0.142785,-0.142785 0.27579,-0.291053 0.399554,-0.444755 0.123764,-0.153702 0.238314,-0.312818 0.343192,-0.476004 0.104877,-0.163186 0.200147,-0.330437 0.286272,-0.501674 0.08613,-0.171237 0.162962,-0.346141 0.230469,-0.523996 0.06751,-0.177855 0.125643,-0.358813 0.174665,-0.541852 0.04902,-0.18304 0.08875,-0.368455 0.11942,-0.555246 0.06134,-0.373581 0.08603,-0.753384 0.07478,-1.13337 -0.01126,-0.379987 -0.0584,-0.76012 -0.141183,-1.135045 -0.08279,-0.374925 -0.201108,-0.744281 -0.354352,-1.102679 -0.153245,-0.358398 -0.341544,-0.705867 -0.564174,-1.036272 -0.111316,-0.165202 -0.230914,-0.326089 -0.359375,-0.482143 -0.128461,-0.156054 -0.2658,-0.307094 -0.411273,-0.452567 z M 73.18383,19.082002 c -0.159811,0.159679 -0.3302,0.303355 -0.508371,0.431361 0,0 -5.58e-4,5.58e-4 -5.58e-4,5.58e-4 -0.178399,0.12812 -0.364864,0.240503 -0.558035,0.337054 -0.193171,0.09655 -0.392785,0.177586 -0.597099,0.242745 -0.204313,0.06516 -0.413173,0.11449 -0.625,0.148438 -0.211826,0.03395 -0.426589,0.05233 -0.642299,0.05525 -0.215709,0.0029 -0.432473,-0.01001 -0.648437,-0.03795 -0.215964,-0.02794 -0.431384,-0.07085 -0.643973,-0.129464 -0.21259,-0.05862 -0.422205,-0.132425 -0.627791,-0.22154 0.205346,0.08858 0.414717,0.161572 0.627233,0.219866 0.212515,0.05829 0.427965,0.101671 0.643973,0.129464 0.216008,0.02779 0.432616,0.04031 0.648437,0.03739 0.215822,-0.0029 0.4309,-0.02139 0.642857,-0.05524 0.211957,-0.03385 0.421144,-0.08288 0.625559,-0.14788 0.204414,-0.06499 0.403905,-0.145833 0.597098,-0.242187 0.192966,-0.09624 0.379373,-0.208198 0.557477,-0.335938 0,0 5.58e-4,-5.58e-4 5.58e-4,-5.58e-4 0.178171,-0.128006 0.34856,-0.271682 0.508371,-0.431361 z"
       style="fill:#d45500;stroke-linejoin:bevel"
       id="path544" />
    <path
       d="m 41.399232,-21.337083 c -0.379986,-0.01126 -0.75979,0.01399 -1.133371,0.07533 -0.18679,0.03067 -0.372206,0.0704 -0.555245,0.119419 -0.183039,0.04902 -0.363998,0.107159 -0.541853,0.174666 -0.177855,0.06751 -0.352759,0.144343 -0.523996,0.230468 -0.171236,0.08612 -0.338488,0.181395 -0.501674,0.286273 -0.163186,0.104877 -0.322302,0.219428 -0.476004,0.343192 -0.153702,0.123763 -0.30197,0.256769 -0.444755,0.399553 l -1.41462,1.414063 c -0.142784,0.142784 -0.2758,0.291621 -0.399554,0.445312 -0.123754,0.153692 -0.237775,0.31228 -0.342634,0.475447 -0.104858,0.163167 -0.200731,0.331021 -0.28683,0.502232 -0.0861,0.17121 -0.162437,0.346173 -0.229911,0.523995 -0.06747,0.177822 -0.12568,0.358293 -0.174665,0.541295 -0.04898,0.183002 -0.08879,0.368496 -0.11942,0.555245 -0.06126,0.3735 -0.08612,0.752914 -0.07478,1.132813 0.01134,0.379899 0.05887,0.760201 0.141741,1.135045 0.08287,0.374843 0.201044,0.744346 0.354352,1.102678 0.153309,0.358333 0.341507,0.705348 0.564175,1.035714 0.111333,0.165184 0.231462,0.3261 0.359933,0.482143 0.12847,0.156044 0.265241,0.307095 0.410714,0.4525672 l 2.515067,2.515067 2.024553,-2.016183 1.011719,-1.0072542 -2.521205,-2.521206 c -0.103277,-0.103275 -0.192299,-0.208783 -0.268415,-0.314732 -0.07612,-0.105948 -0.13918,-0.212551 -0.189733,-0.319196 -0.05055,-0.106645 -0.08893,-0.213273 -0.115513,-0.318639 -0.02658,-0.105366 -0.04155,-0.209272 -0.04576,-0.311384 -0.0042,-0.102111 0.0024,-0.202226 0.01897,-0.299107 0.01657,-0.09688 0.04293,-0.191018 0.07868,-0.280692 0.03575,-0.08967 0.08115,-0.175089 0.134487,-0.25558 0.05334,-0.08049 0.114819,-0.155556 0.184152,-0.224888 l 1.414062,-1.414063 c 0.06933,-0.06933 0.144761,-0.131415 0.225447,-0.18471 0.08069,-0.05329 0.166755,-0.09822 0.256696,-0.133928 0.08994,-0.0357 0.184154,-0.06212 0.28125,-0.07868 0.0971,-0.01656 0.196955,-0.02311 0.299107,-0.01897 0.102153,0.0041 0.206566,0.01881 0.311942,0.0452 0.105377,0.02639 0.212015,0.06464 0.318639,0.114956 0.106623,0.05032 0.213302,0.1127 0.319196,0.188616 0.105894,0.07592 0.210988,0.165228 0.314174,0.268415 l 2.52846,2.52846 1.011161,-1.007255 2.025111,-2.016183 -2.535156,-2.535156 c -0.145472,-0.145472 -0.296513,-0.282254 -0.452567,-0.410714 -0.156054,-0.128461 -0.316941,-0.248618 -0.482143,-0.359933 -0.330404,-0.22263 -0.677875,-0.410372 -1.036272,-0.563616 -0.358397,-0.153244 -0.727754,-0.271566 -1.102679,-0.354353 -0.374924,-0.08279 -0.755059,-0.130483 -1.135044,-0.141741 z m -0.02232,1.422991 c 0.288172,0.0095 0.577243,0.04627 0.862724,0.110491 0.28548,0.06422 0.567367,0.156074 0.841517,0.274554 0.274151,0.118479 0.540462,0.263562 0.794643,0.435825 0.127091,0.08613 0.251097,0.178915 0.371652,0.27846 -0.119534,-0.0984 -0.242773,-0.189832 -0.368862,-0.275111 -0.253461,-0.171427 -0.519089,-0.316116 -0.792968,-0.434152 -0.27388,-0.118036 -0.555956,-0.209299 -0.841518,-0.273438 -0.285562,-0.06414 -0.574771,-0.101314 -0.863281,-0.111049 -0.288511,-0.0097 -0.576094,0.0078 -0.858817,0.05301 -0.282724,0.04518 -0.560482,0.118154 -0.828683,0.21875 -0.268202,0.100595 -0.526819,0.229081 -0.771764,0.385602 -0.244945,0.156522 -0.47622,0.341175 -0.689174,0.55413 0.213121,-0.213121 0.444469,-0.398246 0.689174,-0.555246 0.244706,-0.157 0.502905,-0.286085 0.770647,-0.387276 0.267743,-0.101192 0.544779,-0.17473 0.827009,-0.220425 0.282231,-0.04569 0.56953,-0.06362 0.857701,-0.05413 z m -4.558593,2.631138 c -0.212954,0.212954 -0.39768,0.443707 -0.55413,0.688616 -0.15645,0.24491 -0.284568,0.503626 -0.385045,0.771764 -0.100476,0.268138 -0.173158,0.546045 -0.218192,0.828683 -0.04503,0.282638 -0.06233,0.569849 -0.05246,0.858259 0.0099,0.28841 0.04679,0.577826 0.111049,0.863281 0.06426,0.285455 0.155885,0.567189 0.273996,0.84096 0.118111,0.273771 0.26272,0.539609 0.434152,0.792969 0.08572,0.12668 0.178363,0.250546 0.277343,0.370535 -0.100294,-0.121314 -0.194003,-0.245992 -0.280692,-0.373884 -0.172231,-0.254092 -0.3174,-0.520102 -0.435826,-0.794084 -0.118425,-0.273982 -0.20979,-0.55567 -0.273995,-0.84096 -0.06421,-0.285291 -0.101479,-0.574147 -0.111049,-0.862165 -0.0096,-0.288019 0.0086,-0.575536 0.05413,-0.857701 0.04548,-0.282165 0.118363,-0.559278 0.219308,-0.827009 0.100946,-0.267731 0.229893,-0.525932 0.386719,-0.770648 0.156826,-0.244716 0.341567,-0.475495 0.554688,-0.688616 z m 37.636718,0.318081 c 0.159386,0.160044 0.302687,0.330324 0.430246,0.508928 0.127559,0.178605 0.239423,0.365676 0.335379,0.559152 0.09596,0.193476 0.175937,0.393557 0.240514,0.598214 0.06458,0.204657 0.1139,0.413967 0.147321,0.626116 0.03342,0.212149 0.05108,0.426906 0.05357,0.642858 0.0025,0.215951 -0.01028,0.43293 -0.0385,0.648995 -0.02822,0.216065 -0.07188,0.431485 -0.13058,0.643973 -0.05871,0.212489 -0.132573,0.422009 -0.22154,0.627232 0.08951,-0.205507 0.164153,-0.415203 0.223214,-0.62779 0.05906,-0.212586 0.102728,-0.427943 0.131138,-0.643973 0.02841,-0.21603 0.0415,-0.433159 0.03906,-0.648995 -0.0024,-0.215837 -0.02064,-0.430293 -0.05413,-0.6423 -0.03349,-0.212007 -0.08259,-0.421574 -0.147321,-0.626116 -0.06473,-0.204541 -0.144893,-0.404216 -0.241072,-0.597656 -0.09618,-0.19344 -0.208114,-0.38045 -0.335937,-0.559152 -0.127823,-0.178702 -0.271695,-0.349158 -0.431362,-0.509486 z m 0.970424,29.779576 c 0.08854,0.205406 0.162204,0.415188 0.220425,0.62779 0.05822,0.212602 0.101211,0.427863 0.128906,0.643973 0.0277,0.21611 0.03986,0.433065 0.03683,0.648996 -0.003,0.21593 -0.02128,0.430793 -0.05524,0.642857 -0.03397,0.212063 -0.08334,0.42105 -0.148438,0.625558 -0.0651,0.204508 -0.145753,0.404391 -0.242187,0.597656 -0.09643,0.193265 -0.208522,0.380259 -0.336496,0.558594 -0.127974,0.178334 -0.272203,0.348097 -0.43192,0.507812 h 0.0022 c 0.159998,-0.159998 0.304292,-0.32994 0.432477,-0.50837 0.128186,-0.178431 0.240488,-0.365365 0.337054,-0.558594 0.09657,-0.193229 0.177047,-0.392706 0.242187,-0.597098 0.06514,-0.204393 0.11453,-0.413637 0.148438,-0.625558 0.03391,-0.211922 0.05238,-0.426484 0.05524,-0.642299 0.0029,-0.215816 -0.0094,-0.43292 -0.03739,-0.648996 -0.02798,-0.216076 -0.07139,-0.431272 -0.130022,-0.643973 -0.05863,-0.212701 -0.132453,-0.422657 -0.221541,-0.628348 z"
       style="fill:#d45500;stroke-linejoin:bevel"
       id="path543" />
    <path
       d="m 58.785392,8.8241892 -2.024553,2.0161828 -1.012277,1.007813 1.969308,1.969866 1.012277,-1.008371 2.024554,-2.016183 z"
       style="fill:#d45500;stroke-linejoin:bevel"
       id="path542" />
    <path
       d="m 44.895325,-5.0658778 -2.024553,2.0161831 -1.012835,1.0089286 2.27288,2.27287942 1.012834,-1.00892857 2.024554,-2.01618305 z"
       style="fill:#d45500;stroke-linejoin:bevel"
       id="path539" />
    <path
       d="m 66.37691,1.2628053 -2.024553,2.016183 -1.011719,1.0078125 -3.542969,3.5290179 1.969866,1.9698661 3.542969,-3.5284599 1.012277,-1.0078125 2.024553,-2.016183 z"
       style="fill:#d45500;stroke-linejoin:bevel"
       id="path538" />
    <path
       d="m 52.487959,-12.626704 -2.025111,2.016183 -1.011161,1.0078129 -3.544643,3.5295759 2.273438,2.2723214 3.544085,-3.5290179 1.01116,-1.0078125 2.025112,-2.0161828 z"
       style="fill:#d45500;stroke-linejoin:bevel"
       id="path535" />
    <path
       d="m 82.979589,-7.6289358 0.0971,0.095982 c 0.142264,-0.050233 0.283135,-0.1056494 0.427455,-0.1478794 0.25587,-0.074871 0.514889,-0.1372228 0.77567,-0.186942 0.260782,-0.049719 0.523681,-0.087035 0.787389,-0.1116071 0.263707,-0.024573 0.52832,-0.036284 0.792968,-0.035714 0.264649,5.693e-4 0.529365,0.013356 0.792969,0.039063 0.263604,0.025706 0.526257,0.064117 0.78683,0.1149553 0.260574,0.050839 0.518996,0.1143244 0.774554,0.1902902 0.255558,0.075966 0.508139,0.1645366 0.756696,0.265625 0.248558,0.1010884 0.49313,0.2147537 0.732701,0.3409598 0.239571,0.1262062 0.473968,0.2649757 0.702567,0.4162947 0.2286,0.151319 0.451211,0.3152023 0.666853,0.4916295 0.215642,0.1764271 0.4243,0.3654338 0.625,0.5669642 0.200699,0.2015301 0.38864,0.4108734 0.564174,0.6272322 0.175534,0.2163587 0.338468,0.4398815 0.488839,0.6690848 0.150372,0.2292033 0.288291,0.4641773 0.413505,0.7042411 0.125213,0.2400638 0.238111,0.4848767 0.338169,0.7338169 0.100059,0.2489403 0.18737,0.5019799 0.262277,0.7578125 0.07491,0.2558327 0.137183,0.5143708 0.186942,0.7751117 0.04976,0.2607408 0.08699,0.52372325 0.111607,0.78738835 0.02461,0.26366509 0.0368,0.52836352 0.03627,0.79296875 -5.27e-4,0.26460522 -0.01396,0.52884943 -0.03962,0.7924107 -0.02566,0.2635613 -0.0636,0.5262971 -0.114397,0.7868304 -0.0508,0.2605332 -0.114362,0.5190324 -0.19029,0.7745535 -0.07593,0.2555212 -0.164011,0.5081715 -0.265067,0.7566965 -0.101056,0.248525 -0.21478,0.4931561 -0.34096,0.7327009 -0.12618,0.2395447 -0.264995,0.4739865 -0.416295,0.7025669 -0.1513,0.2285805 -0.315212,0.4512207 -0.491629,0.6668527 -0.176418,0.2156321 -0.365434,0.4243004 -0.566965,0.625 -0.145953,0.1453526 -0.300268,0.2773942 -0.454241,0.4095982 0.04458,-0.034815 0.09215,-0.064029 0.136161,-0.099888 0.216006,-0.175976 0.425,-0.3641747 0.626116,-0.5652901 0.201116,-0.2011155 0.389872,-0.4101102 0.565848,-0.6261161 0.175977,-0.216006 0.339119,-0.4390578 0.489956,-0.6679688 0.150836,-0.228911 0.288923,-0.4638524 0.41462,-0.703683 0.125698,-0.2398306 0.239286,-0.484494 0.339844,-0.7332589 0.100558,-0.2487649 0.188533,-0.5015407 0.263951,-0.7572545 0.07542,-0.2557138 0.137779,-0.5144344 0.188058,-0.7751116 0.05028,-0.2606773 0.08814,-0.523175 0.113281,-0.78683037 0.02514,-0.26365534 0.03795,-0.52832072 0.03795,-0.79296875 0,-0.26464803 -0.01281,-0.52931342 -0.03795,-0.79296875 -0.02514,-0.26365533 -0.063,-0.52671113 -0.113281,-0.78738843 -0.05028,-0.2606772 -0.11264,-0.5193978 -0.188058,-0.7751116 -0.07542,-0.2557137 -0.163393,-0.5084896 -0.263951,-0.7572544 -0.100558,-0.2487649 -0.214146,-0.4934284 -0.339844,-0.733259 -0.125697,-0.2398306 -0.263784,-0.4747721 -0.41462,-0.703683 -0.150837,-0.2289109 -0.313979,-0.4514049 -0.489956,-0.6674107 -0.175976,-0.2160059 -0.364732,-0.4255587 -0.565848,-0.6266741 -0.195238,-0.1952385 -0.398234,-0.3785753 -0.607701,-0.5502232 -0.209467,-0.171648 -0.425456,-0.3313343 -0.647321,-0.4793527 -0.221866,-0.1480184 -0.449486,-0.2841323 -0.68192,-0.4084822 -0.232433,-0.1243499 -0.469766,-0.2369692 -0.710937,-0.3376116 -0.241172,-0.1006424 -0.486297,-0.1892871 -0.734375,-0.266183 -0.248079,-0.076896 -0.499078,-0.1422021 -0.752232,-0.1953125 -0.253155,-0.05311 -0.508108,-0.09404 -0.764509,-0.1233259 -0.256401,-0.029286 -0.513947,-0.047033 -0.771764,-0.052455 -0.257816,-0.00542 -0.516035,0.00161 -0.773437,0.020089 -0.257402,0.01848 -0.514375,0.048538 -0.769532,0.09096 -0.255156,0.042422 -0.508405,0.097102 -0.759486,0.1635044 -0.251081,0.066402 -0.499803,0.1445114 -0.744978,0.2349331 -0.09653,0.035599 -0.189743,0.081767 -0.285156,0.1210937 z"
       style="fill:#d45500;stroke-linejoin:bevel"
       id="path532" />
    <path
       d="m 85.860169,-8.0150965 c -0.264648,-5.693e-4 -0.529261,0.011142 -0.792968,0.035714 -0.263708,0.024572 -0.526608,0.061888 -0.787389,0.1116071 -0.260781,0.049719 -0.5198,0.1120715 -0.77567,0.186942 -0.14432,0.04223 -0.285191,0.097647 -0.427455,0.1478794 -0.109959,0.038826 -0.221815,0.07079 -0.330357,0.1143974 -0.248972,0.1000265 -0.493728,0.2124241 -0.733817,0.3376116 -0.109198,0.056938 -0.213251,0.1259143 -0.320312,0.188058 -0.05724,0.033226 -0.114728,0.065733 -0.171317,0.1004464 -0.07028,0.043112 -0.143387,0.079593 -0.212612,0.125 -0.18371,0.120501 -0.360692,0.2550726 -0.536272,0.3917411 -0.07508,0.064239 -0.153841,0.1217908 -0.227121,0.1891741 l 1.512277,1.6439732 c 0.03421,-0.027797 0.07081,-0.050631 0.105469,-0.077567 0.118362,-0.1042912 0.237617,-0.2073536 0.361607,-0.3007813 0.158345,-0.1193144 0.320794,-0.2298515 0.487165,-0.3314732 0.02701,-0.016497 0.05706,-0.024705 0.08426,-0.040737 0.06833,-0.04027 0.142021,-0.065347 0.211496,-0.1026786 0.243606,-0.1309006 0.486325,-0.2651042 0.741629,-0.359933 0.102285,-0.037992 0.209879,-0.051494 0.313616,-0.083705 0.258438,-0.080247 0.516423,-0.1642798 0.78125,-0.2087053 0.37113,-0.062258 0.746825,-0.089375 1.121652,-0.081473 0.374827,0.0079 0.748993,0.05051 1.117188,0.1283482 0.368194,0.077838 0.730241,0.1906166 1.081473,0.3381696 0.351231,0.1475531 0.691687,0.3298298 1.015625,0.546875 0.161969,0.1085226 0.320005,0.2257086 0.473214,0.3515625 0.153209,0.1258539 0.301597,0.2608605 0.444755,0.4040179 0.147566,0.1475659 0.286058,0.3006476 0.415178,0.4587053 0.129121,0.1580577 0.248701,0.3211307 0.359375,0.4882813 0.110675,0.1671505 0.211901,0.3379903 0.30413,0.5128348 0.09223,0.1748445 0.175659,0.3534587 0.249442,0.5345982 0.07378,0.1811396 0.138301,0.3653036 0.193638,0.5513393 0.05534,0.1860357 0.101501,0.3740831 0.138393,0.5636161 0.07378,0.37906588 0.110491,0.76377599 0.110491,1.14843748 0,0.38466149 -0.03671,0.76937163 -0.110491,1.14843752 -0.03689,0.1895329 -0.08306,0.3775804 -0.138393,0.5636161 -0.05534,0.1860356 -0.119855,0.3696417 -0.193638,0.5507812 -0.07378,0.1811395 -0.157213,0.3597538 -0.249442,0.5345982 -0.09223,0.1748445 -0.193455,0.3462424 -0.30413,0.5133929 -0.110674,0.1671505 -0.230254,0.3302236 -0.359375,0.4882812 -0.12912,0.1580577 -0.267612,0.3111395 -0.415178,0.4587054 -0.147567,0.1475659 -0.300648,0.2855003 -0.458706,0.4146205 -0.04574,0.03737 -0.09463,0.068528 -0.141183,0.1043527 -0.0509,0.044525 -0.09923,0.093626 -0.151227,0.1361607 -0.153457,0.1255314 -0.311603,0.2422691 -0.473773,0.3504464 -0.32434,0.2163548 -0.664727,0.3978507 -1.016183,0.5446429 -0.351455,0.1467922 -0.713777,0.2589032 -1.082031,0.3359375 -0.368254,0.077034 -0.742453,0.119035 -1.117188,0.1261161 -0.374734,0.00708 -0.750194,-0.020638 -1.121093,-0.083705 -0.264921,-0.045047 -0.522798,-0.1294586 -0.78125,-0.2103794 l -0.0039,0.5251116 -1.122767,1.1060267 c 0.0335,0.014063 0.06568,0.032156 0.09933,0.045759 0.248764,0.1005575 0.501541,0.1885327 0.757254,0.2639509 0.255714,0.075418 0.513877,0.1383373 0.774554,0.188616 0.260677,0.050279 0.523734,0.088142 0.787388,0.1132813 0.263655,0.025139 0.528322,0.037946 0.792969,0.037946 0.264648,0 0.529314,-0.012807 0.792969,-0.037946 0.263655,-0.025139 0.526154,-0.063002 0.78683,-0.1132813 0.260677,-0.050279 0.519399,-0.1131979 0.775112,-0.188616 0.255713,-0.075418 0.50849,-0.1633934 0.757254,-0.2639509 0.248765,-0.1005576 0.493429,-0.2135888 0.733259,-0.3392857 0.239831,-0.125697 0.474773,-0.2637843 0.703683,-0.4146206 0.182265,-0.1201001 0.357597,-0.2545871 0.531808,-0.390625 0.153973,-0.1322037 0.308288,-0.2642459 0.454241,-0.4095982 0.201531,-0.2006992 0.390548,-0.4093684 0.566965,-0.625 0.176417,-0.2156316 0.340329,-0.4382727 0.491629,-0.6668527 0.1513,-0.22858 0.290115,-0.4630227 0.416295,-0.7025669 0.12618,-0.2395443 0.239346,-0.4841764 0.340402,-0.7327009 0.101056,-0.2485245 0.189696,-0.5011758 0.265625,-0.7566965 0.07593,-0.2555206 0.139492,-0.5140208 0.19029,-0.7745535 0.0508,-0.2605328 0.08873,-0.5232696 0.114397,-0.7868304 0.02566,-0.26356075 0.03909,-0.52780601 0.03962,-0.7924107 5.26e-4,-0.2646047 -0.01166,-0.52930419 -0.03627,-0.79296875 -0.02461,-0.26366457 -0.06185,-0.52664805 -0.111607,-0.78738835 -0.04976,-0.2607404 -0.112035,-0.5192796 -0.186942,-0.7751117 -0.07491,-0.2558321 -0.162218,-0.5088727 -0.262277,-0.7578125 -0.100058,-0.2489397 -0.212956,-0.4937536 -0.338169,-0.7338169 -0.125213,-0.2400634 -0.263133,-0.4750382 -0.413505,-0.7042411 -0.150371,-0.2292029 -0.313306,-0.4527265 -0.488839,-0.6690848 -0.175533,-0.2163583 -0.363476,-0.4257025 -0.564174,-0.6272322 -0.200699,-0.20153 -0.409358,-0.3905375 -0.625,-0.5669642 -0.215642,-0.1764268 -0.438254,-0.3403108 -0.666853,-0.4916295 -0.228599,-0.1513187 -0.462996,-0.2900888 -0.702567,-0.4162947 -0.23957,-0.1262058 -0.484144,-0.2398716 -0.732701,-0.3409598 -0.248557,-0.1010881 -0.501138,-0.1896593 -0.756696,-0.265625 -0.255558,-0.075966 -0.51398,-0.1394518 -0.774554,-0.1902902 -0.260573,-0.050838 -0.523227,-0.089249 -0.78683,-0.1149553 -0.263603,-0.025706 -0.528321,-0.038493 -0.792969,-0.039063 z m -5.496652,2.0842634 c -0.117787,0.1046072 -0.238576,0.2038854 -0.351562,0.3164062 -0.170369,0.1696434 -0.325105,0.3534188 -0.479911,0.5368304 l -0.03795,-0.041295 0.01228,-0.2991071 -1.664621,1.6830357 -0.740513,0.7483259 -0.163505,0.1646206 0.993862,0.9938616 0.05469,0.1316964 0.863282,0.8766741 0.22154,-0.21875 0.750558,-0.7388393 1.69587,-1.6702009 -0.417968,-0.017299 c 0.007,-0.00895 0.01249,-0.01899 0.01953,-0.027902 0.147557,-0.1867701 0.306468,-0.3652016 0.475446,-0.5334821 0.110005,-0.1095514 0.226192,-0.2087066 0.342076,-0.3080357 z"
       style="fill:#d45500;stroke-linejoin:bevel"
       id="path531" />
    <path
       d="m 58.063852,-19.071458 -0.731585,0.737165 0.157367,0.158482 -0.988282,0.978237 0.856585,0.856585 0.945871,0.94587 0.984933,-0.97433 0.05524,0.0558 -0.976004,0.982701 0.693638,0.693639 0.251674,0.251674 0.757813,0.757812 2.020647,2.020648 1.010045,1.010044 3.535714,3.5357145 1.010045,1.0100447 1.010602,1.0106026 1.010045,1.0100447 0.575893,0.5758929 0.434152,0.4341517 0.116629,0.1166295 1.010603,1.0106027 0.152902,-0.1506697 1.011718,1.0005581 0.101005,0.0998884 0.91462,0.90457589 0.42634,-0.41964286 v -0.24441964 l 0.123325,0.12332589 0.07143,-0.0708705 5.58e-4,-0.33537947 -0.75,-0.75279015 -0.08984,-0.090402 -1.003906,-1.0083705 -0.704799,-0.7075893 -0.303013,-0.3046875 -0.12221,-0.1227679 -0.58259,-0.5848214 -0.425223,-0.4268973 -1.007812,-1.0117188 v -5.58e-4 l -1.008371,-1.0122768 -1.007812,-1.0122768 -3.52846,-3.5435271 -1.007813,-1.011718 -2.016741,-2.025112 -0.75279,-0.756138 -0.254464,-0.255581 h 5.58e-4 l 0.254464,0.255023 0.75279,0.756138 2.016741,2.025112 1.007813,1.011718 3.529018,3.542969 1.007812,1.0122768 1.008371,1.0122768 v 5.58e-4 l 1.007812,1.0117188 0.763393,-0.7594866 -1.010044,-1.0100447 -1.010603,-1.0106026 -1.010045,-1.0100447 0.06864,-0.068638 0.186942,-0.1858259 0.04743,-0.047433 -3.536273,-3.5357145 -0.04018,0.03962 -0.186942,0.186384 -0.07589,0.07533 -1.009487,-1.009486 0.07757,-0.07813 0.186942,-0.185826 h 5.58e-4 l 0.03739,-0.03795 1.010044,1.010044 0.709264,-0.707031 -1.009487,-1.009487 -2.021205,-2.021205 -0.709264,0.707031 -0.03348,0.03348 h -5.58e-4 l -0.186384,0.186384 -0.08259,0.08147 -0.751674,-0.751675 -0.257255,-0.257254 -0.703125,-0.703125 -0.04911,-0.04911 -0.960937,-0.960938 -0.842076,-0.842076 z m 16.542969,18.42075882 -5.58e-4,0.14174107 0.02176,0.0217634 0.23884,-0.24162946 -0.08984,-0.0898438 z m 0.170201,-0.16796875 0.776228,-0.76339287 0.05413,-0.053571 0.07868,0.079241 -0.05357,0.053571 -0.704241,0.71261159 -0.0279,0.0279018 v 0.0675223 0.375 l 0.297991,0.29910714 -0.0011,0.46428571 -0.193081,0.19196429 v 0.0909598 L 74.900348,0.8303276 v 0.0351563 l 0.169085,0.16685265 0.243303,-0.24218747 -5.58e-4,0.14174107 -0.171317,0.1707589 0.711496,0.7036831 0.579799,-0.577567 0.0011,-1.93080357 -5.58e-4,1.93080357 v 0.089844 h -5.58e-4 L 75.898674,1.852091 v 5.58e-4 l 0.118861,0.1171875 0.06864,0.067522 0.03181,0.031808 0.622768,-0.6300223 v 0.087053 l -0.583706,0.5814733 0.710938,0.703125 0.04632,0.046317 0.118861,0.1171875 0.06808,0.066964 0.750558,-0.750558 0.08705,-0.2087054 0.231027,-0.5524553 0.0017,-1.00111612 -0.116629,-0.11886161 -0.147322,-0.14955357 -0.04632,0.046317 v -0.093192 l -0.02958,-0.0301339 -0.909598,-0.9235491 -1.019531,-1.03515627 -0.03125,0.031808 -0.07645,-0.076451 -0.931362,-0.9352679 0.93192,0.9347098 0.03181,-0.03125 -0.926897,-0.9408482 -0.03683,0.03683 -0.07645,-0.077009 h -5.58e-4 l -1.003907,-1.0078125 v -5.58e-4 l -0.718192,-0.7204241 -0.185268,0.1875 0.71596,0.718192 1.003907,1.0083705 0.07924,0.079241 -0.05525,0.056362 -0.08036,-0.080357 -1.006138,-1.0061384 -0.716518,-0.7165178 -0.293527,-0.2935268 -0.126674,-0.1266741 -0.589286,-0.5892857 -0.75837,0.766183 0.582589,0.5848214 0.12221,0.1227679 0.303013,0.3046875 0.705357,0.7075893 1.003906,1.0078125 0.08984,0.090402 z m 3.074777,3.10937503 -0.04074,0.098214 -0.06306,0.1501116 -0.575335,0.5731026 0.936384,0.9263393 1.193081,1.1796875 0.239397,-0.2589285 c 0.03627,0.048131 0.06592,0.1011137 0.103236,0.1484375 0.202283,0.2565535 0.420409,0.5013253 0.651786,0.7327009 0.06574,0.065742 0.137394,0.1216543 0.204799,0.1847098 0.04829,0.04517 0.09766,0.088464 0.146764,0.1322544 0.09202,0.082056 0.179773,0.1711106 0.274553,0.2483259 0.21597,0.1759468 0.438538,0.3397019 0.667411,0.4905134 0.0042,0.00277 0.0086,0.00505 0.01283,0.00781 L 83.001352,5.5267562 C 82.904456,5.4744086 82.800764,5.4408563 82.706151,5.382783 82.540041,5.2808242 82.377604,5.169821 82.219544,5.0501937 82.130097,4.9824958 82.045487,4.905364 81.958942,4.8320017 L 82.185504,4.6032071 81.269209,3.6729615 80.836732,3.2337874 79.807714,2.1891446 78.909834,1.2778722 78.833942,1.2008633 78.351799,0.71090796 V 1.2014214 l -0.334264,0.8035714 -0.08594,0.2059152 z m -3.245536,-2.79966521 -0.07087,-0.0708705 -0.123325,0.12109375 v 0.18973215 l 0.194196,-0.19642858 z m 2.021763,-0.47488839 h 5.58e-4 l -5.58e-4,0.37332589 -0.0028,1.64732141 0.0022,-1.64787945 z m -1.905134,0.59151785 -0.0028,1.07924108 0.116072,0.11495535 0.06417,-0.063058 V -0.21487329 Z M 83.18941,5.6188321 81.802692,7.0217339 c 0.162129,0.099917 0.323773,0.2013803 0.491071,0.2890625 0.207353,0.1086755 0.420353,0.2036462 0.634487,0.2935267 l 1.122767,-1.1060267 0.0039,-0.5251116 c -0.103374,-0.032366 -0.210583,-0.04615 -0.3125,-0.084263 -0.190347,-0.071184 -0.36895,-0.1788336 -0.553014,-0.2700893 z"
       style="fill:#d45500;stroke-linejoin:bevel"
       id="path534" />
    <path
       d="m 47.654812,-27.248913 0.01618,-0.01618 c -0.06092,-0.166323 -0.124757,-0.331897 -0.174665,-0.501116 -0.07542,-0.255713 -0.138337,-0.514434 -0.188616,-0.775111 -0.05028,-0.260677 -0.08814,-0.523175 -0.113281,-0.786831 -0.02514,-0.263655 -0.03739,-0.52832 -0.03739,-0.792968 0,-0.264648 0.01225,-0.529314 0.03739,-0.792969 0.02514,-0.263655 0.063,-0.526711 0.113281,-0.787388 0.05028,-0.260678 0.113198,-0.519398 0.188616,-0.775112 0.07542,-0.255714 0.163393,-0.50849 0.263951,-0.757255 0.100558,-0.248764 0.213588,-0.493428 0.339286,-0.733258 0.125697,-0.239831 0.263783,-0.474773 0.41462,-0.703683 0.150837,-0.228911 0.314537,-0.451405 0.490513,-0.667411 0.175977,-0.216006 0.364733,-0.425559 0.565849,-0.626674 0.201115,-0.201116 0.41011,-0.389314 0.626116,-0.565291 0.216006,-0.175976 0.438499,-0.339676 0.66741,-0.490513 0.228912,-0.150837 0.463853,-0.288923 0.703684,-0.41462 0.23983,-0.125698 0.485052,-0.238728 0.733816,-0.339286 0.248765,-0.100558 0.501541,-0.188533 0.757255,-0.263951 0.255714,-0.07542 0.513876,-0.138337 0.774554,-0.188616 0.260677,-0.05028 0.523733,-0.08814 0.787388,-0.113281 0.263655,-0.02514 0.528321,-0.03739 0.792969,-0.03739 0.264648,0 0.529313,0.01225 0.792968,0.03739 0.263656,0.02514 0.526154,0.063 0.786831,0.113281 0.260677,0.05028 0.519398,0.113198 0.775111,0.188616 0.255714,0.07542 0.50849,0.163393 0.757255,0.263951 0.248765,0.100558 0.493428,0.213588 0.733259,0.339286 0.23983,0.125697 0.474772,0.263783 0.703683,0.41462 0.228911,0.150837 0.451963,0.314537 0.667969,0.490513 0.216006,0.175977 0.425,0.364175 0.626116,0.565291 0.195238,0.195238 0.378565,0.398243 0.550223,0.607701 0.171658,0.209457 0.331874,0.425474 0.479911,0.647321 0.148037,0.221847 0.284106,0.449512 0.408482,0.68192 0.03037,0.05676 0.05363,0.116231 0.08259,0.173549 -0.05643,-0.122697 -0.106895,-0.247405 -0.169643,-0.367746 -0.125188,-0.24009 -0.262592,-0.475577 -0.412946,-0.704799 -0.150352,-0.229222 -0.313317,-0.452158 -0.48884,-0.668527 -0.175522,-0.216369 -0.363476,-0.425702 -0.564174,-0.627232 -0.2007,-0.20153 -0.409905,-0.390547 -0.625558,-0.566964 -0.215652,-0.176417 -0.438234,-0.340329 -0.666852,-0.49163 -0.228619,-0.1513 -0.46297,-0.290114 -0.702567,-0.416294 -0.239598,-0.12618 -0.484111,-0.239904 -0.732701,-0.34096 -0.24859,-0.101056 -0.501101,-0.189696 -0.756697,-0.265625 -0.255595,-0.07593 -0.514497,-0.138934 -0.775111,-0.189732 -0.260614,-0.0508 -0.523184,-0.08929 -0.786831,-0.114956 -0.263646,-0.02566 -0.528277,-0.03854 -0.792968,-0.03906 -0.264692,-5.26e-4 -0.529219,0.01166 -0.792969,0.03627 -0.26375,0.02462 -0.526567,0.06129 -0.787389,0.111049 -0.260821,0.04976 -0.519763,0.112593 -0.775669,0.1875 -0.255907,0.07491 -0.508808,0.162218 -0.757813,0.262277 -0.249005,0.100059 -0.494258,0.212398 -0.734375,0.337612 -0.240116,0.125214 -0.475,0.263132 -0.704241,0.413504 -0.229241,0.150373 -0.452706,0.313305 -0.669085,0.48884 -0.216378,0.175534 -0.425702,0.364032 -0.627232,0.564732 -0.19564,0.194835 -0.379829,0.39693 -0.551897,0.606026 -0.172068,0.209097 -0.332014,0.424676 -0.480469,0.646206 -0.148455,0.221529 -0.285356,0.449227 -0.410156,0.681361 -0.1248,0.232135 -0.237623,0.468911 -0.338728,0.709822 -0.101104,0.240911 -0.19049,0.485958 -0.267857,0.733817 -0.07737,0.247859 -0.14284,0.498695 -0.196428,0.751674 -0.05359,0.252979 -0.09523,0.50768 -0.125,0.763951 -0.02977,0.256271 -0.04766,0.514029 -0.05357,0.771763 -0.0059,0.257735 4.2e-4,0.51551 0.01842,0.77288 0.01799,0.25737 0.04791,0.514353 0.08984,0.769531 0.04194,0.255177 0.09591,0.508888 0.16183,0.760045 0.06593,0.251156 0.143867,0.49967 0.233817,0.744977 0.0354,0.09653 0.08142,0.189731 0.120536,0.285157 z"
       style="fill:#d45500;stroke-linejoin:bevel"
       id="path526" />
    <path
       d="m 49.547111,-28.627262 h 0.03348 c -0.02954,-0.114948 -0.06221,-0.229264 -0.08482,-0.345424 -0.07378,-0.379067 -0.111049,-0.763775 -0.111049,-1.148437 0,-0.384663 0.03727,-0.769371 0.111049,-1.148438 0.03689,-0.189533 0.08305,-0.37758 0.138393,-0.563616 0.05534,-0.186036 0.119855,-0.370199 0.193638,-0.551339 0.07378,-0.18114 0.156655,-0.359754 0.248884,-0.534598 0.09223,-0.174845 0.193455,-0.346242 0.30413,-0.513393 0.110674,-0.167151 0.230812,-0.329665 0.359933,-0.487723 0.12912,-0.158058 0.267612,-0.31114 0.415178,-0.458706 0.147566,-0.147566 0.300638,-0.286048 0.458706,-0.415178 0.158067,-0.129131 0.321111,-0.24924 0.488281,-0.359933 0.167169,-0.110694 0.338522,-0.211875 0.513393,-0.30413 0.174871,-0.09226 0.352868,-0.175626 0.53404,-0.249442 0.181172,-0.07381 0.365266,-0.138264 0.551339,-0.193638 0.186073,-0.05537 0.3746,-0.101461 0.564174,-0.138393 0.379148,-0.07386 0.763689,-0.110962 1.148438,-0.111049 0.384748,-8.7e-5 0.769289,0.03679 1.148437,0.110491 0.189574,0.03685 0.378101,0.08309 0.564174,0.138393 0.186074,0.0553 0.370167,0.11933 0.55134,0.19308 0.181172,0.07375 0.359168,0.15724 0.53404,0.249442 0.174871,0.0922 0.346223,0.193475 0.513393,0.30413 0.16717,0.110654 0.330213,0.230265 0.488281,0.359375 0.158068,0.129109 0.311139,0.267613 0.458705,0.415178 0.143158,0.143158 0.277606,0.291545 0.40346,0.444755 0.125854,0.153209 0.24304,0.311244 0.351563,0.473214 0.184119,0.274797 0.330161,0.566606 0.464285,0.861607 -0.0055,-0.01378 -0.0089,-0.0281 -0.01451,-0.04185 -0.07337,-0.181292 -0.155933,-0.359563 -0.247767,-0.534598 -0.09183,-0.175035 -0.192709,-0.346571 -0.303014,-0.513951 -0.110305,-0.167379 -0.230036,-0.331072 -0.358817,-0.489397 -0.128781,-0.158325 -0.266802,-0.311393 -0.414062,-0.459264 -0.147262,-0.14787 -0.299788,-0.286845 -0.45759,-0.416294 -0.157801,-0.129449 -0.320782,-0.249467 -0.487723,-0.360491 -0.166941,-0.111025 -0.338154,-0.212649 -0.512835,-0.305246 -0.17468,-0.0926 -0.352462,-0.176392 -0.533482,-0.250558 -0.18102,-0.07416 -0.364822,-0.139023 -0.550781,-0.194754 -0.185959,-0.05573 -0.374119,-0.102216 -0.563616,-0.139509 -0.378995,-0.07459 -0.763689,-0.112464 -1.148438,-0.113281 -0.384748,-8.18e-4 -0.769695,0.03528 -1.148995,0.108258 -0.18965,0.03649 -0.377987,0.08233 -0.564174,0.137277 -0.186188,0.05494 -0.370015,0.119122 -0.55134,0.192523 -0.181324,0.0734 -0.360094,0.155907 -0.535156,0.247767 -0.175061,0.09186 -0.346552,0.193248 -0.513951,0.303572 -0.167398,0.110324 -0.330504,0.230026 -0.488839,0.358817 -0.158335,0.128791 -0.311951,0.266801 -0.459821,0.414062 -0.143453,0.142862 -0.278421,0.290697 -0.404576,0.443639 -0.126156,0.152942 -0.243291,0.310924 -0.352121,0.472656 -0.217659,0.323463 -0.400923,0.663071 -0.549107,1.013951 -0.148184,0.35088 -0.261363,0.71294 -0.339844,1.080915 -0.07848,0.367975 -0.12203,0.741881 -0.13058,1.11663 -0.0085,0.374748 0.01763,0.750452 0.07924,1.121651 0.04394,0.264744 0.127303,0.522809 0.207031,0.78125 z"
       style="fill:#d45500;stroke-linejoin:bevel"
       id="path525" />
    <path
       d="m 72.917647,1.3001937 -0.8125,0.8091518 -0.993862,0.9899553 1.390067,1.4107143 0.319197,0.3158482 1.011718,-1.0078125 0.790179,-0.7868303 z M 72.501352,4.5100151 71.09287,3.117716 l -0.420759,0.4190848 -0.573102,0.5703125 -0.439733,0.4380581 -2.024553,2.016183 -1.012277,1.0083705 -3.542411,3.5279021 -1.012834,1.00837 -2.024554,2.016183 -0.89788,0.894532 -0.114397,0.113839 -0.390067,0.388393 -1.012277,1.00837 0.151228,0.152902 -1.003348,1.010603 -0.145647,0.146763 -0.860492,0.86663 0.469867,0.474888 0.143415,5.58e-4 -0.07199,0.07199 0.129464,0.131138 h 0.27846 l -0.139509,0.140067 0.0067,0.0073 0.876116,-0.866071 0.135602,-0.134487 h 0.0017 l -0.136719,0.135045 -0.875558,0.866071 0.728236,0.736608 0.08371,0.08426 0.878348,-0.87779 v -5.58e-4 l -0.08259,-0.08147 0.132812,-0.132813 1.008371,-1.003906 0.664062,-0.661273 0.348773,-0.347656 0.399553,-0.397879 0.263393,-0.262277 0.748884,-0.745536 2.024553,-2.016183 1.012277,-1.00837 3.542969,-3.5284601 1.012277,-1.0078125 2.024553,-2.0161831 0.427456,-0.4257812 0.584821,-0.5825893 0.426339,-0.4246652 z M 74.670437,3.0803276 73.883049,3.867716 v 5.58e-4 l -1.009487,1.0094866 0.09542,0.094866 1.017299,-1.0022321 0.792411,-0.780134 -0.107701,-0.109933 z m 0.223214,0.2265625 -0.780134,0.7890625 -0.04297,-0.042969 -1.010045,1.0100446 0.04911,0.048549 h 0.03125 l -0.448102,0.4458705 -0.427456,0.4252233 -0.585379,0.5831473 -0.06083,-0.061384 0.522321,-0.5223215 0.487723,-0.4877232 -0.185825,-0.1863839 h -5.58e-4 l -0.583706,0.5842634 h -5.58e-4 l -0.425781,0.4257812 v 5.581e-4 l -2.020647,2.0200892 v 5.581e-4 l -1.010045,1.0094866 v 5.58e-4 l -3.535156,3.5351562 0.185826,0.186384 0.04799,0.04743 -1.012835,1.008371 -2.024554,2.016183 -0.74721,0.744419 0.142858,0.142299 0.0022,0.53125 0.297433,0.297991 1.012277,-1.00837 2.024553,-2.016183 1.012277,-1.008371 3.542969,-3.528459 1.012276,-1.007813 2.024554,-2.0167411 1.012277,-1.0083705 -0.275112,-0.2751116 0.546875,0.00446 0.894531,-0.890625 1.058594,-1.0541295 -0.702009,-0.7126116 z m -13.432477,14.2539059 -0.410157,-0.409598 -0.416294,0.414621 -0.330915,0.329241 -1.675224,1.668527 0.157366,0.15904 -0.128348,0.128906 -0.878348,0.884487 -0.128348,0.128906 -0.164621,-0.163505 -0.991071,0.986608 h -0.05804 l 1.023438,-1.012277 -0.0067,-0.0061 -0.735491,0.735491 h -0.37221 l 0.920759,-0.921317 -0.08426,-0.08426 -0.71038,-0.705357 -0.565848,0.563616 h -0.05469 l -0.947545,0.936942 0.946429,-0.936942 0.595424,-0.589286 -0.0022,-0.0022 h -0.0073 l -0.371094,-0.0011 h -0.169642 l -0.104911,0.104353 -0.709822,-0.0033 -0.126116,-5.59e-4 -0.10212,-0.102678 H 54.8172 l 0.01786,-0.01786 0.06306,-0.06306 -0.0798,-0.0798 H 54.6922 54.583384 l 0.05469,-0.05413 -0.272879,-0.273995 0.547991,0.0017 -0.209264,0.207031 -0.0022,0.0022 0.11663,0.117188 h 0.15904 l 0.118303,-0.11942 0.204799,-0.205915 0.323103,-0.325335 -0.190848,-0.189732 -0.19308,-0.191406 -0.02065,0.02065 -0.62779,-0.62779 -0.189174,-0.189174 -0.816964,-0.816965 -0.985491,-0.985491 -1.726563,1.707032 1.001116,1.001116 -0.05859,0.05915 -0.06362,0.06417 0.795759,0.804688 -0.120535,0.118304 0.207031,0.208147 -0.03795,0.03795 0.804688,0.799107 0.03404,-0.03348 0.116629,-0.114955 0.205358,0.208147 -0.114398,0.115514 -0.03237,0.03237 0.64788,0.643415 h 0.05748 0.223773 0.03292 l -0.01618,0.01618 0.143415,0.145647 -0.223214,-5.58e-4 -0.03292,-0.03348 h -5.58e-4 l -0.0279,0.0279 -0.156808,-0.155692 H 54.2095 l -0.621094,-0.621094 -0.208706,-0.208705 -0.801897,-0.801898 -0.704241,0.709264 0.795201,0.795759 0.214844,0.214844 0.681919,0.681919 0.160715,0.06696 -0.04743,0.04632 0.0106,0.0106 1.010045,0.417969 h 0.578683 l 0.15067,-0.148996 -0.06138,-0.06083 h 0.122768 l 0.07031,-0.06975 0.06976,0.07031 0.272321,5.59e-4 -0.136161,0.137276 0.07087,0.07143 h 0.671317 l 0.731585,-0.303014 1.040736,-1.040736 -0.08482,-0.0837 0.124442,-0.123884 0.887835,-0.884487 0.124442,-0.123326 1.293526,-1.288504 0.837054,-0.833706 z m -4.952567,5.273438 -0.277902,0.114955 -0.279576,5.58e-4 0.165179,0.166853 0.376116,5.58e-4 0.912388,-0.376674 1.069197,-1.058036 -0.0061,-0.0061 -0.739397,0.739955 -1.009487,0.417969 z m -4.756697,-4.131139 -0.996651,-1.007812 0.06082,-0.06027 -0.0084,-0.0089 -0.428572,-0.430246 -0.571428,-0.573103 -0.05748,0.05692 -0.0011,0.257254 0.44308,0.444755 0.429688,0.431362 1.008371,1.012834 z m -1.944196,-2.080357 0.05524,-0.05413 0.571987,0.571986 0.429129,0.42913 1.710938,-1.722656 -0.420201,-0.420201 -0.56529,-0.56529 -0.444755,-0.444755 -1.010044,-1.010044 -1.720424,1.713169 -0.05134,0.0519 1.007813,1.011719 z m -8.260045,-11.8030131 -1.720424,1.7131697 -0.03404,0.03404 -0.186384,0.1858258 -0.0837,0.083147 -0.70759,0.7047991 2.02009,2.0206473 1.010044,1.0094866 3.535715,3.53683 1.010044,1.010045 1.009487,1.009487 0.708147,-0.705358 -1.009486,-1.009486 0.06808,-0.06752 0.186942,-0.185826 -1.008371,-1.012277 -3.529018,-3.5435269 0.04018,-0.040179 3.536272,3.5362725 1.010045,1.010044 1.010045,1.010045 1.720424,-1.71317 L 49.12412,12.396176 48.114075,11.386131 44.577803,7.8498589 43.568317,6.8403723 Z m 22.308594,9.0753351 -2.020089,2.020089 h -5.58e-4 l -0.746652,0.746652 v 5.58e-4 l 0.186942,0.185268 0.746094,-0.746094 2.020647,-2.020089 z m -15.746094,1.527902 -0.708147,0.705357 1.010045,1.010044 1.010044,1.010603 0.322545,-0.320871 0.0039,-0.766741 -0.628348,-0.628348 z m 1.634487,2.405133 -0.0033,0.639509 0.836495,0.836496 1.081473,1.082031 0.710938,-0.703125 -1.797991,-1.797991 -0.441406,-0.441406 z m 10.334263,-0.15625 -0.662946,0.662947 v 5.58e-4 l -1.006697,1.006138 v 5.58e-4 l 0.185268,0.186942 1.006697,-1.006696 0.66462,-0.664621 -0.186384,-0.185826 z m -7.40346,1.709264 0.2048,0.204799 -0.06027,0.06138 -0.205357,-0.206473 z m 1.009487,1.009486 0.205915,0.205916 0.597098,0.597098 -0.128348,-5.58e-4 -0.531808,-0.533482 -0.205357,-0.207032 z m 1.21875,0.80413 -0.208147,0.206473 -0.122768,0.121094 0.12221,-0.121652 z m 3.761161,0.676897 -1.893973,1.906808 0.753348,0.761719 1.597656,1.616071 -0.0084,0.188617 -1.675223,-1.664063 -0.78683,-0.78125 -0.209264,-0.207589 -0.579799,-0.575893 -0.16741,-0.166295 h -0.114398 l -0.164062,0.165179 -0.421317,-5.58e-4 -0.522322,-0.0011 -0.62779,-0.262277 -0.382254,-0.159598 -0.08315,-0.08371 -0.09598,-0.03962 -0.08426,-0.0346 -0.618304,-0.618304 -0.945312,0.951451 -1.135045,1.143415 0.268415,0.24721 c 0.196595,-0.144616 0.393354,-0.289444 0.602121,-0.416295 l 1.084263,1.784599 -0.378906,0.375 0.0028,0.07143 c -0.04287,0.03179 -0.08969,0.05805 -0.131696,0.09096 -0.11611,0.09097 -0.222305,0.193678 -0.331473,0.292969 l -0.392858,0.388951 c -0.04044,0.04413 -0.08165,0.08781 -0.120535,0.132812 -0.03418,0.03955 -0.07305,0.07643 -0.106027,0.11663 -0.129445,0.157793 -0.250028,0.32079 -0.361049,0.487723 -0.111021,0.166933 -0.212652,0.338162 -0.305246,0.512835 -0.01522,0.02872 -0.02657,0.05871 -0.04129,0.08761 -0.07484,0.146908 -0.146734,0.294617 -0.208706,0.445871 -0.02202,0.05374 -0.03764,0.109285 -0.05804,0.163504 -0.0483,0.128399 -0.09809,0.256539 -0.137277,0.387277 -0.05573,0.185943 -0.102218,0.374135 -0.139509,0.563616 -0.07458,0.378962 -0.111905,0.763723 -0.112723,1.148438 -8.19e-4,0.384714 0.03529,0.769728 0.108259,1.148995 0.03649,0.189633 0.08178,0.378003 0.136718,0.564174 0.03842,0.13019 0.08704,0.257688 0.134487,0.385603 -0.0152,-0.03436 -0.0396,-0.0653 -0.05413,-0.09989 -0.147477,-0.351138 -0.259861,-0.713389 -0.337612,-1.081473 -0.07775,-0.368083 -0.120534,-0.741919 -0.128348,-1.116629 -0.0078,-0.374711 0.01914,-0.750075 0.08147,-1.121094 0.04445,-0.264571 0.128493,-0.522493 0.208705,-0.780692 0.03227,-0.103885 0.04563,-0.211745 0.08371,-0.314174 0.0616,-0.165721 0.157027,-0.320511 0.233817,-0.481585 0.04149,-0.08703 0.08074,-0.174602 0.126674,-0.260045 0.05219,-0.09709 0.08548,-0.200941 0.143415,-0.295758 0.101635,-0.166343 0.212155,-0.32884 0.331473,-0.487166 0.05266,-0.06987 0.113541,-0.135556 0.169643,-0.203683 h 5.58e-4 l 0.22433,0.223215 0.127232,-0.126116 c 0.06351,-0.06931 0.12185,-0.14166 0.189175,-0.208706 0.06433,-0.06407 0.136565,-0.119201 0.203683,-0.180245 l 0.460379,-0.455357 -0.02399,-0.561384 -1.283483,-1.18192 c -0.06677,0.04911 -0.138983,0.09065 -0.204241,0.141741 -0.257407,0.201532 -0.503057,0.418075 -0.734933,0.648996 -0.05019,0.04998 -0.09255,0.104734 -0.141183,0.155692 l 1.397322,1.286272 h 5.58e-4 c -0.0031,0.0034 -0.0058,0.0072 -0.0089,0.0106 0.003,-0.0034 0.0053,-0.0073 0.0084,-0.0106 l -1.39788,-1.285714 c -0.06051,0.06341 -0.117682,0.128772 -0.175781,0.193638 -0.0825,0.09211 -0.171805,0.180218 -0.249442,0.275112 -0.16477,0.201394 -0.316394,0.410014 -0.459263,0.622767 -0.0101,0.01504 -0.02238,0.029 -0.03237,0.04408 -0.04563,0.06894 -0.08221,0.142053 -0.125558,0.212054 -0.100387,0.162101 -0.2026,0.323764 -0.290737,0.491071 -0.09727,0.184643 -0.180486,0.374616 -0.262835,0.564732 -0.02449,0.05654 -0.05495,0.110998 -0.07813,0.167969 -0.10108,0.248537 -0.189665,0.50116 -0.265625,0.756697 -0.07596,0.255536 -0.139456,0.514001 -0.19029,0.774553 -0.05083,0.260552 -0.08925,0.523249 -0.114955,0.78683 -0.02571,0.263582 -0.03849,0.528343 -0.03906,0.792969 -5.7e-4,0.264626 0.01114,0.529284 0.03571,0.792969 0.02457,0.263685 0.06189,0.526071 0.111607,0.78683 0.04971,0.26076 0.112079,0.519822 0.186942,0.77567 0.06544,0.223642 0.144694,0.44392 0.229353,0.662388 4.26e-4,0.0011 6.89e-4,0.0022 0.0011,0.0033 0.08372,0.190023 0.169211,0.379767 0.267857,0.564174 0.124314,0.232388 0.260495,0.460091 0.408482,0.681919 0.147988,0.221829 0.307729,0.437882 0.479353,0.647322 0.171624,0.209439 0.355559,0.412479 0.550781,0.607701 0.201008,0.200987 0.409667,0.389405 0.625558,0.56529 h 5.58e-4 c 0.215888,0.175862 0.438625,0.339752 0.667411,0.490513 h 5.58e-4 c 0.228783,0.15074 0.46343,0.288982 0.703125,0.414621 h 5.58e-4 c 0.239693,0.125618 0.484081,0.239325 0.732701,0.339844 h 5.58e-4 c 0.248618,0.100499 0.501693,0.188551 0.757255,0.26395 0.255729,0.07545 0.514415,0.138301 0.775111,0.188616 0.260696,0.05032 0.523155,0.0881 0.786831,0.113282 h 5.58e-4 c 0.263492,0.02514 0.527927,0.0379 0.79241,0.03795 h 5.58e-4 c 0.264484,2.6e-5 0.529478,-0.01287 0.792969,-0.03795 0.263676,-0.0251 0.526135,-0.06249 0.786831,-0.112723 h 5.58e-4 c 0.260516,-0.05022 0.518997,-0.113293 0.774553,-0.188617 h 5.58e-4 c 0.255558,-0.07534 0.508084,-0.1635 0.756697,-0.26395 h 5.58e-4 c 0.248615,-0.100469 0.493572,-0.213705 0.733259,-0.339286 0.239837,-0.12566 0.474772,-0.263817 0.703683,-0.414621 0.22891,-0.150804 0.45197,-0.314005 0.667968,-0.489955 0.215998,-0.17595 0.425018,-0.364751 0.626116,-0.565848 0.201099,-0.201099 0.38934,-0.410119 0.565291,-0.626116 0.17595,-0.215998 0.339708,-0.439059 0.490513,-0.667969 0.150805,-0.228911 0.28896,-0.463846 0.414621,-0.703683 0.12566,-0.239837 0.238767,-0.484483 0.339285,-0.733259 0.100518,-0.248776 0.188574,-0.501525 0.263951,-0.757255 0.07538,-0.255729 0.138379,-0.514973 0.188616,-0.775669 0.05024,-0.260696 0.08762,-0.523155 0.112723,-0.786831 0.0251,-0.263675 0.03743,-0.528299 0.03739,-0.792968 -3.7e-5,-0.264669 -0.01222,-0.529293 -0.03739,-0.792969 -0.02517,-0.263676 -0.06297,-0.526693 -0.113281,-0.787388 -0.05031,-0.260696 -0.113178,-0.519383 -0.188616,-0.775112 -0.04386,-0.148688 -0.101103,-0.293812 -0.15346,-0.44029 -0.02356,-0.06592 -0.04391,-0.132687 -0.0692,-0.198103 -0.03667,-0.08348 -0.06645,-0.169195 -0.106027,-0.251674 -0.114009,-0.237611 -0.240232,-0.470554 -0.378348,-0.698661 -0.03956,-0.06534 -0.08736,-0.12694 -0.128906,-0.191406 l -1.611608,1.62221 c 0.03849,0.0833 0.08161,0.164849 0.116072,0.249442 0.03946,0.09684 0.06961,0.196304 0.103795,0.294643 0.0322,0.07714 0.08054,0.149011 0.109375,0.22712 0.0379,0.102658 0.05107,0.210625 0.08315,0.314732 h -0.03237 c -0.02329,-0.09512 -0.0423,-0.191021 -0.07031,-0.285156 -0.02577,-0.08659 -0.06008,-0.171084 -0.08984,-0.256696 C 61.135368,28.422161 61.04986,28.251606 60.9595,28.08256 l -0.04799,0.04799 -0.228795,-0.227121 0.166853,0.0011 0.01618,-0.01618 c -0.01934,-0.03323 -0.02963,-0.06973 -0.04967,-0.102678 -0.101279,-0.166574 -0.211373,-0.329699 -0.330357,-0.488281 -0.118983,-0.158583 -0.246653,-0.312755 -0.38337,-0.462054 l 0.08259,-0.07589 c -0.03081,-0.03759 -0.06692,-0.07236 -0.09877,-0.109375 l 1.593192,-1.576451 c -0.104956,-0.117717 -0.204651,-0.238677 -0.317523,-0.351562 -0.159961,-0.159961 -0.33418,-0.303737 -0.506138,-0.449777 l 0.236607,0.0106 -1.71317,-1.701451 z m 1.520089,4.887835 c 0.0021,0.0025 0.0046,0.0047 0.0067,0.0073 0.12912,0.158055 0.248691,0.320566 0.359375,0.487723 0.110684,0.167156 0.212441,0.339094 0.304688,0.513951 0.0154,0.02919 0.02641,0.0599 0.04129,0.08929 l 1.598772,-1.582031 c -0.07252,-0.107105 -0.138951,-0.21706 -0.217076,-0.321428 -0.162265,-0.216775 -0.336982,-0.427525 -0.523437,-0.631139 z m -5.639509,-3.200335 0.214286,0.217076 0.790178,0.799107 0.214286,0.217076 3.065848,3.100447 0.289621,0.0017 c -0.02619,-0.03005 -0.04378,-0.06416 -0.07087,-0.09375 l 0.0056,-0.130581 c 0.06197,0.07504 0.128753,0.147237 0.185268,0.224889 0.03768,0.05177 0.08807,0.09726 0.123325,0.150111 0.170666,0.255819 0.313065,0.524169 0.426898,0.800224 0.0271,0.06573 0.03695,0.135417 0.06083,0.202009 0.013,0.0288 0.02949,0.05639 0.04185,0.08538 0.02745,0.06438 0.06829,0.124519 0.09263,0.189732 0.101644,0.272339 0.176319,0.55194 0.223773,0.834264 0.04745,0.282323 0.06795,0.567853 0.06138,0.852678 -0.0066,0.284825 -0.0406,0.56893 -0.101005,0.848772 -0.06041,0.279843 -0.147638,0.555168 -0.261719,0.822545 -0.11408,0.267377 -0.254854,0.527126 -0.422433,0.774554 -0.167579,0.247427 -0.361684,0.48313 -0.582589,0.703125 -0.227974,0.227033 -0.472619,0.425339 -0.728795,0.595424 -0.256176,0.170085 -0.524495,0.312065 -0.800781,0.425223 -0.276285,0.113158 -0.56047,0.197652 -0.848772,0.253906 -0.288303,0.05625 -0.580541,0.08378 -0.872768,0.08315 -0.292227,-6.29e-4 -0.58471,-0.02956 -0.872768,-0.08705 -0.288058,-0.05749 -0.571859,-0.143486 -0.847656,-0.257813 -0.275798,-0.114326 -0.543663,-0.25687 -0.799107,-0.428013 -0.255445,-0.171143 -0.498448,-0.370835 -0.725447,-0.598772 -0.226984,-0.227925 -0.425923,-0.472088 -0.595982,-0.728237 -0.170059,-0.256149 -0.311514,-0.524505 -0.424665,-0.800781 -0.01896,-0.04631 -0.02504,-0.09556 -0.04241,-0.142299 -0.02218,-0.04765 -0.05546,-0.09131 -0.07589,-0.139509 -0.113428,-0.267495 -0.199789,-0.543285 -0.259486,-0.823103 -0.0597,-0.279818 -0.09295,-0.564091 -0.09877,-0.848772 -0.0058,-0.284681 0.01543,-0.570037 0.06362,-0.852121 0.04819,-0.282084 0.123668,-0.56112 0.226005,-0.833147 0.0246,-0.06539 0.06546,-0.12575 0.09319,-0.19029 0.08177,-0.190283 0.166072,-0.379696 0.275111,-0.560826 l 0.292969,-0.0011 0.459264,-0.454241 c 0.03662,-0.03895 0.06223,-0.0836 0.100446,-0.121652 0.06724,-0.06696 0.141828,-0.125888 0.21317,-0.188616 l 0.694196,-0.686384 2.09933,-2.076451 -0.795758,-0.790737 -0.217634,-0.215959 z m 6.974889,7.583706 c -0.01828,0.191606 -0.04574,0.382429 -0.08259,0.571986 -0.03685,0.189558 -0.0831,0.377559 -0.138393,0.563616 0.05531,-0.186056 0.100978,-0.374059 0.137835,-0.563616 0.03686,-0.189557 0.06473,-0.38038 0.08315,-0.571986 z m -0.414621,1.686942 c -0.07374,0.181156 -0.15669,0.359742 -0.248884,0.534598 -0.09219,0.174856 -0.193484,0.346237 -0.304129,0.513393 -0.110646,0.167155 -0.230835,0.330226 -0.359933,0.488281 -0.129099,0.158054 -0.267627,0.311152 -0.415179,0.458705 0.147577,-0.147553 0.285501,-0.300651 0.414621,-0.458705 0.129119,-0.158054 0.249269,-0.321126 0.359933,-0.488281 0.110664,-0.167155 0.211919,-0.338537 0.304129,-0.513393 0.09221,-0.174856 0.175685,-0.353442 0.249442,-0.534598 z m -10.867188,0.62779 c 0.08128,0.152607 0.169747,0.302498 0.2673,0.448102 0.108494,0.161937 0.225729,0.319471 0.351562,0.472657 0.125833,0.153185 0.260315,0.301609 0.40346,0.444754 h -5.58e-4 c -0.143146,-0.143145 -0.277627,-0.291568 -0.40346,-0.444754 -0.125833,-0.153186 -0.243068,-0.31072 -0.351562,-0.472657 -0.09753,-0.145567 -0.185588,-0.295476 -0.266742,-0.448102 z"
       style="fill:#d45500;stroke-linejoin:bevel"
       id="path530" />
    <path
       d="m 55.413741,-38.37782 c -0.264634,0 -0.529329,0.01225 -0.792969,0.03739 -0.263641,0.02514 -0.526726,0.06301 -0.787388,0.113281 -0.260663,0.05028 -0.518855,0.113202 -0.774554,0.188616 -0.2557,0.07541 -0.508504,0.163399 -0.757255,0.263951 -0.248751,0.100552 -0.493999,0.213595 -0.733816,0.339286 -0.239818,0.12569 -0.474785,0.263792 -0.703684,0.41462 -0.228898,0.150828 -0.451416,0.314547 -0.66741,0.490513 -0.215994,0.175967 -0.425012,0.364186 -0.626116,0.565291 -0.201105,0.201104 -0.389882,0.41068 -0.565849,0.626674 -0.175966,0.215994 -0.339685,0.438512 -0.490513,0.667411 -0.150828,0.228898 -0.28893,0.463865 -0.41462,0.703683 -0.125691,0.239817 -0.238734,0.484507 -0.339286,0.733258 -0.100552,0.248751 -0.188537,0.501555 -0.263951,0.757255 -0.07541,0.255699 -0.13834,0.514449 -0.188616,0.775112 -0.05028,0.260662 -0.08814,0.523747 -0.113281,0.787388 -0.02514,0.263641 -0.03739,0.528335 -0.03739,0.792969 0,0.264633 0.01225,0.529328 0.03739,0.792968 0.02514,0.263641 0.06301,0.526168 0.113281,0.786831 0.05028,0.260662 0.113202,0.519412 0.188616,0.775111 0.04991,0.16921 0.113751,0.334803 0.174665,0.501116 0.03114,0.08501 0.05527,0.171999 0.08929,0.256139 0.0495,0.122455 0.111261,0.240637 0.166853,0.361049 0.092,0.18128 0.185014,0.362419 0.291294,0.537946 0.03949,0.06521 0.08745,0.126509 0.128906,0.190849 0.02301,0.03571 0.04781,0.07059 0.07143,0.106026 l -0.02958,0.02902 c 0.04317,0.07004 0.07954,0.143069 0.125,0.212054 0.150827,0.228896 0.314548,0.451977 0.490513,0.667969 0.07719,0.09475 0.1663,0.182564 0.248326,0.274553 0.104966,0.117715 0.204636,0.238676 0.317523,0.351563 0.184931,0.18493 0.384504,0.353833 0.585937,0.520089 l -0.301339,-0.01283 1.655692,1.643973 0.817522,-0.197544 1.080915,-1.771206 -1.579799,-1.597656 -0.0173,0.387835 c -0.03955,-0.02951 -0.08284,-0.05379 -0.121652,-0.08426 -0.187299,-0.147049 -0.36598,-0.305152 -0.534598,-0.473773 -0.110079,-0.110079 -0.209895,-0.226617 -0.30971,-0.342634 -0.01896,-0.02204 -0.04001,-0.04305 -0.05859,-0.06529 -0.01473,-0.01762 -0.03238,-0.03359 -0.04687,-0.05134 -0.129113,-0.158048 -0.249265,-0.320583 -0.359933,-0.487723 -0.110668,-0.167141 -0.211907,-0.338559 -0.30413,-0.513393 -0.0153,-0.02902 -0.0265,-0.05952 -0.04129,-0.08873 -0.02337,-0.04612 -0.04319,-0.0935 -0.06529,-0.140067 -0.04823,-0.10164 -0.100099,-0.202202 -0.142299,-0.305803 -0.02279,-0.05596 -0.03868,-0.113729 -0.05971,-0.170201 -0.0415,-0.09645 -0.101637,-0.18661 -0.137834,-0.284599 -0.03785,-0.102471 -0.05109,-0.210258 -0.08315,-0.314174 -0.07972,-0.258426 -0.163093,-0.516521 -0.207031,-0.78125 -0.06161,-0.371179 -0.08779,-0.746924 -0.07924,-1.121651 0.0085,-0.374728 0.0521,-0.748675 0.13058,-1.11663 0.07848,-0.367955 0.191668,-0.730055 0.339844,-1.080915 0.148175,-0.350861 0.330903,-0.690506 0.548549,-1.013951 0.108823,-0.161722 0.226531,-0.319723 0.352679,-0.472656 0.126148,-0.152934 0.261131,-0.300785 0.404576,-0.443639 0.147862,-0.147252 0.301495,-0.285278 0.459821,-0.414062 0.158326,-0.128784 0.32145,-0.248499 0.488839,-0.358817 0.167389,-0.110318 0.338899,-0.211716 0.513951,-0.303572 0.175052,-0.09185 0.353842,-0.174371 0.535156,-0.247767 0.181315,-0.0734 0.365163,-0.137583 0.55134,-0.192523 0.186177,-0.05494 0.374534,-0.100789 0.564174,-0.137277 0.379279,-0.07297 0.764268,-0.109076 1.148995,-0.108258 0.384727,8.17e-4 0.769464,0.0387 1.148438,0.113281 0.189487,0.03729 0.377667,0.08378 0.563616,0.139509 0.185948,0.05573 0.369771,0.120593 0.550781,0.194754 0.18101,0.07416 0.358811,0.157967 0.533482,0.250558 0.174671,0.09259 0.345903,0.194228 0.512835,0.305246 0.166932,0.111018 0.329931,0.231049 0.487723,0.360491 0.157793,0.129441 0.310336,0.268433 0.45759,0.416294 0.147252,0.147863 0.285289,0.300948 0.414062,0.459264 0.128774,0.158316 0.248518,0.322027 0.358817,0.489397 0.110299,0.16737 0.211184,0.338926 0.303014,0.513951 0.09183,0.175026 0.174404,0.353316 0.247767,0.534598 0.0056,0.01375 0.0091,0.02807 0.01451,0.04185 0.02398,0.05275 0.06077,0.100738 0.08315,0.154018 0.147545,0.351213 0.259777,0.713298 0.337611,1.081473 0.07783,0.368175 0.121006,0.74238 0.128906,1.117188 0.0079,0.374807 -0.01922,0.750541 -0.08147,1.121651 -0.04439,0.264637 -0.12854,0.522435 -0.208705,0.780692 -0.03225,0.103907 -0.04565,0.211725 -0.0837,0.314174 -0.06593,0.177499 -0.167199,0.343504 -0.250558,0.515625 l -0.157925,-0.156808 c -0.01515,0.02976 -0.02673,0.06084 -0.04241,0.0904 -0.09262,0.174653 -0.194205,0.345914 -0.305246,0.512835 -0.06487,0.09752 -0.139781,0.190099 -0.210937,0.284598 -0.05064,0.06726 -0.09628,0.13696 -0.150112,0.202567 -0.03265,0.0398 -0.07109,0.07635 -0.104911,0.115514 -0.100272,0.116098 -0.200259,0.232521 -0.310826,0.342633 -0.168971,0.168275 -0.347446,0.326103 -0.534598,0.472657 -0.04555,0.03567 -0.09629,0.06443 -0.142857,0.09877 -0.0026,0.0019 -0.0052,0.0037 -0.0078,0.0056 l -0.387277,0.382813 1.115513,1.836495 c 0.220704,-0.134119 0.42881,-0.286642 0.635603,-0.440848 0.05512,-0.0411 0.115567,-0.07472 0.169643,-0.117187 h 5.58e-4 c 0.257066,-0.20188 0.501938,-0.419188 0.733817,-0.650112 0.0601,-0.05985 0.111219,-0.125143 0.169085,-0.186384 0.05124,-0.05422 0.100067,-0.109902 0.149553,-0.165178 0.08203,-0.09163 0.171104,-0.179051 0.248326,-0.273438 0.17302,-0.211477 0.333272,-0.43006 0.482143,-0.654018 0.0029,-0.0044 0.0066,-0.0084 0.0095,-0.01283 0.04566,-0.06898 0.08218,-0.14201 0.125559,-0.212053 0.100359,-0.162064 0.20262,-0.323247 0.290736,-0.490514 0.103784,-0.197007 0.193337,-0.399475 0.280134,-0.602678 0.01875,-0.04389 0.04287,-0.08587 0.06083,-0.130022 0.101083,-0.248544 0.189663,-0.501153 0.265625,-0.756697 0.07596,-0.255544 0.139454,-0.514552 0.19029,-0.775111 0.05084,-0.26056 0.08869,-0.522684 0.114397,-0.786273 0.02571,-0.263589 0.03905,-0.528335 0.03962,-0.792969 5.7e-4,-0.264633 -0.01114,-0.529275 -0.03571,-0.792968 -0.02457,-0.263693 -0.06189,-0.526622 -0.111607,-0.787389 -0.04972,-0.260766 -0.112077,-0.519814 -0.186942,-0.775669 -0.07487,-0.255856 -0.162257,-0.508854 -0.262277,-0.757813 -0.04731,-0.117746 -0.106666,-0.231221 -0.159598,-0.347098 -0.0029,-0.0064 -0.006,-0.01262 -0.0089,-0.01897 -0.02896,-0.05731 -0.05222,-0.116797 -0.08259,-0.173549 -0.124369,-0.232395 -0.260454,-0.460086 -0.408482,-0.68192 -0.148029,-0.221834 -0.308263,-0.437876 -0.479911,-0.647321 -0.171648,-0.209446 -0.354996,-0.412474 -0.550223,-0.607701 -0.201105,-0.201105 -0.410122,-0.389324 -0.626116,-0.565291 -0.215994,-0.175966 -0.439071,-0.339685 -0.667969,-0.490513 -0.228898,-0.150828 -0.463866,-0.28893 -0.703683,-0.41462 -0.239817,-0.125691 -0.484508,-0.238734 -0.733259,-0.339286 -0.248751,-0.100552 -0.501555,-0.188537 -0.757255,-0.263951 -0.255699,-0.07541 -0.514449,-0.13834 -0.775111,-0.188616 -0.260663,-0.05028 -0.52319,-0.08814 -0.786831,-0.113281 -0.26364,-0.02514 -0.528335,-0.03739 -0.792968,-0.03739 z m 4.164062,15.049665 h -5.58e-4 l -1.114955,-1.836495 -1.044085,1.032924 -0.924107,0.913504 -0.105469,0.104353 0.712054,0.719308 0.380022,0.158482 0.02567,0.02567 0.0011,-0.0011 h 5.58e-4 l 0.15346,0.152344 0.06696,0.0279 0.632812,0.632813 0.948103,-0.954799 1.166295,-1.174665 -0.261719,-0.240514 c -0.206837,0.154227 -0.41541,0.306158 -0.636161,0.44029 z m -2.47712,0.933594 -0.627791,-0.261719 -0.5452,-0.0017 -0.210938,0.208706 -0.117187,0.116071 -0.121094,0.119978 0.04464,0.04408 h -0.08929 l -0.06027,0.05915 -0.886719,0.877233 -1.040178,1.029017 0.03125,0.03125 0.731585,-0.731584 0.373325,-5.58e-4 -0.917968,0.91741 0.06975,0.06976 h 5.58e-4 l 0.708706,0.704241 0.591517,-0.589286 h 0.03627 l 0.947544,-0.936942 0.167969,-0.166295 0.11663,-0.115513 0.07422,-0.0731 0.112166,-0.111049 0.0017,-0.0017 0.710379,-0.702567 -0.709821,0.703125 0.185826,0.185268 h 0.04018 l 0.636161,0.636161 0.705915,-0.71038 0.09152,-0.09208 -0.556362,-0.558593 -0.31808,-0.132255 -0.07478,-0.03125 0.01507,-0.01563 0.175223,-0.173549 -0.119419,-0.120536 z m -0.722099,1.300781 -0.07366,0.07254 h 0.145647 z m -0.358259,0.354353 -0.946986,0.936942 -0.598214,0.591518 h 0.06083 l 0.265067,-0.265625 h 0.373326 l 0.11663,-0.117188 h 0.787946 0.04799 l 0.22154,0.222099 0.705358,-0.709822 -0.657366,-0.657366 z"
       style="fill:#d45500;stroke-linejoin:bevel"
       id="path527" />
    <path
       d="m 26.940526,-5.147351 0.0028,-0.3649553 c -0.258335,-0.080866 -0.516455,-0.1653537 -0.78125,-0.2103795 -0.3709,-0.063068 -0.746359,-0.091344 -1.121094,-0.084263 -0.374736,0.00708 -0.748376,0.04964 -1.11663,0.1266741 -0.368254,0.077034 -0.731134,0.188587 -1.082589,0.3353795 -0.351455,0.1467925 -0.691843,0.3288457 -1.016183,0.5452009 -0.16217,0.1081776 -0.320316,0.2249148 -0.473772,0.3504464 -0.09941,0.081319 -0.193198,0.1720094 -0.288505,0.2606027 0.15279,-0.1238936 0.309749,-0.2403718 0.470982,-0.3470982 0.16717,-0.1106558 0.338522,-0.2119269 0.513393,-0.3041295 0.174871,-0.092203 0.353426,-0.1751332 0.534598,-0.2488839 0.181173,-0.073751 0.364709,-0.1383381 0.550782,-0.1936384 0.186073,-0.0553 0.3746,-0.1015417 0.564174,-0.1383929 0.379147,-0.073702 0.763689,-0.1105773 1.148437,-0.110491 0.384749,8.62e-5 0.76929,0.037185 1.148438,0.1110491 0.189574,0.036932 0.378101,0.083018 0.564174,0.1383928 0.128992,0.038387 0.255514,0.087237 0.382254,0.1344866 z"
       style="fill:#d45500;stroke-linejoin:bevel"
       id="path528" />
    <path
       d="m 51.357379,-18.051927 -0.691406,0.690848 -0.319197,0.319755 0.185268,0.1875 0.06306,0.06306 0.321987,-0.320871 -0.06362,-0.06362 0.689174,-0.689174 z m -0.762277,1.261161 v 5.58e-4 l 0.702567,0.709821 0.328683,-0.327009 0.683594,-0.680803 -0.702567,-0.71038 -0.689732,0.6875 z m 1.71596,-0.296875 -0.684152,0.681361 -0.328125,0.327009 -0.121651,0.120536 -0.5625,0.560268 -0.450335,0.448103 -2.024554,2.016741 -1.011719,1.007254 -3.544642,3.5295761 v -5.581e-4 l 3.544084,-3.529576 1.011719,-1.007254 2.024554,-2.016741 0.450334,-0.448103 0.5625,-0.560268 -0.706473,-0.706473 -0.56529,0.563058 h -5.58e-4 l -0.06194,-0.06194 -0.44587,0.446428 -0.186384,-0.186383 -2.020648,2.020647 0.186384,0.186384 0.05636,0.05636 2.025111,-2.016183 -2.024553,2.016741 -1.011719,1.007255 v -5.58e-4 l -0.05469,-0.05413 -0.186384,-0.186384 -0.0625,-0.0625 -3.544085,3.5295764 0.0692,0.069754 0.186384,0.186384 0.04799,0.047433 -1.011718,1.0078125 -2.024554,2.016183 -0.676339,0.6735492 -0.336496,0.3348214 -0.03962,-0.039063 -0.672991,0.6735491 0.03739,0.037946 0.701451,0.7120536 -0.01841,0.018415 -0.71038,-0.703125 -1.012277,1.0083705 -0.765625,0.7622768 -0.243303,0.2421875 -0.03404,-0.033482 -0.767299,0.7672991 0.03181,0.032366 -0.243304,0.2421875 -0.595424,0.593192 v -0.0608259 l 0.563616,-0.5636161 -0.103795,-0.1026785 -0.753906,0.7427455 -0.0028,1.69084821 0.0022,-1.69029018 -0.194196,0.19140625 v -0.15234375 l 0.194754,-0.19475446 v -0.00558 -0.16852681 h 5.58e-4 l 0.583705,-0.5814732 -0.710937,-0.702567 -0.63058,0.6277902 0.04185,-0.1010044 0.557478,-0.5574777 -0.103795,-0.1032366 -0.978794,0.9642857 -0.1875,0.452567 -0.0011,0.94977674 0.114955,0.11662946 0.179129,0.18191965 0.03404,0.0340402 0.06585,0.0675223 -0.09989,0.0987723 V 0.664591 L 32.920437,0.52005975 32.886397,0.55409993 32.772,0.66682314 V 0.54293921 l -0.193639,0.1953125 V 0.85767135 L 32.148674,1.2806624 31.90258,1.5228499 31.851799,1.4731847 30.886955,0.51838564 27.822223,3.5373589 l -0.0033,0.4095982 c -0.05196,0.037655 -0.09764,0.088108 -0.15067,0.1233259 -0.256185,0.1701442 -0.524487,0.3119694 -0.800781,0.4252232 -0.0074,0.00305 -0.01544,0.00369 -0.02288,0.0067 -0.269278,0.1087174 -0.545338,0.1929143 -0.825893,0.2477679 -0.288311,0.05637 -0.58109,0.084212 -0.873326,0.083705 C 24.85309,4.8331693 24.561183,4.8045566 24.273116,4.7471803 23.985048,4.689804 23.700708,4.603607 23.424901,4.4893678 23.149095,4.3751286 22.881805,4.2324497 22.626352,4.0613544 22.3709,3.8902591 22.127354,3.6910846 21.900348,3.4631401 21.673356,3.235208 21.474988,2.990556 21.304924,2.7343455 21.134859,2.4781349 20.992855,2.2099406 20.8797,1.9335642 20.766546,1.6571878 20.682055,1.3726634 20.625794,1.0842339 c -0.05626,-0.28842964 -0.08432,-0.58095575 -0.0837,-0.87332594 6.15e-4,-0.29237019 0.03014,-0.5845697 0.08761,-0.87276786 0.05748,-0.28819816 0.142939,-0.5723008 0.257255,-0.8482143 0.114316,-0.2759135 0.25743,-0.5435909 0.428571,-0.7991071 0.171142,-0.2555163 0.370823,-0.4989982 0.598773,-0.7260045 0.220949,-0.2200376 0.457288,-0.4132402 0.705357,-0.5797991 0.248069,-0.1665589 0.507939,-0.3066963 0.775669,-0.4196429 0.267731,-0.1129465 0.543168,-0.1986121 0.823103,-0.2578125 0.279935,-0.0592 0.56409,-0.091778 0.848772,-0.097098 0.284683,-0.00532 0.570149,0.016597 0.852121,0.06529 0.281972,0.048693 0.560785,0.1242801 0.832589,0.2271205 0.06655,0.025179 0.127979,0.066994 0.193639,0.095424 l -0.01395,-0.013951 0.0089,-1.1316965 c -0.126733,-0.047247 -0.253269,-0.096101 -0.382254,-0.1344866 -0.186063,-0.055371 -0.374611,-0.1014629 -0.564174,-0.1383928 -0.379127,-0.07386 -0.763711,-0.1109629 -1.148438,-0.1110491 -0.384727,-8.63e-5 -0.769311,0.036793 -1.148437,0.110491 -0.189563,0.036849 -0.378112,0.083096 -0.564174,0.1383929 -0.186063,0.055297 -0.369619,0.1198917 -0.550782,0.1936384 -0.181162,0.073747 -0.359736,0.1566865 -0.534598,0.2488839 -0.174861,0.092197 -0.346232,0.1934799 -0.513393,0.3041295 -0.161224,0.1067204 -0.3182,0.2232116 -0.470982,0.3470982 0.0953,-0.088588 0.189102,-0.1792884 0.288505,-0.2606027 0.153447,-0.1255241 0.311612,-0.2422753 0.473772,-0.3504464 0.32432,-0.2163422 0.664749,-0.3984172 1.016183,-0.5452009 0.351434,-0.1467837 0.714357,-0.2583496 1.082589,-0.3353795 0.368232,-0.07703 0.741917,-0.1195935 1.11663,-0.1266741 0.374713,-0.00708 0.750216,0.021199 1.121094,0.084263 0.264779,0.045023 0.522931,0.1295188 0.78125,0.2103795 l -0.0028,0.3649553 c 0.05608,0.020907 0.113512,0.037067 0.169085,0.05971 0.150839,0.061457 0.298203,0.1327917 0.444755,0.2070313 l -0.04632,0.046875 0.0067,1.1127232 0.0017,0.2991072 3.575893,3.63002228 0.05413,0.0552455 0.94866,0.96372768 0.483259,-0.48883929 V 0.18133207 -0.319784 -0.70315454 l 0.310826,-0.74999996 0.107143,-0.2594866 0.07366,-0.073661 0.0033,-0.00781 0.77567,-0.7845982 -0.0798,-0.078683 -2.09654,-2.0736607 -0.237723,0.2566964 c -0.03362,-0.044628 -0.0609,-0.093904 -0.09542,-0.1378348 -0.201612,-0.2565782 -0.418156,-0.5013034 -0.649554,-0.7327009 -0.06926,-0.069263 -0.144851,-0.1284718 -0.215959,-0.1947545 -0.04483,-0.041787 -0.09062,-0.082165 -0.136161,-0.1227678 -0.09195,-0.081986 -0.179848,-0.1711702 -0.274554,-0.2483259 -0.216002,-0.1759753 -0.438495,-0.3391093 -0.66741,-0.4899554 -0.0089,-0.00587 -0.01842,-0.010355 -0.02734,-0.016183 -0.0604,-0.039464 -0.124064,-0.071653 -0.185268,-0.109375 -0.162182,-0.099957 -0.323716,-0.2018994 -0.491072,-0.2896206 -0.212134,-0.1111924 -0.429777,-0.2086916 -0.648995,-0.3002232 -0.02863,-0.011954 -0.05608,-0.027444 -0.08482,-0.039063 -0.248783,-0.100584 -0.501519,-0.1885 -0.757255,-0.2639509 -0.255735,-0.075451 -0.514409,-0.1382998 -0.775112,-0.188616 -0.260702,-0.050316 -0.523706,-0.088101 -0.787388,-0.1132813 -0.263682,-0.02518 -0.528293,-0.037903 -0.792969,-0.037946 -0.264675,-4.31e-5 -0.529286,0.012293 -0.792968,0.037388 -0.263683,0.025095 -0.526687,0.063046 -0.787389,0.1132812 -0.260702,0.050235 -0.519376,0.1126813 -0.775111,0.1880581 -0.255736,0.075377 -0.508473,0.1634315 -0.757255,0.2639509 -0.248782,0.1005193 -0.493416,0.2136223 -0.733259,0.3392857 -0.239842,0.1256633 -0.474767,0.2638118 -0.703683,0.4146205 -0.224847,0.1481281 -0.443844,0.309196 -0.65625,0.4815848 -0.105676,0.094919 -0.214682,0.1844093 -0.316406,0.2857143 -0.201519,0.2006876 -0.390548,0.4093707 -0.566964,0.625 -0.176417,0.2156293 -0.34032,0.438267 -0.49163,0.6668527 -0.15131,0.2285856 -0.290096,0.4630102 -0.416295,0.702567 -0.126198,0.2395567 -0.239877,0.4841584 -0.340959,0.7327009 -0.101083,0.2485424 -0.189106,0.5011534 -0.265067,0.7566964 -0.07596,0.2555429 -0.139455,0.5145535 -0.190291,0.7751116 -0.05084,0.2605581 -0.08925,0.52324239 -0.114955,0.78683035 -0.0257,0.26358795 -0.03905,0.52777821 -0.03962,0.79241071 -5.7e-4,0.2646325 0.0117,0.52927701 0.03627,0.79296875 0.02457,0.26369179 0.06133,0.52662269 0.111049,0.78738839 0.04971,0.2607657 0.112077,0.5198153 0.186942,0.7756696 0.07487,0.2558544 0.162814,0.5088549 0.262835,0.7578125 0.100021,0.2489577 0.212431,0.4937413 0.337611,0.733817 0.125181,0.2400757 0.26316,0.4755907 0.413505,0.7047991 0.150345,0.2292084 0.313325,0.452171 0.488839,0.6685268 0.175514,0.2163558 0.363486,0.4257142 0.564174,0.6272322 0.200688,0.2015183 0.409361,0.3905578 0.625,0.5669642 0.21564,0.1764065 0.438249,0.3403384 0.666853,0.4916295 0.228604,0.1512911 0.462984,0.2901224 0.702567,0.4162946 0.239583,0.1261723 0.484126,0.2399099 0.732701,0.3409599 h 5.58e-4 c 0.248417,0.1009671 0.501284,0.1897506 0.756696,0.265625 0.25558,0.075924 0.513955,0.1389372 0.774554,0.1897321 0.260598,0.050795 0.5232,0.089293 0.78683,0.1149554 0.263631,0.025662 0.528293,0.038536 0.792969,0.039063 0.264676,5.26e-4 0.529792,-0.011101 0.793527,-0.035714 0.263734,-0.024614 0.526582,-0.061851 0.787388,-0.1116072 0.260806,-0.049757 0.51922,-0.1120387 0.775112,-0.1869419 0.131689,-0.038547 0.260078,-0.089837 0.390067,-0.1350447 0.122598,-0.042638 0.246893,-0.079227 0.367745,-0.1277901 h 5.58e-4 c 0.248828,-0.1000059 0.493867,-0.2124839 0.733817,-0.3376117 0.09826,-0.051238 0.191971,-0.1136336 0.288505,-0.1690848 0.06838,-0.039279 0.136783,-0.078584 0.204241,-0.1199777 0.07002,-0.042966 0.143081,-0.079199 0.212053,-0.1244419 0.22923,-0.1503653 0.452159,-0.3133134 0.668527,-0.4888393 0.02492,-0.020219 0.04781,-0.044179 0.07255,-0.064732 0.06957,-0.0578 0.135066,-0.1225952 0.203125,-0.1830358 L 30.819991,6.5797696 33.16095,4.2131401 33.883607,3.4826714 34.016419,3.3481847 32.99633,2.3280955 32.862959,2.0061089 l 1.237724,1.2566964 0.0067,-0.00725 0.185826,-0.1875 0.02511,-0.025112 0.569754,-0.5764509 0.132254,-0.1333705 -1.014508,-1.0145089 V 1.1299928 l 1.099888,1.1166294 0.0067,-0.0067 -0.797991,-0.8013393 5.58e-4,-0.3727678 0.982701,0.9866071 0.02455,-0.024554 0.06975,0.069755 0.94029,0.9402902 1.580916,-1.5976563 -0.925224,-0.91517853 -0.470424,0.46372768 V 1.2014214 l -0.107143,-0.1071429 -0.07366,0.072545 -5.58e-4,0.2767858 -0.138951,-0.139509 -0.0798,-0.079799 -0.08984,0.090402 v 0.00391 l -0.0022,-0.00223 0.0022,-0.00167 V 1.133899 l -0.283482,-0.28404015 0.0011,-0.37388392 0.0011,-0.46205358 0.177455,-0.17633928 v -0.0641741 l 0.103795,-0.10323661 v -0.094308 l -0.138951,-0.13783482 -0.259487,0.25892857 v -0.17354911 l 0.172433,-0.17131696 0.234375,-0.2327009 0.186384,-0.1852679 -0.0011,0.37332594 0.08426,0.0853795 0.03237,0.0334821 0.0022,-0.002232 v 0.003906 l 0.177455,0.18024554 0.597657,0.60658482 0.190848,-0.19252232 -0.07589,-0.07645089 0.599888,-0.59765625 0.220982,-0.21986608 0.787947,-0.78459817 1.011719,-1.0078125 0.0056,-0.00558 0.688058,-0.6852679 0.324219,-0.3225446 0.688616,-0.6858259 2.024553,-2.016183 1.011719,-1.0078125 3.544643,-3.5295757 1.011161,-1.007255 2.025111,-2.016183 0.566407,-0.564732 0.446428,-0.444196 0.115514,-0.115514 1.012276,-1.007812 -0.121093,-0.12221 z m -15.970982,16.51562485 -0.0022,-0.001674 -0.117188,0.11662946 -5.58e-4,0.22321429 0.118862,0.11774553 z m 0.53125,-3.03013395 -0.756696,0.765067 0.01339,0.013951 0.761161,-0.7611607 z m -7.142299,0.390067 0.448103,0.4547991 -0.193081,0.1177455 c -0.120256,-0.1970006 -0.25267,-0.3854729 -0.393973,-0.5669643 z m 2.368303,2.40401785 0.06697,0.0686384 -0.258929,0.25502232 -0.06473,-0.0636161 z m 5.90625,2.33761165 -1.601562,1.578125 -0.02734,0.026228 -0.1875,0.1852679 1.003906,1.0078125 0.1875,-0.1852679 0.02902,-0.02846 0.726005,0.7260045 1.59096,-1.6077009 -0.709822,-0.7020089 z m -0.8125,2.797433 -0.01841,0.017857 -0.998326,-1.0133928 -0.07813,0.077567 -0.12779,0.1255581 -0.583705,0.5747768 1.241071,1.2416294 1.421875,0.00949 -0.21596,-0.2159598 0.0865,-0.087054 z m -1.824218,-2.2047991 -0.1875,0.1847098 0.941406,0.9453125 0.185268,-0.1875 z m -0.194755,0.1914062 -0.08594,0.08538 -0.133371,0.1311384 -0.578125,0.5691964 0.953683,0.9542411 0.575893,-0.5820313 0.126116,-0.1283482 0.07813,-0.078683 z m -7.362165,3.2466518 0.04297,0.043527 0.06752,0.068638 c -0.07874,0.047078 -0.164134,0.075707 -0.24442,0.1188616 l -0.04799,-0.047433 0.06473,-0.065848 z"
       style="fill:#d45500;stroke-linejoin:bevel"
       id="path529" />
    <path
       d="M 44.130817,0.23211332 41.854589,2.4988544 42.864075,3.508341 44.884723,5.5289883 47.161509,3.2616892 45.140861,1.2415999 Z"
       style="fill:#d45500;stroke-linejoin:bevel"
       id="path552" />
    <path
       d="m 53.727915,9.8280955 -2.276786,2.2678575 1.010045,1.010044 1.010044,1.010045 2.277344,-2.267857 -1.010603,-1.010045 z"
       style="fill:#d45500;stroke-linejoin:bevel"
       id="path550" />
    <path
       d="M 65.369656,-1.7656545 64.357379,-0.757284 65.367424,0.25276064 63.342312,2.2689437 64.352357,3.2789883 66.37691,1.2628053 67.389745,0.25443475 66.379701,-0.7556099 Z"
       style="fill:#d45500;stroke-linejoin:bevel"
       id="path549" />
    <path
       d="m 55.773674,-11.362195 -1.012835,1.008371 1.009486,1.0094864 2.020648,2.0206473 1.012835,-1.0083705 -2.021206,-2.0212052 z"
       style="fill:#d45500;stroke-linejoin:bevel"
       id="path547" />
    <path
       d="m 38.511397,7.8437205 -2.700893,2.6897325 c -0.145772,0.145172 -0.283038,0.295672 -0.41183,0.451451 -0.128793,0.155778 -0.249375,0.316631 -0.361049,0.481584 -0.223349,0.329907 -0.412359,0.676583 -0.566407,1.034599 -0.154047,0.358015 -0.272944,0.727448 -0.356584,1.10212 -0.08364,0.374672 -0.131846,0.754612 -0.143974,1.134487 -0.01213,0.379875 0.01205,0.759745 0.07254,1.13337 0.03025,0.186813 0.06914,0.372143 0.117745,0.555246 0.04861,0.183102 0.106442,0.363891 0.17355,0.541852 0.06711,0.177961 0.143607,0.353166 0.229352,0.524554 0.08575,0.171388 0.181193,0.338849 0.285715,0.502232 0.104521,0.163383 0.218081,0.322616 0.341517,0.476563 0.123437,0.153946 0.256507,0.302792 0.398996,0.44587 l 1.411272,1.416853 c 0.14249,0.143078 0.290751,0.276589 0.444197,0.40067 0.153446,0.12408 0.311919,0.239094 0.474888,0.344308 0.162969,0.105214 0.330615,0.20091 0.501674,0.287388 0.171059,0.08648 0.345723,0.163712 0.523438,0.231585 0.177715,0.06787 0.358357,0.126382 0.541294,0.175781 0.182938,0.0494 0.367961,0.08948 0.554688,0.120536 0.373453,0.06211 0.753363,0.08748 1.13337,0.07701 0.380008,-0.01047 0.760509,-0.05694 1.135603,-0.138951 0.375095,-0.08201 0.744524,-0.199617 1.103237,-0.352121 0.358713,-0.152504 0.706525,-0.339994 1.037388,-0.561942 0.165432,-0.110974 0.32694,-0.23012 0.483259,-0.358259 0.156319,-0.128138 0.307353,-0.264984 0.453125,-0.410156 l 2.720424,-2.708705 -1.010045,-1.010045 -2.71875,2.707589 c -0.226037,0.225107 -0.468751,0.423255 -0.723214,0.594866 -0.254462,0.171612 -0.520912,0.316418 -0.795201,0.434152 -0.274289,0.117734 -0.556559,0.208289 -0.842076,0.271764 -0.285516,0.06347 -0.574018,0.09999 -0.862165,0.108817 -0.288146,0.0088 -0.575523,-0.0096 -0.857701,-0.0558 -0.282177,-0.04619 -0.559398,-0.120499 -0.827009,-0.222098 -0.26761,-0.101599 -0.525644,-0.231005 -0.770089,-0.388393 -0.06111,-0.03935 -0.121455,-0.08053 -0.180803,-0.123326 0.05937,0.04274 0.11965,0.08352 0.180803,0.122768 0.244611,0.156988 0.502673,0.285636 0.770647,0.386719 0.267975,0.101082 0.545519,0.174746 0.828125,0.220424 0.282606,0.04568 0.570313,0.06336 0.858817,0.05413 0.288505,-0.0092 0.578169,-0.04574 0.86384,-0.109375 0.28567,-0.06363 0.567414,-0.154226 0.841518,-0.271763 0.274103,-0.117537 0.540281,-0.262094 0.794084,-0.433036 0.253804,-0.170942 0.495653,-0.36823 0.720424,-0.592076 l 2.717634,-2.706473 -1.009486,-1.009487 -1.010045,-1.010044 -2.713728,2.702567 c -0.103399,0.102973 -0.208687,0.192037 -0.314732,0.267857 -0.106045,0.07582 -0.213041,0.13835 -0.319754,0.188616 -0.106713,0.05027 -0.213235,0.08809 -0.318639,0.114397 -0.105403,0.02631 -0.209825,0.04125 -0.311942,0.0452 -0.102116,0.004 -0.202256,-0.0027 -0.299107,-0.01953 -0.09685,-0.0168 -0.190525,-0.04384 -0.280134,-0.0798 -0.08961,-0.03596 -0.174634,-0.08097 -0.255022,-0.134487 -0.08039,-0.05352 -0.155699,-0.115234 -0.224888,-0.18471 L 38.62691,15.892828 c -0.06919,-0.06948 -0.130953,-0.145446 -0.184151,-0.226005 -0.0532,-0.08056 -0.09776,-0.165905 -0.133371,-0.25558 -0.03561,-0.08968 -0.06226,-0.183309 -0.07868,-0.280134 -0.01642,-0.09683 -0.02278,-0.197101 -0.01841,-0.299107 0.0044,-0.102007 0.01957,-0.206163 0.04632,-0.311384 0.02675,-0.105222 0.06534,-0.211054 0.116071,-0.317523 0.05073,-0.106468 0.113422,-0.213447 0.189732,-0.319196 0.07631,-0.105749 0.166043,-0.210554 0.269532,-0.313616 l 2.707589,-2.696429 -1.010045,-1.0094862 z m -2.84654,5.5217635 c -0.03692,0.104612 -0.06997,0.210205 -0.09933,0.316406 -0.05872,0.212402 -0.102353,0.427454 -0.13058,0.643415 -0.02823,0.215962 -0.04099,0.433154 -0.0385,0.648996 0.0025,0.215842 0.02014,0.430257 0.05357,0.642299 0.03343,0.212042 0.08273,0.421553 0.147321,0.626116 0.06459,0.204563 0.144546,0.404253 0.240514,0.597656 0.09597,0.193403 0.207812,0.380588 0.335379,0.559152 0.127567,0.178564 0.270859,0.348884 0.430246,0.508929 l 1.410156,1.417968 -1.41183,-1.417968 c -0.159668,-0.160328 -0.30358,-0.33083 -0.431362,-0.509487 -0.127782,-0.178657 -0.239833,-0.365791 -0.335937,-0.559152 -0.09611,-0.193361 -0.176435,-0.393215 -0.241072,-0.597656 -0.06464,-0.204441 -0.113385,-0.413663 -0.146763,-0.625558 -0.03338,-0.211895 -0.05124,-0.426574 -0.05357,-0.642299 -0.0023,-0.215725 0.01111,-0.432507 0.03962,-0.648438 0.02851,-0.21593 0.07199,-0.430904 0.131138,-0.643415 0.02957,-0.106255 0.06379,-0.212264 0.101005,-0.316964 z"
       style="fill:#d45500;stroke-linejoin:bevel"
       id="path546" />
    <path
       d="m 54.744656,4.7834526 -2.024554,2.016183 -1.012835,1.0083706 1.010045,1.0100446 1.010045,1.0094866 1.012277,-1.0083705 2.024553,-2.016183 L 55.7547,5.7934973 Z"
       style="fill:#d45500;stroke-linejoin:bevel"
       id="path541" />
    <path
       d="M 50.198339,0.23713564 48.173785,2.2533187 47.161509,3.2616892 48.170995,4.2717339 49.18383,3.2633633 51.208384,1.2471803 Z"
       style="fill:#d45500;stroke-linejoin:bevel"
       id="path540" />
    <path
       d="m 62.336732,-2.7779313 -2.024554,2.01674105 -1.012277,1.0078125 -3.543526,3.52845985 1.010602,1.0100446 1.010045,1.0100447 3.542969,-3.5284599 1.012276,-1.0078125 2.024554,-2.016183 -1.010045,-1.0106027 z"
       style="fill:#d45500;stroke-linejoin:bevel"
       id="path537" />
    <path
       d="m 57.790973,-7.3236903 -2.025112,2.0161831 -1.011719,1.0078125 -3.543526,3.52901784 1.009486,1.01004464 3.544085,-3.52901788 1.011719,-1.0078125 2.024553,-2.016183 z"
       style="fill:#d45500;stroke-linejoin:bevel"
       id="path536" />
    <path
       d="m 63.107937,-16.651815 2.020647,2.020647 2.559152,-2.548549 c 0.164087,-0.16341 0.337397,-0.306845 0.517299,-0.430246 0.179903,-0.1234 0.365993,-0.226891 0.556362,-0.310825 0.190369,-0.08393 0.38487,-0.148069 0.580357,-0.193081 0.195487,-0.04501 0.392355,-0.07093 0.587612,-0.07757 0.195257,-0.0066 0.389004,0.0056 0.578683,0.03683 0.189678,0.0312 0.37482,0.08106 0.553571,0.149553 0.178752,0.06849 0.350917,0.155927 0.513393,0.261161 0.162476,0.105234 0.315621,0.228543 0.456473,0.369978 l 1.411273,1.416852 c 0.140852,0.141435 0.263703,0.295201 0.368303,0.458148 0.1046,0.162946 0.190556,0.335411 0.258371,0.514508 0.06781,0.179098 0.117382,0.364801 0.147879,0.554688 0.0305,0.189887 0.04195,0.383927 0.0346,0.579241 -0.0074,0.195314 -0.0335,0.391673 -0.07924,0.587054 -0.04574,0.19538 -0.110658,0.389713 -0.195312,0.579799 -0.08465,0.190085 -0.188954,0.376375 -0.313058,0.555803 -0.124105,0.179429 -0.268391,0.352215 -0.432478,0.515625 l -2.547433,2.5368306 1.010603,1.0106027 v 0 l 1.010044,1.0100447 2.543527,-2.5329242 c 0.145772,-0.1451722 0.283048,-0.2962201 0.41183,-0.4520088 0.128783,-0.155789 0.248836,-0.316613 0.360492,-0.481585 0.223311,-0.329945 0.412423,-0.676517 0.566406,-1.034598 0.153983,-0.358081 0.273025,-0.727367 0.356585,-1.102121 0.08356,-0.374753 0.131373,-0.755082 0.143415,-1.135044 0.01204,-0.379962 -0.01197,-0.759664 -0.07254,-1.133371 -0.03029,-0.186853 -0.06966,-0.372105 -0.118303,-0.555245 -0.04864,-0.18314 -0.10641,-0.364417 -0.17355,-0.542411 -0.06714,-0.177994 -0.143581,-0.352581 -0.229352,-0.523996 -0.08577,-0.171414 -0.180616,-0.339388 -0.285156,-0.50279 -0.104541,-0.163402 -0.21863,-0.322605 -0.342076,-0.476562 -0.123447,-0.153957 -0.256507,-0.302792 -0.398996,-0.445871 l -1.411272,-1.416853 c -0.14249,-0.143078 -0.29076,-0.276598 -0.444197,-0.400669 -0.153436,-0.124071 -0.311937,-0.239113 -0.474888,-0.344308 -0.162951,-0.105195 -0.330641,-0.200937 -0.501674,-0.287389 -0.171033,-0.08645 -0.345755,-0.163185 -0.523438,-0.231026 -0.177683,-0.06784 -0.357835,-0.126419 -0.540736,-0.175782 -0.182901,-0.04936 -0.368559,-0.08952 -0.555246,-0.120535 -0.373373,-0.06203 -0.75289,-0.08757 -1.132812,-0.07701 -0.379923,0.01056 -0.760031,0.05686 -1.135045,0.138951 -0.375014,0.08209 -0.744588,0.200109 -1.103237,0.352678 -0.358648,0.152569 -0.706562,0.339956 -1.037388,0.561942 -0.165413,0.110993 -0.326392,0.230668 -0.482701,0.358817 -0.156309,0.128149 -0.30791,0.264426 -0.453683,0.409598 z m 6.794643,-2.951451 c 0.288092,-0.009 0.575155,0.0092 0.857143,0.05525 0.281988,0.04602 0.558508,0.119543 0.825893,0.220983 0.267384,0.101439 0.525249,0.230549 0.769531,0.387834 0.244282,0.157286 0.475377,0.342801 0.688058,0.556362 -0.212514,-0.213394 -0.443482,-0.398329 -0.688058,-0.555246 -0.244576,-0.156916 -0.502736,-0.285755 -0.770647,-0.386718 -0.267912,-0.100964 -0.545604,-0.174333 -0.828125,-0.219866 -0.282521,-0.04553 -0.570412,-0.0635 -0.858817,-0.05413 -0.288405,0.0094 -0.57716,0.04618 -0.862724,0.109933 -0.285563,0.06375 -0.567521,0.154709 -0.841517,0.272322 -0.273996,0.117612 -0.540382,0.262089 -0.794085,0.433035 -0.253703,0.170947 -0.494624,0.368319 -0.719308,0.592076 0.226088,-0.225157 0.46817,-0.423625 0.722656,-0.595424 0.254486,-0.171799 0.520914,-0.316728 0.795201,-0.43471 0.274286,-0.117982 0.556587,-0.209174 0.842076,-0.272879 0.285488,-0.0637 0.574631,-0.09985 0.862723,-0.108817 z"
       style="fill:#d45500;stroke-linejoin:bevel"
       id="path533" />
  </g>
</svg>
