<?xml version="1.0" encoding="UTF-8" standalone="no"?>
<!-- Created with Inkscape (http://www.inkscape.org/) -->

<svg
   width="811.26276"
   height="450.71378"
   viewBox="0 0 162.25255 90.142752"
   version="1.1"
   id="svg1"
   inkscape:version="1.3 (0e150ed6c4, 2023-07-21)"
   sodipodi:docname="phone on new grid.svg"
   xmlns:inkscape="http://www.inkscape.org/namespaces/inkscape"
   xmlns:sodipodi="http://sodipodi.sourceforge.net/DTD/sodipodi-0.dtd"
   xmlns:xlink="http://www.w3.org/1999/xlink"
   xmlns="http://www.w3.org/2000/svg"
   xmlns:svg="http://www.w3.org/2000/svg">
  <sodipodi:namedview
     id="namedview1"
     pagecolor="#ffffff"
     bordercolor="#2c2a19"
     borderopacity="1"
     inkscape:showpageshadow="2"
     inkscape:pageopacity="0"
     inkscape:pagecheckerboard="0"
     inkscape:deskcolor="#5a5a5a"
     inkscape:document-units="px"
     showgrid="false"
     guidecolor="#7602cb"
     guideopacity="1"
     guidehicolor="#443ea6"
     guidehiopacity="1"
     showguides="true"
     inkscape:zoom="0.32"
     inkscape:cx="1225"
     inkscape:cy="2203.125"
     inkscape:current-layer="layer1"
     labelstyle="below">
    <inkscape:page
       x="6.3928014e-06"
       y="-1.0279533e-06"
       width="162.25255"
       height="90.142754"
       id="page5"
       margin="0 0 0 2.9418094"
       bleed="0"
       inkscape:export-filename="..\Assets\random_png\3d phonepng.png"
       inkscape:export-xdpi="96"
       inkscape:export-ydpi="96" />
    <inkscape:grid
       type="axonomgrid"
       id="grid2"
       units="px"
       originx="-1579.5319"
       originy="-512.135"
       spacingx="0"
       spacingy="2"
       empcolor="#4d4d4c"
       empopacity="0.38823529"
       color="#0072e5"
       opacity="0.25098039"
       empspacing="5"
       dotted="false"
       gridanglex="30"
       gridanglez="30"
       visible="false" />
  </sodipodi:namedview>
  <defs
     id="defs1">
    <inkscape:path-effect
       effect="fillet_chamfer"
       id="path-effect420"
       is_visible="true"
       lpeversion="1"
       nodesatellites_param="F,0,1,1,0,0.92535939,0,1 @ F,0,0,1,0,0,0,1 @ F,0,0,1,0,0.92535939,0,1 @ F,0,1,1,0,0.92535939,0,1 @ F,0,1,1,0,0.92535939,0,1"
       radius="0"
       unit="px"
       method="auto"
       mode="F"
       chamfer_steps="1"
       flexible="false"
       use_knot_distance="true"
       apply_no_radius="true"
       apply_with_radius="true"
       only_selected="false"
       hide_knots="false" />
    <inkscape:path-effect
       effect="fillet_chamfer"
       id="path-effect418"
       is_visible="true"
       lpeversion="1"
       nodesatellites_param="F,0,1,1,0,0.90250226,0,1 @ F,0,1,1,0,0.90250226,0,1 @ F,0,0,1,0,0.90250226,0,1 @ F,0,1,1,0,0.90250226,0,1"
       radius="0"
       unit="px"
       method="auto"
       mode="F"
       chamfer_steps="1"
       flexible="false"
       use_knot_distance="true"
       apply_no_radius="true"
       apply_with_radius="true"
       only_selected="false"
       hide_knots="false" />
    <inkscape:path-effect
       effect="fillet_chamfer"
       id="path-effect416"
       is_visible="true"
       lpeversion="1"
       nodesatellites_param="F,0,0,1,0,7.8595802,0,1 @ F,0,0,1,0,7.7807572,0,1 @ F,0,0,1,0,7.7807572,0,1 @ F,0,0,1,0,0,0,1 @ F,0,0,1,0,0,0,1 @ F,0,0,1,0,4.8464925,0,1 @ F,0,0,1,0,4.8464925,0,1 @ F,0,0,1,0,0.83562285,0,1 @ F,0,0,1,0,8.3975788,0,1 @ F,0,0,1,0,1.3659648,0,1"
       radius="0"
       unit="px"
       method="auto"
       mode="F"
       chamfer_steps="1"
       flexible="false"
       use_knot_distance="true"
       apply_no_radius="true"
       apply_with_radius="true"
       only_selected="false"
       hide_knots="false" />
    <color-profile
       name="sRGB-IEC61966-2.1"
       xlink:href="file:///C:/WINDOWS/system32/spool/drivers/color/sRGB%20Color%20Space%20Profile.icm"
       id="color-profile3" />
    <color-profile
       name="Agfa-:-Swop-Standard"
       xlink:href="file:///C:/WINDOWS/system32/spool/drivers/color/RSWOP.icm"
       id="color-profile4" />
    <inkscape:path-effect
       effect="fillet_chamfer"
       id="path-effect14"
       is_visible="true"
       lpeversion="1"
       nodesatellites_param="F,0,1,1,0,0.92535939,0,1 @ F,0,0,1,0,0,0,1 @ F,0,0,1,0,0.92535939,0,1 @ F,0,1,1,0,0.92535939,0,1 @ F,0,1,1,0,0.92535939,0,1"
       radius="0"
       unit="px"
       method="auto"
       mode="F"
       chamfer_steps="1"
       flexible="false"
       use_knot_distance="true"
       apply_no_radius="true"
       apply_with_radius="true"
       only_selected="false"
       hide_knots="false" />
    <inkscape:path-effect
       effect="fillet_chamfer"
       id="path-effect13"
       is_visible="true"
       lpeversion="1"
       nodesatellites_param="F,0,1,1,0,0.90250226,0,1 @ F,0,1,1,0,0.90250226,0,1 @ F,0,0,1,0,0.90250226,0,1 @ F,0,1,1,0,0.90250226,0,1"
       radius="0"
       unit="px"
       method="auto"
       mode="F"
       chamfer_steps="1"
       flexible="false"
       use_knot_distance="true"
       apply_no_radius="true"
       apply_with_radius="true"
       only_selected="false"
       hide_knots="false" />
  </defs>
  <g
     inkscape:label="Layer 1"
     inkscape:groupmode="layer"
     id="layer1"
     transform="translate(-289.57017,4.3186546)">
    <g
       id="g675"
       transform="translate(319.41613,49.956284)"
       sodipodi:insensitive="true">
      <path
         id="path3"
         style="fill:#cccccc;fill-opacity:0.894118;stroke:none;stroke-width:0.1882;stroke-linejoin:bevel;stroke-opacity:0.972158"
         d="m 72.35716,-43.536667 c -2.463823,0.0064 -4.926481,0.555734 -6.803516,1.645313 l -14.067187,8.165625 c 0.940773,-0.618189 -4.967429,2.98523 -8.992578,5.289062 l -10.526172,6.02461 c -0.40053,0.229246 -1.04788,0.604883 -1.445703,0.838671 -12.834539,7.542598 -14.615603,8.445432 -20.216015,11.5984377 -0.01609,0.00906 -0.0287,0.019363 -0.04219,0.029297 l -0.3320308,-0.2417967 -3.906e-4,-3.91e-4 v -3.91e-4 l -0.3542969,-1.536718 0.6546873,-1.624219 -0.3964841,0.435156 -0.3730469,0.691016 -0.1582031,0.793359 0.012891,0.03555 -0.7179443,2.7754437 c -0.049812,0.1369112 -0.022739,0.081102 -0.039213,0.5273715 l 0.00716,0.2757006 0.011719,0.080078 c -0.01374,0.1574564 -0.00945,0.3148933 0.013672,0.4714844 v 7.813e-4 l 7.813e-4,0.00156 c 0.023006,0.1545 0.030869,0.1530717 0.091554,0.3057869 l 0.042821,0.2203849 0.1070312,0.1636719 c 0.080603,0.1530009 0.1747799,0.3025166 0.2933594,0.4492187 l 0.1871094,0.2863282 0.00117,0.00234 -0.00117,-0.00234 0.1898435,0.2906266 1.2504416,0.721943 0.481588,0.2780516 2.1e-5,5.4e-6 1.099979,0.5921818 v 0 C 23.145381,2.3297333 27.809755,5.0329164 41.627864,13.032473 43.944316,14.373514 47.76115,14.445795 50.09564,13.13712 56.362998,9.6237382 63.218289,5.5901392 71.939191,0.65122346 78.232131,-2.9126616 84.268349,-6.5408724 92.098957,-11.114792 l 13.454793,-7.764254 c 0.69232,-0.399511 1.16257,-0.887276 1.5956,-1.365043 v 0.0016 l 0.003,-0.0043 c 0.41694,-0.460646 0.70958,-0.948503 0.8875,-1.447266 l 0.0133,-0.02148 0.002,-0.01406 c 0.52863,-1.340246 -0.002,0.01406 0.49498,-1.181417 0.52257,-1.568146 0.23895,-0.695184 0.42313,-1.317344 l 0.0712,-0.377257 c 0.0787,-0.89429 0.10299,-0.962791 0.10299,-0.962791 0.008,-0.04733 -0.0111,-0.02541 -0.005,-0.110783 0.004,-0.05673 -0.0136,-0.148929 -0.0137,-0.155487 -7e-4,-0.04506 0.006,-0.140316 0.006,-0.140316 l -0.0923,-0.916501 -0.17469,-0.989275 -0.002,-0.0059 -0.78359,3.184375 -0.24883,0.315235 c -0.43511,-0.857386 -1.21736,-1.667736 -2.38398,-2.342969 -2.5177,-1.457226 -5.671948,-3.281255 -9.685159,-5.595313 -3.722652,-2.146514 -9.744926,-5.64955 -13.467187,-7.796484 -1.037153,-0.598209 -2.101286,-1.211193 -3.129688,-1.802734 -1.881325,-1.082151 -4.346333,-1.618468 -6.810156,-1.61211 z m 35.75436,19.244165 -0.0729,0.08865 c 0.0749,-0.08143 -0.12816,0.148398 -0.0444,0.05391 z"
         transform="translate(-1.2000004,-1.1999995)"
         sodipodi:nodetypes="ccccccsccccccccccccccccccccccccccccccssscsccccccccccssccccccsssssccccc" />
      <path
         style="fill:#b3b3b3;fill-opacity:1;stroke:none;stroke-width:0.1882;stroke-linejoin:bevel;stroke-opacity:0.972158"
         d="m 75.005473,0.62613335 -0.240484,0.1526153 a 0.54610422,0.54610422 88.778253 0 0 0.01992,0.93423945 l 7.326516,4.2225338 a 1.5189844,1.5189844 179.23979 0 0 1.551633,-0.020589 l 0.123306,-0.075493 a 0.54455627,0.54455627 89.629341 0 0 -0.006,-0.9324913 l -7.23712,-4.30315259 a 1.468852,1.468852 179.1678 0 0 -1.537742,0.0223366 z"
         id="path13"
         inkscape:path-effect="#path-effect13"
         inkscape:original-d="M 75.767482,0.14255 74.00298,1.262332 82.893362,6.386178 84.556068,5.368196 Z"
         transform="translate(4.0624509,-36.528764)" />
      <path
         style="fill:#b3b3b3;fill-opacity:1;stroke:none;stroke-width:0.1882;stroke-linejoin:bevel;stroke-opacity:0.972158"
         d="m 22.875837,35.721744 5.527138,3.142523 1.741311,0.990044 a 1.6150837,1.6150837 179.81046 0 0 1.605813,-0.0053 l 0.12928,-0.07464 a 0.530183,0.530183 89.810463 0 0 -0.003,-0.920048 l -7.268449,-4.132567 a 1.6150838,1.6150838 179.81046 0 0 -1.605813,0.0053 l -0.12928,0.07464 a 0.53018299,0.53018299 89.810463 0 0 0.003,0.920048 z"
         id="path2"
         sodipodi:nodetypes="cccccc"
         inkscape:path-effect="#path-effect14"
         inkscape:original-d="m 22.071409,35.264376 6.331566,3.599891 2.545739,1.447412 1.73205,-1 -8.877305,-5.047303 z"
         transform="translate(4.0624509,-36.528764)" />
      <path
         style="mix-blend-mode:normal;fill:#fdfdfd;fill-opacity:1;stroke:none;stroke-width:0.1882;stroke-linejoin:bevel;stroke-opacity:0.972158"
         d="m 16.932957,-11.700989 c 15.960142,-9.060957 31.066026,-17.934644 48.551596,-28.001248 l 32.813171,18.980268 c 0,0 -32.316425,18.7083958 -48.477983,28.0123823 z"
         id="path28"
         sodipodi:nodetypes="ccccc" />
      <path
         style="fill:#cccccc;fill-opacity:0.894118;stroke:none;stroke-width:0.1882;stroke-linejoin:bevel;stroke-opacity:0.6"
         d="m 79.167285,-41.924371 c 1.028407,0.591546 2.092387,1.204191 3.129544,1.802404 3.722281,2.146944 9.744599,5.649924 13.467271,7.796452 4.013231,2.314068 7.16763,4.138448 9.68533,5.59568 3.71912,2.152614 3.72733,5.649854 0.0158,7.815624 l -13.366305,7.799612 C 84.241785,-6.5848511 78.232042,-2.9128284 71.939072,0.65107458 63.218125,5.5900149 56.327618,9.5970723 50.06023,13.110468 47.725725,14.419153 43.944363,14.373371 41.627896,13.032325 26.839816,4.4712303 22.866855,2.1654504 10.281029,-5.1482297 c -2.314271,-1.3448335 -2.3074054,-3.5134911 0.02499,-4.8266207 5.600442,-3.1530206 7.381508,-4.0560876 20.216111,-11.5987206 0.397823,-0.233793 1.044956,-0.609272 1.445491,-0.838522 l 10.52607,-6.024704 c 4.025169,-2.303847 9.933532,-5.907216 8.992754,-5.289027 l 14.067127,-8.165684 c 3.754082,-2.179169 9.851039,-2.197174 13.613709,-0.03286 z"
         id="path412"
         sodipodi:nodetypes="ccccscccccc"
         inkscape:path-effect="#path-effect416"
         inkscape:original-d="m 72.350942,-45.837242 c 0,0 13.7836,7.894105 16.670541,9.628778 13.388717,7.701154 19.630787,11.342722 23.164047,13.372779 L 92.098945,-11.114599 C 84.241785,-6.5848511 78.232042,-2.9128284 71.939072,0.65107458 61.213439,6.7253304 53.256493,11.390038 45.822284,15.46041 25.737301,3.833905 23.45191,2.5057478 6.0906984,-7.5833143 15.793132,-13.126194 14.94534,-12.412987 31.242392,-21.996999 l 18.539516,-10.611282 c 0,0 2.209103,-1.449093 1.704541,-1.117543 z"
         transform="translate(-0.40000002,-5.2)" />
      <path
         style="fill:#b3b3b3;fill-opacity:1;stroke:#000000;stroke-width:0.1882;stroke-linejoin:bevel;stroke-opacity:0.6"
         d="m 75.005473,0.62613335 -0.240484,0.1526153 a 0.54610422,0.54610422 88.778253 0 0 0.01992,0.93423945 l 7.326516,4.2225338 a 1.5189844,1.5189844 179.23979 0 0 1.551633,-0.020589 l 0.123306,-0.075493 a 0.54455627,0.54455627 89.629341 0 0 -0.006,-0.9324913 l -7.23712,-4.30315259 a 1.468852,1.468852 179.1678 0 0 -1.537742,0.0223366 z"
         id="path413"
         inkscape:path-effect="#path-effect418"
         inkscape:original-d="M 75.767482,0.14255 74.00298,1.262332 82.893362,6.386178 84.556068,5.368196 Z"
         transform="translate(4.8624509,-40.528764)" />
      <path
         style="fill:#b3b3b3;fill-opacity:1;stroke:#000000;stroke-width:0.1882;stroke-linejoin:bevel;stroke-opacity:0.6"
         d="m 22.875837,35.721744 5.527138,3.142523 1.741311,0.990044 a 1.6150837,1.6150837 179.81046 0 0 1.605813,-0.0053 l 0.12928,-0.07464 a 0.530183,0.530183 89.810463 0 0 -0.003,-0.920048 l -7.268449,-4.132567 a 1.6150838,1.6150838 179.81046 0 0 -1.605813,0.0053 l -0.12928,0.07464 a 0.53018299,0.53018299 89.810463 0 0 0.003,0.920048 z"
         id="path414"
         sodipodi:nodetypes="cccccc"
         inkscape:path-effect="#path-effect420"
         inkscape:original-d="m 22.071409,35.264376 6.331566,3.599891 2.545739,1.447412 1.73205,-1 -8.877305,-5.047303 z"
         transform="translate(4.8624509,-40.528764)" />
      <path
         style="mix-blend-mode:normal;fill:#4d4d4d;fill-opacity:1;stroke:#000000;stroke-width:0.1882;stroke-linejoin:bevel;stroke-opacity:0.6"
         d="M 17.960444,-16.307622 C 33.920586,-25.368579 49.02647,-34.242266 66.51204,-44.30887 l 32.813171,18.980268 c 0,0 -32.316425,18.7083958 -48.477983,28.0123821 z"
         id="path415"
         sodipodi:nodetypes="ccccc" />
    </g>
  </g>
</svg>
