<?xml version="1.0" encoding="UTF-8" standalone="no"?>
<!-- Created with Inkscape (http://www.inkscape.org/) -->

<svg
   width="576.13214"
   height="386.90302"
   viewBox="0 0 115.22643 77.380601"
   version="1.1"
   id="svg1"
   inkscape:version="1.3 (0e150ed6c4, 2023-07-21)"
   sodipodi:docname="phone on new grid.svg"
   xmlns:inkscape="http://www.inkscape.org/namespaces/inkscape"
   xmlns:sodipodi="http://sodipodi.sourceforge.net/DTD/sodipodi-0.dtd"
   xmlns:xlink="http://www.w3.org/1999/xlink"
   xmlns="http://www.w3.org/2000/svg"
   xmlns:svg="http://www.w3.org/2000/svg">
  <sodipodi:namedview
     id="namedview1"
     pagecolor="#ffffff"
     bordercolor="#2c2a19"
     borderopacity="1"
     inkscape:showpageshadow="2"
     inkscape:pageopacity="0"
     inkscape:pagecheckerboard="0"
     inkscape:deskcolor="#5a5a5a"
     inkscape:document-units="px"
     showgrid="false"
     guidecolor="#7602cb"
     guideopacity="1"
     guidehicolor="#443ea6"
     guidehiopacity="1"
     showguides="true"
     inkscape:zoom="0.32"
     inkscape:cx="1225"
     inkscape:cy="2203.125"
     inkscape:current-layer="layer1"
     labelstyle="below">
    <inkscape:page
       x="-1.995601e-06"
       y="1.6849496e-06"
       width="115.22643"
       height="77.3806"
       id="page3"
       margin="0"
       bleed="0"
       inkscape:export-filename="..\Assets\random_png\chat bubble and phone combo.png"
       inkscape:export-xdpi="96"
       inkscape:export-ydpi="96" />
    <inkscape:grid
       type="axonomgrid"
       id="grid2"
       units="px"
       originx="-1711.2181"
       originy="-108.55115"
       spacingx="0"
       spacingy="2"
       empcolor="#4d4d4c"
       empopacity="0.38823529"
       color="#0072e5"
       opacity="0.25098039"
       empspacing="5"
       dotted="false"
       gridanglex="30"
       gridanglez="30"
       visible="false" />
  </sodipodi:namedview>
  <defs
     id="defs1">
    <inkscape:path-effect
       effect="fillet_chamfer"
       id="path-effect706"
       is_visible="true"
       lpeversion="1"
       nodesatellites_param="F,0,1,1,0,0.92535939,0,1 @ F,0,0,1,0,0,0,1 @ F,0,0,1,0,0.92535939,0,1 @ F,0,1,1,0,0.92535939,0,1 @ F,0,1,1,0,0.92535939,0,1"
       radius="0"
       unit="px"
       method="auto"
       mode="F"
       chamfer_steps="1"
       flexible="false"
       use_knot_distance="true"
       apply_no_radius="true"
       apply_with_radius="true"
       only_selected="false"
       hide_knots="false" />
    <inkscape:path-effect
       effect="fillet_chamfer"
       id="path-effect704"
       is_visible="true"
       lpeversion="1"
       nodesatellites_param="F,0,1,1,0,0.90250226,0,1 @ F,0,1,1,0,0.90250226,0,1 @ F,0,0,1,0,0.90250226,0,1 @ F,0,1,1,0,0.90250226,0,1"
       radius="0"
       unit="px"
       method="auto"
       mode="F"
       chamfer_steps="1"
       flexible="false"
       use_knot_distance="true"
       apply_no_radius="true"
       apply_with_radius="true"
       only_selected="false"
       hide_knots="false" />
    <inkscape:path-effect
       effect="fillet_chamfer"
       id="path-effect702"
       is_visible="true"
       lpeversion="1"
       nodesatellites_param="F,0,0,1,0,7.8595802,0,1 @ F,0,0,1,0,7.7807572,0,1 @ F,0,0,1,0,7.7807572,0,1 @ F,0,0,1,0,0,0,1 @ F,0,0,1,0,0,0,1 @ F,0,0,1,0,4.8464925,0,1 @ F,0,0,1,0,4.8464925,0,1 @ F,0,0,1,0,0.83562285,0,1 @ F,0,0,1,0,8.3975788,0,1 @ F,0,0,1,0,1.3659648,0,1"
       radius="0"
       unit="px"
       method="auto"
       mode="F"
       chamfer_steps="1"
       flexible="false"
       use_knot_distance="true"
       apply_no_radius="true"
       apply_with_radius="true"
       only_selected="false"
       hide_knots="false" />
    <inkscape:path-effect
       effect="fillet_chamfer"
       id="path-effect700"
       is_visible="true"
       lpeversion="1"
       nodesatellites_param="F,0,1,1,0,0.92535939,0,1 @ F,0,0,1,0,0,0,1 @ F,0,0,1,0,0.92535939,0,1 @ F,0,1,1,0,0.92535939,0,1 @ F,0,1,1,0,0.92535939,0,1"
       radius="0"
       unit="px"
       method="auto"
       mode="F"
       chamfer_steps="1"
       flexible="false"
       use_knot_distance="true"
       apply_no_radius="true"
       apply_with_radius="true"
       only_selected="false"
       hide_knots="false" />
    <inkscape:path-effect
       effect="fillet_chamfer"
       id="path-effect698"
       is_visible="true"
       lpeversion="1"
       nodesatellites_param="F,0,1,1,0,0.90250226,0,1 @ F,0,1,1,0,0.90250226,0,1 @ F,0,0,1,0,0.90250226,0,1 @ F,0,1,1,0,0.90250226,0,1"
       radius="0"
       unit="px"
       method="auto"
       mode="F"
       chamfer_steps="1"
       flexible="false"
       use_knot_distance="true"
       apply_no_radius="true"
       apply_with_radius="true"
       only_selected="false"
       hide_knots="false" />
    <color-profile
       name="sRGB-IEC61966-2.1"
       xlink:href="file:///C:/WINDOWS/system32/spool/drivers/color/sRGB%20Color%20Space%20Profile.icm"
       id="color-profile3" />
    <color-profile
       name="Agfa-:-Swop-Standard"
       xlink:href="file:///C:/WINDOWS/system32/spool/drivers/color/RSWOP.icm"
       id="color-profile4" />
  </defs>
  <g
     inkscape:label="Layer 1"
     inkscape:groupmode="layer"
     id="layer1"
     transform="translate(-315.90742,85.035422)">
    <g
       id="g706"
       transform="translate(64.15145,-189.26955)"
       sodipodi:insensitive="true">
      <g
         id="g685"
         transform="translate(251.9282,162.33508)"
         sodipodi:insensitive="true">
        <path
           id="path678"
           style="fill:#cccccc;fill-opacity:0.894118;stroke:none;stroke-width:0.1882;stroke-linejoin:bevel;stroke-opacity:0.972158"
           d="m 72.35716,-43.536667 c -2.463823,0.0064 -4.926481,0.555734 -6.803516,1.645313 l -14.067187,8.165625 c 0.940773,-0.618189 -4.967429,2.98523 -8.992578,5.289062 l -10.526172,6.02461 c -0.40053,0.229246 -1.04788,0.604883 -1.445703,0.838671 -12.834539,7.542598 -14.615603,8.445432 -20.216015,11.5984377 -0.01609,0.00906 -0.0287,0.019363 -0.04219,0.029297 l -0.3320308,-0.2417967 -3.906e-4,-3.91e-4 v -3.91e-4 l -0.3542969,-1.536718 0.6546873,-1.624219 -0.3964841,0.435156 -0.3730469,0.691016 -0.1582031,0.793359 0.012891,0.03555 -0.7179443,2.7754437 c -0.049812,0.1369112 -0.022739,0.081102 -0.039213,0.5273715 l 0.00716,0.2757006 0.011719,0.080078 c -0.01374,0.1574564 -0.00945,0.3148933 0.013672,0.4714844 v 7.813e-4 l 7.813e-4,0.00156 c 0.023006,0.1545 0.030869,0.1530717 0.091554,0.3057869 l 0.042821,0.2203849 0.1070312,0.1636719 c 0.080603,0.1530009 0.1747799,0.3025166 0.2933594,0.4492187 l 0.1871094,0.2863282 0.00117,0.00234 -0.00117,-0.00234 0.1898435,0.2906266 1.2504416,0.721943 0.481588,0.2780516 2.1e-5,5.4e-6 1.099979,0.5921818 v 0 C 23.145381,2.3297333 27.809755,5.0329164 41.627864,13.032473 43.944316,14.373514 47.76115,14.445795 50.09564,13.13712 56.362998,9.6237382 63.218289,5.5901392 71.939191,0.65122346 78.232131,-2.9126616 84.268349,-6.5408724 92.098957,-11.114792 l 13.454793,-7.764254 c 0.69232,-0.399511 1.16257,-0.887276 1.5956,-1.365043 v 0.0016 l 0.003,-0.0043 c 0.41694,-0.460646 0.70958,-0.948503 0.8875,-1.447266 l 0.0133,-0.02148 0.002,-0.01406 c 0.52863,-1.340246 -0.002,0.01406 0.49498,-1.181417 0.52257,-1.568146 0.23895,-0.695184 0.42313,-1.317344 l 0.0712,-0.377257 c 0.0787,-0.89429 0.10299,-0.962791 0.10299,-0.962791 0.008,-0.04733 -0.0111,-0.02541 -0.005,-0.110783 0.004,-0.05673 -0.0136,-0.148929 -0.0137,-0.155487 -7e-4,-0.04506 0.006,-0.140316 0.006,-0.140316 l -0.0923,-0.916501 -0.17469,-0.989275 -0.002,-0.0059 -0.78359,3.184375 -0.24883,0.315235 c -0.43511,-0.857386 -1.21736,-1.667736 -2.38398,-2.342969 -2.5177,-1.457226 -5.671948,-3.281255 -9.685159,-5.595313 -3.722652,-2.146514 -9.744926,-5.64955 -13.467187,-7.796484 -1.037153,-0.598209 -2.101286,-1.211193 -3.129688,-1.802734 -1.881325,-1.082151 -4.346333,-1.618468 -6.810156,-1.61211 z m 35.75436,19.244165 -0.0729,0.08865 c 0.0749,-0.08143 -0.12816,0.148398 -0.0444,0.05391 z"
           transform="translate(-1.2000004,-1.1999995)"
           sodipodi:nodetypes="ccccccsccccccccccccccccccccccccccccccssscsccccccccccssccccccsssssccccc" />
        <path
           style="fill:#b3b3b3;fill-opacity:1;stroke:none;stroke-width:0.1882;stroke-linejoin:bevel;stroke-opacity:0.972158"
           d="m 75.005473,0.62613335 -0.240484,0.1526153 a 0.54610422,0.54610422 88.778253 0 0 0.01992,0.93423945 l 7.326516,4.2225338 a 1.5189844,1.5189844 179.23979 0 0 1.551633,-0.020589 l 0.123306,-0.075493 a 0.54455627,0.54455627 89.629341 0 0 -0.006,-0.9324913 l -7.23712,-4.30315259 a 1.468852,1.468852 179.1678 0 0 -1.537742,0.0223366 z"
           id="path679"
           transform="translate(4.0624509,-36.528764)"
           inkscape:original-d="M 75.767482,0.14255 74.00298,1.262332 82.893362,6.386178 84.556068,5.368196 Z"
           inkscape:path-effect="#path-effect698" />
        <path
           style="fill:#b3b3b3;fill-opacity:1;stroke:none;stroke-width:0.1882;stroke-linejoin:bevel;stroke-opacity:0.972158"
           d="m 22.875837,35.721744 5.527138,3.142523 1.741311,0.990044 a 1.6150837,1.6150837 179.81046 0 0 1.605813,-0.0053 l 0.12928,-0.07464 a 0.530183,0.530183 89.810463 0 0 -0.003,-0.920048 l -7.268449,-4.132567 a 1.6150838,1.6150838 179.81046 0 0 -1.605813,0.0053 l -0.12928,0.07464 a 0.53018299,0.53018299 89.810463 0 0 0.003,0.920048 z"
           id="path680"
           sodipodi:nodetypes="cccccc"
           transform="translate(4.0624509,-36.528764)"
           inkscape:original-d="m 22.071409,35.264376 6.331566,3.599891 2.545739,1.447412 1.73205,-1 -8.877305,-5.047303 z"
           inkscape:path-effect="#path-effect700" />
        <path
           style="mix-blend-mode:normal;fill:#fdfdfd;fill-opacity:1;stroke:none;stroke-width:0.1882;stroke-linejoin:bevel;stroke-opacity:0.972158"
           d="m 16.932957,-11.700989 c 15.960142,-9.060957 31.066026,-17.934644 48.551596,-28.001248 l 32.813171,18.980268 c 0,0 -32.316425,18.7083958 -48.477983,28.0123823 z"
           id="path681"
           sodipodi:nodetypes="ccccc" />
        <path
           style="fill:#cccccc;fill-opacity:0.894118;stroke:none;stroke-width:0.1882;stroke-linejoin:bevel;stroke-opacity:0.6"
           d="m 79.167285,-41.924371 c 1.028407,0.591546 2.092387,1.204191 3.129544,1.802404 3.722281,2.146944 9.744599,5.649924 13.467271,7.796452 4.013231,2.314068 7.16763,4.138448 9.68533,5.59568 3.71912,2.152614 3.72733,5.649854 0.0158,7.815624 l -13.366305,7.799612 C 84.241785,-6.5848511 78.232042,-2.9128284 71.939072,0.65107458 63.218125,5.5900149 56.327618,9.5970723 50.06023,13.110468 47.725725,14.419153 43.944363,14.373371 41.627896,13.032325 26.839816,4.4712303 22.866855,2.1654504 10.281029,-5.1482297 c -2.314271,-1.3448335 -2.3074054,-3.5134911 0.02499,-4.8266207 5.600442,-3.1530206 7.381508,-4.0560876 20.216111,-11.5987206 0.397823,-0.233793 1.044956,-0.609272 1.445491,-0.838522 l 10.52607,-6.024704 c 4.025169,-2.303847 9.933532,-5.907216 8.992754,-5.289027 l 14.067127,-8.165684 c 3.754082,-2.179169 9.851039,-2.197174 13.613709,-0.03286 z"
           id="path682"
           sodipodi:nodetypes="ccccscccccc"
           transform="translate(-0.40000002,-5.2)"
           inkscape:original-d="m 72.350942,-45.837242 c 0,0 13.7836,7.894105 16.670541,9.628778 13.388717,7.701154 19.630787,11.342722 23.164047,13.372779 L 92.098945,-11.114599 C 84.241785,-6.5848511 78.232042,-2.9128284 71.939072,0.65107458 61.213439,6.7253304 53.256493,11.390038 45.822284,15.46041 25.737301,3.833905 23.45191,2.5057478 6.0906984,-7.5833143 15.793132,-13.126194 14.94534,-12.412987 31.242392,-21.996999 l 18.539516,-10.611282 c 0,0 2.209103,-1.449093 1.704541,-1.117543 z"
           inkscape:path-effect="#path-effect702" />
        <path
           style="fill:#b3b3b3;fill-opacity:1;stroke:#000000;stroke-width:0.1882;stroke-linejoin:bevel;stroke-opacity:0.6"
           d="m 75.005473,0.62613335 -0.240484,0.1526153 a 0.54610422,0.54610422 88.778253 0 0 0.01992,0.93423945 l 7.326516,4.2225338 a 1.5189844,1.5189844 179.23979 0 0 1.551633,-0.020589 l 0.123306,-0.075493 a 0.54455627,0.54455627 89.629341 0 0 -0.006,-0.9324913 l -7.23712,-4.30315259 a 1.468852,1.468852 179.1678 0 0 -1.537742,0.0223366 z"
           id="path683"
           transform="translate(4.8624509,-40.528764)"
           inkscape:original-d="M 75.767482,0.14255 74.00298,1.262332 82.893362,6.386178 84.556068,5.368196 Z"
           inkscape:path-effect="#path-effect704" />
        <path
           style="fill:#b3b3b3;fill-opacity:1;stroke:#000000;stroke-width:0.1882;stroke-linejoin:bevel;stroke-opacity:0.6"
           d="m 22.875837,35.721744 5.527138,3.142523 1.741311,0.990044 a 1.6150837,1.6150837 179.81046 0 0 1.605813,-0.0053 l 0.12928,-0.07464 a 0.530183,0.530183 89.810463 0 0 -0.003,-0.920048 l -7.268449,-4.132567 a 1.6150838,1.6150838 179.81046 0 0 -1.605813,0.0053 l -0.12928,0.07464 a 0.53018299,0.53018299 89.810463 0 0 0.003,0.920048 z"
           id="path684"
           sodipodi:nodetypes="cccccc"
           transform="translate(4.8624509,-40.528764)"
           inkscape:original-d="m 22.071409,35.264376 6.331566,3.599891 2.545739,1.447412 1.73205,-1 -8.877305,-5.047303 z"
           inkscape:path-effect="#path-effect706" />
        <path
           style="mix-blend-mode:normal;fill:#4d4d4d;fill-opacity:1;stroke:#000000;stroke-width:0.1882;stroke-linejoin:bevel;stroke-opacity:0.6"
           d="M 17.960444,-16.307622 C 33.920586,-25.368579 49.02647,-34.242266 66.51204,-44.30887 l 32.813171,18.980268 c 0,0 -32.316425,18.7083958 -48.477983,28.0123821 z"
           id="path685"
           sodipodi:nodetypes="ccccc" />
      </g>
      <g
         id="g697"
         transform="translate(240.13432,168.97961)"
         sodipodi:insensitive="true">
        <g
           id="g692"
           transform="matrix(1.0286935,0.01508452,-0.13106543,0.78119219,10.987432,16.419799)">
          <g
             id="g691"
             transform="matrix(0.99408905,-0.04565288,0.02706292,1.0047032,1.5900581,-3.0406561)">
            <g
               id="g690">
              <path
                 id="path686"
                 style="fill:#ff6600;fill-opacity:1;stroke:none;stroke-width:0.12;stroke-linejoin:bevel;stroke-dasharray:none;stroke-opacity:1"
                 d="m 23.538885,-75.919067 c -0.07035,5.45e-4 -0.142175,0.0065 -0.212891,0.0078 l -0.128515,-0.0023 -0.165625,0.01367 c -0.489045,0.01835 -0.980186,0.05812 -1.46211,0.164063 -0.01266,0.002 -0.03397,0.0049 -0.04414,0.0066 l -0.133984,0.03789 c -0.102035,0.02589 -0.203628,0.05344 -0.304297,0.08555 l -0.08672,0.02422 -0.149219,0.05859 c -0.06267,0.02362 -0.125177,0.04732 -0.187109,0.07383 l -1.054688,0.414843 0.345703,-0.0918 0.127344,-0.01484 c -0.07465,0.04662 -0.150885,0.08825 -0.223828,0.140625 -1.732038,1.243569 -2.530872,2.080041 -2.832422,4.364453 -0.397055,4.431733 0.382457,8.813335 4.564453,10.635547 2.487318,1.43605 5.662815,3.31639 9.538281,5.507031 2.845218,1.608272 6.050376,3.49298 9.514456,5.492968 l 3.63906,4.902344 v 0.885156 0.65 1.1625 l 1.55703,-0.6 v -0.13125 -0.8375 -0.675 -0.725 -0.3875 l 0.0711,0.0035 -0.0711,-0.0207 v -1.226563 c 4.25408,2.456092 8.23364,-1.400797 8.59102,-6.30664 0.0796,-1.092789 -0.0203,-2.237452 -0.33711,-3.376172 -0.62626,-2.250641 -2.09945,-4.477639 -4.70469,-6.23125 -0.36401,-0.245022 -0.74998,-0.480535 -1.15898,-0.705859 l -9.64024,-5.59375 -11.770702,-6.829688 c -0.661952,-0.379032 -1.341811,-0.624907 -2.018359,-0.757031 l 3.9e-4,-0.0012 -0.01523,-0.0023 c -0.196128,-0.03782 -0.391706,-0.06349 -0.586719,-0.08242 l -0.06133,-0.0086 -0.04492,-7.81e-4 c -0.185525,-0.01485 -0.370487,-0.02447 -0.553906,-0.02305 z" />
              <path
                 id="path687"
                 style="fill:#ffcc00;fill-opacity:1;stroke:none;stroke-width:0.12;stroke-linejoin:bevel;stroke-dasharray:none;stroke-opacity:1"
                 d="m 22.133512,-75.16741 c -1.252189,0.0097 -2.569079,0.121356 -3.679687,0.91875 -1.73205,1.243574 -2.531263,2.080032 -2.832812,4.364453 -0.39706,4.431759 0.382827,8.813331 4.564843,10.635547 2.487327,1.436061 5.662404,3.31638 9.53789,5.507031 2.845227,1.608283 6.050358,3.492971 9.514448,5.492969 l 5.1961,7 v -4 c 4.2541,2.456101 8.23403,-1.400773 8.59141,-6.306641 0.25893,-3.554445 -1.38385,-7.659391 -6.20117,-10.313281 L 25.41359,-74.292019 c -1.076439,-0.616369 -2.200399,-0.883784 -3.280078,-0.875391 z" />
              <path
                 style="fill:#ffffff;fill-opacity:1;stroke:none;stroke-width:0.12;stroke-linejoin:bevel;stroke-dasharray:none;stroke-opacity:1"
                 d="m 38.355637,-57.042831 c 0.11698,2.763045 1.50121,5.220808 3.95257,6.501022 l 0.35926,0.207422 c 1.37577,0.536608 2.6139,0.05407 3.37258,-0.722987 0.48833,-0.500165 0.77803,-1.122348 0.77792,-1.673304 l 2.7e-4,-1.304569 c 0,-4 -1.25687,-4.659147 -3.58655,-5.973387 -2.44692,-1.10582 -4.40059,-0.457373 -4.87605,2.965803 z"
                 id="path688"
                 sodipodi:nodetypes="cccscccc" />
              <path
                 style="fill:#ffffff;fill-opacity:1;stroke:none;stroke-width:0.12;stroke-linejoin:bevel;stroke-dasharray:none;stroke-opacity:1"
                 d="m 18.554322,-68.05419 c 0.11698,2.763045 1.50121,5.220808 3.95257,6.501022 l 0.35926,0.207422 c 2.2613,0.882005 4.15054,-0.266271 4.1505,-2.396291 v -1.066347 c 0.0216,-2.813164 -1.2566,-4.897369 -3.58628,-6.211609 -2.44692,-1.10582 -4.40059,-0.457373 -4.87605,2.965803 z"
                 id="path689"
                 sodipodi:nodetypes="ccccccc" />
              <path
                 style="fill:#ffffff;fill-opacity:1;stroke:none;stroke-width:0.12;stroke-linejoin:bevel;stroke-dasharray:none;stroke-opacity:1"
                 d="m 28.402658,-62.93002 c 0.11698,2.763045 1.50121,5.220808 3.95257,6.501022 l 0.35926,0.207422 c 2.261295,0.882005 4.150535,-0.266271 4.150495,-2.396291 v -1.066347 c 0.0216,-2.813164 -1.2566,-4.897369 -3.586275,-6.211609 -2.44692,-1.10582 -4.40059,-0.457373 -4.87605,2.965803 z"
                 id="path690"
                 sodipodi:nodetypes="ccccccc" />
            </g>
          </g>
        </g>
        <g
           id="g696"
           transform="matrix(1.0288039,6.3050248e-4,-0.12007721,0.78295648,33.742354,-0.60510277)">
          <path
             id="path692"
             style="fill:#0044aa;fill-opacity:1;stroke:none;stroke-width:0.12;stroke-linejoin:bevel;stroke-dasharray:none;stroke-opacity:1"
             d="m 16.690018,-72.899017 c -0.07035,5.45e-4 -0.142175,0.0065 -0.212891,0.0078 l -0.128515,-0.0023 -0.165625,0.01367 c -0.489045,0.01835 -0.980186,0.05812 -1.46211,0.164063 -0.01266,0.002 -0.03397,0.0049 -0.04414,0.0066 l -0.133984,0.03789 c -0.102035,0.02589 -0.203628,0.05344 -0.304297,0.08555 l -0.08672,0.02422 -0.149219,0.05859 c -0.06267,0.02362 -0.125177,0.04732 -0.187109,0.07383 l -1.054688,0.414843 0.345703,-0.0918 0.127344,-0.01484 c -0.07465,0.04662 -0.150885,0.08825 -0.223828,0.140625 -1.732038,1.243569 -2.530872,2.080041 -2.832422,4.364453 -0.3970538,4.431733 0.382457,8.813335 4.564453,10.635547 2.487318,1.43605 5.662815,3.31639 9.538281,5.507031 2.845218,1.608272 6.050376,3.49298 9.514456,5.492968 l 3.63906,4.902344 v 0.885156 0.65 1.1625 l 1.55703,-0.6 v -0.13125 -0.8375 -0.675 -0.725 -0.3875 l 0.0711,0.0035 -0.0711,-0.0207 v -1.226563 c 4.25408,2.456092 8.23364,-1.400797 8.59102,-6.30664 0.0796,-1.092789 -0.0203,-2.237452 -0.33711,-3.376172 -0.62626,-2.250641 -2.09945,-4.477639 -4.70469,-6.23125 -0.36401,-0.245022 -0.74998,-0.480535 -1.15898,-0.705859 l -9.64024,-5.59375 -11.770702,-6.829688 c -0.661952,-0.379032 -1.341811,-0.624907 -2.018359,-0.757031 l 3.9e-4,-0.0012 -0.01523,-0.0023 C 17.740768,-72.822 17.54519,-72.84767 17.350177,-72.8666 l -0.06133,-0.0086 -0.04492,-7.81e-4 c -0.185525,-0.01485 -0.370487,-0.02447 -0.553906,-0.02305 z" />
          <path
             id="path693"
             style="fill:#00ccff;fill-opacity:1;stroke:none;stroke-width:0.12;stroke-linejoin:bevel;stroke-dasharray:none;stroke-opacity:1"
             d="m 15.284645,-72.14736 c -1.252189,0.0097 -2.569079,0.121356 -3.679687,0.91875 -1.7320488,1.243574 -2.5312628,2.080032 -2.8328128,4.364453 -0.39706,4.431759 0.382828,8.813331 4.5648438,10.635547 2.487327,1.436061 5.662404,3.31638 9.53789,5.507031 2.845227,1.608283 6.050358,3.492971 9.514448,5.492969 l 5.1961,7 v -4 c 4.2541,2.456101 8.23403,-1.400773 8.59141,-6.306641 0.25893,-3.554445 -1.38385,-7.659391 -6.20117,-10.313281 L 18.564723,-71.271969 c -1.076439,-0.616369 -2.200399,-0.883784 -3.280078,-0.875391 z" />
          <path
             style="fill:#ffffff;fill-opacity:1;stroke:none;stroke-width:0.12;stroke-linejoin:bevel;stroke-dasharray:none;stroke-opacity:1"
             d="m 31.734257,-53.567806 c 0.11698,2.763045 1.50121,5.220808 3.95257,6.501022 l 0.35926,0.207422 c 1.37577,0.536608 2.6139,0.05407 3.37258,-0.722987 0.48833,-0.500165 0.77803,-1.122348 0.77792,-1.673304 l 2.7e-4,-1.304569 c 0,-4 -1.25687,-4.659147 -3.58655,-5.973387 -2.44692,-1.10582 -4.40059,-0.457373 -4.87605,2.965803 z"
             id="path694"
             sodipodi:nodetypes="cccscccc" />
          <path
             style="fill:#ffffff;fill-opacity:1;stroke:none;stroke-width:0.12;stroke-linejoin:bevel;stroke-dasharray:none;stroke-opacity:1"
             d="m 11.477968,-64.730823 c 0.11698,2.763045 1.50121,5.220808 3.95257,6.501022 l 0.35926,0.207422 c 2.2613,0.882005 4.15054,-0.266271 4.1505,-2.396291 v -1.066347 c 0.0216,-2.813164 -1.2566,-4.897369 -3.58628,-6.211609 -2.44692,-1.10582 -4.40059,-0.457373 -4.87605,2.965803 z"
             id="path695"
             sodipodi:nodetypes="ccccccc" />
          <path
             style="fill:#ffffff;fill-opacity:1;stroke:none;stroke-width:0.12;stroke-linejoin:bevel;stroke-dasharray:none;stroke-opacity:1"
             d="m 21.477962,-59.530824 c 0.11698,2.763045 1.50121,5.220808 3.95257,6.501022 l 0.35926,0.207422 c 2.261295,0.882005 4.150535,-0.266271 4.150495,-2.396291 v -1.066347 c 0.0216,-2.813164 -1.2566,-4.897369 -3.586275,-6.211609 -2.44692,-1.10582 -4.40059,-0.457373 -4.87605,2.965803 z"
             id="path696"
             sodipodi:nodetypes="ccccccc" />
        </g>
      </g>
    </g>
  </g>
</svg>
