<?xml version="1.0" encoding="UTF-8" standalone="no"?>
<!-- Created with Inkscape (http://www.inkscape.org/) -->

<svg
   width="6954.5254"
   height="5732.73"
   viewBox="0 0 1840.0515 1516.7848"
   version="1.1"
   id="svg1"
   sodipodi:docname="coffee_cup_inkspace_file.svg"
   inkscape:version="1.3 (0e150ed6c4, 2023-07-21)"
   inkscape:export-filename="coffee_cup.svg"
   inkscape:export-xdpi="5.52"
   inkscape:export-ydpi="5.52"
   xmlns:inkscape="http://www.inkscape.org/namespaces/inkscape"
   xmlns:sodipodi="http://sodipodi.sourceforge.net/DTD/sodipodi-0.dtd"
   xmlns:xlink="http://www.w3.org/1999/xlink"
   xmlns="http://www.w3.org/2000/svg"
   xmlns:svg="http://www.w3.org/2000/svg">
  <sodipodi:namedview
     id="namedview1"
     pagecolor="#ffffff"
     bordercolor="#9999ae"
     borderopacity="0.17647059"
     inkscape:showpageshadow="2"
     inkscape:pageopacity="0"
     inkscape:pagecheckerboard="0"
     inkscape:deskcolor="#d1d1d1"
     inkscape:document-units="px"
     showgrid="false"
     showguides="true"
     inkscape:zoom="0.11313708"
     inkscape:cx="9006.7726"
     inkscape:cy="-2068.2873"
     inkscape:current-layer="layer1">
    <inkscape:page
       x="0"
       y="0"
       width="1840.0515"
       height="1516.7848"
       id="page1"
       margin="0"
       bleed="0" />
    <inkscape:page
       x="-1898.1807"
       y="981.40436"
       width="491.59854"
       height="452.9295"
       id="page965"
       margin="0"
       bleed="0" />
    <inkscape:grid
       id="grid965"
       units="px"
       originx="-5183.5981"
       originy="3613.1638"
       spacingx="2.6458333"
       spacingy="2.6458333"
       empcolor="#ff209d"
       empopacity="1"
       color="#00ddd2"
       opacity="0.71372549"
       empspacing="5"
       dotted="false"
       gridanglex="30"
       gridanglez="30"
       visible="false" />
    <inkscape:page
       x="-1357.5298"
       y="1522.7715"
       width="422.49548"
       height="374.51718"
       id="page2"
       margin="0"
       bleed="0" />
    <inkscape:page
       x="-915.21527"
       y="1415.5533"
       width="476.77081"
       height="474.66919"
       id="page3"
       margin="0"
       bleed="0" />
    <inkscape:page
       x="-2639.8381"
       y="-910.99158"
       width="1196.4487"
       height="1283.1625"
       id="page7"
       margin="0"
       bleed="0" />
    <inkscape:page
       x="-861.63458"
       y="1910.8944"
       width="373.44302"
       height="442.18805"
       id="page8"
       margin="0"
       bleed="0" />
    <inkscape:page
       x="-1892.0938"
       y="1445.0753"
       width="513.43939"
       height="459.37433"
       id="page9"
       margin="0"
       bleed="0" />
    <inkscape:page
       x="-1905.3416"
       y="1918.0554"
       width="542.79926"
       height="365.56601"
       id="page10"
       margin="0"
       bleed="0" />
    <inkscape:page
       x="-887.54865"
       y="1080.6241"
       width="103.27294"
       height="20.953932"
       id="page24"
       margin="0"
       bleed="0" />
    <inkscape:page
       x="-43.826492"
       y="-2226.3857"
       width="1867.0084"
       height="1989.7228"
       id="page25"
       margin="0 0 0"
       bleed="0"
       inkscape:export-filename="coffee_cup.svg"
       inkscape:export-xdpi="5.52"
       inkscape:export-ydpi="5.52" />
    <inkscape:page
       x="2132.8108"
       y="-2294.1748"
       width="1665.0891"
       height="2072.007"
       id="page4" />
  </sodipodi:namedview>
  <defs
     id="defs1">
    <linearGradient
       id="swatch24"
       inkscape:swatch="solid">
      <stop
         style="stop-color:#000000;stop-opacity:0.99416059;"
         offset="0"
         id="stop25" />
    </linearGradient>
    <inkscape:path-effect
       effect="bspline"
       id="path-effect44"
       is_visible="true"
       lpeversion="1.3"
       weight="33.333333"
       steps="2"
       helper_size="0"
       apply_no_weight="true"
       apply_with_weight="true"
       only_selected="false"
       uniform="false" />
    <inkscape:path-effect
       effect="bspline"
       id="path-effect42"
       is_visible="true"
       lpeversion="1.3"
       weight="33.333333"
       steps="2"
       helper_size="0"
       apply_no_weight="true"
       apply_with_weight="true"
       only_selected="false"
       uniform="false" />
    <inkscape:path-effect
       effect="bspline"
       id="path-effect40"
       is_visible="true"
       lpeversion="1.3"
       weight="33.333333"
       steps="2"
       helper_size="0"
       apply_no_weight="true"
       apply_with_weight="true"
       only_selected="false"
       uniform="false" />
    <inkscape:path-effect
       effect="bspline"
       id="path-effect38"
       is_visible="true"
       lpeversion="1.3"
       weight="33.333333"
       steps="2"
       helper_size="0"
       apply_no_weight="true"
       apply_with_weight="true"
       only_selected="false"
       uniform="false" />
    <inkscape:path-effect
       effect="bspline"
       id="path-effect36"
       is_visible="true"
       lpeversion="1.3"
       weight="33.333333"
       steps="2"
       helper_size="0"
       apply_no_weight="true"
       apply_with_weight="true"
       only_selected="false"
       uniform="false" />
    <inkscape:path-effect
       effect="bspline"
       id="path-effect32"
       is_visible="true"
       lpeversion="1.3"
       weight="33.333333"
       steps="2"
       helper_size="0"
       apply_no_weight="true"
       apply_with_weight="true"
       only_selected="false"
       uniform="false" />
    <inkscape:path-effect
       effect="bspline"
       id="path-effect30"
       is_visible="true"
       lpeversion="1.3"
       weight="33.333333"
       steps="2"
       helper_size="0"
       apply_no_weight="true"
       apply_with_weight="true"
       only_selected="false"
       uniform="false" />
    <inkscape:path-effect
       effect="spiro"
       id="path-effect28"
       is_visible="true"
       lpeversion="1" />
    <inkscape:path-effect
       effect="bspline"
       id="path-effect23"
       is_visible="true"
       lpeversion="1.3"
       weight="33.333333"
       steps="2"
       helper_size="0"
       apply_no_weight="true"
       apply_with_weight="true"
       only_selected="false"
       uniform="false" />
    <inkscape:path-effect
       effect="bspline"
       id="path-effect22"
       is_visible="true"
       lpeversion="1.3"
       weight="33.333333"
       steps="2"
       helper_size="0"
       apply_no_weight="true"
       apply_with_weight="true"
       only_selected="false"
       uniform="false" />
    <inkscape:path-effect
       effect="bspline"
       id="path-effect21"
       is_visible="true"
       lpeversion="1.3"
       weight="33.333333"
       steps="2"
       helper_size="0"
       apply_no_weight="true"
       apply_with_weight="true"
       only_selected="false"
       uniform="false" />
    <inkscape:path-effect
       effect="bspline"
       id="path-effect20"
       is_visible="true"
       lpeversion="1.3"
       weight="33.333333"
       steps="2"
       helper_size="0"
       apply_no_weight="true"
       apply_with_weight="true"
       only_selected="false"
       uniform="false" />
    <inkscape:path-effect
       effect="bspline"
       id="path-effect19"
       is_visible="true"
       lpeversion="1.3"
       weight="33.333333"
       steps="2"
       helper_size="0"
       apply_no_weight="true"
       apply_with_weight="true"
       only_selected="false"
       uniform="false" />
    <inkscape:path-effect
       effect="spiro"
       id="path-effect18"
       is_visible="true"
       lpeversion="1" />
    <inkscape:path-effect
       effect="bspline"
       id="path-effect11"
       is_visible="true"
       lpeversion="1.3"
       weight="33.333333"
       steps="2"
       helper_size="0"
       apply_no_weight="true"
       apply_with_weight="true"
       only_selected="false"
       uniform="false" />
    <inkscape:path-effect
       effect="bspline"
       id="path-effect9"
       is_visible="true"
       lpeversion="1.3"
       weight="33.333333"
       steps="2"
       helper_size="0"
       apply_no_weight="true"
       apply_with_weight="true"
       only_selected="false"
       uniform="false" />
    <linearGradient
       id="linearGradient960"
       inkscape:collect="always">
      <stop
         style="stop-color:#868686;stop-opacity:1;"
         offset="0.19782387"
         id="stop960" />
      <stop
         style="stop-color:#525252;stop-opacity:0.769"
         offset="0.66402203"
         id="stop961" />
    </linearGradient>
    <linearGradient
       id="linearGradient957"
       inkscape:collect="always">
      <stop
         style="stop-color:#272727;stop-opacity:1;"
         offset="0.15948276"
         id="stop957" />
      <stop
         style="stop-color:#151515;stop-opacity:0.89830506;"
         offset="0.99989998"
         id="stop958" />
    </linearGradient>
    <linearGradient
       id="linearGradient952"
       inkscape:collect="always">
      <stop
         style="stop-color:#9c9c9e;stop-opacity:1;"
         offset="0"
         id="stop952" />
      <stop
         style="stop-color:#727272;stop-opacity:1;"
         offset="1"
         id="stop953" />
    </linearGradient>
    <radialGradient
       inkscape:collect="always"
       xlink:href="#linearGradient952"
       id="radialGradient953"
       cx="81.813736"
       cy="238.44519"
       fx="81.813736"
       fy="238.44519"
       r="122.45208"
       gradientTransform="matrix(-2.098891,0.81121111,1.8193744,1.0931878,1282.4122,-292.89063)"
       gradientUnits="userSpaceOnUse" />
    <radialGradient
       inkscape:collect="always"
       xlink:href="#linearGradient957"
       id="radialGradient958"
       cx="32.96843"
       cy="213.16612"
       fx="32.96843"
       fy="213.16612"
       r="131.75891"
       gradientTransform="matrix(0.43898673,-0.88646988,-3.0247136,0.06521305,2050.5269,97.6905)"
       gradientUnits="userSpaceOnUse" />
    <filter
       inkscape:collect="always"
       style="color-interpolation-filters:sRGB"
       id="filter960"
       x="-0.16935233"
       y="-0.17849844"
       width="1.3387047"
       height="1.3569969">
      <feGaussianBlur
         inkscape:collect="always"
         stdDeviation="18.644976"
         id="feGaussianBlur960" />
    </filter>
    <linearGradient
       inkscape:collect="always"
       xlink:href="#linearGradient960"
       id="linearGradient963"
       x1="87.37928"
       y1="296.20514"
       x2="5.248342"
       y2="122.24586"
       gradientUnits="userSpaceOnUse" />
    <filter
       inkscape:collect="always"
       style="color-interpolation-filters:sRGB"
       id="filter963"
       x="-0.0028316443"
       y="-0.0035997794"
       width="1.0056633"
       height="1.0071996">
      <feGaussianBlur
         inkscape:collect="always"
         stdDeviation="0.34183766"
         id="feGaussianBlur963" />
    </filter>
    <inkscape:path-effect
       effect="fill_between_many"
       method="originald"
       linkedpaths="#path1001,0,1"
       id="path-effect1002"
       is_visible="true"
       lpeversion="0"
       join="true"
       close="true"
       autoreverse="true" />
    <inkscape:path-effect
       effect="fill_between_many"
       method="originald"
       linkedpaths="#path10,0,1"
       id="path-effect12"
       is_visible="true"
       lpeversion="0"
       join="true"
       close="true"
       autoreverse="true" />
    <radialGradient
       inkscape:collect="always"
       xlink:href="#linearGradient957"
       id="radialGradient20"
       gradientUnits="userSpaceOnUse"
       gradientTransform="matrix(0.43898673,-0.88646988,-3.0247136,0.06521305,2050.5269,97.6905)"
       cx="32.96843"
       cy="213.16612"
       fx="32.96843"
       fy="213.16612"
       r="131.75891" />
    <linearGradient
       inkscape:collect="always"
       xlink:href="#linearGradient960"
       id="linearGradient20"
       gradientUnits="userSpaceOnUse"
       x1="87.37928"
       y1="296.20514"
       x2="5.248342"
       y2="122.24586" />
    <radialGradient
       inkscape:collect="always"
       xlink:href="#linearGradient952"
       id="radialGradient21"
       gradientUnits="userSpaceOnUse"
       gradientTransform="matrix(-2.098891,0.81121111,1.8193744,1.0931878,1282.4122,-292.89063)"
       cx="81.813736"
       cy="238.44519"
       fx="81.813736"
       fy="238.44519"
       r="122.45208" />
    <filter
       inkscape:collect="always"
       style="color-interpolation-filters:sRGB"
       id="filter22"
       x="-0.02751289"
       y="-0.046896559"
       width="1.0550258"
       height="1.0937931">
      <feGaussianBlur
         inkscape:collect="always"
         stdDeviation="16.520801"
         id="feGaussianBlur22" />
    </filter>
  </defs>
  <g
     inkscape:label="Layer 1"
     inkscape:groupmode="layer"
     id="layer1"
     transform="translate(-1276.4322,955.98294)">
    <g
       id="g33"
       transform="translate(853.05689,-262.35909)">
      <path
         id="ellipse960"
         style="fill:#333333;stroke-width:6.12672;stroke-linecap:round;stroke-linejoin:round;filter:url(#filter960)"
         inkscape:transform-center-x="2.9369205"
         inkscape:transform-center-y="-16.473009"
         transform="matrix(-1.9018703,0.76678233,1.7375302,1.0890612,1259.4501,-344.76095)"
         d="m 270.86163,241.82918 c 0,69.23019 -55.08879,125.3386 -128.05386,125.3386 -72.965055,0 -136.1759951,-56.10842 -136.1759951,-125.3386 0,-69.23018 59.1498661,-125.35234 132.1149251,-125.35234 72.96506,0 132.11493,56.12215 132.11493,125.35234 z"
         sodipodi:nodetypes="sssss" />
      <path
         id="path955"
         style="fill:#cccccc;stroke:#b7b7b7;stroke-width:1.59842;stroke-linecap:round;stroke-linejoin:round"
         d="m 1574.5773,-46.970527 a 192.24429,73.784382 0 0 1 -192.2443,73.784384 192.24429,73.784382 0 0 1 -192.2443,-73.784384 192.24429,73.784382 0 0 1 192.2443,-73.784393 192.24429,73.784382 0 0 1 192.2443,73.784393 z" />
      <path
         id="ellipse957"
         style="fill:url(#radialGradient958);stroke-width:11.0595;stroke-linecap:round;stroke-linejoin:round"
         inkscape:transform-center-x="6.0875018"
         inkscape:transform-center-y="-15.373352"
         d="m 1184.5395,98.0849 c 57.8357,28.0821 120.9884,47.82785 188.829,53.21836 89.4104,7.1044 186.6493,-4.00446 289.6019,-43.94596 63.6218,-24.682743 95.4642,-68.637348 93.2903,-110.9851204 -2.1739,-42.3477726 -39.9012,-83.6518686 -104.8823,-114.8258596 -135.3161,-64.91646 -349.5169,-69.06783 -478.4309,-9.27235 -61.9066,28.714806 -95.4641,68.637337 -93.2902,110.985097 2.1739,42.34776 40.0488,83.34601 104.8822,114.825833 z"
         sodipodi:nodetypes="ssssssss" />
      <path
         id="ellipse956"
         style="fill:#e2e2e2;stroke-width:11.4382;stroke-linecap:round;stroke-linejoin:round"
         d="m 1144.8286,72.0101 c 157.3319,95.46404 351.861,96.60754 509.803,34.72787 33.3272,-13.05717 60.4628,-27.808867 81.1446,-52.512314 11.8968,-14.210198 21.5805,-36.960455 21.5284,-51.2611904 -0.1576,-43.2826256 -23.2968,-89.6076326 -82.708,-125.6576556 -123.7175,-75.07029 -339.7117,-90.76763 -482.4364,-35.06094 -68.5388,26.75129 -127.5182,66.418338 -112.8625,140.962849 3.9653,20.1690832 7.7668,30.519691 27.0295,55.426046 8.8772,11.478069 23.8121,24.462313 38.5014,33.375335 z"
         inkscape:label="ellipse956"
         sodipodi:nodetypes="ssassssss" />
      <path
         id="ellipse958"
         style="fill:url(#linearGradient963);stroke-width:6.11686;stroke-linecap:round;stroke-linejoin:round;filter:url(#filter963)"
         transform="matrix(-1.9766098,0.55852091,1.6016486,1.294002,1167.1595,-353.78586)"
         d="M 202.62911,227.49599 A 144.86467,113.95287 0 0 1 57.764442,341.44886 144.86467,113.95287 0 0 1 -87.100227,227.49599 144.86467,113.95287 0 0 1 57.764442,113.54311 144.86467,113.95287 0 0 1 202.62911,227.49599 Z" />
      <path
         id="path945"
         style="opacity:0.91;fill:url(#radialGradient953);fill-opacity:0.894118;stroke-width:11.3199;stroke-linecap:round;stroke-linejoin:round"
         d="m 1161.4299,72.566164 a 340.43909,166.06491 2.7890502 0 0 479.7998,34.528596 340.43909,166.06491 2.7890502 0 0 34.2274,-233.19761 340.43909,166.06491 2.7890502 0 0 -479.7997,-34.5286 340.43909,166.06491 2.7890502 0 0 -34.2275,233.197614 z" />
      <path
         id="ellipse953"
         style="opacity:1;fill:#dbe3de;fill-opacity:0.143328;stroke:none;stroke-width:1.53751;stroke-linecap:round;stroke-linejoin:round"
         d="m 2072.596,-125.25998 a 205.16345,95.455767 1.0120735 0 1 282.1548,-27.4938 205.16345,95.455767 1.0120735 0 1 67.4694,132.243296 A 205.16345,95.455767 1.0120735 0 1 2140.0654,6.9832163 205.16345,95.455767 1.0120735 0 1 2072.596,-125.25998 Z"
         transform="translate(-829.97456,33.701005)" />
    </g>
    <path
       id="path1058"
       style="opacity:0.769;fill:#1a1a1a;stroke:#999999;stroke-width:1.03914;stroke-linecap:round;stroke-linejoin:round"
       d="m -527.34816,132.29905 c 1.2211,-8.89659 15.029,-16.0948 60.2853,-20.14003 43.3978,-3.87911 97.6118,-3.21208 136.6347,3.35715 42.8266,7.20957 45.0542,19.59349 46.395,25.55797 0.1831,0.81452 -19.0434,40.465 -50.269,43.54633 -58.0448,5.72783 -95.2326,2.03721 -133.0769,-7.94099 -35.6235,-9.39266 -63.0392,-22.01217 -59.9691,-44.38043 z"
       sodipodi:nodetypes="sssssss" />
    <g
       id="g1062"
       transform="matrix(1.2618249,0,0,1.0641989,107.96315,-18.485853)">
      <path
         id="path1061"
         style="opacity:0.769;fill:#e9afaf;stroke:#999999;stroke-width:0.820758;stroke-linecap:round;stroke-linejoin:round"
         d="m -397.07754,110.42887 c -22.38331,-0.58415 -44.61427,-1.86397 -66.7772,2.73733 -26.45183,5.49173 -41.97683,17.65276 -43.13482,25.98606 -1.98483,14.28352 9.55516,27.51853 35.45828,36.95642 26.67199,9.71803 57.92031,14.25309 81.48673,14.18843 28.61597,-0.0785 44.03508,0.71269 65.14064,-11.22516 18.63771,-10.54196 19.64315,-33.91408 20.19207,-39.36754 0.58983,-5.85987 -15.0774,-16.33028 -36.93411,-21.41777 -21.70502,-5.05218 -30.10927,-7.19691 -55.43159,-7.85777 z m -110.75251,27.8413 c 0.83734,0.0427 -0.31458,0.0955 -0.32649,1.50374 -0.0313,3.69668 -0.12563,7.42491 0.0705,11.32346 0.93371,18.55074 4.38828,40.00645 10.69834,69.7576 0.26794,1.26332 3.08125,16.17618 3.32803,17.44105 0.3421,1.75342 0.7054,3.4907 1.06588,5.22288 9.16561,44.04274 22.88426,80.10528 39.7652,104.58165 2.20703,3.08388 2.82961,3.75429 5.1245,6.39986 0.36296,0.46905 2.72848,3.21764 3.09338,3.67482 1.33229,1.49937 3.41903,3.53884 4.77652,4.88677 23.36034,24.65368 48.85471,22.50672 69.34636,1.8549 1.65333,-1.66625 5.66676,-5.19804 9.23008,-9.85861 2.04848,-2.67927 3.93686,-4.6875 6.74075,-8.73915 0,0 15.00087,-22.81 27.03678,-57.55556 7.71892,-22.28318 13.08063,-48.94833 16.79811,-71.49713 4.81805,-29.22445 6.97175,-46.81986 7.38913,-53.58321 0.74787,-12.11874 0.478,-3.74297 0.60072,-23.7801 z"
         sodipodi:nodetypes="ssssssssscsssssccccsssssscc" />
      <path
         id="path1062"
         style="opacity:1;fill:#1a1a1a;stroke:#999999;stroke-width:0.509929;stroke-linecap:round;stroke-linejoin:round"
         d="m -508.51162,139.2518 c 0.4275,-6.10221 12.91874,-19.24268 42.96525,-25.82578 19.58527,-4.29107 39.21644,-4.52514 68.38285,-3.4535 25.66497,0.94299 48.12483,4.68985 57.56496,7.68235 14.08659,4.46541 35.56849,14.93142 36.68509,21.77914 4.98322,30.56032 -12.21113,38.57155 -36.01363,46.04359 -6.38229,2.00352 -11.09395,5.46201 -58.34643,4.8429 -23.21615,-0.30418 -51.34669,-6.11202 -71.44711,-12.5283 -18.85485,-6.01868 -41.52969,-13.72198 -39.79098,-38.5404 z"
         sodipodi:nodetypes="sssssssss" />
    </g>
    <g
       id="path965"
       style="opacity:0.769"
       transform="translate(11.641666,11.641666)" />
    <g
       id="path966"
       style="opacity:0.769"
       transform="translate(11.641666,11.641666)" />
    <path
       style="opacity:0.769;fill:#9a9a9a;fill-opacity:1;stroke:#999999;stroke-width:0.134268;stroke-linecap:round;stroke-linejoin:round;stroke-dasharray:none;stroke-opacity:1"
       d=""
       id="path1026" />
    <g
       id="path1038"
       style="opacity:0.769"
       transform="translate(11.641666,11.641666)" />
    <g
       id="path1039"
       transform="translate(11.641666,11.641666)" />
    <g
       id="path1040"
       style="opacity:0.769"
       transform="translate(11.641666,11.641666)" />
    <g
       id="path1053"
       style="opacity:0.769"
       transform="translate(11.641666,11.641666)" />
    <path
       id="path1060"
       style="opacity:0.769;fill:#ffd5d5;stroke:#999999;stroke-width:0.833598;stroke-linecap:round;stroke-linejoin:round"
       d="m -489.31346,196.375 a 93.700846,173.7342 0.3289312 0 0 10.8077,82.93877 90.168791,151.25857 0.43209066 0 0 0.6337,2.36757 93.700846,173.7342 0.3289312 0 0 0.9572,3.24084 90.168791,151.25857 0.43209066 0 0 35.5557,65.24688 90.168791,151.25857 0.43209066 0 0 6.2116,5.35749 93.700846,173.7342 0.3289312 0 0 1.0038,0.8658 90.168791,151.25857 0.43209066 0 0 3.7154,2.66488 93.700846,173.7342 0.3289312 0 0 65.7815,1.79866 90.168791,151.25857 0.43209066 0 0 13.8032,-10.68311 90.168791,151.25857 0.43209066 0 0 40.1464,-80.41342 93.700846,173.7342 0.3289312 0 0 8.7834,-73.3765 z" />
    <path
       sodipodi:type="spiral"
       style="fill:none;fill-rule:evenodd;stroke:#000000;stroke-width:0.264583"
       id="path146"
       sodipodi:cx="4368"
       sodipodi:cy="-3624"
       sodipodi:expansion="0.001"
       sodipodi:revolution="1.7394551"
       sodipodi:radius="330.25201"
       sodipodi:argument="-16.468748"
       sodipodi:t0="0.2734184"
       d="m 4569.3586,-3885.2252 c 142.3725,109.6681 169.6535,320.3195 59.977,462.6689 -109.7216,142.4078 -320.444,169.6936 -462.8389,59.9693 -142.4376,-109.7573 -169.7274,-320.5334 -59.9693,-462.9623 109.7841,-142.4627 320.6031,-169.756 463.0593,-59.9718 142.4842,109.8056 169.7806,320.6604 59.9754,463.1394 -5.8503,7.5911 -12.0313,14.9274 -18.5195,21.9811"
       transform="matrix(0.26458333,0,0,0.26458333,-95.061484,0)" />
    <path
       sodipodi:type="spiral"
       style="fill:none;fill-rule:evenodd;stroke:#000000;stroke-width:0.264583"
       id="path147"
       sodipodi:cx="4072"
       sodipodi:cy="-4056"
       sodipodi:expansion="0.001"
       sodipodi:revolution="1.7394551"
       sodipodi:radius="948.49774"
       sodipodi:argument="-10.05434"
       sodipodi:t0="0.2734184"
       d="m 4743.5058,-4724.13 c 367.3618,368.9709 365.893,972.6269 -3.0935,1339.9195 -369.1379,367.4433 -972.9955,365.9618 -1340.4007,-3.1793 -367.5154,-369.2517 -366.0253,-973.2619 3.2256,-1340.7519 369.3384,-367.5772 973.4708,-366.0812 1341.0293,3.2548 367.6307,369.4084 366.1305,973.6425 -3.2749,1341.2587 -19.5106,19.4161 -39.8668,37.9822 -60.9918,55.6283"
       transform="matrix(0.26458333,0,0,0.26458333,-95.061484,0)" />
    <path
       sodipodi:type="spiral"
       style="fill:none;fill-rule:evenodd;stroke:#000000;stroke-width:0.264583"
       id="path148"
       sodipodi:cx="4948"
       sodipodi:cy="-4720"
       sodipodi:expansion="0.001"
       sodipodi:revolution="0.86144239"
       sodipodi:radius="479.47952"
       sodipodi:argument="-9.8631916"
       sodipodi:t0="0.56469852"
       d="m 5363.0236,-4959.5692 c 130.6092,226.0931 50.7365,524.1902 -175.355,654.7649 -109.3345,63.144 -241.8055,80.6013 -363.7671,47.9459"
       transform="matrix(0.26458333,0,0,0.26458333,-95.061484,0)" />
    <path
       sodipodi:type="spiral"
       style="fill:none;fill-rule:evenodd;stroke:#000000;stroke-width:0.264583"
       id="path149"
       sodipodi:cx="4540"
       sodipodi:cy="-4844"
       sodipodi:expansion="0.001"
       sodipodi:revolution="0.86144239"
       sodipodi:radius="767.20795"
       sodipodi:argument="-4.5312037"
       sodipodi:t0="0"
       d="m 4540,-4844 c -117.3449,640.5488 -126.2042,853.9015 -450.8627,618.3906 -235.7868,-171.0423 -355.1369,-470.0406 -302.8536,-756.4671 74.9883,-410.813 481.1602,-691.2704 891.8886,-616.1625 410.987,75.1553 691.5662,481.5168 616.3725,892.4673 C 5262.1811,-4528.8966 5166.7262,-4366.3985 5028,-4252"
       transform="matrix(0.26458333,0,0,0.26458333,-95.061484,0)" />
    <path
       sodipodi:type="spiral"
       style="fill:none;fill-rule:evenodd;stroke:#000000;stroke-width:0.264583"
       id="path150"
       sodipodi:cx="3528"
       sodipodi:cy="-6052"
       sodipodi:expansion="0.001"
       sodipodi:revolution="0.86144239"
       sodipodi:radius="1343.2021"
       sodipodi:argument="-4.48352"
       sodipodi:t0="0"
       d="m 3528,-6052 c -258.6647,1110.3843 -291.9623,1482.7511 -840.0638,1043.802 -398.0647,-318.7916 -581.8295,-851.6328 -466.4951,-1348.1657 166.8696,-718.3997 892.8926,-1170.1748 1611.1336,-1003.1012 718.6943,167.1792 1170.6642,893.5362 1003.4204,1612.1632 -71.3574,306.6143 -251.8474,582.8214 -503.9952,771.3018"
       transform="matrix(0.26458333,0,0,0.26458333,-95.061484,0)" />
    <rect
       style="fill:#ff0000;fill-opacity:0.894118;stroke:#000000;stroke-width:0.14314;stroke-linejoin:bevel"
       id="rect68"
       width="0.58172882"
       height="0.77174073"
       x="-141726.86"
       y="197693.72" />
    <rect
       style="fill:#e3dbdb;fill-opacity:0.894118;stroke:#000000;stroke-width:0.14314;stroke-linejoin:bevel"
       id="rect81"
       width="2.1166666"
       height="2.1166666"
       x="606.61353"
       y="1332.4417" />
    <rect
       style="fill:#e3dbdb;fill-opacity:0.894118;stroke:#000000;stroke-width:0.14314;stroke-linejoin:bevel"
       id="rect82"
       width="16.933332"
       height="2.1166666"
       x="499.72183"
       y="1292.225" />
    <g
       id="path36"
       inkscape:label="path36"
       transform="translate(643.80496,-177.96256)" />
    <rect
       style="fill:#e3dbdb;fill-opacity:0.894118;stroke:#000000;stroke-width:0.14314;stroke-linejoin:bevel"
       id="rect83"
       width="6.3499999"
       height="10.274516"
       x="-267.76752"
       y="-1564.2931" />
    <path
       id="path3"
       style="opacity:0.769;fill:#4d4d4d;stroke:#999999;stroke-width:0.833598;stroke-linecap:round;stroke-linejoin:round"
       d="m -489.31346,196.375 c -0.1859,28.93576 3.5291,57.44481 10.8077,82.93877 0.2072,0.79228 0.4184,1.5815 0.6337,2.36757 0.3128,1.08665 0.6319,2.16699 0.9572,3.24084 7.6662,27.27723 20.0515,50.00495 35.5557,65.24688 2.0277,1.92074 4.0998,3.70791 6.2116,5.35749 0.3337,0.29229 0.6683,0.58089 1.0038,0.8658 1.2262,0.93504 2.465,1.82355 3.7154,2.66488 10.9241,7.96061 22.1989,11.86478 33.7794,11.88302 10.7123,0.0169 21.7268,-3.27785 32.0021,-10.08436 4.7685,-2.90747 9.3859,-6.48112 13.8032,-10.68311 18.6123,-18.03363 32.8439,-46.53947 40.1464,-80.41342 5.7713,-23.0207 8.7691,-48.06369 8.7834,-73.3765 z"
       sodipodi:nodetypes="ccccccccsccccc" />
    <rect
       style="fill:#000000;fill-opacity:0.894118;stroke:#000000;stroke-width:0.14314;stroke-linejoin:bevel"
       id="rect3"
       width="89.615479"
       height="89.615479"
       x="-440.42477"
       y="238.89668" />
    <ellipse
       style="fill:#ffffff;fill-opacity:0.894118;stroke:#000000;stroke-width:0.14314;stroke-linejoin:bevel"
       id="path4"
       cx="-395.61703"
       cy="283.70444"
       rx="37.043556"
       ry="34.98558" />
    <path
       sodipodi:type="star"
       style="fill:#ff0000;fill-opacity:0.894118;stroke:#000000;stroke-width:0.14314;stroke-linejoin:bevel"
       id="path5"
       inkscape:flatsided="true"
       sodipodi:sides="3"
       sodipodi:cx="-1178.0399"
       sodipodi:cy="1213.3951"
       sodipodi:r1="119.50314"
       sodipodi:r2="59.751568"
       sodipodi:arg1="-1.5648792"
       sodipodi:arg2="-0.51768168"
       inkscape:rounded="0"
       inkscape:randomized="0"
       d="m -1177.3328,1093.8941 102.4303,179.8639 -206.9819,-1.2247 z"
       transform="matrix(0.26458333,0,0,0.26458333,-83.833679,-29.516213)"
       inkscape:transform-center-x="0.093545064"
       inkscape:transform-center-y="-7.8234837" />
    <path
       inkscape:original-d="M 0,0"
       inkscape:path-effect="#path-effect12"
       d="M 0,0"
       id="path13"
       transform="translate(10.476964,-483.43711)" />
    <g
       id="g36"
       transform="matrix(0.72431998,0,0,0.8,882.12503,-2580.3979)"
       style="fill:#0000ff;fill-opacity:0.484672;stroke:none">
      <ellipse
         style="opacity:1;fill:#87aade;fill-opacity:0.484672;stroke:none;stroke-width:0.105564;stroke-linejoin:bevel;stroke-opacity:1"
         id="path14"
         transform="matrix(0.57484359,0.81826331,0.9832882,-0.18205583,0,0)"
         cx="501.34897"
         cy="1433.1074"
         rx="235.57321"
         ry="363.02155"
         inkscape:export-filename="coffee_cup.svg"
         inkscape:export-xdpi="3.0946574"
         inkscape:export-ydpi="3.0946574" />
      <ellipse
         style="opacity:1;fill:#000000;fill-opacity:0.835037;stroke:none;stroke-width:0.116463;stroke-linejoin:bevel"
         id="path6"
         cx="1369.2328"
         cy="-556.46643"
         rx="298.51291"
         ry="196.83047"
         transform="matrix(0.97919428,-0.202925,-0.64084712,-0.76766853,0,0)" />
      <path
         id="path19"
         style="opacity:1;fill:#000080;fill-opacity:0.908029;stroke:none;stroke-width:0.14334;stroke-linejoin:bevel;stroke-opacity:1"
         d="m 1315.6702,143.92116 c -0.061,-0.9678 -0.025,-0.5411 0.022,0.3791 0,0.094 0.031,0.3862 0.036,0.4916 -0.016,-0.2519 -0.047,-0.6963 -0.058,-0.8707 z m 0.058,0.8707 v 0 c 0,0.08 0.024,0.2895 0.028,0.374 -0.01,-0.1153 -0.018,-0.2658 -0.025,-0.374 z m 0.025,0.374 c 0.072,1.1057 0.1603,2.4714 0.2397,3.5851 0.1069,1.5004 0.1646,2.139 0.3914,3.6864 0.2268,1.5475 0.622,4.0034 1.2306,139.3171 0.6086,135.3137 1.4311,403.4796 127.5374,538.5033 126.1063,135.0236 377.4874,136.8948 504.0035,4.5236 24.3191,-25.4444 43.9871,-55.8895 59.9653,-90.3006 l 0.081,0.1214 c 3.6717,-0.041 6.1275,0.059 12.4463,0.086 6.3176,0.027 18.9475,0.108 31.2009,0.1486 12.2534,0.041 26.2025,0.042 36.6211,0.042 2.3171,0 6.0337,-0.1004 8.8109,-0.098 6.6827,0 13.5837,-0.084 21.0452,-0.2352 3.4656,-0.067 6.5077,0.027 9.7584,-0.1091 8.6763,-0.3623 17.3576,-0.8404 26.0211,-1.5077 3.5872,-0.2765 7.1664,-0.6241 10.739,-1.0342 1.6928,-0.1941 3.3997,-0.2582 5.0881,-0.4902 2.0575,-0.2828 4.0978,-0.7054 6.1528,-1.0206 2.5839,-0.3965 5.1613,-0.8273 7.7366,-1.2836 3.4899,-0.618 6.9548,-1.3029 10.4179,-2.0509 3.7675,-0.8138 7.5107,-1.7188 11.2307,-2.7149 1.4187,-0.3798 2.8729,-0.6261 4.2833,-1.0355 1.7017,-0.4939 3.3701,-1.1274 5.0694,-1.6433 3.4847,-1.0581 6.9473,-2.1851 10.3954,-3.3699 8.531,-2.9306 16.946,-6.1722 24.899,-10.3721 0.981,-0.5181 1.8819,-1.1899 2.8545,-1.7273 3.8558,-2.1311 7.6315,-4.4146 11.317,-6.8491 6.5017,-4.2929 12.7811,-8.9111 18.5093,-14.1458 10.1101,-9.239 19.356,-19.744 26.3963,-31.4968 0.7399,-1.2351 1.3367,-2.5493 2.0277,-3.8117 0.4809,-0.8789 0.9526,-1.7626 1.4113,-2.6536 3.2231,-6.2579 5.855,-12.7945 8.2238,-19.4607 1.4715,-4.1409 2.8465,-8.3077 4.1205,-12.5038 0.4952,-1.6313 1.1259,-3.2302 1.602,-4.8615 3.4375,-11.7802 5.4919,-23.9065 7.3057,-36.0643 0.1219,-0.8164 0.2488,-1.6308 0.3675,-2.4475 0.5497,-3.7781 1.1832,-7.5472 1.7022,-11.3217 0.3508,-2.5518 0.5369,-5.1229 0.8184,-7.683 0.1153,-1.0497 0.2304,-2.0994 0.3359,-3.1503 0.8792,-8.7522 1.5569,-17.5264 2.0974,-26.3033 0.1457,-2.3654 0.1258,-4.739 0.2539,-7.1061 0.4166,-7.6951 0.6964,-15.3954 0.8242,-23.0994 0.039,-2.3572 0.2502,-4.7101 0.2525,-7.0674 0,-2.5015 -0.2082,-4.998 -0.2525,-7.4989 -0.1162,-6.5783 -0.337,-13.1537 -0.6653,-19.7262 -0.1244,-2.4893 -0.1133,-4.9837 -0.252,-7.4718 -0.9116,-16.3557 -1.1197,-32.8437 -3.813,-49.0138 -0.3104,-1.8632 -0.7773,-3.7102 -1.111,-5.5746 -0.6748,-3.7698 -1.4294,-7.5236 -2.2474,-11.2706 -2.0299,-9.2968 -4.4289,-18.5005 -8.0234,-27.2735 -0.3907,-0.9537 -0.9494,-1.8392 -1.3629,-2.7854 -1.4881,-3.4051 -3.1219,-6.7491 -4.9028,-10.0239 -0.9388,-1.7264 -1.9037,-3.4068 -2.923,-5.0863 -2.0455,-3.3709 -4.2522,-6.6311 -6.6191,-9.7675 -0.5552,-0.7356 -0.9801,-1.5699 -1.5529,-2.2905 -0.5455,-0.6864 -1.2332,-1.2512 -1.8009,-1.9198 -1.967,-2.3175 -4.0503,-4.5347 -6.2419,-6.6546 -1.5624,-1.5112 -3.1499,-2.9635 -4.7975,-4.3848 -1.6823,-1.4517 -3.3913,-2.8634 -5.1379,-4.231 -1.011,-0.7914 -1.9483,-1.6831 -2.974,-2.4488 -0.8342,-0.6228 -1.7698,-1.0963 -2.6258,-1.6879 -2.0086,-1.3888 -4.0618,-2.7113 -6.1637,-3.9623 -4.7694,-2.8378 -9.651,-5.4988 -14.5798,-8.0266 -5.1327,-2.6324 -10.3789,-5.0584 -15.6968,-7.3084 -1.3882,-0.5874 -2.786,-1.1482 -4.1909,-1.6923 -1.3195,-0.511 -2.6001,-1.1231 -3.9358,-1.5898 -1.2858,-0.4492 -2.6173,-0.7517 -3.9191,-1.151 -1.1185,-0.3434 -2.2397,-0.6771 -3.3679,-0.9896 -5.0372,-1.3947 -10.1241,-2.6217 -15.2324,-3.704 -3.1862,-0.675 -6.4089,-1.1699 -9.6363,-1.5922 -1.8082,-0.2366 -3.6336,-0.3172 -5.4454,-0.5278 -5.0141,-0.5832 -10.0378,-1.0698 -15.0708,-1.4598 -1.7909,-0.1386 -3.5706,-0.4045 -5.3627,-0.5194 -2.5542,-0.1638 -5.1166,-0.1296 -7.6733,-0.2416 -6.2694,-0.2745 -12.5415,-0.4777 -18.8174,-0.593 -2.5658,-0.047 -5.1288,-0.1961 -7.6939,-0.2422 -10.8001,-0.1941 -20.9707,-0.1206 -32.4024,-0.1466 -11.4319,-0.026 -24.3583,-0.079 -30.8179,-0.098 v 0 c -3.2253,-0.01 -4.7845,-0.018 -5.561,-0.01 l -0.01,5e-4 c -0.223,-0.013 -0.3527,-0.015 -0.7155,-0.02 0,8e-4 -0.1272,-0.027 -0.015,0 0.1394,0.01 -0.072,0 -0.08,-0.018 l 7e-4,-0.065 0.4718,-113.9118 c -0.5909,0.8694 -0.5392,1.739 -0.9878,2.9378 -0.4485,1.1988 -0.7548,2.7258 -1.1865,4.5198 -0.4316,1.794 -0.9886,3.8534 -1.5387,5.7516 -0.5501,1.8981 -1.093,3.634 -2.1058,6.4427 -1.0129,2.8087 -2.4755,6.6376 -3.95,10.1893 -1.4747,3.5517 -2.8836,6.6381 -5.6366,11.4554 -2.7531,4.8173 -6.8313,11.323 -11.4883,17.599 -4.6571,6.2761 -9.8924,12.322 -15.651,18.1934 -5.7585,5.8713 -12.0397,11.5681 -18.6002,16.8013 -6.5607,5.2331 -13.3997,10.002 -19.1448,13.9223 -5.7451,3.9202 -10.3959,6.9909 -14.7162,9.5788 -4.3204,2.5879 -8.3108,4.6927 -11.9605,6.614 -3.6499,1.9212 -6.9589,3.6592 -11.0981,5.7083 -4.1394,2.0491 -9.1087,4.4095 -13.9424,6.5571 -4.8335,2.1475 -9.5312,4.0819 -15.2865,6.3885 -5.7552,2.3065 -12.5677,4.9855 -21.9243,8.1577 -9.3567,3.1723 -21.2569,6.838 -32.7565,9.9781 -11.4995,3.1401 -22.5976,5.7539 -35.7665,8.3561 -13.1688,2.6022 -28.4087,5.1928 -44.3223,7.2134 -15.9136,2.0205 -32.4989,3.4708 -49.9853,4.3983 -17.4864,0.9274 -35.8704,1.3317 -54.7886,0.8759 -18.9182,-0.4558 -38.367,-1.7711 -57.0152,-3.7711 -18.6484,-2 -36.4934,-4.684 -54.3346,-8.0331 -17.8413,-3.3491 -35.6753,-7.3625 -55.8939,-13.2983 -20.2184,-5.9358 -42.8177,-13.7929 -63.3243,-22.7544 -20.5065,-8.9615 -38.9165,-19.0264 -53.5026,-28.404 -14.5858,-9.3775 -25.3999,-18.1101 -33.3467,-24.9945 -7.947,-6.8845 -13.1324,-12.005 -18.3916,-17.8607 -5.2595,-5.8558 -10.4599,-12.3029 -14.0354,-17.1392 -3.5755,-4.8362 -5.4266,-7.874 -7.1223,-10.7551 -1.6957,-2.8811 -2.7946,-4.8724 -3.5353,-6.2535 -0.7407,-1.3811 -1.4833,-2.8225 -2.1446,-4.1348 -0.6615,-1.3122 -1.1598,-2.3326 -1.7008,-3.4842 -0.541,-1.1517 -1.3682,-2.9539 -2.067,-4.6186 -0.699,-1.6648 -1.2579,-3.1731 -1.593,-4.0547 -0.3351,-0.8816 -0.7075,-1.8253 -1.1103,-2.9481 -0.4028,-1.1228 -0.7574,-2.1888 -1.1511,-3.3732 h 6e-4 c 0,0 -1.3649,-4.5043 -1.5077,-5.0417 -0.1427,-0.5373 -0.4287,-1.6125 -0.759,-2.9727 -0.3302,-1.3601 -0.7049,-3.0052 -1.0096,-4.4512 -0.3047,-1.4461 -0.5392,-2.6927 -0.8753,-5.0643 -0.3359,-2.3717 -0.7737,-5.8686 -1.0219,-8.3238 -0.2034,-2.0115 -0.2458,-3.0367 -0.2894,-3.9236 z m 794.715,246.8246 c 0,0 24.7512,-0.232 37.1193,0 11.7646,0.2205 23.5857,-0.069 35.2588,1.3209 12.2473,1.4575 24.4941,3.6421 36.2594,7.329 9.8102,3.0744 19.9251,6.2751 28.2864,12.2241 7.038,5.0074 13.2785,11.5727 17.5099,19.099 5.541,9.8553 7.517,20.9175 9.4581,32.6026 1.9402,11.6803 2.6714,22.9207 3.0198,32.7855 0.086,2.4401 0.089,4.5767 0.1317,6.8633 -0.3527,7.5393 -0.7898,15.5595 -1.9016,23.8228 -1.2011,8.9247 -3.1724,18.0931 -6.592,27.2122 -3.4196,9.1191 -8.2962,18.2382 -14.9733,27.4292 -6.677,9.1909 -15.0985,18.364 -24.7387,25.6832 -9.6405,7.3193 -20.5461,12.8636 -32.0213,16.519 -11.4747,3.6553 -23.0148,5.2141 -34.5774,6.4963 -11.5626,1.2823 -23.2179,2.3159 -35.6812,2.9178 -12.4632,0.6019 -23.248,0.6027 -31.504,0.6027 -8.256,0 -17.0647,-10e-4 -25.3983,-0.3075 -8.3329,-0.306 -17.2739,-1.0262 -23.9352,-1.5845 l -0.093,0.066 c 0,0 -0.1546,0.6519 -0.1893,0.779 26.9705,-116.2322 28.3348,-239.2912 28.4027,-241.8604 z m 58.4216,0.2708 c 3.4398,0.118 6.8717,0.3319 10.2959,0.6434 -3.4247,-0.3117 -6.8566,-0.5254 -10.2959,-0.6434 z m 18.5848,1.5871 c 3.0279,0.4089 6.0467,0.8776 9.0602,1.3991 -3.0137,-0.5215 -6.0324,-0.9901 -9.0602,-1.3991 z m 16.7813,2.8887 c 3.9753,0.8469 7.9145,1.8307 11.8119,2.9611 -3.8975,-1.1306 -7.8369,-2.114 -11.8119,-2.9611 z m 19.0931,5.1741 c 2.1008,0.6745 4.18,1.4007 6.2625,2.1465 -2.083,-0.7458 -4.1621,-1.4722 -6.2625,-2.1465 z m 42.635,32.0032 c 0.5954,1.1731 1.1504,2.3612 1.6601,3.5651 -0.5095,-1.2038 -1.0649,-2.3918 -1.6601,-3.5651 z m 5.8433,17.1237 c 0.736,3.2406 1.3925,6.5462 1.9721,9.916 -0.5797,-3.3685 -1.235,-6.6751 -1.9721,-9.916 z m 3.1975,17.6578 c 0.4331,3.0112 0.801,5.9738 1.0981,8.8935 -0.2961,-2.9188 -0.6662,-5.8826 -1.0981,-8.8935 z m 0.1356,62.6777 c -0.3548,2.2735 -0.7721,4.5569 -1.2473,6.8523 0.4745,-2.2955 0.893,-4.5791 1.2473,-6.8523 z m -2.6096,12.7098 c -0.7464,2.8948 -1.6195,5.7933 -2.6239,8.6933 1.0034,-2.9001 1.8783,-5.7986 2.6239,-8.6933 z m -4.3764,13.3849 c -1.2463,3.11 -2.6687,6.2213 -4.2736,9.3353 1.6035,-3.1139 3.0284,-6.2251 4.2736,-9.3353 z m -6.623,13.658 c -1.7955,3.1451 -3.7905,6.2961 -5.9911,9.4536 2.1982,-3.1573 4.1973,-6.3085 5.9911,-9.4536 z m -8.9904,13.5845 c -2.4639,3.2654 -5.1377,6.4915 -8.0098,9.6364 2.8708,-3.1457 5.5472,-6.3709 8.0098,-9.6364 z m -78.116,45.2427 c -2.0568,0.299 -4.1142,0.5871 -6.1727,0.8397 2.0584,-0.2525 4.1158,-0.5408 6.1727,-0.8397 z m -17.2083,2.0451 c -7.9841,0.8256 -16.1299,1.5037 -24.5405,2.0076 8.4079,-0.5056 16.5574,-1.1808 24.5405,-2.0076 z m -103.6674,1.6743 c 2.7093,0.2098 5.4006,0.3695 8.3238,0.551 -2.929,-0.1789 -5.597,-0.3416 -8.3238,-0.551 z m 65.5664,0.9489 c -6.3405,0.1955 -12.0452,0.311 -17.1411,0.3282 5.0391,-0.014 10.8447,-0.1436 17.1411,-0.3282 z m -39.1216,0.2649 c 1.8784,0.025 3.7066,0.057 5.581,0.068 -1.8745,-0.01 -3.7027,-0.043 -5.581,-0.068 z"
         sodipodi:nodetypes="sccscsccccsssssccsssccsssssssssscsscssscssssssssssscsssssssssssssssssccssssscssssssssscccccccccssssssssssssssssssssssssssssssssssssccssssscccccssssssscssssssssscccccccccccccccccccccccccccccccccccccccccccccccccccccc" />
    </g>
    <path
       id="ellipse21"
       style="opacity:0.72;mix-blend-mode:normal;fill:#808080;fill-opacity:0.480001;stroke:none;stroke-width:0.10066;stroke-linejoin:bevel;filter:url(#filter22)"
       d="m 614.73186,-1428.8965 a 190.28305,408.63712 87.888781 0 0 -130.03704,46.6926 190.28305,408.63712 87.888781 0 0 -56.36267,227.8238 c -0.25227,-0.1937 -0.3348,-0.2411 -0.61479,-0.4576 -2.38755,-1.8495 -5.85332,-4.5914 -8.23046,-6.5318 -1.85567,-1.5147 -2.7335,-2.2901 -3.52273,-2.9808 1.00231,0.8578 2.18966,1.8743 3.18258,2.7173 1.4103,1.1974 2.02171,1.7041 3.58669,2.9088 1.56509,1.2049 4.08289,3.1078 122.70623,113.4334 118.62332,110.3255 353.34902,329.06934 590.71723,406.67695 237.3679,77.60752 477.3621,14.07306 481.8464,-126.7522 0.8622,-27.06949 -7.0486,-57.01841 -21.9177,-89.2504 l 0.1827,0.0782 c 3.4457,-0.98379 5.8616,-1.53781 11.8766,-3.15121 6.014,-1.61307 18.0604,-4.81584 29.7148,-7.9541 11.6545,-3.13796 24.882,-6.74744 34.761,-9.44396 2.1972,-0.59971 5.6335,-1.64378 8.2689,-2.36058 6.3366,-1.7296 12.807,-3.58426 19.7501,-5.63889 3.2277,-0.95166 6.1942,-1.66237 9.1578,-2.61484 7.9109,-2.5414 15.7255,-5.17859 23.3581,-7.9657 3.1602,-1.15422 6.2509,-2.36436 9.2805,-3.62387 1.4359,-0.59662 2.9991,-1.09027 4.3977,-1.71671 1.7042,-0.76343 3.2701,-1.63652 4.9436,-2.42577 2.1042,-0.99249 4.1717,-2.01176 6.2157,-3.05087 2.7699,-1.40786 5.458,-2.8639 8.0892,-4.37094 2.8625,-1.63958 5.622,-3.34733 8.2804,-5.12345 1.0138,-0.67729 2.178,-1.25475 3.1581,-1.95406 1.1827,-0.84368 2.2122,-1.7928 3.3733,-2.65383 2.3811,-1.76584 4.6817,-3.5817 6.9177,-5.44152 5.5325,-4.60083 10.6836,-9.42555 14.5608,-14.91312 0.4783,-0.67693 0.7464,-1.45861 1.1999,-2.14915 1.7969,-2.73798 3.3846,-5.5802 4.7553,-8.52183 2.4199,-5.1879 4.3452,-10.58388 5.21,-16.34052 1.5264,-10.16029 1.129,-21.13061 -2.4484,-32.5489 -0.3757,-1.19998 -0.956,-2.42693 -1.4021,-3.63653 -0.3103,-0.8423 -0.6346,-1.6864 -0.9772,-2.5325 -2.4031,-5.9437 -5.6101,-11.962 -9.1795,-18.018 -2.2172,-3.7619 -4.5484,-7.52 -7.001,-11.2758 -0.9538,-1.4601 -1.7505,-2.9288 -2.7222,-4.384 -7.0175,-10.5082 -15.6483,-20.9411 -24.5348,-31.3373 -0.5967,-0.6982 -1.1868,-1.396 -1.7867,-2.0935 -2.7747,-3.2271 -5.4623,-6.4685 -8.2629,-9.6847 -1.8936,-2.1743 -3.9601,-4.3217 -5.9266,-6.4849 -0.8064,-0.8869 -1.6131,-1.7738 -2.4298,-2.6592 -6.8017,-7.3737 -13.8136,-14.7132 -20.9579,-22.0194 -1.9255,-1.9691 -4.0145,-3.9015 -5.9581,-5.8673 -6.3181,-6.3909 -12.7709,-12.7511 -19.3707,-19.0744 -2.0193,-1.9348 -3.8718,-3.9106 -5.9261,-5.8359 -2.1822,-2.0425 -4.5575,-4.027 -6.7813,-6.0575 -5.8491,-5.341 -11.7948,-10.6527 -17.8399,-15.9341 -2.2896,-2.0003 -4.4551,-4.0399 -6.7572,-6.0355 -15.1329,-13.1184 -29.7142,-26.527 -46.3748,-39.0327 -1.9196,-1.441 -3.9738,-2.8282 -5.9166,-4.264 -3.9285,-2.9034 -7.9189,-5.7731 -11.9633,-8.6209 -10.0352,-7.0653 -20.3392,-13.9593 -31.401,-20.1921 -1.2025,-0.6775 -2.5048,-1.256 -3.7223,-1.9215 -4.3817,-2.395 -8.8481,-4.7026 -13.3937,-6.9155 -2.3963,-1.1666 -4.777,-2.2889 -7.2087,-3.3964 -4.8804,-2.2229 -9.8169,-4.3138 -14.7974,-6.262 -1.1683,-0.4569 -2.299,-1.0282 -3.4707,-1.4683 -1.116,-0.4193 -2.2609,-0.7025 -3.3824,-1.1015 -3.8869,-1.3831 -7.7966,-2.6542 -11.7242,-3.8178 -2.7997,-0.8292 -5.5719,-1.6045 -8.3742,-2.3385 -2.861,-0.7528 -5.7138,-1.4597 -8.5629,-2.1248 -1.6491,-0.3841 -3.3151,-0.8723 -4.9562,-1.2299 -1.3343,-0.2931 -2.6345,-0.4371 -3.9622,-0.6986 -3.1163,-0.6141 -6.2169,-1.1625 -9.3012,-1.6398 -6.998,-1.0827 -13.9484,-1.9919 -20.8271,-2.7803 -7.1634,-0.8208 -14.2541,-1.4438 -21.2595,-1.9046 -1.8287,-0.1203 -3.6431,-0.2159 -5.4498,-0.2965 -1.6969,-0.076 -3.4456,-0.2445 -5.1193,-0.2799 -1.6111,-0.034 -3.1371,0.064 -4.7197,0.075 -1.3602,0.01 -2.7145,0.027 -4.0568,0.064 -5.9931,0.165 -11.8874,0.4792 -17.6753,0.9177 -3.6101,0.2735 -7.0971,0.7039 -10.5257,1.1945 -1.9209,0.2748 -3.7227,0.6809 -5.6245,0.9779 -5.2632,0.8216 -10.4506,1.7249 -15.5631,2.7091 -1.8191,0.3505 -3.7391,0.5934 -5.5387,0.9635 -2.5648,0.5273 -4.9648,1.2184 -7.4866,1.7887 -6.1841,1.3985 -12.3087,2.856 -18.3602,4.3861 -2.4739,0.6257 -5.0344,1.1673 -7.5066,1.7936 -10.4102,2.6368 -19.99,5.3291 -30.8523,8.2666 -10.8625,2.9376 -23.1652,6.2403 -29.3068,7.8967 -3.0668,0.8266 -4.5527,1.2234 -5.282,1.4309 h -0.011 c -0.2227,0.047 -0.3471,0.079 -0.6954,0.1687 6e-4,7e-4 -0.144,0.011 -0.015,0 0.1408,-0.028 -0.068,0.019 -0.091,0.01 l -0.056,-0.053 -98.9289,-93.1311 c 0.03,0.1299 0.1897,0.2751 0.2447,0.3993 a 190.28305,408.63712 87.888781 0 0 -97.9853,-64.3573 190.28305,408.63712 87.888781 0 0 -447.34135,-22.6832 z m -198.76769,264.5462 c -0.0509,-0.048 -0.12094,-0.1018 -0.17255,-0.1478 l -5.6e-4,-5e-4 c 0.0365,0.034 0.13498,0.1137 0.17406,0.148 z m -1.33717,-1.1426 c -0.90213,-0.7744 -0.49568,-0.4353 0.35165,0.3039 0.082,0.077 0.3663,0.3073 0.46298,0.392 -0.23492,-0.2015 -0.65206,-0.5564 -0.81463,-0.6959 z m 0.81463,0.6959 c 0.0697,0.065 0.27533,0.2302 0.35284,0.2982 -0.11011,-0.092 -0.24896,-0.2124 -0.35,-0.2989 z m 934.94657,5.5017 34.2859,-9.3585 c 0,0 23.2674,-6.5957 35.1973,-9.6073 11.3477,-2.8649 22.3042,-6.1608 34.5851,-8.0472 12.8845,-1.9797 26.403,-3.3657 40.7753,-3.4005 11.9842,-0.029 24.3675,-0.033 37.4855,2.6599 11.042,2.2669 22.6868,6.0123 33.2649,11.0623 13.8516,6.6127 25.3759,15.1336 37.4104,24.1721 12.0294,9.0347 22.5283,18.0233 31.4645,25.9878 2.2102,1.97 4.0771,3.7138 6.1124,5.5697 6.2428,6.2471 12.8256,12.9086 18.9804,19.9433 6.6467,7.5978 12.7754,15.5941 17.4883,23.9249 4.7129,8.3308 8.0443,17.0387 9.7312,26.2712 1.6868,9.2326 1.7047,18.9019 -1.051,27.373 -2.756,8.4713 -8.2601,15.8208 -15.9519,21.7755 -7.6916,5.95436 -17.2747,10.21413 -27.1198,14.25366 -9.8451,4.03963 -19.9945,7.90002 -31.2873,11.61719 -11.2925,3.71718 -21.5186,6.50927 -29.347,8.64608 -7.8284,2.13681 -16.1817,4.41585 -24.3512,6.32249 -8.1683,1.90687 -17.2739,3.63276 -24.0773,4.90099 l -0.031,0.0778 c 0,0 0.4216,0.57244 0.4995,0.68523 -75.8261,-101.88364 -181.8875,-202.71444 -184.0645,-204.82974 z"
       inkscape:transform-center-x="1.6020264"
       inkscape:transform-center-y="-0.063407675"
       transform="matrix(0.3758098,0.2641811,0.25593303,0.59377548,1489.7338,-1278.2589)"
       inkscape:export-filename="coffee_cup_with_shadow.svg"
       inkscape:export-xdpi="96.155426"
       inkscape:export-ydpi="96.155426" />
    <g
       id="g35"
       transform="matrix(0.55913351,-0.37007079,0.44978164,0.65595036,-1342.2931,415.13914)"
       style="stroke:none">
      <ellipse
         style="opacity:1;fill:#666666;fill-opacity:0.894118;stroke:#666666;stroke-width:0.0679698;stroke-linejoin:bevel;stroke-opacity:1"
         id="ellipse24"
         transform="matrix(-0.87830114,0.47810785,-0.72202233,-0.69186976,0,0)"
         cx="-2984.469"
         cy="327.75964"
         rx="184.06104"
         ry="192.61703" />
      <ellipse
         style="opacity:1;fill:#333333;fill-opacity:0.894118;stroke:#666666;stroke-width:0.0741851;stroke-linejoin:bevel;stroke-opacity:1"
         id="ellipse25"
         cx="514.74298"
         cy="3030.5369"
         rx="158.32584"
         ry="150.57817"
         transform="matrix(-0.69891835,-0.71520147,0.9055737,-0.42418896,0,0)" />
      <path
         style="opacity:1;fill:#333333;fill-opacity:0.894118;stroke:#666666;stroke-width:0.14314;stroke-linejoin:bevel;stroke-opacity:1"
         inkscape:path-effect="#path-effect30"
         inkscape:original-d="m 3078.2002,98.819018 c 0.3422,1.710882 0.6844,3.421462 1.0267,5.132332 2.2851,5.18664 4.57,10.37274 6.855,15.55908 5.8838,10.91524 11.7674,21.83027 17.6514,32.74593 10.5208,10.55144 21.0406,21.10199 31.5612,31.65331 10.9551,9.06974 21.9095,18.13892 32.8646,27.20871 16.1421,8.023 32.2831,16.04542 48.4252,24.06844 16.1804,6.732 32.3596,13.46351 48.5399,20.1955 18.5183,4.69871 37.0352,9.39706 55.5537,14.09582 18.4779,3.02626 36.954,6.05225 55.4317,9.07848 19.0806,1.96277 38.1598,3.92539 57.2404,5.88816 20.7161,-0.14616 41.4307,-0.2923 62.1467,-0.43846 17.432,-1.45193 34.8625,-2.90374 52.2947,-4.3557 20.0042,-2.84935 40.0062,-5.69838 60.0102,-8.5477 22.5929,-7.03913 45.1839,-14.07766 67.7767,-21.11675 15.2104,-6.79096 30.4199,-13.58149 45.6302,-20.37242 12.6966,-7.77415 25.3924,-15.54778 38.0891,-23.32201 14.7585,-13.20123 29.516,-26.40161 44.2742,-39.60254 6.7107,-10.3744 13.4212,-20.7484 20.132,-31.12303 2.2291,-5.69437 4.4581,-11.38824 6.6872,-17.08263 -0.6891,1.27881 -1.3781,2.55752 -2.0671,3.83632 2.4215,241.27736 4.843,482.54017 7.2646,723.81762 -257.1802,1.94032 -533.4285,4.02449 -771.525,5.82083 1.7599,-233.10101 4.1549,-550.31086 5.7029,-755.337723 -0.178,0.170921 -0.4252,0.40833 -0.6575,0.631505 -0.2252,-2.944195 -0.4681,-6.119155 -0.6373,-8.330993 0.2183,-6.652568 0.5482,-16.704808 0.8224,-25.057215 2.474,-7.092394 7.422,-21.277174 7.422,-21.277174 0,0 -0.938,27.165722 -1.4737,42.682779 0.5996,3.422031 1.1593,6.615968 1.6494,9.412982 0.3888,1.229153 0.8723,2.757615 1.3085,4.136547 z"
         transform="matrix(-0.48217309,-0.25557221,-0.49992613,0.63607311,4089.8638,-822.23164)"
         d="m 3078.1532,98.984987 c 0.3893,1.544903 0.7314,3.255483 2.0451,6.704243 1.3137,3.44875 3.5986,8.63486 7.683,16.68566 4.0844,8.0508 9.968,18.96581 18.1704,29.69937 8.2024,10.73357 18.7222,21.2841 29.46,31.09463 10.7379,9.81053 21.6923,18.87972 35.2409,27.4261 13.5486,8.54639 29.6896,16.56883 45.8508,23.94634 16.1613,7.3775 32.3405,14.10902 49.6898,19.82436 17.3493,5.71534 35.8662,10.41369 54.3644,14.2762 18.4982,3.86252 36.9743,6.88849 55.7535,9.383 18.7791,2.4945 37.8583,4.45712 57.7566,5.36543 19.8984,0.9083 40.613,0.76216 59.687,-0.0369 19.074,-0.79905 36.5045,-2.25086 55.2227,-4.40151 18.7182,-2.15065 38.7202,-4.99968 60.0187,-9.9439 21.2984,-4.94422 43.8894,-11.98276 62.791,-18.89778 18.9016,-6.91503 34.1111,-13.70558 48.0645,-20.98811 13.9535,-7.28253 26.6493,-15.05618 40.3769,-25.5439 13.7276,-10.48772 28.4851,-23.68808 39.2196,-35.47575 10.7344,-11.78768 17.4449,-22.1617 21.9148,-30.19619 4.47,-8.03448 6.699,-13.72837 7.469,-15.93615 0.77,-2.20777 0.081,-0.92906 0.9473,120.34901 0.8663,121.27807 3.2877,362.54088 -124.0916,484.14976 C 3578.4083,848.0778 3302.16,850.16197 3183.9917,734.50964 3065.8234,618.8573 3068.2184,301.64745 3068.9034,199.21949 c 0.685,-102.42796 0.4378,-102.190542 0.2091,-103.551067 -0.2288,-1.360524 -0.4717,-4.535486 -0.4471,-8.967688 0.024,-4.432203 0.3545,-14.484442 1.7285,-22.206843 1.3741,-7.722402 3.8481,-14.814791 6.3221,-21.907182 -0.4912,14.227593 -0.9379,27.165724 -0.906,36.635264 0.032,9.469541 0.5916,12.663485 1.0311,14.676565 0.4394,2.013081 0.9229,3.541545 1.3121,5.086448 z"
         id="path26" />
    </g>
    <g
       id="g4"
       transform="matrix(0.42,0,0,0.42,6.9750018,-1442.8578)"
       inkscape:export-filename="coffee_cup.svg"
       inkscape:export-xdpi="96.155426"
       inkscape:export-ydpi="96.155426">
      <ellipse
         style="opacity:1;fill:#87aade;fill-opacity:0.484672;stroke:none;stroke-width:0.0844512;stroke-linejoin:bevel;stroke-opacity:1"
         id="ellipse1"
         transform="matrix(0.5748436,0.81826331,0.9832882,-0.18205582,0,0)"
         cx="-3384.2896"
         cy="5475.5938"
         rx="188.45857"
         ry="290.41724"
         inkscape:export-filename="coffee_cup.svg"
         inkscape:export-xdpi="3.0946574"
         inkscape:export-ydpi="3.0946574" />
      <ellipse
         style="opacity:1;fill:#000000;fill-opacity:0.835037;stroke:none;stroke-width:0.0931704;stroke-linejoin:bevel"
         id="ellipse2"
         cx="5730.9824"
         cy="3390.9739"
         rx="238.81032"
         ry="157.46439"
         transform="matrix(0.97919428,-0.202925,-0.64084712,-0.76766852,0,0)" />
      <path
         id="path2"
         style="opacity:1;fill:#000080;fill-opacity:0.908029;stroke:none;stroke-width:0.114672;stroke-linejoin:bevel;stroke-opacity:1"
         d="m 3133.3017,-3770.4307 c -0.049,-0.7743 -0.02,-0.4329 0.018,0.3032 0,0.075 0.025,0.309 0.029,0.3933 -0.013,-0.2015 -0.038,-0.557 -0.046,-0.6965 z m 0.046,0.6965 v 0 c 0,0.064 0.019,0.2316 0.022,0.2992 -0.01,-0.092 -0.014,-0.2126 -0.02,-0.2992 z m 0.02,0.2992 c 0.058,0.8846 0.1282,1.9771 0.1917,2.8681 0.086,1.2003 0.1317,1.7112 0.3131,2.9491 0.1815,1.238 0.4976,3.2027 0.9845,111.4537 0.4869,108.251 1.1449,322.7837 102.0299,430.8026 100.8851,108.0189 301.99,109.5159 403.2029,3.6189 19.4552,-20.3555 35.1896,-44.7116 47.9722,-72.2404 l 0.065,0.097 c 2.9374,-0.033 4.902,0.047 9.957,0.069 5.0541,0.022 15.158,0.086 24.9608,0.1189 9.8027,0.033 20.962,0.034 29.2968,0.034 1.8537,0 4.827,-0.08 7.0488,-0.078 5.3461,0 10.8669,-0.067 16.8361,-0.1882 2.7725,-0.054 5.2062,0.022 7.8067,-0.087 6.9411,-0.2898 13.8861,-0.6723 20.8169,-1.2061 2.8698,-0.2212 5.7331,-0.4993 8.5912,-0.8274 1.3543,-0.1553 2.7198,-0.2066 4.0705,-0.3922 1.646,-0.2262 3.2782,-0.5643 4.9222,-0.8164 2.0672,-0.3172 4.1291,-0.6619 6.1893,-1.0269 2.7919,-0.4944 5.5639,-1.0423 8.3343,-1.6407 3.014,-0.6511 6.0086,-1.3751 8.9846,-2.172 1.135,-0.3038 2.2983,-0.5008 3.4266,-0.8284 1.3614,-0.3951 2.6961,-0.9019 4.0556,-1.3146 2.7877,-0.8465 5.5578,-1.7481 8.3163,-2.6959 6.8248,-2.3445 13.5568,-4.9378 19.9192,-8.2977 0.7848,-0.4145 1.5055,-0.9519 2.2836,-1.3818 3.0846,-1.7049 6.1052,-3.5317 9.0536,-5.4793 5.2013,-3.4343 10.2249,-7.1289 14.8074,-11.3167 8.0881,-7.3912 15.4848,-15.7952 21.1171,-25.1974 0.5919,-0.9881 1.0693,-2.0394 1.6221,-3.0494 0.3847,-0.7031 0.7621,-1.41 1.1291,-2.1228 2.5784,-5.0064 4.684,-10.2356 6.579,-15.5686 1.1772,-3.3127 2.2772,-6.6462 3.2964,-10.003 0.3962,-1.3051 0.9007,-2.5842 1.2816,-3.8892 2.75,-9.4242 4.3935,-19.1252 5.8446,-28.8515 0.098,-0.6531 0.199,-1.3046 0.294,-1.958 0.4397,-3.0225 0.9465,-6.0378 1.3617,-9.0574 0.2807,-2.0414 0.4295,-4.0983 0.6547,-6.1464 0.092,-0.8397 0.1844,-1.6795 0.2688,-2.5202 0.7033,-7.0018 1.2455,-14.0211 1.6779,-21.0426 0.1165,-1.8924 0.1006,-3.7912 0.2031,-5.6849 0.3333,-6.1561 0.5571,-12.3163 0.6594,-18.4795 0.031,-1.8858 0.2001,-3.7681 0.202,-5.654 0,-2.0012 -0.1666,-3.9984 -0.202,-5.9991 -0.093,-5.2626 -0.2696,-10.5229 -0.5323,-15.7809 -0.099,-1.9915 -0.091,-3.987 -0.2016,-5.9775 -0.7293,-13.0845 -0.8957,-26.2749 -3.0504,-39.211 -0.2483,-1.4906 -0.6218,-2.9682 -0.8888,-4.4597 -0.5398,-3.0158 -1.1435,-6.0189 -1.7979,-9.0165 -1.6239,-7.4374 -3.5431,-14.8004 -6.4187,-21.8188 -0.3126,-0.7629 -0.7595,-1.4713 -1.0903,-2.2283 -1.1905,-2.7241 -2.4976,-5.3993 -3.9223,-8.0191 -0.751,-1.3811 -1.5229,-2.7255 -2.3384,-4.0691 -1.6364,-2.6967 -3.4017,-5.3048 -5.2953,-7.814 -0.4441,-0.5884 -0.784,-1.2559 -1.2423,-1.8324 -0.4364,-0.5491 -0.9865,-1.0009 -1.4407,-1.5358 -1.5736,-1.854 -3.2402,-3.6278 -4.9935,-5.3237 -1.2499,-1.2089 -2.5199,-2.3708 -3.838,-3.5078 -1.3459,-1.1614 -2.7131,-2.2907 -4.1103,-3.3848 -0.8088,-0.6331 -1.5587,-1.3465 -2.3792,-1.9591 -0.6674,-0.4982 -1.4159,-0.877 -2.1007,-1.3503 -1.6069,-1.111 -3.2494,-2.169 -4.9309,-3.1698 -3.8156,-2.2703 -7.7208,-4.3991 -11.6639,-6.4213 -4.1061,-2.1059 -8.3031,-4.0467 -12.5574,-5.8467 -1.1106,-0.4699 -2.2288,-0.9186 -3.3527,-1.3539 -1.0556,-0.4088 -2.0801,-0.8984 -3.1487,-1.2718 -1.0286,-0.3594 -2.0938,-0.6014 -3.1353,-0.9208 -0.8948,-0.2747 -1.7917,-0.5417 -2.6943,-0.7917 -4.0297,-1.1157 -8.0993,-2.0973 -12.1859,-2.9632 -2.549,-0.54 -5.1271,-0.9359 -7.709,-1.2737 -1.4466,-0.1893 -2.9069,-0.2538 -4.3564,-0.4223 -4.0112,-0.4665 -8.0302,-0.8558 -12.0566,-1.1678 -1.4327,-0.1109 -2.8565,-0.3236 -4.2902,-0.4155 -2.0433,-0.1311 -4.0932,-0.1037 -6.1386,-0.1933 -5.0155,-0.2196 -10.0332,-0.3822 -15.0539,-0.4744 -2.0527,-0.038 -4.1031,-0.1569 -6.1551,-0.1938 -8.6401,-0.1553 -16.7766,-0.096 -25.922,-0.1173 -9.1455,-0.021 -19.4866,-0.063 -24.6543,-0.078 v 0 c -2.5802,-0.01 -3.8276,-0.014 -4.4488,-0.01 l -0.01,4e-4 c -0.1784,-0.01 -0.2821,-0.012 -0.5724,-0.016 0,7e-4 -0.1017,-0.022 -0.012,0 0.1115,0.01 -0.058,0 -0.064,-0.014 l 6e-4,-0.052 0.3774,-91.1294 c -0.4727,0.6955 -0.4313,1.3912 -0.7902,2.3502 -0.3588,0.9591 -0.6039,2.1807 -0.9492,3.6159 -0.3453,1.4352 -0.7909,3.0827 -1.231,4.6013 -0.4401,1.5184 -0.8744,2.9072 -1.6846,5.1541 -0.8103,2.247 -1.9804,5.3101 -3.16,8.1515 -1.1798,2.8413 -2.3069,5.3104 -4.5093,9.1643 -2.2025,3.8538 -5.465,9.0584 -9.1906,14.0792 -3.7257,5.0209 -7.914,9.8576 -12.5208,14.5547 -4.6068,4.697 -9.6318,9.2545 -14.8802,13.441 -5.2486,4.1865 -10.7198,8.0016 -15.3158,11.1379 -4.5961,3.1361 -8.3168,5.5927 -11.773,7.663 -3.4563,2.0703 -6.6486,3.7542 -9.5684,5.2912 -2.9199,1.537 -5.5671,2.9274 -8.8785,4.5667 -3.3115,1.6392 -7.2869,3.5276 -11.1539,5.2456 -3.8668,1.718 -7.625,3.2656 -12.2292,5.1108 -4.6042,1.8452 -10.0542,3.9884 -17.5394,6.5262 -7.4854,2.5378 -17.0056,5.4704 -26.2052,7.9825 -9.1996,2.5121 -18.0781,4.6031 -28.6132,6.6849 -10.5351,2.0817 -22.727,4.1542 -35.4579,5.7707 -12.7309,1.6164 -25.9991,2.7766 -39.9882,3.5186 -13.9891,0.7419 -28.6963,1.0654 -43.8309,0.7007 -15.1346,-0.3646 -30.6936,-1.4168 -45.6122,-3.0168 -14.9187,-1.6 -29.1947,-3.7472 -43.4677,-6.4265 -14.273,-2.6793 -28.5402,-5.89 -44.7151,-10.6387 -16.1747,-4.7486 -34.2541,-11.0343 -50.6594,-18.2035 -16.4052,-7.1692 -31.1332,-15.2211 -42.8021,-22.7232 -11.6686,-7.502 -20.3199,-14.4881 -26.6774,-19.9956 -6.3576,-5.5076 -10.5059,-9.604 -14.7132,-14.2885 -4.2076,-4.6847 -8.368,-9.8424 -11.2284,-13.7114 -2.8604,-3.869 -4.3412,-6.2992 -5.6978,-8.6041 -1.3566,-2.3049 -2.2357,-3.8979 -2.8282,-5.0028 -0.5926,-1.1049 -1.1867,-2.258 -1.7157,-3.3078 -0.5292,-1.0498 -0.9279,-1.8661 -1.3607,-2.7874 -0.4328,-0.9213 -1.0945,-2.3631 -1.6536,-3.6949 -0.5592,-1.3318 -1.0063,-2.5384 -1.2744,-3.2437 -0.268,-0.7053 -0.566,-1.4603 -0.8882,-2.3585 -0.3222,-0.8982 -0.6059,-1.751 -0.9209,-2.6986 h 5e-4 c 0,0 -1.0919,-3.6034 -1.2062,-4.0333 -0.1141,-0.4299 -0.3429,-1.29 -0.6072,-2.3782 -0.2641,-1.0881 -0.5639,-2.4041 -0.8076,-3.5609 -0.2438,-1.1569 -0.4314,-2.1542 -0.7003,-4.0515 -0.2687,-1.8973 -0.6189,-4.6949 -0.8175,-6.659 -0.1627,-1.6092 -0.1966,-2.4294 -0.2315,-3.1389 z m 635.772,197.4597 c 0,0 19.8009,-0.1856 29.6954,0 9.4117,0.1764 18.8686,-0.055 28.2071,1.0567 9.7978,1.166 19.5952,2.9137 29.0075,5.8632 7.8481,2.4595 15.9401,5.0201 22.6291,9.7793 5.6304,4.0059 10.6228,9.2582 14.0079,15.2792 4.4328,7.8842 6.0136,16.734 7.5665,26.0821 1.5522,9.3442 2.1371,18.3365 2.4158,26.2284 0.069,1.9521 0.071,3.6613 0.1054,5.4906 -0.2822,6.0315 -0.6318,12.4476 -1.5213,19.0583 -0.9609,7.1397 -2.5379,14.4744 -5.2736,21.7697 -2.7357,7.2953 -6.6369,14.5906 -11.9786,21.9434 -5.3416,7.3527 -12.0788,14.6912 -19.791,20.5466 -7.7124,5.8554 -16.4369,10.2908 -25.617,13.2152 -9.1798,2.9242 -18.4119,4.1712 -27.6619,5.197 -9.2501,1.0258 -18.5744,1.8527 -28.545,2.3342 -9.9706,0.4816 -18.5984,0.4822 -25.2032,0.4822 -6.6048,0 -13.6518,-8e-4 -20.3186,-0.246 -6.6664,-0.2448 -13.8192,-0.821 -19.1482,-1.2676 l -0.074,0.053 c 0,0 -0.1237,0.5215 -0.1514,0.6232 21.5764,-92.9858 22.6678,-191.433 22.7221,-193.4883 z m 46.7373,0.2166 c 2.7518,0.094 5.4973,0.2656 8.2367,0.5148 -2.7398,-0.2494 -5.4853,-0.4204 -8.2367,-0.5148 z m 14.8678,1.2697 c 2.4223,0.3271 4.8374,0.7021 7.2482,1.1193 -2.411,-0.4172 -4.826,-0.7921 -7.2482,-1.1193 z m 13.425,2.311 c 3.1803,0.6775 6.3316,1.4645 9.4496,2.3689 -3.118,-0.9045 -6.2696,-1.6912 -9.4496,-2.3689 z m 15.2745,4.1393 c 1.6807,0.5396 3.344,1.1205 5.01,1.7172 -1.6664,-0.5967 -3.3297,-1.1778 -5.01,-1.7172 z m 34.108,25.6025 c 0.4763,0.9385 0.9203,1.889 1.3281,2.8521 -0.4076,-0.963 -0.8519,-1.9134 -1.3281,-2.8521 z m 4.6747,13.699 c 0.5888,2.5925 1.114,5.2369 1.5776,7.9328 -0.4637,-2.6948 -0.988,-5.3401 -1.5776,-7.9328 z m 2.558,14.1262 c 0.3464,2.409 0.6408,4.7791 0.8784,7.1148 -0.2368,-2.335 -0.5329,-4.7061 -0.8784,-7.1148 z m 0.1084,50.1422 c -0.2838,1.8188 -0.6176,3.6455 -0.9978,5.4818 0.3796,-1.8364 0.7144,-3.6633 0.9978,-5.4818 z m -2.0876,10.1678 c -0.5972,2.3159 -1.2956,4.6347 -2.0992,6.9547 0.8028,-2.3201 1.5027,-4.6389 2.0992,-6.9547 z m -3.5012,10.7079 c -0.997,2.488 -2.1349,4.9771 -3.4188,7.4683 1.2828,-2.4911 2.4227,-4.9801 3.4188,-7.4683 z m -5.2984,10.9264 c -1.4364,2.5161 -3.0324,5.0369 -4.7928,7.5629 1.7585,-2.5258 3.3578,-5.0468 4.7928,-7.5629 z m -7.1923,10.8676 c -1.9711,2.6124 -4.1101,5.1932 -6.4078,7.7092 2.2966,-2.5166 4.4377,-5.0968 6.4078,-7.7092 z m -62.4928,36.1942 c -1.6454,0.2392 -3.2913,0.4697 -4.9381,0.6718 1.6467,-0.202 3.2926,-0.4327 4.9381,-0.6718 z m -13.7666,1.6361 c -6.3873,0.6605 -12.9039,1.203 -19.6324,1.6061 6.7263,-0.4045 13.2459,-0.9447 19.6324,-1.6061 z m -82.9339,1.3394 c 2.1674,0.1679 4.3204,0.2956 6.659,0.4408 -2.3432,-0.1431 -4.4776,-0.2732 -6.659,-0.4408 z m 52.4531,0.7592 c -5.0724,0.1564 -9.6362,0.2488 -13.7129,0.2625 4.0313,-0.011 8.6758,-0.1149 13.7129,-0.2625 z m -31.2973,0.2119 c 1.5027,0.02 2.9653,0.046 4.4648,0.054 -1.4996,-0.01 -2.9622,-0.034 -4.4648,-0.054 z"
         sodipodi:nodetypes="sccscsccccsssssccsssccsssssssssscsscssscssssssssssscsssssssssssssssssccssssscssssssssscccccccccssssssssssssssssssssssssssssssssssssccssssscccccssssssscssssssssscccccccccccccccccccccccccccccccccccccccccccccccccccccc" />
    </g>
    <g
       id="g20"
       transform="matrix(0.315,0,0,0.315,2508.2988,-828.89605)"
       inkscape:export-filename="coffee_plate.svg"
       inkscape:export-xdpi="96.155426"
       inkscape:export-ydpi="96.155426">
      <path
         id="path8"
         style="fill:#333333;stroke-width:6.12672;stroke-linecap:round;stroke-linejoin:round;filter:url(#filter960)"
         inkscape:transform-center-x="2.9369205"
         inkscape:transform-center-y="-16.473009"
         transform="matrix(-1.9018703,0.76678233,1.7375302,1.0890612,1259.4501,-344.76095)"
         d="m 270.86163,241.82918 c 0,69.23019 -55.08879,125.3386 -128.05386,125.3386 -72.965055,0 -136.1759951,-56.10842 -136.1759951,-125.3386 0,-69.23018 59.1498661,-125.35234 132.1149251,-125.35234 72.96506,0 132.11493,56.12215 132.11493,125.35234 z"
         sodipodi:nodetypes="sssss" />
      <path
         id="path9"
         style="fill:#cccccc;stroke:#b7b7b7;stroke-width:1.59842;stroke-linecap:round;stroke-linejoin:round"
         d="m 1574.5773,-46.970527 a 192.24429,73.784382 0 0 1 -192.2443,73.784384 192.24429,73.784382 0 0 1 -192.2443,-73.784384 192.24429,73.784382 0 0 1 192.2443,-73.784393 192.24429,73.784382 0 0 1 192.2443,73.784393 z" />
      <path
         id="path15"
         style="fill:url(#radialGradient20);stroke-width:11.0595;stroke-linecap:round;stroke-linejoin:round"
         inkscape:transform-center-x="6.0875018"
         inkscape:transform-center-y="-15.373352"
         d="m 1184.5395,98.0849 c 57.8357,28.0821 120.9884,47.82785 188.829,53.21836 89.4104,7.1044 186.6493,-4.00446 289.6019,-43.94596 63.6218,-24.682743 95.4642,-68.637348 93.2903,-110.9851204 -2.1739,-42.3477726 -39.9012,-83.6518686 -104.8823,-114.8258596 -135.3161,-64.91646 -349.5169,-69.06783 -478.4309,-9.27235 -61.9066,28.714806 -95.4641,68.637337 -93.2902,110.985097 2.1739,42.34776 40.0488,83.34601 104.8822,114.825833 z"
         sodipodi:nodetypes="ssssssss" />
      <path
         id="path16"
         style="fill:#e2e2e2;stroke-width:11.4382;stroke-linecap:round;stroke-linejoin:round"
         d="m 1144.8286,72.0101 c 157.3319,95.46404 351.861,96.60754 509.803,34.72787 33.3272,-13.05717 60.4628,-27.808867 81.1446,-52.512314 11.8968,-14.210198 21.5805,-36.960455 21.5284,-51.2611904 -0.1576,-43.2826256 -23.2968,-89.6076326 -82.708,-125.6576556 -123.7175,-75.07029 -339.7117,-90.76763 -482.4364,-35.06094 -68.5388,26.75129 -127.5182,66.418338 -112.8625,140.962849 3.9653,20.1690832 7.7668,30.519691 27.0295,55.426046 8.8772,11.478069 23.8121,24.462313 38.5014,33.375335 z"
         inkscape:label="ellipse956"
         sodipodi:nodetypes="ssassssss" />
      <path
         id="path17"
         style="fill:url(#linearGradient20);stroke-width:6.11686;stroke-linecap:round;stroke-linejoin:round;filter:url(#filter963)"
         transform="matrix(-1.9766098,0.55852091,1.6016486,1.294002,1167.1595,-353.78586)"
         d="M 202.62911,227.49599 A 144.86467,113.95287 0 0 1 57.764442,341.44886 144.86467,113.95287 0 0 1 -87.100227,227.49599 144.86467,113.95287 0 0 1 57.764442,113.54311 144.86467,113.95287 0 0 1 202.62911,227.49599 Z" />
      <path
         id="path18"
         style="opacity:0.91;fill:url(#radialGradient21);fill-opacity:0.894118;stroke-width:11.3199;stroke-linecap:round;stroke-linejoin:round"
         d="m 1161.4299,72.566164 a 340.43909,166.06491 2.7890502 0 0 479.7998,34.528596 340.43909,166.06491 2.7890502 0 0 34.2274,-233.19761 340.43909,166.06491 2.7890502 0 0 -479.7997,-34.5286 340.43909,166.06491 2.7890502 0 0 -34.2275,233.197614 z" />
      <path
         id="path20"
         style="opacity:1;fill:#dbe3de;fill-opacity:0.143328;stroke:none;stroke-width:1.53751;stroke-linecap:round;stroke-linejoin:round"
         d="m 2072.596,-125.25998 a 205.16345,95.455767 1.0120735 0 1 282.1548,-27.4938 205.16345,95.455767 1.0120735 0 1 67.4694,132.243296 A 205.16345,95.455767 1.0120735 0 1 2140.0654,6.9832163 205.16345,95.455767 1.0120735 0 1 2072.596,-125.25998 Z"
         transform="translate(-829.97456,33.701005)" />
    </g>
    <g
       id="g23"
       transform="matrix(0.21,0,0,0.21,2194.5525,-2305.2741)"
       inkscape:export-filename="coffee_cup.svg"
       inkscape:export-xdpi="96.155426"
       inkscape:export-ydpi="96.155426">
      <ellipse
         style="opacity:1;fill:#87aade;fill-opacity:0.484672;stroke:none;stroke-width:0.0844512;stroke-linejoin:bevel;stroke-opacity:1"
         id="ellipse22"
         transform="matrix(0.5748436,0.81826331,0.9832882,-0.18205582,0,0)"
         cx="-3032.6052"
         cy="4893.6025"
         rx="188.45857"
         ry="290.41724"
         inkscape:export-filename="coffee_cup.svg"
         inkscape:export-xdpi="3.0946574"
         inkscape:export-ydpi="3.0946574" />
      <ellipse
         style="opacity:1;fill:#000000;fill-opacity:0.835037;stroke:none;stroke-width:0.0931704;stroke-linejoin:bevel"
         id="ellipse23"
         cx="5122.6025"
         cy="3038.9082"
         rx="238.81032"
         ry="157.46439"
         transform="matrix(0.97919428,-0.202925,-0.64084712,-0.76766852,0,0)" />
      <path
         id="path23"
         style="opacity:1;fill:#000080;fill-opacity:0.908029;stroke:none;stroke-width:0.114672;stroke-linejoin:bevel;stroke-opacity:1"
         d="m 2763.2,-3376.7055 c -0.049,-0.7743 -0.02,-0.4329 0.018,0.3032 0,0.075 0.025,0.309 0.029,0.3933 -0.013,-0.2015 -0.038,-0.557 -0.046,-0.6965 z m 0.046,0.6965 v 0 c 0,0.064 0.019,0.2316 0.022,0.2992 -0.01,-0.092 -0.014,-0.2126 -0.02,-0.2992 z m 0.02,0.2992 c 0.058,0.8846 0.1282,1.9771 0.1917,2.8681 0.086,1.2003 0.1317,1.7112 0.3131,2.9491 0.1815,1.238 0.4976,3.2027 0.9845,111.4537 0.4869,108.251 1.1449,322.7837 102.0299,430.8026 100.8851,108.0189 301.99,109.5159 403.2029,3.6189 19.4552,-20.3555 35.1896,-44.7116 47.9722,-72.2404 l 0.065,0.097 c 2.9374,-0.033 4.902,0.047 9.957,0.069 5.0541,0.022 15.158,0.086 24.9608,0.1189 9.8027,0.033 20.962,0.034 29.2968,0.034 1.8537,0 4.827,-0.08 7.0488,-0.078 5.3461,0 10.8669,-0.067 16.8361,-0.1882 2.7725,-0.054 5.2062,0.022 7.8067,-0.087 6.9411,-0.2898 13.8861,-0.6723 20.8169,-1.2061 2.8698,-0.2212 5.7331,-0.4993 8.5912,-0.8274 1.3543,-0.1553 2.7198,-0.2066 4.0705,-0.3922 1.646,-0.2262 3.2782,-0.5643 4.9222,-0.8164 2.0672,-0.3172 4.1291,-0.6619 6.1893,-1.0269 2.7919,-0.4944 5.5639,-1.0423 8.3343,-1.6407 3.014,-0.6511 6.0086,-1.3751 8.9846,-2.172 1.135,-0.3038 2.2983,-0.5008 3.4266,-0.8284 1.3614,-0.3951 2.6961,-0.9019 4.0556,-1.3146 2.7877,-0.8465 5.5578,-1.7481 8.3163,-2.6959 6.8248,-2.3445 13.5568,-4.9378 19.9192,-8.2977 0.7848,-0.4145 1.5055,-0.9519 2.2836,-1.3818 3.0846,-1.7049 6.1052,-3.5317 9.0536,-5.4793 5.2013,-3.4343 10.2249,-7.1289 14.8074,-11.3167 8.0881,-7.3912 15.4848,-15.7952 21.1171,-25.1974 0.5919,-0.9881 1.0693,-2.0394 1.6221,-3.0494 0.3847,-0.7031 0.7621,-1.41 1.1291,-2.1228 2.5784,-5.0064 4.684,-10.2356 6.579,-15.5686 1.1772,-3.3127 2.2772,-6.6462 3.2964,-10.003 0.3962,-1.3051 0.9007,-2.5842 1.2816,-3.8892 2.75,-9.4242 4.3935,-19.1252 5.8446,-28.8515 0.098,-0.6531 0.199,-1.3046 0.294,-1.958 0.4397,-3.0225 0.9465,-6.0378 1.3617,-9.0574 0.2807,-2.0414 0.4295,-4.0983 0.6547,-6.1464 0.092,-0.8397 0.1844,-1.6795 0.2688,-2.5202 0.7033,-7.0018 1.2455,-14.0211 1.6779,-21.0426 0.1165,-1.8924 0.1006,-3.7912 0.2031,-5.6849 0.3333,-6.1561 0.5571,-12.3163 0.6594,-18.4795 0.031,-1.8858 0.2001,-3.7681 0.202,-5.654 0,-2.0012 -0.1666,-3.9984 -0.202,-5.9991 -0.093,-5.2626 -0.2696,-10.5229 -0.5323,-15.7809 -0.099,-1.9915 -0.091,-3.987 -0.2016,-5.9775 -0.7293,-13.0845 -0.8957,-26.2749 -3.0504,-39.211 -0.2483,-1.4906 -0.6218,-2.9682 -0.8888,-4.4597 -0.5398,-3.0158 -1.1435,-6.0189 -1.7979,-9.0165 -1.6239,-7.4374 -3.5431,-14.8004 -6.4187,-21.8188 -0.3126,-0.7629 -0.7595,-1.4713 -1.0903,-2.2283 -1.1905,-2.7241 -2.4976,-5.3993 -3.9223,-8.0191 -0.751,-1.3811 -1.5229,-2.7255 -2.3384,-4.0691 -1.6364,-2.6967 -3.4017,-5.3048 -5.2953,-7.814 -0.4441,-0.5884 -0.784,-1.2559 -1.2423,-1.8324 -0.4364,-0.5491 -0.9865,-1.0009 -1.4407,-1.5358 -1.5736,-1.854 -3.2402,-3.6278 -4.9935,-5.3237 -1.2499,-1.2089 -2.5199,-2.3708 -3.838,-3.5078 -1.3459,-1.1614 -2.7131,-2.2907 -4.1103,-3.3848 -0.8088,-0.6331 -1.5587,-1.3465 -2.3792,-1.9591 -0.6674,-0.4982 -1.4159,-0.877 -2.1007,-1.3503 -1.6069,-1.111 -3.2494,-2.169 -4.9309,-3.1698 -3.8156,-2.2703 -7.7208,-4.3991 -11.6639,-6.4213 -4.1061,-2.1059 -8.3031,-4.0467 -12.5574,-5.8467 -1.1106,-0.4699 -2.2288,-0.9186 -3.3527,-1.3539 -1.0556,-0.4088 -2.0801,-0.8984 -3.1487,-1.2718 -1.0286,-0.3594 -2.0938,-0.6014 -3.1353,-0.9208 -0.8948,-0.2747 -1.7917,-0.5417 -2.6943,-0.7917 -4.0297,-1.1157 -8.0993,-2.0973 -12.1859,-2.9632 -2.549,-0.54 -5.1271,-0.9359 -7.709,-1.2737 -1.4466,-0.1893 -2.9069,-0.2538 -4.3564,-0.4223 -4.0112,-0.4665 -8.0302,-0.8558 -12.0566,-1.1678 -1.4327,-0.1109 -2.8565,-0.3236 -4.2902,-0.4155 -2.0433,-0.1311 -4.0932,-0.1037 -6.1386,-0.1933 -5.0155,-0.2196 -10.0332,-0.3822 -15.0539,-0.4744 -2.0527,-0.038 -4.1031,-0.1569 -6.1551,-0.1938 -8.6401,-0.1553 -16.7766,-0.096 -25.922,-0.1173 -9.1455,-0.021 -19.4866,-0.063 -24.6543,-0.078 v 0 c -2.5802,-0.01 -3.8276,-0.014 -4.4488,-0.01 l -0.01,4e-4 c -0.1784,-0.01 -0.2821,-0.012 -0.5724,-0.016 0,7e-4 -0.1017,-0.022 -0.012,0 0.1115,0.01 -0.058,0 -0.064,-0.014 l 6e-4,-0.052 0.3774,-91.1294 c -0.4727,0.6955 -0.4313,1.3912 -0.7902,2.3502 -0.3588,0.9591 -0.6039,2.1807 -0.9492,3.6159 -0.3453,1.4352 -0.7909,3.0827 -1.231,4.6013 -0.4401,1.5184 -0.8744,2.9072 -1.6846,5.1541 -0.8103,2.247 -1.9804,5.3101 -3.16,8.1515 -1.1798,2.8413 -2.3069,5.3104 -4.5093,9.1643 -2.2025,3.8538 -5.465,9.0584 -9.1906,14.0792 -3.7257,5.0209 -7.914,9.8576 -12.5208,14.5547 -4.6068,4.697 -9.6318,9.2545 -14.8802,13.441 -5.2486,4.1865 -10.7198,8.0016 -15.3158,11.1379 -4.5961,3.1361 -8.3168,5.5927 -11.773,7.663 -3.4563,2.0703 -6.6486,3.7542 -9.5684,5.2912 -2.9199,1.537 -5.5671,2.9274 -8.8785,4.5667 -3.3115,1.6392 -7.2869,3.5276 -11.1539,5.2456 -3.8668,1.718 -7.625,3.2656 -12.2292,5.1108 -4.6042,1.8452 -10.0542,3.9884 -17.5394,6.5262 -7.4854,2.5378 -17.0056,5.4704 -26.2052,7.9825 -9.1996,2.5121 -18.0781,4.6031 -28.6132,6.6849 -10.5351,2.0817 -22.727,4.1542 -35.4579,5.7707 -12.7309,1.6164 -25.9991,2.7766 -39.9882,3.5186 -13.9891,0.7419 -28.6963,1.0654 -43.8309,0.7007 -15.1346,-0.3646 -30.6936,-1.4168 -45.6122,-3.0168 -14.9187,-1.6 -29.1947,-3.7472 -43.4677,-6.4265 -14.273,-2.6793 -28.5402,-5.89 -44.7151,-10.6387 -16.1747,-4.7486 -34.2541,-11.0343 -50.6594,-18.2035 -16.4052,-7.1692 -31.1332,-15.2211 -42.8021,-22.7232 -11.6686,-7.502 -20.3199,-14.4881 -26.6774,-19.9956 -6.3576,-5.5076 -10.5059,-9.604 -14.7132,-14.2885 -4.2076,-4.6847 -8.368,-9.8424 -11.2284,-13.7114 -2.8604,-3.869 -4.3412,-6.2992 -5.6978,-8.6041 -1.3566,-2.3049 -2.2357,-3.8979 -2.8282,-5.0028 -0.5926,-1.1049 -1.1867,-2.258 -1.7157,-3.3078 -0.5292,-1.0498 -0.9279,-1.8661 -1.3607,-2.7874 -0.4328,-0.9213 -1.0945,-2.3631 -1.6536,-3.6949 -0.5592,-1.3318 -1.0063,-2.5384 -1.2744,-3.2437 -0.268,-0.7053 -0.566,-1.4603 -0.8882,-2.3585 -0.3222,-0.8982 -0.6059,-1.751 -0.9209,-2.6986 h 5e-4 c 0,0 -1.0919,-3.6034 -1.2062,-4.0333 -0.1141,-0.4299 -0.3429,-1.29 -0.6072,-2.3782 -0.2641,-1.0881 -0.5639,-2.4041 -0.8076,-3.5609 -0.2438,-1.1569 -0.4314,-2.1542 -0.7003,-4.0515 -0.2687,-1.8973 -0.6189,-4.6949 -0.8175,-6.659 -0.1627,-1.6092 -0.1966,-2.4294 -0.2315,-3.1389 z m 635.772,197.4597 c 0,0 19.8009,-0.1856 29.6954,0 9.4117,0.1764 18.8686,-0.055 28.2071,1.0567 9.7978,1.166 19.5952,2.9137 29.0075,5.8632 7.8481,2.4595 15.9401,5.0201 22.6291,9.7793 5.6304,4.0059 10.6228,9.2582 14.0079,15.2792 4.4328,7.8842 6.0136,16.734 7.5665,26.0821 1.5522,9.3442 2.1371,18.3365 2.4158,26.2284 0.069,1.9521 0.071,3.6613 0.1054,5.4906 -0.2822,6.0315 -0.6318,12.4476 -1.5213,19.0583 -0.9609,7.1397 -2.5379,14.4744 -5.2736,21.7697 -2.7357,7.2953 -6.6369,14.5906 -11.9786,21.9434 -5.3416,7.3527 -12.0788,14.6912 -19.791,20.5466 -7.7124,5.8554 -16.4369,10.2908 -25.617,13.2152 -9.1798,2.9242 -18.4119,4.1712 -27.6619,5.197 -9.2501,1.0258 -18.5744,1.8527 -28.545,2.3342 -9.9706,0.4816 -18.5984,0.4822 -25.2032,0.4822 -6.6048,0 -13.6518,-8e-4 -20.3186,-0.246 -6.6664,-0.2448 -13.8192,-0.821 -19.1482,-1.2676 l -0.074,0.053 c 0,0 -0.1237,0.5215 -0.1514,0.6232 21.5764,-92.9858 22.6678,-191.433 22.7221,-193.4883 z m 46.7373,0.2166 c 2.7518,0.094 5.4973,0.2656 8.2367,0.5148 -2.7398,-0.2494 -5.4853,-0.4204 -8.2367,-0.5148 z m 14.8678,1.2697 c 2.4223,0.3271 4.8374,0.7021 7.2482,1.1193 -2.411,-0.4172 -4.826,-0.7921 -7.2482,-1.1193 z m 13.425,2.311 c 3.1803,0.6775 6.3316,1.4645 9.4496,2.3689 -3.118,-0.9045 -6.2696,-1.6912 -9.4496,-2.3689 z m 15.2745,4.1393 c 1.6807,0.5396 3.344,1.1205 5.01,1.7172 -1.6664,-0.5967 -3.3297,-1.1778 -5.01,-1.7172 z m 34.108,25.6025 c 0.4763,0.9385 0.9203,1.889 1.3281,2.8521 -0.4076,-0.963 -0.8519,-1.9134 -1.3281,-2.8521 z m 4.6747,13.699 c 0.5888,2.5925 1.114,5.2369 1.5776,7.9328 -0.4637,-2.6948 -0.988,-5.3401 -1.5776,-7.9328 z m 2.558,14.1262 c 0.3464,2.409 0.6408,4.7791 0.8784,7.1148 -0.2368,-2.335 -0.5329,-4.7061 -0.8784,-7.1148 z m 0.1084,50.1422 c -0.2838,1.8188 -0.6176,3.6455 -0.9978,5.4818 0.3796,-1.8364 0.7144,-3.6633 0.9978,-5.4818 z m -2.0876,10.1678 c -0.5972,2.3159 -1.2956,4.6347 -2.0992,6.9547 0.8028,-2.3201 1.5027,-4.6389 2.0992,-6.9547 z m -3.5012,10.7079 c -0.997,2.488 -2.1349,4.9771 -3.4188,7.4683 1.2828,-2.4911 2.4227,-4.9801 3.4188,-7.4683 z m -5.2984,10.9264 c -1.4364,2.5161 -3.0324,5.0369 -4.7928,7.5629 1.7585,-2.5258 3.3578,-5.0468 4.7928,-7.5629 z m -7.1923,10.8676 c -1.9711,2.6124 -4.1101,5.1932 -6.4078,7.7092 2.2966,-2.5166 4.4377,-5.0968 6.4078,-7.7092 z m -62.4928,36.1942 c -1.6454,0.2392 -3.2913,0.4697 -4.9381,0.6718 1.6467,-0.202 3.2926,-0.4327 4.9381,-0.6718 z m -13.7666,1.6361 c -6.3873,0.6605 -12.9039,1.203 -19.6324,1.6061 6.7263,-0.4045 13.2459,-0.9447 19.6324,-1.6061 z m -82.9339,1.3394 c 2.1674,0.1679 4.3204,0.2956 6.659,0.4408 -2.3432,-0.1431 -4.4776,-0.2732 -6.659,-0.4408 z m 52.4531,0.7592 c -5.0724,0.1564 -9.6362,0.2488 -13.7129,0.2625 4.0313,-0.011 8.6758,-0.1149 13.7129,-0.2625 z m -31.2973,0.2119 c 1.5027,0.02 2.9653,0.046 4.4648,0.054 -1.4996,-0.01 -2.9622,-0.034 -4.4648,-0.054 z"
         sodipodi:nodetypes="sccscsccccsssssccsssccsssssssssscsscssscssssssssssscsssssssssssssssssccssssscssssssssscccccccccssssssssssssssssssssssssssssssssssssccssssscccccssssssscssssssssscccccccccccccccccccccccccccccccccccccccccccccccccccccc" />
    </g>
  </g>
</svg>
