<?xml version="1.0" encoding="UTF-8" standalone="no"?>
<!-- Created with Inkscape (http://www.inkscape.org/) -->

<svg
   width="500"
   height="300"
   viewBox="0 0 500 300"
   version="1.1"
   id="svg1"
   xml:space="preserve"
   inkscape:version="1.3 (0e150ed6c4, 2023-07-21)"
   sodipodi:docname="fiji mountain.svg"
   xmlns:inkscape="http://www.inkscape.org/namespaces/inkscape"
   xmlns:sodipodi="http://sodipodi.sourceforge.net/DTD/sodipodi-0.dtd"
   xmlns="http://www.w3.org/2000/svg"
   xmlns:svg="http://www.w3.org/2000/svg"><sodipodi:namedview
     id="namedview1"
     pagecolor="#ffffff"
     bordercolor="#999999"
     borderopacity="1"
     inkscape:showpageshadow="2"
     inkscape:pageopacity="0"
     inkscape:pagecheckerboard="0"
     inkscape:deskcolor="#d1d1d1"
     inkscape:document-units="px"
     inkscape:zoom="8.400722"
     inkscape:cx="298.48625"
     inkscape:cy="187.30533"
     inkscape:current-layer="layer1"
     showgrid="false" /><defs
     id="defs1" /><g
     inkscape:label="Layer 1"
     inkscape:groupmode="layer"
     id="layer1"><path
       id="rect2"
       style="fill:#000000;stroke:#000000;stroke-width:2.993;stroke-dasharray:none;stroke-opacity:1"
       d="m 213.14131,109.38252 -11.71494,7.4387 -22.35684,12.65245 -0.0904,43.02161 h 2.87805 c 2.48561,0 4.46973,0.41219 5.95234,1.23653 1.48264,0.78311 2.4638,1.7105 2.94347,2.78214 0.47969,1.07165 0.71953,3.75077 0.71953,8.03735 v 23.74107 H 160.14098 V 184.5513 c 0,-4.20414 0.2398,-6.80084 0.71948,-7.79005 0.65411,-1.40138 1.54805,-2.39059 2.68184,-2.96762 1.56984,-0.86557 3.64117,-1.29835 6.21397,-1.29835 l 4.89464,0.25254 v -41.19425 l -21.42209,9.60816 c -17.90142,8.16699 -24.18697,9.21829 -26.86261,10.17037 l -0.0425,21.16321 h 2.94348 c 2.48558,0 4.44789,0.41219 5.88693,1.23653 1.48263,0.78311 2.46377,1.7105 2.94346,2.78214 0.47968,1.07165 0.71952,3.75077 0.71952,8.03735 v 55.14854 c 0,4.20413 -0.23984,6.80083 -0.71952,7.79004 -0.61052,1.40137 -1.48263,2.3906 -2.61643,2.96763 -1.56984,0.86555 -3.64116,1.29834 -6.21396,1.29834 h -2.94348 v 2.28755 h 46.37593 v -2.28755 h -2.94346 c -2.48557,0 -4.46969,-0.39157 -5.95234,-1.17469 -1.43902,-0.82435 -2.42019,-1.77234 -2.94347,-2.84398 -0.47967,-1.07165 -0.71948,-3.75077 -0.71948,-8.03734 v -25.9668 h 31.33154 v 25.9668 c 0,4.20413 -0.23984,6.80083 -0.71953,7.79004 -0.6541,1.40137 -1.54805,2.3906 -2.68181,2.96763 -1.52623,0.86555 -3.59758,1.29834 -6.214,1.29834 h -2.87805 v 2.28755 h 46.31053 v -2.28755 h -2.87807 c -2.48556,0 -4.4697,-0.39157 -5.95233,-1.17469 -1.48265,-0.82435 -2.4638,-1.77234 -2.94346,-2.84398 -0.47967,-1.07165 -0.71951,-3.75077 -0.71951,-8.03734 V 184.5513 c 0,-4.20414 0.23984,-6.80084 0.71951,-7.79005 0.6541,-1.40138 1.54803,-2.39059 2.68182,-2.96762 1.52623,-0.86557 3.59757,-1.29835 6.21397,-1.29835 l 4.05096,0.25252 v -63.26981 z m 17.33585,0.76388 0.0955,12.44334 -0.18099,49.90554 h 2.81265 c 2.48558,0 4.4697,0.41219 5.95233,1.23653 1.48264,0.78311 2.46379,1.7105 2.94347,2.78214 0.47968,1.03043 0.71952,3.66833 0.71952,7.91372 v 53.04643 c -1e-5,3.75077 -0.0436,5.85284 -0.13082,6.30623 -0.47969,1.93721 -1.15559,3.44164 -2.02771,4.51329 -0.87215,1.07164 -2.15856,1.9372 -3.85923,2.59667 -1.70066,0.61825 -3.53216,0.90681 -5.49447,0.86556 h -0.91574 v 2.28755 h 30.3504 v -2.28755 c -4.05543,0 -7.04252,-0.63887 -8.96122,-1.9166 -1.8751,-1.31895 -3.09608,-3.00885 -3.66297,-5.0697 -0.21803,-0.94799 -0.32706,-3.48284 -0.32706,-7.60457 v -59.04356 l 34.53667,75.92198 h 1.56983 l 34.0134,-76.4784 v 62.13484 c 0,4.20413 -0.23985,6.80083 -0.71952,7.79004 -0.65411,1.40137 -1.52624,2.3906 -2.61641,2.96763 -1.56985,0.86555 -3.663,1.29834 -6.2794,1.29834 h -2.87804 v 2.28755 h 46.31053 v -2.28755 h -2.87808 c -2.48559,0 -4.4697,-0.39157 -5.95233,-1.17469 -1.48264,-0.82435 -2.46381,-1.77234 -2.94347,-2.84398 -0.47967,-1.07165 -0.71951,-3.75077 -0.71951,-8.03734 v -28.25941 -23.39986 l -0.16834,-5.29634 c -0.64323,-20.23675 -0.35931,-7.03449 0.12036,-8.0237 -0.87838,-15.34886 -4.00686,11.10296 -3.36044,3.20686 0.0283,-0.34537 3.20993,5.29211 3.24008,4.81684 0.18468,-16.36863 0.35896,-11.05333 0.35896,-11.05333 -0.0227,-0.49899 -0.0439,-0.96295 -0.0635,-1.39435 -0.53938,-11.85755 0.0585,0.88945 -0.0788,-12.98865 0,0 -0.3783,-0.48798 -3.5636,-1.51856 -6.02151,-1.94821 -16.99687,-6.34276 -27.12472,-11.00285 l 0.27299,27.48098 -25.60885,54.62352 -24.95186,-50.89308 c 0.31807,-19.12521 0.63613,-38.25042 0.9542,-57.37562 z m 32.98568,10.5599 -0.99283,50.88733 42.04163,-0.96436 -0.24529,-27.51828 c -1.31138,-0.60245 -10.91337,-6.34184 -10.91337,-6.34184 0,0 -1.40658,-0.88626 -15.00784,-7.97915 -4.84725,-2.52781 -4.59718,-2.31952 -7.92703,-4.45157 z m -141.06642,31.77111 c 0,0 -23.946346,7.28699 -33.067773,9.42772 l 20.374933,-4.66711 -33.545238,7.75808 c -3.73626,2.98819 13.170305,-3.09097 -5.864306,0.54924 v 0 l -25.590837,1.8476 -0.01154,5.10243 h 2.943465 c 2.485591,0 4.447906,0.41219 5.886932,1.23653 1.482634,0.78311 2.46379,1.7105 2.943465,2.78214 0.479676,1.07165 0.719515,3.75077 0.719515,8.03735 v 55.14853 c 0,4.20414 -0.239839,6.80084 -0.719515,7.79005 -0.610496,1.40137 -1.482636,2.3906 -2.616414,2.96763 -1.569846,0.86555 -3.641179,1.29835 -6.213983,1.29835 h -2.943466 v 2.28755 h 46.375937 v -2.28752 H 88.12413 c -2.485592,0 -4.46971,-0.39158 -5.952342,-1.1747 -1.439027,-0.82436 -2.420184,-1.77234 -2.943466,-2.84399 -0.479674,-1.07164 -0.719514,-3.75077 -0.719514,-8.03734 v -25.6577 h 2.551004 c 4.665934,0 8.8304,1.27775 12.493376,3.83321 3.706571,2.51424 5.974141,7.74882 6.802672,15.70373 h 2.28936 v -42.10335 h -2.28936 c -0.523281,4.49267 -1.657061,8.05797 -3.401332,10.69585 -1.700672,2.63789 -3.793803,4.51327 -6.279395,5.62614 -2.48559,1.11286 -5.690704,1.6693 -9.615321,1.6693 H 78.508808 V 175.0302 h 8.241704 c 7.064313,0 11.904677,0.30913 14.521088,0.92739 4.75316,1.11287 8.37252,3.02947 10.85815,5.74979 2.52916,2.72036 2.67057,6.90388 3.28107,12.55062 l 6.61379,0.7431 z m 301.98447,16.30682 c 1.92693,8.50177 0.0706,-0.48284 -24.28169,-4.16877 -19.31894,-2.92409 -39.48458,-3.99973 -50.22984,-5.01232 -2.3114,-0.21782 -3.33722,-0.65366 -4.6826,-0.83082 -1.90499,-0.25085 -1.06305,11.84364 -0.79771,31.82979 0.62437,47.03049 -0.86083,13.54756 0.92092,51.08807 1.10035,5.14389 10.79489,8.04553 19.53184,10.91111 7.53793,2.74415 12.10609,3.2566 26.93183,3.3587 12.58171,0.0867 13.6429,-0.0822 19.00652,-2.26668 5.40728,-2.22573 10.42817,-6.80109 15.39935,-11.70593 v -7.23361 c -5.14562,5.64675 -10.05139,9.62422 -14.71732,11.93237 -4.62235,2.30815 -10.73443,3.79893 -16.31611,3.79893 -6.80267,0 -13.35082,-0.72454 -17.62429,-3.85703 -4.27349,-3.17373 -8.75993,-6.14781 -12.78594,-12.79421 -3.35268,-7.02429 -7.59699,-13.89683 -6.49314,-27.80678 0.92391,-11.64239 3.39376,-14.93734 6.14097,-21.16112 2.65453,-5.21959 5.47068,-8.75192 6.85954,-10.46195 4.29678,-5.29042 8.1945,-5.05591 10.5281,-5.14662 9.14166,-0.35538 17.51141,-2.12348 14.09246,-0.65766 -0.11827,0.0507 0,0 0,0 5.63971,-2.52423 -28.78595,-5.10127 -31.12405,-6.34706 -1.63343,-0.32364 -7.44165,-0.48158 1.10161,1.7178 13.94748,3.59065 33.67743,3.63749 26.14535,2.46813 z m 5e-5,0 c 4.42355,-1.72107 -44.71786,-7.18164 -63.60578,-5.68997 -10.55634,0.83368 -2.09067,-2.10205 57.80054,4.68828 2.9236,0.33147 -11.19627,-1.60992 -5.39103,-0.60823 3.05175,0.52658 12.6106,6.66259 11.19622,1.60992 -6.50695,0.40056 -10.4392,3.4817 -28.51711,-0.18453 -9.53528,-1.93377 57.51722,7.70795 14.88642,-0.34676 -14.58238,-2.75521 -56.76657,0.82461 -35.21023,0.86062 15.89435,0.0265 39.24341,4.49911 39.24341,4.49911 l -8.5316,-3.44316 12.00447,8.62166 3.01754,7.75992 0.70198,13.21349 3.8305,0.27819 c 0.11767,-11.45841 -0.15455,-8.7816 0.0422,-18.55088 0.0216,-3.44734 -2.2e-4,-5.90656 -0.0532,-7.65499 -0.22462,-7.41899 -6.26317,0.22357 -6.66808,-2.78869 z"
       sodipodi:nodetypes="ccccscssccsccscccccscsssccsccccsccsccsccsccccscsssccsccccccsccsccsccccccccsccccsccsccccscssccscsccscscccccccccccsccsccccccscsssccsccccsccscsccccccssccscccccscssssccsccccsccscsssscscccssscssssscccccscc" /><rect
       style="fill:none;fill-opacity:0;stroke:#000000;stroke-width:3.24927;stroke-linecap:square;stroke-dasharray:none;stroke-opacity:1"
       id="rect1"
       width="455.97028"
       height="263.06519"
       x="22.014864"
       y="14.926933" /><path
       style="fill:#ffffff;stroke:none;stroke-width:1.455;stroke-dasharray:none;stroke-opacity:1"
       d="M 172.55287,137.45306 Z"
       id="path5" /><path
       style="fill:#ffffff;stroke:#ffffff;stroke-width:2.86082;stroke-dasharray:none;stroke-opacity:1"
       d="m 210.50913,114.52894 c -24.14528,14.71335 -35.95238,21.34923 -22.881,18.26828 6.34254,-1.49495 -1.36155,2.67707 -1.36155,2.67707 0,0 -3.01709,13.08271 4.23593,4.43819 13.09975,-15.61295 17.94811,-11.40498 12.85904,-8.698 -6.05131,3.2188 -19.13727,21.87691 -5.59747,14.27146 15.56941,-8.74549 20.59206,-22.56376 15.12829,7.09352 -0.41338,2.2438 5.63989,6.22616 9.30966,-7.5257 10.51843,-39.41605 -11.6929,-30.52482 -11.6929,-30.52482 z"
       id="path1"
       sodipodi:nodetypes="cscsssssc" /><path
       style="fill:#ffffff;stroke:#ffffff;stroke-width:3;stroke-dasharray:none;stroke-opacity:1"
       d="m 233.94449,115.13469 c 13.77109,5.06658 24.04762,1.93144 23.81646,9.16085 -0.70868,22.16399 -0.58921,4.12443 -9.59918,3.28775 -7.06733,-0.65628 -13.0428,-9.70303 -13.0428,-9.70303 0,0 -2.03506,8.94163 -1.19927,26.13993 0.16763,3.44941 17.84449,12.01262 0.0248,-28.8855 z"
       id="path2"
       inkscape:transform-center-x="-15.661178"
       inkscape:transform-center-y="-11.542946"
       sodipodi:nodetypes="csscscc" /><path
       style="fill:#ffffff;stroke:#ffffff;stroke-width:2.996;stroke-dasharray:none;stroke-opacity:1"
       d="m 264.95484,125.07835 24.8794,13.63004 c 0,0 16.86148,8.7629 0.42959,1.30741 -16.43191,-7.45549 0.10743,1.79309 0.10743,1.79309 0,0 22.98038,16.3011 -1.61378,2.33387 -24.59415,-13.96725 -23.80262,-19.06441 -23.80262,-19.06441 z"
       id="path3"
       sodipodi:nodetypes="ccscscc" /><path
       style="fill:#ffffff;stroke:#ffffff;stroke-width:3.32992;stroke-dasharray:none;stroke-opacity:1"
       d="m 148.88229,146.16861 c 21.47009,-8.40596 27.95234,-14.95855 23.15345,-5.7925 -4.42632,8.45443 -2.85233,5.50691 -2.85233,5.50691 z"
       id="path4"
       sodipodi:nodetypes="cscc" /></g></svg>
