<?xml version="1.0" encoding="UTF-8" standalone="no"?>
<!-- Created with Inkscape (http://www.inkscape.org/) -->

<svg
   width="500"
   height="300"
   viewBox="0 0 500 300"
   version="1.1"
   id="svg1"
   xml:space="preserve"
   sodipodi:docname="fiji mountain.svg"
   xmlns:inkscape="http://www.inkscape.org/namespaces/inkscape"
   xmlns:sodipodi="http://sodipodi.sourceforge.net/DTD/sodipodi-0.dtd"
   xmlns:xlink="http://www.w3.org/1999/xlink"
   xmlns="http://www.w3.org/2000/svg"
   xmlns:svg="http://www.w3.org/2000/svg"><sodipodi:namedview
     id="namedview1"
     pagecolor="#ffffff"
     bordercolor="#999999"
     borderopacity="1"
     inkscape:showpageshadow="2"
     inkscape:pageopacity="0"
     inkscape:pagecheckerboard="0"
     inkscape:deskcolor="#d1d1d1"
     inkscape:document-units="px"
     inkscape:zoom="2.1001805"
     inkscape:cx="238.78899"
     inkscape:cy="122.60851"
     inkscape:current-layer="layer1" /><defs
     id="defs1" /><g
     inkscape:label="Layer 1"
     inkscape:groupmode="layer"
     id="layer1"><rect
       style="fill:none;fill-opacity:0;stroke:#000000;stroke-width:3.24927;stroke-linecap:square;stroke-dasharray:none;stroke-opacity:1"
       id="rect1"
       width="455.97028"
       height="263.06519"
       x="22.014864"
       y="14.926933" /><image
       width="435.39786"
       height="78.062813"
       preserveAspectRatio="none"
       style="fill:none;stroke:#ff0000;image-rendering:optimizeQuality"
       xlink:href="../random_png/fuji-outline.png"
       id="image1"
       x="22.014864"
       y="99.605392"
       inkscape:transform-center-x="58.392195"
       inkscape:transform-center-y="-1.6834428" /><path
       id="rect2"
       style="fill:none;fill-opacity:0;stroke:#ff0000;stroke-width:1.12067;stroke-linecap:square"
       d="m 266.21594,90.516754 h 46.56599 V 173.50819 H 266.21594 Z M 81.859375,177.74991 v 36.98828 h 2.589844 c 3.984375,0 7.238281,-0.59766 9.761718,-1.79297 2.523438,-1.19531 4.648439,-3.20964 6.375003,-6.04297 1.77083,-2.83333 2.92187,-6.66276 3.45312,-11.48828 h 2.32422 v 45.22266 h -2.32422 c -0.84115,-8.54427 -3.14323,-14.16667 -6.906248,-16.86719 -3.71875,-2.74479 -7.946614,-4.11719 -12.683593,-4.11719 h -2.589844 v 27.5586 c 0,4.60417 0.24349,7.48177 0.730469,8.63281 0.53125,1.15104 1.527344,2.16927 2.988281,3.05469 1.505208,0.84114 3.519531,1.26171 6.042969,1.26171 h 2.988281 v 2.45704 H 47.527344 v -2.45704 h 2.988281 c 2.611979,0 4.714844,-0.46484 6.308594,-1.39453 1.151041,-0.61979 2.036458,-1.68229 2.65625,-3.1875 0.486979,-1.0625 0.730468,-3.85156 0.730468,-8.36718 v -59.23438 c 0,-4.60417 -0.243489,-7.48177 -0.730468,-8.63281 -0.486979,-1.15104 -1.483073,-2.14713 -2.988282,-2.98828 -1.460937,-0.88542 -3.453125,-1.32813 -5.976562,-1.32813 h -2.988281 l 0.168344,-84.777385 c 1.453324,0 -12.102937,-0.168348 75.968742,0 0.67338,-8.7539 -0.16834,108.152385 -0.16834,108.152385 h -2.72265 c -0.61979,-6.0651 -2.21354,-10.55859 -4.78125,-13.48047 -2.52344,-2.92187 -6.19792,-4.98047 -11.02344,-6.17578 -2.65625,-0.66406 -7.570309,-0.99609 -14.742188,-0.99609 z m 82.874995,41.57031 v 27.89063 c 0,4.60417 0.24349,7.48177 0.73047,8.63281 0.53125,1.15104 1.52735,2.16927 2.98828,3.05469 1.50521,0.84114 3.51954,1.26171 6.04297,1.26171 h 2.98828 v 2.45704 h -47.08203 v -2.45704 h 2.98828 c 2.61198,0 4.71485,-0.46484 6.3086,-1.39453 1.15104,-0.61979 2.03646,-1.68229 2.65625,-3.1875 0.48698,-1.0625 0.73047,-3.85156 0.73047,-8.36718 v -59.23438 c 0,-4.60417 -0.24349,-7.48177 -0.73047,-8.63281 -0.48698,-1.15104 -1.48307,-2.14713 -2.98828,-2.98828 -1.46094,-0.88542 -3.45313,-1.32813 -5.97657,-1.32813 h -2.98828 l 0.16834,-84.777385 h 47.08203 l -0.16834,84.777385 h -2.98828 c -2.61198,0 -4.71484,0.46484 -6.30859,1.39453 -1.15104,0.61979 -2.05859,1.68229 -2.72266,3.1875 -0.48698,1.0625 -0.73047,3.85156 -0.73047,8.36719 v 25.5 h 31.8086 v -25.5 c 0,-4.60417 -0.24349,-7.48177 -0.73047,-8.63281 -0.48698,-1.15104 -1.48307,-2.14713 -2.98828,-2.98828 -1.50521,-0.88542 -3.51953,-1.32813 -6.04297,-1.32813 h -2.92188 l 0.16834,-84.777385 h 47.01563 L 230.875,175.02725 h -2.92188 c -2.65625,0 -4.75911,0.46484 -6.30859,1.39453 -1.15104,0.61979 -2.05859,1.68229 -2.72266,3.1875 -0.48697,1.0625 -0.73046,3.85156 -0.73046,8.36719 v 59.23438 c 0,4.60417 0.24349,7.48177 0.73046,8.63281 0.48698,1.15104 1.48308,2.16927 2.98829,3.05469 1.50521,0.84114 3.51953,1.26171 6.04296,1.26171 h 2.92188 v 2.45704 h -47.01563 v -2.45704 h 2.92188 c 2.65625,0 4.75911,-0.46484 6.30859,-1.39453 1.15105,-0.61979 2.0586,-1.68229 2.72266,-3.1875 0.48698,-1.0625 0.73047,-3.85156 0.73047,-8.36718 v -27.89063 z m 124.99295,14.13229 26.4681,-58.8959 0.27879,-77.866419 -0.33669,-19.191249 5.67626,4.826656 5.38701,4.376951 4.20861,3.53523 4.42025,3.597087 4.56161,4.28188 4.37695,3.871914 4.5453,3.70357 4.05659,3.21655 v 0 l 0.25285,66.93409 c 0,0 -2.08774,-0.35078 -3.68149,0.57891 -1.10677,0.61979 -1.99219,1.66016 -2.65625,3.1211 -0.48698,1.0625 -0.73047,3.82943 -0.73047,8.30078 v 59.36719 c 0,4.60417 0.24349,7.48177 0.73047,8.63281 0.48697,1.15104 1.48307,2.16927 2.98828,3.05469 1.50521,0.84114 3.51953,1.26171 6.04297,1.26171 h 2.92187 v 2.45704 h -47.01562 v -2.45704 h 2.92187 c 2.65625,0 4.78125,-0.46484 6.375,-1.39453 1.10677,-0.61979 1.99219,-1.68229 2.65625,-3.1875 0.48698,-1.0625 0.73047,-3.85156 0.73047,-8.36718 V 180.47256 L 290.375,262.6171 h -1.59375 l -35.0625,-81.54688 v 63.41797 c 0,4.42708 0.11068,7.14974 0.33203,8.16797 0.57552,2.21354 1.8151,4.02864 3.71875,5.44531 1.94792,1.37239 4.98047,2.05859 9.09766,2.05859 v 2.45704 h -30.8125 v -2.45704 h 0.92968 c 1.99219,0.0443 3.85157,-0.26563 5.57813,-0.92968 1.72656,-0.70833 3.03255,-1.63802 3.91797,-2.78907 0.88541,-1.15104 1.57161,-2.76692 2.05859,-4.84765 0.0885,-0.48698 0.13281,-2.74479 0.13281,-6.77344 v -56.97656 c 0,-4.5599 -0.24349,-7.39323 -0.73046,-8.5 -0.48698,-1.15104 -1.48308,-2.14713 -2.98829,-2.98828 -1.50521,-0.88542 -3.51953,-1.32813 -6.04296,-1.32813 h -2.85547 V 109.7778 l 3.25188,-3.6194 3.25188,-3.6194 3.97329,-4.5453 3.97329,-4.545292 5.98152,-7.189519 6.31821,-8.199584 -0.23001,96.362705 z m 155.13134,-78.70601 -0.386,46.97606 h -2.58985 c -1.94791,-8.14583 -4.34129,-18.83516 -11.00966,-25.06442 -4.67663,-4.36867 -11.33333,-6.50781 -18.0625,-6.50781 -5.6224,0 -10.77995,1.61589 -15.47266,4.84766 -4.69271,3.23177 -8.1237,7.45963 -10.29297,12.68359 -2.78906,6.68489 -4.18359,16.97929 -4.18359,25.1694 0,8.05729 1.13727,18.88721 3.17373,25.52783 2.03645,6.59636 5.22395,11.59897 9.5625,15.00782 4.33854,3.36458 9.96093,5.04687 16.86718,5.04687 5.66667,0 10.84636,-1.23958 15.53907,-3.71875 4.73697,-2.47917 9.71744,-6.7513 14.9414,-12.8164 v 7.76953 c -5.04687,5.26823 -10.3151,9.09765 -15.80469,11.48828 -5.44531,2.34635 -11.82031,3.51953 -19.125,3.51953 -9.60677,0 -18.15104,-1.92578 -25.63281,-5.77734 -7.4375,-3.85157 -13.19271,-9.38542 -17.26562,-16.60157 -4.02865,-7.21615 -6.16201,-21.235 -6.16201,-29.38083 0,-8.58854 0.21555,-67.53214 -0.0267,-77.5921 5.97833,0.81574 11.53747,2.12026 21.73053,3.8287 11.72288,2.56622 15.91182,3.22744 21.67758,4.50959 12.57969,2.79739 17.25581,3.65568 23.23219,5.17998 6.18515,1.15788 6.71271,1.15788 9.82262,1.66291 4.15955,-1.03068 1.11813,-0.1978 2.98114,-1.11485 2.27478,-1.11973 2.40609,-2.83243 2.8054,-2.93065 l 1.43093,-2.97712 2.22661,-0.10239 z" /><path
       style="fill:none;fill-opacity:0;stroke:#ff0000;stroke-width:1.024;stroke-linecap:square;stroke-dasharray:none;stroke-opacity:1"
       d="m 22.014864,146.45953 c -0.718246,-9.82371 0.718246,1.24339 0,-23.98378 -0.179763,-6.31389 0,-22.870358 0,-22.870358 C 30.919724,50.839969 26.727636,62.008859 44.909687,41.076006 56.614145,27.600754 132.6553,24.690901 132.6553,24.690901"
       id="path2"
       sodipodi:nodetypes="cscsc" /><path
       style="fill:none;fill-opacity:0;stroke:#ff0000;stroke-width:1.024;stroke-linecap:square;stroke-dasharray:none;stroke-opacity:1"
       d="m 132.6553,24.690901 c 185.5154,-4.040263 127.14101,-0.999812 172.72122,-1.624635 79.96758,-1.096211 42.55655,-1.097861 63.29746,1.093431 31.6983,3.348949 85.60676,17.617413 88.73874,39.474443 6.94036,48.43448 2.76604,58.75897 2.39124,66.24876 l -2.39124,47.78531"
       id="path3"
       sodipodi:nodetypes="cssssc" /><path
       style="fill:none;fill-opacity:0;stroke:#ff0000;stroke-width:1.024;stroke-linecap:square;stroke-dasharray:none;stroke-opacity:1"
       d="m 22.014864,146.45953 c 10.100657,7.81321 0,31.20868 7.277041,24.29274 v 0 0 0"
       id="path4"
       sodipodi:nodetypes="ccccc" /><path
       style="fill:none;fill-opacity:0;stroke:#ff0000;stroke-width:1.024;stroke-linecap:square;stroke-dasharray:none;stroke-opacity:1"
       d="M 92.252668,160.26376 29.291905,170.75227 Z"
       id="path5" /><path
       style="fill:none;fill-opacity:0;stroke:#ff0000;stroke-width:1.024;stroke-linecap:square;stroke-dasharray:none;stroke-opacity:1"
       d="m 138.81764,140.23713 -46.564972,20.02663 v 0 0 0 l 65.261512,-28.06762 49.88597,-23.10905 -115.147482,51.17667 92.702052,-39.86922 22.44543,-11.30745 13.80423,-4.04026 9.81498,-2.7219 18.98064,8.7978 16.21594,11.43191 v 0 l 12.01811,6.01523 c 0,0 1.25928,3.51479 15.15099,10.06693 9.68762,4.56925 18.05188,7.82273 18.05188,7.82273 l 15.48768,5.7237 23.23151,4.9021 c 0,0 24.4399,3.88689 30.30197,5.03021 29.47791,5.74929 54.91071,8.63673 54.91071,8.63673 l 15.98354,1.77432"
       id="path6"
       sodipodi:nodetypes="ccccccccccccccccscccscc" /></g></svg>
