<?xml version="1.0" encoding="UTF-8" standalone="no"?>
<!-- Created with Inkscape (http://www.inkscape.org/) -->

<svg
   width="765.65649"
   height="563.97961"
   viewBox="0 0 765.65649 563.97962"
   version="1.1"
   id="svg1"
   inkscape:version="1.3 (0e150ed6c4, 2023-07-21)"
   sodipodi:docname="golden_rule_bird.svg"
   inkscape:export-filename="golden_rule_bird.svg"
   inkscape:export-xdpi="96"
   inkscape:export-ydpi="96"
   xmlns:inkscape="http://www.inkscape.org/namespaces/inkscape"
   xmlns:sodipodi="http://sodipodi.sourceforge.net/DTD/sodipodi-0.dtd"
   xmlns:xlink="http://www.w3.org/1999/xlink"
   xmlns="http://www.w3.org/2000/svg"
   xmlns:svg="http://www.w3.org/2000/svg">
  <sodipodi:namedview
     id="namedview1"
     pagecolor="#0c6be6"
     bordercolor="#2c2a19"
     borderopacity="1"
     inkscape:showpageshadow="2"
     inkscape:pageopacity="0"
     inkscape:pagecheckerboard="0"
     inkscape:deskcolor="#5a5a5a"
     inkscape:document-units="px"
     showgrid="false"
     guidecolor="#7602cb"
     guideopacity="1"
     guidehicolor="#b42100"
     guidehiopacity="1"
     inkscape:zoom="0.49647194"
     inkscape:cx="626.4201"
     inkscape:cy="307.16741"
     inkscape:current-layer="layer1">
    <inkscape:grid
       id="grid1"
       units="px"
       originx="-316.53925"
       originy="542.49719"
       spacingx="0.26458333"
       spacingy="0.26458334"
       empcolor="#e499e5"
       empopacity="0.60784314"
       color="#0099e5"
       opacity="0.65098039"
       empspacing="5"
       dotted="false"
       gridanglex="30"
       gridanglez="30"
       visible="false" />
  </sodipodi:namedview>
  <defs
     id="defs1">
    <linearGradient
       inkscape:collect="always"
       xlink:href="#linearGradient8"
       id="linearGradient34"
       gradientUnits="userSpaceOnUse"
       x1="567.16968"
       y1="580.13153"
       x2="620.89801"
       y2="580.13153"
       gradientTransform="translate(3620.1456,-1291.5865)" />
    <linearGradient
       id="linearGradient8"
       inkscape:collect="always">
      <stop
         style="stop-color:#ecbc29;stop-opacity:0.96342355;"
         offset="0"
         id="stop8" />
      <stop
         style="stop-color:#dc2d0e;stop-opacity:0.87344551;"
         offset="1"
         id="stop9" />
    </linearGradient>
    <linearGradient
       inkscape:collect="always"
       xlink:href="#linearGradient14"
       id="linearGradient33"
       gradientUnits="userSpaceOnUse"
       x1="329.26718"
       y1="676.24799"
       x2="597.90582"
       y2="676.24799"
       gradientTransform="translate(3620.1456,-1291.5865)" />
    <linearGradient
       id="linearGradient14"
       inkscape:collect="always">
      <stop
         style="stop-color:#269338;stop-opacity:0.94902003;"
         offset="0.2419769"
         id="stop14" />
      <stop
         style="stop-color:#0428c2;stop-opacity:0.94952452;"
         offset="0.89152759"
         id="stop15" />
    </linearGradient>
    <linearGradient
       inkscape:collect="always"
       xlink:href="#linearGradient18"
       id="linearGradient32"
       gradientUnits="userSpaceOnUse"
       x1="353.95084"
       y1="753.27234"
       x2="557.42896"
       y2="753.27234"
       gradientTransform="translate(3620.1456,-1291.5865)" />
    <linearGradient
       id="linearGradient18"
       inkscape:collect="always">
      <stop
         style="stop-color:#091ed0;stop-opacity:0.98390639;"
         offset="0.24454428"
         id="stop18" />
      <stop
         style="stop-color:#0b9b28;stop-opacity:0.90490127;"
         offset="1"
         id="stop19" />
    </linearGradient>
    <linearGradient
       inkscape:collect="always"
       xlink:href="#linearGradient16"
       id="linearGradient31"
       gradientUnits="userSpaceOnUse"
       x1="397.52695"
       y1="685.03015"
       x2="515.92676"
       y2="685.03015"
       gradientTransform="translate(3620.1456,-1291.5865)" />
    <linearGradient
       id="linearGradient16"
       inkscape:collect="always">
      <stop
         style="stop-color:#237f2d;stop-opacity:0.94901961;"
         offset="0.21566111"
         id="stop16" />
      <stop
         style="stop-color:#0723af;stop-opacity:0.97732258;"
         offset="0.894095"
         id="stop17" />
    </linearGradient>
    <linearGradient
       inkscape:collect="always"
       xlink:href="#linearGradient12"
       id="linearGradient30"
       gradientUnits="userSpaceOnUse"
       x1="431.92731"
       y1="627.87195"
       x2="597.91754"
       y2="627.87195"
       gradientTransform="translate(3620.1456,-1291.5865)" />
    <linearGradient
       id="linearGradient12"
       inkscape:collect="always">
      <stop
         style="stop-color:#0428dc;stop-opacity:0.975128;"
         offset="0"
         id="stop12" />
      <stop
         style="stop-color:#199a30;stop-opacity:0.94513535;"
         offset="1"
         id="stop13" />
    </linearGradient>
    <linearGradient
       inkscape:collect="always"
       xlink:href="#linearGradient10"
       id="linearGradient29"
       gradientUnits="userSpaceOnUse"
       x1="514.98242"
       y1="577.79419"
       x2="597.96246"
       y2="577.79419"
       gradientTransform="translate(3620.1456,-1291.5865)" />
    <linearGradient
       id="linearGradient10"
       inkscape:collect="always">
      <stop
         style="stop-color:#f64400;stop-opacity:1;"
         offset="0"
         id="stop10" />
      <stop
         style="stop-color:#c4b029;stop-opacity:0.88661301;"
         offset="1"
         id="stop11" />
    </linearGradient>
  </defs>
  <g
     inkscape:label="Layer 1"
     inkscape:groupmode="layer"
     id="layer1"
     transform="translate(-382.37976,275.6332)">
    <g
       id="g35"
       inkscape:export-filename="bird_golden_rule.svg"
       inkscape:export-xdpi="96"
       inkscape:export-ydpi="96"
       transform="translate(-3285.4399,617.67968)">
      <path
         id="path19"
         style="fill:url(#linearGradient34);fill-opacity:0.864172;stroke:none;stroke-width:2;stroke-linecap:round;stroke-linejoin:round"
         d="m 4188.3151,-757.15984 c 0.4687,0.67138 1.0101,1.28599 1.4687,1.96485 2.8753,4.25601 5.5506,8.65918 8.0137,13.19335 1.2315,2.2671 2.4097,4.56684 3.5332,6.89844 0.019,0.0393 0.036,0.0798 0.055,0.11914 1.1027,2.29335 2.1554,4.61631 3.1504,6.96875 1.012,2.39277 1.966,4.81505 2.8632,7.26563 0.8973,2.45057 1.7365,4.92856 2.5157,7.43359 0.7791,2.50504 1.4986,5.03761 2.1562,7.59375 0.6577,2.55614 1.2543,5.13634 1.7871,7.74024 0.5329,2.60389 1.0016,5.2306 1.4063,7.8789 0.4046,2.64831 0.7444,5.31846 1.0176,8.00781 0.2731,2.68937 0.4809,5.39795 0.6191,8.125 0.1382,2.72707 0.207,5.47296 0.207,8.23438 0,-2.07107 0.1057,-4.11774 0.3106,-6.13477 0.2048,-2.01701 0.5086,-4.0041 0.9082,-5.95703 0.3996,-1.95292 0.8941,-3.87317 1.4785,-5.75195 0.5844,-1.87878 1.2585,-3.71715 2.0176,-5.51172 0.759,-1.79457 1.6036,-3.54382 2.5273,-5.24414 0.9237,-1.70032 1.9276,-3.35126 3.0059,-4.94727 1.0782,-1.59599 2.2303,-3.13749 3.4531,-4.61914 1.2228,-1.48163 2.5158,-2.90449 3.873,-4.26171 1.3573,-1.35724 2.7782,-2.64833 4.2598,-3.8711 0.3534,-0.29163 0.7415,-0.54059 1.1016,-0.82422 a 99.999939,99.999969 0 0 0 -1.7071,-3.04492 99.999939,99.999969 0 0 0 -4.3613,-6.5293 99.999939,99.999969 0 0 0 -4.8613,-6.16601 99.999939,99.999969 0 0 0 -5.3301,-5.76563 99.999939,99.999969 0 0 0 -5.7656,-5.33007 99.999939,99.999969 0 0 0 -6.166,-4.86133 99.999939,99.999969 0 0 0 -4.9375,-3.29883 99.999939,99.999969 0 0 0 -1.5918,-1.0625 99.999939,99.999969 0 0 0 -6.8516,-3.83789 99.999939,99.999969 0 0 0 -7.1289,-3.28711 99.999939,99.999969 0 0 0 -3.0273,-1.11719 z" />
      <path
         id="path21"
         style="fill:url(#linearGradient33);fill-opacity:0.94902;stroke:none;stroke-width:2;stroke-linecap:round;stroke-linejoin:round"
         d="m 3950.4127,-685.95476 c 0.2189,1.87217 0.428,3.74776 0.711,5.59961 0.4046,2.6483 0.8753,5.27501 1.4082,7.87891 0.5328,2.60388 1.1274,5.18409 1.7851,7.74023 0.6577,2.55614 1.3771,5.08676 2.1563,7.5918 0.7791,2.50502 1.6183,4.98498 2.5156,7.43554 0.8973,2.45058 1.8532,4.87286 2.8652,7.26563 1.0121,2.39276 2.0816,4.75629 3.2051,7.08789 1.1235,2.3316 2.3016,4.63135 3.5332,6.89844 2.4631,4.53417 5.1384,8.93539 8.0137,13.1914 2.8753,4.25603 5.9502,8.36731 9.2109,12.31836 3.2607,3.95106 6.7069,7.74204 10.3262,11.36133 3.6193,3.61929 7.4122,7.06548 11.3633,10.32617 3.951,3.26071 8.0603,6.33562 12.3164,9.21094 0.6138,0.41468 1.2825,0.7499 1.9023,1.15625 3.678,2.41117 7.4088,4.75151 11.2891,6.85937 2.2671,1.23156 4.5688,2.40973 6.9004,3.53321 2.3316,1.12348 4.6931,2.19107 7.0859,3.20312 2.3928,1.01206 4.817,1.96796 7.2676,2.86524 2.4506,0.89727 4.9285,1.73647 7.4336,2.51562 2.505,0.77915 5.0356,1.49858 7.5918,2.15625 2.5561,0.65767 5.1383,1.25428 7.7422,1.78711 2.6038,0.53284 5.2306,1.0016 7.8789,1.40625 2.6483,0.40466 5.3184,0.74446 8.0078,1.01758 2.6893,0.27312 5.3979,0.47895 8.125,0.61719 2.727,0.13823 5.471,0.20898 8.2324,0.20898 2.7614,0 5.5073,-0.0707 8.2344,-0.20898 2.727,-0.13824 5.4356,-0.34407 8.125,-0.61719 2.6893,-0.27312 5.3595,-0.61292 8.0078,-1.01758 2.6483,-0.40465 5.275,-0.87341 7.8789,-1.40625 2.6039,-0.53283 5.1841,-1.12944 7.7402,-1.78711 2.5562,-0.65767 5.0888,-1.3771 7.5938,-2.15625 2.505,-0.77915 4.983,-1.61835 7.4336,-2.51562 2.4505,-0.89728 4.8729,-1.85318 7.2656,-2.86524 1.6931,-0.71611 3.3529,-1.49348 5.0156,-2.26562 1.3175,-1.48127 2.7356,-2.87062 3.9981,-4.40039 1.4472,-1.75365 2.7151,-3.6516 4.0879,-5.4668 1.7201,-2.27453 3.5239,-4.4826 5.123,-6.84961 2.8753,-4.25602 5.5506,-8.65723 8.0137,-13.19141 1.2315,-2.26706 2.4097,-4.56879 3.5332,-6.90039 1.1235,-2.33158 2.193,-4.69319 3.2051,-7.08593 1.012,-2.39277 1.966,-4.81701 2.8632,-7.26758 0.8973,-2.45057 1.7365,-4.92856 2.5157,-7.4336 0.7791,-2.50501 1.4986,-5.03567 2.1562,-7.59179 0.6577,-2.55614 1.2543,-5.13829 1.7871,-7.74219 0.5329,-2.6039 1.0016,-5.2306 1.4063,-7.87891 0.4046,-2.64828 0.7444,-5.31845 1.0176,-8.00781 0.2731,-2.68936 0.4809,-5.39794 0.6191,-8.125 0.1,-1.97203 0.1225,-3.96291 0.1504,-5.95312 -0.01,7.42096 -0.8405,14.81809 -2.4844,22.05468 -1.6663,7.30028 -4.1474,14.3903 -7.3965,21.13672 -3.249,6.74576 -7.2454,13.10528 -11.914,18.95899 -4.6686,5.85414 -9.9799,11.16545 -15.834,15.83398 -5.8543,4.66873 -12.2145,8.66514 -18.961,11.91406 -6.7464,3.24908 -13.8364,5.73013 -21.1367,7.39649 -1.4137,0.18981 -2.8314,0.34935 -4.2519,0.47851 -5.9263,1.21958 -11.951,1.8988 -18,2.0293 -7.4878,-2.1e-4 -14.9519,-0.84142 -22.252,-2.50781 -7.3003,-1.66636 -14.3903,-4.14741 -21.1367,-7.39649 -6.7458,-3.24905 -13.1053,-7.24546 -18.959,-11.91406 -5.6763,-4.55534 -10.8385,-9.71678 -15.3945,-15.39258 a 99.999939,99.999969 0 0 1 -0.4414,-0.4414 99.999939,99.999969 0 0 1 -11.9121,-18.95899 99.999939,99.999969 0 0 1 -7.3965,-21.13672 99.999939,99.999969 0 0 1 -0.9082,-8.05664 c -0.4322,-0.10734 -0.8739,-0.18993 -1.3047,-0.30078 -2.5562,-0.65767 -5.0887,-1.3771 -7.5938,-2.15625 -2.505,-0.77915 -4.983,-1.61835 -7.4336,-2.51562 -2.4505,-0.89728 -4.8728,-1.85318 -7.2656,-2.86524 -2.3927,-1.01205 -4.7563,-2.07964 -7.0879,-3.20312 -2.3316,-1.12348 -4.6313,-2.30165 -6.8984,-3.53321 -4.5342,-2.4631 -8.9373,-5.14031 -13.1934,-8.01562 -4.256,-2.87532 -8.3653,-5.95023 -12.3164,-9.21094 -1.7963,-1.4825 -3.4367,-3.13717 -5.166,-4.69531 z" />
      <path
         style="fill:url(#linearGradient32);fill-opacity:0.94902;stroke:none;stroke-width:2;stroke-linecap:round;stroke-linejoin:round"
         d="m 3975.0963,-528.53874 c 1.9237,1.15251 3.7711,2.41735 5.7461,3.49023 2.2671,1.23156 4.5688,2.40972 6.9004,3.5332 2.3316,1.12348 4.6932,2.19303 7.0859,3.20508 2.3928,1.01206 4.8151,1.96796 7.2657,2.86524 2.4505,0.89727 4.9305,1.73647 7.4355,2.51562 2.505,0.77915 5.0357,1.49858 7.5918,2.15625 2.5561,0.65767 5.1383,1.25232 7.7422,1.78516 2.6039,0.53283 5.2306,1.00355 7.8789,1.4082 2.6483,0.40465 5.3165,0.74446 8.0059,1.01758 2.6893,0.27312 5.3998,0.47895 8.1269,0.61719 2.7271,0.13823 5.471,0.20898 8.2324,0.20898 2.7614,0 5.5073,-0.0707 8.2344,-0.20898 2.7271,-0.13824 5.4356,-0.34407 8.125,-0.61719 2.6894,-0.27312 5.3595,-0.61293 8.0078,-1.01758 2.6483,-0.40465 5.275,-0.87537 7.8789,-1.4082 2.6039,-0.53284 5.1841,-1.12749 7.7403,-1.78516 2.5561,-0.65767 5.0887,-1.3771 7.5937,-2.15625 2.505,-0.77915 4.983,-1.61835 7.4336,-2.51562 2.4506,-0.89728 4.8729,-1.85318 7.2656,-2.86524 2.3928,-1.01205 4.7563,-2.0816 7.0879,-3.20508 2.3316,-1.12348 4.6314,-2.30164 6.8985,-3.5332 4.5341,-2.46312 8.9373,-5.13836 13.1933,-8.01367 4.256,-2.87532 8.3654,-5.95024 12.3164,-9.21094 3.9511,-3.2607 7.7421,-6.70689 11.3613,-10.32617 2.218,-2.21797 4.2449,-4.61838 6.3301,-6.96289 -1.6627,0.77214 -3.3225,1.54951 -5.0156,2.26562 -2.3928,1.01206 -4.8151,1.96796 -7.2656,2.86524 -2.4506,0.89727 -4.9286,1.73647 -7.4336,2.51562 -2.5051,0.77915 -5.0376,1.49858 -7.5938,2.15625 -2.5561,0.65767 -5.1363,1.25428 -7.7402,1.78711 -2.6039,0.53284 -5.2306,1.0016 -7.8789,1.40625 -2.6483,0.40466 -5.3185,0.74446 -8.0078,1.01758 -2.6894,0.27312 -5.398,0.47895 -8.125,0.61719 -2.7271,0.13823 -5.473,0.20898 -8.2344,0.20898 -2.7614,0 -5.5054,-0.0707 -8.2324,-0.20898 -2.7271,-0.13824 -5.4357,-0.34407 -8.125,-0.61719 -2.6894,-0.27312 -5.3595,-0.61292 -8.0078,-1.01758 -2.6483,-0.40465 -5.275,-0.87341 -7.8789,-1.40625 -2.6039,-0.53283 -5.1861,-1.12944 -7.7422,-1.78711 -2.5562,-0.65767 -5.0868,-1.3771 -7.5918,-2.15625 -2.5051,-0.77915 -4.983,-1.61835 -7.4336,-2.51562 -2.4506,-0.89728 -4.8748,-1.85318 -7.2676,-2.86524 -2.3928,-1.01205 -4.7543,-2.07964 -7.0859,-3.20312 -2.3316,-1.12348 -4.6333,-2.30165 -6.9004,-3.53321 -3.8803,-2.10788 -7.6111,-4.4482 -11.2891,-6.85937 -1.7161,2.32401 -3.3509,4.71209 -5.1875,6.9375 -3.2607,3.95106 -6.7088,7.744 -10.3281,11.36328 -3.6193,3.61929 -7.4103,7.06547 -11.3613,10.32617 -3.9511,3.26071 -8.0624,6.33563 -12.3184,9.21094 -2.3983,1.62027 -4.9451,3.02439 -7.4336,4.51563 z"
         id="path22" />
      <path
         id="path23"
         style="fill:url(#linearGradient31);fill-opacity:0.94902;stroke:none;stroke-width:2;stroke-linecap:round;stroke-linejoin:round"
         d="m 4018.6725,-649.45867 a 99.999939,99.999969 0 0 0 0.9082,8.05664 99.999939,99.999969 0 0 0 7.3965,21.13672 99.999939,99.999969 0 0 0 11.9121,18.95899 99.999939,99.999969 0 0 0 0.4414,0.4414 99.999939,99.999969 0 0 0 15.3945,15.39258 99.999939,99.999969 0 0 0 18.959,11.91406 99.999939,99.999969 0 0 0 21.1367,7.39649 99.999939,99.999969 0 0 0 22.252,2.50781 99.999939,99.999969 0 0 0 18,-2.0293 99.999939,99.999969 0 0 1 -4.252,-0.47851 99.999939,99.999969 0 0 1 -21.1367,-7.39649 99.999939,99.999969 0 0 1 -18.959,-11.91406 99.999939,99.999969 0 0 1 -15.8359,-15.83398 99.999939,99.999969 0 0 1 -11.9121,-18.95899 99.999939,99.999969 0 0 1 -7.3965,-21.13672 99.999939,99.999969 0 0 1 -0.3809,-3.375 c -1.1785,-0.0156 -2.3531,-0.0489 -3.5254,-0.0898 -0.8494,-0.0297 -1.7086,-0.0216 -2.5547,-0.0645 -2.727,-0.13824 -5.4356,-0.34407 -8.125,-0.61719 -2.6893,-0.27312 -5.3595,-0.61292 -8.0078,-1.01758 -2.6483,-0.40465 -5.275,-0.87341 -7.8789,-1.40625 -2.165,-0.44303 -4.3033,-0.95681 -6.4355,-1.48633 z" />
      <path
         style="fill:#ff0004;fill-opacity:0.316008;stroke:none;stroke-width:2;stroke-linecap:round;stroke-linejoin:round"
         d="m 4135.0729,-744.72234 c 1.3807,0 2.7293,0.13983 4.0312,0.40625 1.302,0.26642 2.5575,0.65999 3.7539,1.16602 1.1964,0.50602 2.3325,1.12492 3.3965,1.84375 1.064,0.71882 2.0561,1.53658 2.9609,2.4414 0.9049,0.90482 1.7226,1.89694 2.4415,2.96094 0.7188,1.06401 1.3377,2.2001 1.8437,3.39649 0.506,1.19638 0.8996,2.45195 1.166,3.7539 0.2664,1.30195 0.4063,2.65054 0.4063,4.03125 0,1.38071 -0.1399,2.7293 -0.4063,4.03125 -0.2664,1.30195 -0.66,2.55753 -1.166,3.75391 -0.506,1.19638 -1.1249,2.33248 -1.8437,3.39648 -0.7189,1.06401 -1.5366,2.05612 -2.4415,2.96094 -0.9048,0.90482 -1.8969,1.72258 -2.9609,2.44141 -1.064,0.71882 -2.2001,1.33772 -3.3965,1.84375 -1.1964,0.50602 -2.4519,0.89959 -3.7539,1.16601 -1.3019,0.26642 -2.6505,0.40625 -4.0312,0.40625 -1.3807,0 -2.7293,-0.13983 -4.0313,-0.40625 -1.3019,-0.26642 -2.5575,-0.65999 -3.7539,-1.16601 -1.1964,-0.50603 -2.3325,-1.12493 -3.3965,-1.84375 -1.064,-0.71883 -2.0561,-1.53659 -2.9609,-2.44141 -0.9048,-0.90482 -1.7226,-1.89693 -2.4414,-2.96094 -0.7188,-1.064 -1.3377,-2.2001 -1.8438,-3.39648 -0.506,-1.19638 -0.8996,-2.45196 -1.166,-3.75391 -0.2664,-1.30195 -0.4062,-2.65054 -0.4062,-4.03125 0,-1.38071 0.1398,-2.7293 0.4062,-4.03125 0.2664,-1.30195 0.66,-2.55752 1.166,-3.7539 0.5061,-1.19639 1.125,-2.33248 1.8438,-3.39649 0.7188,-1.064 1.5366,-2.05612 2.4414,-2.96094 0.9048,-0.90482 1.8969,-1.72258 2.9609,-2.4414 1.064,-0.71883 2.2001,-1.33773 3.3965,-1.84375 1.1964,-0.50603 2.452,-0.8996 3.7539,-1.16602 1.302,-0.26642 2.6506,-0.40625 4.0313,-0.40625 z"
         id="path25" />
      <path
         id="path26"
         style="fill:url(#linearGradient30);fill-opacity:0.94902;stroke:none;stroke-width:2;stroke-linecap:round;stroke-linejoin:round"
         d="m 4136.1276,-761.74578 a 99.999939,99.999969 0 0 0 -5.3067,0.59766 99.999939,99.999969 0 0 0 -21.1367,7.39648 99.999939,99.999969 0 0 0 -18.9609,11.91407 99.999939,99.999969 0 0 0 -15.834,15.83398 99.999939,99.999969 0 0 0 -11.9121,18.96094 99.999939,99.999969 0 0 0 -7.3965,21.13672 99.999939,99.999969 0 0 0 -2.5078,22.25195 99.999939,99.999969 0 0 0 2.1269,18.87695 99.999939,99.999969 0 0 0 0.3809,3.375 99.999939,99.999969 0 0 0 7.3965,21.13672 99.999939,99.999969 0 0 0 11.9121,18.95899 99.999939,99.999969 0 0 0 15.8359,15.83398 99.999939,99.999969 0 0 0 18.959,11.91406 99.999939,99.999969 0 0 0 21.1367,7.39649 99.999939,99.999969 0 0 0 4.252,0.47851 99.999939,99.999969 0 0 0 4.2519,-0.47851 99.999939,99.999969 0 0 0 21.1367,-7.39649 99.999939,99.999969 0 0 0 18.961,-11.91406 99.999939,99.999969 0 0 0 15.834,-15.83398 99.999939,99.999969 0 0 0 11.914,-18.95899 99.999939,99.999969 0 0 0 7.3965,-21.13672 99.999939,99.999969 0 0 0 2.4844,-22.05468 c 0,-0.15541 0.01,-0.30934 0.012,-0.46485 a 99.999939,99.999969 0 0 0 -0.2988,-7.57812 99.999939,99.999969 0 0 0 -0.9219,-7.79883 99.999939,99.999969 0 0 0 -1.5312,-7.70117 99.999939,99.999969 0 0 0 -2.1329,-7.55664 99.999939,99.999969 0 0 0 -2.7168,-7.36719 99.999939,99.999969 0 0 0 -3.2871,-7.13086 99.999939,99.999969 0 0 0 -3.8379,-6.84961 99.999939,99.999969 0 0 0 -4.3613,-6.5293 99.999939,99.999969 0 0 0 -2.0293,-2.57421 99.999939,99.999969 0 0 0 -2.832,-3.5918 99.999939,99.999969 0 0 0 -5.3301,-5.76563 99.999939,99.999969 0 0 0 -5.7656,-5.33007 99.999939,99.999969 0 0 0 -6.166,-4.86133 99.999939,99.999969 0 0 0 -6.5293,-4.36133 99.999939,99.999969 0 0 0 -6.8516,-3.83789 99.999939,99.999969 0 0 0 -7.1289,-3.28711 99.999939,99.999969 0 0 0 -7.3672,-2.7168 99.999939,99.999969 0 0 0 -7.5566,-2.13281 99.999939,99.999969 0 0 0 -4.291,-0.85352 z" />
      <path
         id="path27"
         style="fill:url(#linearGradient29);fill-opacity:0.94902;stroke:none;stroke-width:2;stroke-linecap:round;stroke-linejoin:round"
         d="m 4153.0729,-763.65398 a 99.999939,99.999969 0 0 0 -16.9453,1.9082 99.999939,99.999969 0 0 1 4.291,0.85352 99.999939,99.999969 0 0 1 7.5566,2.13281 99.999939,99.999969 0 0 1 7.3672,2.7168 99.999939,99.999969 0 0 1 7.1289,3.28711 99.999939,99.999969 0 0 1 6.8516,3.83789 99.999939,99.999969 0 0 1 6.5293,4.36133 99.999939,99.999969 0 0 1 6.166,4.86133 99.999939,99.999969 0 0 1 5.7656,5.33007 99.999939,99.999969 0 0 1 5.3301,5.76563 99.999939,99.999969 0 0 1 2.832,3.5918 99.999939,99.999969 0 0 1 2.0293,2.57421 99.999939,99.999969 0 0 1 4.3613,6.5293 99.999939,99.999969 0 0 1 3.8379,6.84961 99.999939,99.999969 0 0 1 3.2871,7.13086 99.999939,99.999969 0 0 1 2.7168,7.36719 99.999939,99.999969 0 0 1 2.1329,7.55664 99.999939,99.999969 0 0 1 1.5312,7.70117 99.999939,99.999969 0 0 1 0.9219,7.79883 99.999939,99.999969 0 0 1 0.2988,7.57812 c 0.01,-0.60701 0.045,-1.20583 0.045,-1.81445 0,-2.76142 -0.069,-5.50731 -0.207,-8.23438 -0.1382,-2.72705 -0.346,-5.43563 -0.6191,-8.125 -0.2732,-2.68935 -0.613,-5.3595 -1.0176,-8.00781 -0.4047,-2.6483 -0.8734,-5.27501 -1.4063,-7.8789 -0.5328,-2.6039 -1.1294,-5.1841 -1.7871,-7.74024 -0.6576,-2.55614 -1.3771,-5.08871 -2.1562,-7.59375 -0.7792,-2.50503 -1.6184,-4.98302 -2.5157,-7.43359 -0.8972,-2.45058 -1.8512,-4.87286 -2.8632,-7.26563 -0.995,-2.35244 -2.0477,-4.6754 -3.1504,-6.96875 -0.019,-0.0393 -0.036,-0.0798 -0.055,-0.11914 -1.1235,-2.3316 -2.3017,-4.63134 -3.5332,-6.89844 -2.4631,-4.53417 -5.1384,-8.93734 -8.0137,-13.19335 -0.4586,-0.67886 -1,-1.29347 -1.4687,-1.96485 a 99.999939,99.999969 0 0 0 -4.3399,-1.59961 99.999939,99.999969 0 0 0 -7.5566,-2.13281 99.999939,99.999969 0 0 0 -7.7012,-1.53125 99.999939,99.999969 0 0 0 -7.7988,-0.92188 99.999939,99.999969 0 0 0 -7.8457,-0.30859 z" />
      <path
         style="fill:#ffffff;fill-opacity:1;stroke:none;stroke-width:2;stroke-linecap:round;stroke-linejoin:round"
         d="m 4135.0729,-744.72234 c -1.3807,0 -2.7293,0.13983 -4.0313,0.40625 -1.3019,0.26642 -2.5575,0.65999 -3.7539,1.16602 -1.1964,0.50602 -2.3325,1.12492 -3.3965,1.84375 -1.064,0.71882 -2.0561,1.53658 -2.9609,2.4414 -0.9048,0.90482 -1.7226,1.89694 -2.4414,2.96094 -0.7188,1.06401 -1.3377,2.2001 -1.8438,3.39649 -0.506,1.19638 -0.8996,2.45195 -1.166,3.7539 -0.2664,1.30195 -0.4062,2.65054 -0.4062,4.03125 0,1.38071 0.1398,2.7293 0.4062,4.03125 0.2664,1.30195 0.66,2.55753 1.166,3.75391 0.5061,1.19638 1.125,2.33248 1.8438,3.39648 0.7188,1.06401 1.5366,2.05612 2.4414,2.96094 0.9048,0.90482 1.8969,1.72258 2.9609,2.44141 1.064,0.71882 2.2001,1.33772 3.3965,1.84375 1.1964,0.50602 2.452,0.89959 3.7539,1.16601 1.302,0.26642 2.6506,0.40625 4.0313,0.40625 1.3807,0 2.7293,-0.13983 4.0312,-0.40625 1.302,-0.26642 2.5575,-0.65999 3.7539,-1.16601 1.1964,-0.50603 2.3325,-1.12493 3.3965,-1.84375 1.064,-0.71883 2.0561,-1.53659 2.9609,-2.44141 0.9049,-0.90482 1.7226,-1.89693 2.4415,-2.96094 0.7188,-1.064 1.3377,-2.2001 1.8437,-3.39648 0.506,-1.19638 0.8996,-2.45196 1.166,-3.75391 0.2664,-1.30195 0.4063,-2.65054 0.4063,-4.03125 0,-1.38071 -0.1399,-2.7293 -0.4063,-4.03125 -0.2664,-1.30195 -0.66,-2.55752 -1.166,-3.7539 -0.506,-1.19639 -1.1249,-2.33248 -1.8437,-3.39649 -0.7189,-1.064 -1.5366,-2.05612 -2.4415,-2.96094 -0.9048,-0.90482 -1.8969,-1.72258 -2.9609,-2.4414 -1.064,-0.71883 -2.2001,-1.33773 -3.3965,-1.84375 -1.1964,-0.50603 -2.4519,-0.8996 -3.7539,-1.16602 -1.3019,-0.26642 -2.6505,-0.40625 -4.0312,-0.40625 z"
         id="path29" />
    </g>
  </g>
</svg>
