<?xml version="1.0" encoding="UTF-8" standalone="no"?>
<!-- Created with Inkscape (http://www.inkscape.org/) -->

<svg
   width="363.10843"
   height="334.45898"
   viewBox="0 0 96.072437 88.492273"
   version="1.1"
   id="svg1"
   sodipodi:docname="coffee_cup_inkspace_file.svg"
   inkscape:version="1.3 (0e150ed6c4, 2023-07-21)"
   inkscape:export-filename="coffee_cup.svg"
   inkscape:export-xdpi="5.52"
   inkscape:export-ydpi="5.52"
   xmlns:inkscape="http://www.inkscape.org/namespaces/inkscape"
   xmlns:sodipodi="http://sodipodi.sourceforge.net/DTD/sodipodi-0.dtd"
   xmlns="http://www.w3.org/2000/svg"
   xmlns:svg="http://www.w3.org/2000/svg">
  <sodipodi:namedview
     id="namedview1"
     pagecolor="#ffffff"
     bordercolor="#9999ae"
     borderopacity="0.17647059"
     inkscape:showpageshadow="2"
     inkscape:pageopacity="0"
     inkscape:pagecheckerboard="0"
     inkscape:deskcolor="#d1d1d1"
     inkscape:document-units="px"
     showgrid="false"
     showguides="true"
     inkscape:zoom="0.45254834"
     inkscape:cx="3834.9494"
     inkscape:cy="-4238.2213"
     inkscape:current-layer="g36">
    <inkscape:grid
       id="grid965"
       units="px"
       originx="-15712.011"
       originy="9970.985"
       spacingx="2.6458333"
       spacingy="2.6458333"
       empcolor="#ff209d"
       empopacity="1"
       color="#00ddd2"
       opacity="0.71372549"
       empspacing="5"
       dotted="false"
       gridanglex="30"
       gridanglez="30"
       visible="false" />
    <inkscape:page
       x="1.2391492e-05"
       y="1.2897136e-05"
       width="96.072433"
       height="88.492271"
       id="page5"
       margin="0"
       bleed="0" />
  </sodipodi:namedview>
  <defs
     id="defs1">
    <linearGradient
       id="swatch24"
       inkscape:swatch="solid">
      <stop
         style="stop-color:#000000;stop-opacity:0.99416059;"
         offset="0"
         id="stop25" />
    </linearGradient>
    <filter
       inkscape:collect="always"
       style="color-interpolation-filters:sRGB"
       id="filter22"
       x="-0.02751289"
       y="-0.046896559"
       width="1.0550258"
       height="1.0937931">
      <feGaussianBlur
         inkscape:collect="always"
         stdDeviation="16.520801"
         id="feGaussianBlur22" />
    </filter>
  </defs>
  <g
     inkscape:label="Layer 1"
     inkscape:groupmode="layer"
     id="layer1"
     transform="translate(-4062.0748,2638.1565)">
    <g
       id="g36"
       transform="matrix(0.8,0,0,0.8,761.16339,-1932.1686)"
       style="fill:#0000ff;fill-opacity:0.484672;stroke:none">
      <path
         id="ellipse21"
         style="opacity:0.72;mix-blend-mode:normal;fill:#808080;fill-opacity:0.480001;stroke-width:0.10066;stroke-linejoin:bevel;filter:url(#filter22)"
         d="m 614.73186,-1428.8965 a 190.28305,408.63712 87.888781 0 0 -130.03704,46.6926 190.28305,408.63712 87.888781 0 0 -56.36267,227.8238 c -0.25227,-0.1937 -0.3348,-0.2411 -0.61479,-0.4576 -2.38755,-1.8495 -5.85332,-4.5914 -8.23046,-6.5318 -1.85567,-1.5147 -2.7335,-2.2901 -3.52273,-2.9808 1.00231,0.8578 2.18966,1.8743 3.18258,2.7173 1.4103,1.1974 2.02171,1.7041 3.58669,2.9088 1.56509,1.2049 4.08289,3.1078 122.70623,113.4334 118.62332,110.3255 353.34902,329.06934 590.71723,406.67695 237.3679,77.60752 477.3621,14.07306 481.8464,-126.7522 0.8622,-27.06949 -7.0486,-57.01841 -21.9177,-89.2504 l 0.1827,0.0782 c 3.4457,-0.98379 5.8616,-1.53781 11.8766,-3.15121 6.014,-1.61307 18.0604,-4.81584 29.7148,-7.9541 11.6545,-3.13796 24.882,-6.74744 34.761,-9.44396 2.1972,-0.59971 5.6335,-1.64378 8.2689,-2.36058 6.3366,-1.7296 12.807,-3.58426 19.7501,-5.63889 3.2277,-0.95166 6.1942,-1.66237 9.1578,-2.61484 7.9109,-2.5414 15.7255,-5.17859 23.3581,-7.9657 3.1602,-1.15422 6.2509,-2.36436 9.2805,-3.62387 1.4359,-0.59662 2.9991,-1.09027 4.3977,-1.71671 1.7042,-0.76343 3.2701,-1.63652 4.9436,-2.42577 2.1042,-0.99249 4.1717,-2.01176 6.2157,-3.05087 2.7699,-1.40786 5.458,-2.8639 8.0892,-4.37094 2.8625,-1.63958 5.622,-3.34733 8.2804,-5.12345 1.0138,-0.67729 2.178,-1.25475 3.1581,-1.95406 1.1827,-0.84368 2.2122,-1.7928 3.3733,-2.65383 2.3811,-1.76584 4.6817,-3.5817 6.9177,-5.44152 5.5325,-4.60083 10.6836,-9.42555 14.5608,-14.91312 0.4783,-0.67693 0.7464,-1.45861 1.1999,-2.14915 1.7969,-2.73798 3.3846,-5.5802 4.7553,-8.52183 2.4199,-5.1879 4.3452,-10.58388 5.21,-16.34052 1.5264,-10.16029 1.129,-21.13061 -2.4484,-32.5489 -0.3757,-1.19998 -0.956,-2.42693 -1.4021,-3.63653 -0.3103,-0.8423 -0.6346,-1.6864 -0.9772,-2.5325 -2.4031,-5.9437 -5.6101,-11.962 -9.1795,-18.018 -2.2172,-3.7619 -4.5484,-7.52 -7.001,-11.2758 -0.9538,-1.4601 -1.7505,-2.9288 -2.7222,-4.384 -7.0175,-10.5082 -15.6483,-20.9411 -24.5348,-31.3373 -0.5967,-0.6982 -1.1868,-1.396 -1.7867,-2.0935 -2.7747,-3.2271 -5.4623,-6.4685 -8.2629,-9.6847 -1.8936,-2.1743 -3.9601,-4.3217 -5.9266,-6.4849 -0.8064,-0.8869 -1.6131,-1.7738 -2.4298,-2.6592 -6.8017,-7.3737 -13.8136,-14.7132 -20.9579,-22.0194 -1.9255,-1.9691 -4.0145,-3.9015 -5.9581,-5.8673 -6.3181,-6.3909 -12.7709,-12.7511 -19.3707,-19.0744 -2.0193,-1.9348 -3.8718,-3.9106 -5.9261,-5.8359 -2.1822,-2.0425 -4.5575,-4.027 -6.7813,-6.0575 -5.8491,-5.341 -11.7948,-10.6527 -17.8399,-15.9341 -2.2896,-2.0003 -4.4551,-4.0399 -6.7572,-6.0355 -15.1329,-13.1184 -29.7142,-26.527 -46.3748,-39.0327 -1.9196,-1.441 -3.9738,-2.8282 -5.9166,-4.264 -3.9285,-2.9034 -7.9189,-5.7731 -11.9633,-8.6209 -10.0352,-7.0653 -20.3392,-13.9593 -31.401,-20.1921 -1.2025,-0.6775 -2.5048,-1.256 -3.7223,-1.9215 -4.3817,-2.395 -8.8481,-4.7026 -13.3937,-6.9155 -2.3963,-1.1666 -4.777,-2.2889 -7.2087,-3.3964 -4.8804,-2.2229 -9.8169,-4.3138 -14.7974,-6.262 -1.1683,-0.4569 -2.299,-1.0282 -3.4707,-1.4683 -1.116,-0.4193 -2.2609,-0.7025 -3.3824,-1.1015 -3.8869,-1.3831 -7.7966,-2.6542 -11.7242,-3.8178 -2.7997,-0.8292 -5.5719,-1.6045 -8.3742,-2.3385 -2.861,-0.7528 -5.7138,-1.4597 -8.5629,-2.1248 -1.6491,-0.3841 -3.3151,-0.8723 -4.9562,-1.2299 -1.3343,-0.2931 -2.6345,-0.4371 -3.9622,-0.6986 -3.1163,-0.6141 -6.2169,-1.1625 -9.3012,-1.6398 -6.998,-1.0827 -13.9484,-1.9919 -20.8271,-2.7803 -7.1634,-0.8208 -14.2541,-1.4438 -21.2595,-1.9046 -1.8287,-0.1203 -3.6431,-0.2159 -5.4498,-0.2965 -1.6969,-0.076 -3.4456,-0.2445 -5.1193,-0.2799 -1.6111,-0.034 -3.1371,0.064 -4.7197,0.075 -1.3602,0.01 -2.7145,0.027 -4.0568,0.064 -5.9931,0.165 -11.8874,0.4792 -17.6753,0.9177 -3.6101,0.2735 -7.0971,0.7039 -10.5257,1.1945 -1.9209,0.2748 -3.7227,0.6809 -5.6245,0.9779 -5.2632,0.8216 -10.4506,1.7249 -15.5631,2.7091 -1.8191,0.3505 -3.7391,0.5934 -5.5387,0.9635 -2.5648,0.5273 -4.9648,1.2184 -7.4866,1.7887 -6.1841,1.3985 -12.3087,2.856 -18.3602,4.3861 -2.4739,0.6257 -5.0344,1.1673 -7.5066,1.7936 -10.4102,2.6368 -19.99,5.3291 -30.8523,8.2666 -10.8625,2.9376 -23.1652,6.2403 -29.3068,7.8967 -3.0668,0.8266 -4.5527,1.2234 -5.282,1.4309 h -0.011 c -0.2227,0.047 -0.3471,0.079 -0.6954,0.1687 6e-4,7e-4 -0.144,0.011 -0.015,0 0.1408,-0.028 -0.068,0.019 -0.091,0.01 l -0.056,-0.053 -98.9289,-93.1311 c 0.03,0.1299 0.1897,0.2751 0.2447,0.3993 a 190.28305,408.63712 87.888781 0 0 -97.9853,-64.3573 190.28305,408.63712 87.888781 0 0 -447.34135,-22.6832 z m -198.76769,264.5462 c -0.0509,-0.048 -0.12094,-0.1018 -0.17255,-0.1478 l -5.6e-4,-5e-4 c 0.0365,0.034 0.13498,0.1137 0.17406,0.148 z m -1.33717,-1.1426 c -0.90213,-0.7744 -0.49568,-0.4353 0.35165,0.3039 0.082,0.077 0.3663,0.3073 0.46298,0.392 -0.23492,-0.2015 -0.65206,-0.5564 -0.81463,-0.6959 z m 0.81463,0.6959 c 0.0697,0.065 0.27533,0.2302 0.35284,0.2982 -0.11011,-0.092 -0.24896,-0.2124 -0.35,-0.2989 z m 934.94657,5.5017 34.2859,-9.3585 c 0,0 23.2674,-6.5957 35.1973,-9.6073 11.3477,-2.8649 22.3042,-6.1608 34.5851,-8.0472 12.8845,-1.9797 26.403,-3.3657 40.7753,-3.4005 11.9842,-0.029 24.3675,-0.033 37.4855,2.6599 11.042,2.2669 22.6868,6.0123 33.2649,11.0623 13.8516,6.6127 25.3759,15.1336 37.4104,24.1721 12.0294,9.0347 22.5283,18.0233 31.4645,25.9878 2.2102,1.97 4.0771,3.7138 6.1124,5.5697 6.2428,6.2471 12.8256,12.9086 18.9804,19.9433 6.6467,7.5978 12.7754,15.5941 17.4883,23.9249 4.7129,8.3308 8.0443,17.0387 9.7312,26.2712 1.6868,9.2326 1.7047,18.9019 -1.051,27.373 -2.756,8.4713 -8.2601,15.8208 -15.9519,21.7755 -7.6916,5.95436 -17.2747,10.21413 -27.1198,14.25366 -9.8451,4.03963 -19.9945,7.90002 -31.2873,11.61719 -11.2925,3.71718 -21.5186,6.50927 -29.347,8.64608 -7.8284,2.13681 -16.1817,4.41585 -24.3512,6.32249 -8.1683,1.90687 -17.2739,3.63276 -24.0773,4.90099 l -0.031,0.0778 c 0,0 0.4216,0.57244 0.4995,0.68523 -75.8261,-101.88364 -181.8875,-202.71444 -184.0645,-204.82974 z"
         inkscape:transform-center-x="1.6020264"
         inkscape:transform-center-y="-0.063407675"
         transform="matrix(0.0415076,0.02641811,0.0282674,0.05937755,4154.4192,-802.80934)" />
    </g>
    <g
       id="g23"
       transform="matrix(0.042,0,0,0.042,3992.0797,-2417.8127)"
       inkscape:export-filename="coffee_cup.svg"
       inkscape:export-xdpi="96.155426"
       inkscape:export-ydpi="96.155426">
      <ellipse
         style="opacity:1;fill:#87aade;fill-opacity:0.484672;stroke:none;stroke-width:0.0844512;stroke-linejoin:bevel;stroke-opacity:1"
         id="ellipse22"
         transform="matrix(0.5748436,0.81826331,0.9832882,-0.18205582,0,0)"
         cx="-3384.2896"
         cy="5475.5938"
         rx="188.45857"
         ry="290.41724"
         inkscape:export-filename="coffee_cup.svg"
         inkscape:export-xdpi="3.0946574"
         inkscape:export-ydpi="3.0946574" />
      <ellipse
         style="opacity:1;fill:#000000;fill-opacity:0.835037;stroke:none;stroke-width:0.0931704;stroke-linejoin:bevel"
         id="ellipse23"
         cx="5730.9824"
         cy="3390.9739"
         rx="238.81032"
         ry="157.46439"
         transform="matrix(0.97919428,-0.202925,-0.64084712,-0.76766852,0,0)" />
      <path
         id="path23"
         style="opacity:1;fill:#000080;fill-opacity:0.908029;stroke:none;stroke-width:0.114672;stroke-linejoin:bevel;stroke-opacity:1"
         d="m 3133.3017,-3770.4307 c -0.049,-0.7743 -0.02,-0.4329 0.018,0.3032 0,0.075 0.025,0.309 0.029,0.3933 -0.013,-0.2015 -0.038,-0.557 -0.046,-0.6965 z m 0.046,0.6965 v 0 c 0,0.064 0.019,0.2316 0.022,0.2992 -0.01,-0.092 -0.014,-0.2126 -0.02,-0.2992 z m 0.02,0.2992 c 0.058,0.8846 0.1282,1.9771 0.1917,2.8681 0.086,1.2003 0.1317,1.7112 0.3131,2.9491 0.1815,1.238 0.4976,3.2027 0.9845,111.4537 0.4869,108.251 1.1449,322.7837 102.0299,430.8026 100.8851,108.0189 301.99,109.5159 403.2029,3.6189 19.4552,-20.3555 35.1896,-44.7116 47.9722,-72.2404 l 0.065,0.097 c 2.9374,-0.033 4.902,0.047 9.957,0.069 5.0541,0.022 15.158,0.086 24.9608,0.1189 9.8027,0.033 20.962,0.034 29.2968,0.034 1.8537,0 4.827,-0.08 7.0488,-0.078 5.3461,0 10.8669,-0.067 16.8361,-0.1882 2.7725,-0.054 5.2062,0.022 7.8067,-0.087 6.9411,-0.2898 13.8861,-0.6723 20.8169,-1.2061 2.8698,-0.2212 5.7331,-0.4993 8.5912,-0.8274 1.3543,-0.1553 2.7198,-0.2066 4.0705,-0.3922 1.646,-0.2262 3.2782,-0.5643 4.9222,-0.8164 2.0672,-0.3172 4.1291,-0.6619 6.1893,-1.0269 2.7919,-0.4944 5.5639,-1.0423 8.3343,-1.6407 3.014,-0.6511 6.0086,-1.3751 8.9846,-2.172 1.135,-0.3038 2.2983,-0.5008 3.4266,-0.8284 1.3614,-0.3951 2.6961,-0.9019 4.0556,-1.3146 2.7877,-0.8465 5.5578,-1.7481 8.3163,-2.6959 6.8248,-2.3445 13.5568,-4.9378 19.9192,-8.2977 0.7848,-0.4145 1.5055,-0.9519 2.2836,-1.3818 3.0846,-1.7049 6.1052,-3.5317 9.0536,-5.4793 5.2013,-3.4343 10.2249,-7.1289 14.8074,-11.3167 8.0881,-7.3912 15.4848,-15.7952 21.1171,-25.1974 0.5919,-0.9881 1.0693,-2.0394 1.6221,-3.0494 0.3847,-0.7031 0.7621,-1.41 1.1291,-2.1228 2.5784,-5.0064 4.684,-10.2356 6.579,-15.5686 1.1772,-3.3127 2.2772,-6.6462 3.2964,-10.003 0.3962,-1.3051 0.9007,-2.5842 1.2816,-3.8892 2.75,-9.4242 4.3935,-19.1252 5.8446,-28.8515 0.098,-0.6531 0.199,-1.3046 0.294,-1.958 0.4397,-3.0225 0.9465,-6.0378 1.3617,-9.0574 0.2807,-2.0414 0.4295,-4.0983 0.6547,-6.1464 0.092,-0.8397 0.1844,-1.6795 0.2688,-2.5202 0.7033,-7.0018 1.2455,-14.0211 1.6779,-21.0426 0.1165,-1.8924 0.1006,-3.7912 0.2031,-5.6849 0.3333,-6.1561 0.5571,-12.3163 0.6594,-18.4795 0.031,-1.8858 0.2001,-3.7681 0.202,-5.654 0,-2.0012 -0.1666,-3.9984 -0.202,-5.9991 -0.093,-5.2626 -0.2696,-10.5229 -0.5323,-15.7809 -0.099,-1.9915 -0.091,-3.987 -0.2016,-5.9775 -0.7293,-13.0845 -0.8957,-26.2749 -3.0504,-39.211 -0.2483,-1.4906 -0.6218,-2.9682 -0.8888,-4.4597 -0.5398,-3.0158 -1.1435,-6.0189 -1.7979,-9.0165 -1.6239,-7.4374 -3.5431,-14.8004 -6.4187,-21.8188 -0.3126,-0.7629 -0.7595,-1.4713 -1.0903,-2.2283 -1.1905,-2.7241 -2.4976,-5.3993 -3.9223,-8.0191 -0.751,-1.3811 -1.5229,-2.7255 -2.3384,-4.0691 -1.6364,-2.6967 -3.4017,-5.3048 -5.2953,-7.814 -0.4441,-0.5884 -0.784,-1.2559 -1.2423,-1.8324 -0.4364,-0.5491 -0.9865,-1.0009 -1.4407,-1.5358 -1.5736,-1.854 -3.2402,-3.6278 -4.9935,-5.3237 -1.2499,-1.2089 -2.5199,-2.3708 -3.838,-3.5078 -1.3459,-1.1614 -2.7131,-2.2907 -4.1103,-3.3848 -0.8088,-0.6331 -1.5587,-1.3465 -2.3792,-1.9591 -0.6674,-0.4982 -1.4159,-0.877 -2.1007,-1.3503 -1.6069,-1.111 -3.2494,-2.169 -4.9309,-3.1698 -3.8156,-2.2703 -7.7208,-4.3991 -11.6639,-6.4213 -4.1061,-2.1059 -8.3031,-4.0467 -12.5574,-5.8467 -1.1106,-0.4699 -2.2288,-0.9186 -3.3527,-1.3539 -1.0556,-0.4088 -2.0801,-0.8984 -3.1487,-1.2718 -1.0286,-0.3594 -2.0938,-0.6014 -3.1353,-0.9208 -0.8948,-0.2747 -1.7917,-0.5417 -2.6943,-0.7917 -4.0297,-1.1157 -8.0993,-2.0973 -12.1859,-2.9632 -2.549,-0.54 -5.1271,-0.9359 -7.709,-1.2737 -1.4466,-0.1893 -2.9069,-0.2538 -4.3564,-0.4223 -4.0112,-0.4665 -8.0302,-0.8558 -12.0566,-1.1678 -1.4327,-0.1109 -2.8565,-0.3236 -4.2902,-0.4155 -2.0433,-0.1311 -4.0932,-0.1037 -6.1386,-0.1933 -5.0155,-0.2196 -10.0332,-0.3822 -15.0539,-0.4744 -2.0527,-0.038 -4.1031,-0.1569 -6.1551,-0.1938 -8.6401,-0.1553 -16.7766,-0.096 -25.922,-0.1173 -9.1455,-0.021 -19.4866,-0.063 -24.6543,-0.078 v 0 c -2.5802,-0.01 -3.8276,-0.014 -4.4488,-0.01 l -0.01,4e-4 c -0.1784,-0.01 -0.2821,-0.012 -0.5724,-0.016 0,7e-4 -0.1017,-0.022 -0.012,0 0.1115,0.01 -0.058,0 -0.064,-0.014 l 6e-4,-0.052 0.3774,-91.1294 c -0.4727,0.6955 -0.4313,1.3912 -0.7902,2.3502 -0.3588,0.9591 -0.6039,2.1807 -0.9492,3.6159 -0.3453,1.4352 -0.7909,3.0827 -1.231,4.6013 -0.4401,1.5184 -0.8744,2.9072 -1.6846,5.1541 -0.8103,2.247 -1.9804,5.3101 -3.16,8.1515 -1.1798,2.8413 -2.3069,5.3104 -4.5093,9.1643 -2.2025,3.8538 -5.465,9.0584 -9.1906,14.0792 -3.7257,5.0209 -7.914,9.8576 -12.5208,14.5547 -4.6068,4.697 -9.6318,9.2545 -14.8802,13.441 -5.2486,4.1865 -10.7198,8.0016 -15.3158,11.1379 -4.5961,3.1361 -8.3168,5.5927 -11.773,7.663 -3.4563,2.0703 -6.6486,3.7542 -9.5684,5.2912 -2.9199,1.537 -5.5671,2.9274 -8.8785,4.5667 -3.3115,1.6392 -7.2869,3.5276 -11.1539,5.2456 -3.8668,1.718 -7.625,3.2656 -12.2292,5.1108 -4.6042,1.8452 -10.0542,3.9884 -17.5394,6.5262 -7.4854,2.5378 -17.0056,5.4704 -26.2052,7.9825 -9.1996,2.5121 -18.0781,4.6031 -28.6132,6.6849 -10.5351,2.0817 -22.727,4.1542 -35.4579,5.7707 -12.7309,1.6164 -25.9991,2.7766 -39.9882,3.5186 -13.9891,0.7419 -28.6963,1.0654 -43.8309,0.7007 -15.1346,-0.3646 -30.6936,-1.4168 -45.6122,-3.0168 -14.9187,-1.6 -29.1947,-3.7472 -43.4677,-6.4265 -14.273,-2.6793 -28.5402,-5.89 -44.7151,-10.6387 -16.1747,-4.7486 -34.2541,-11.0343 -50.6594,-18.2035 -16.4052,-7.1692 -31.1332,-15.2211 -42.8021,-22.7232 -11.6686,-7.502 -20.3199,-14.4881 -26.6774,-19.9956 -6.3576,-5.5076 -10.5059,-9.604 -14.7132,-14.2885 -4.2076,-4.6847 -8.368,-9.8424 -11.2284,-13.7114 -2.8604,-3.869 -4.3412,-6.2992 -5.6978,-8.6041 -1.3566,-2.3049 -2.2357,-3.8979 -2.8282,-5.0028 -0.5926,-1.1049 -1.1867,-2.258 -1.7157,-3.3078 -0.5292,-1.0498 -0.9279,-1.8661 -1.3607,-2.7874 -0.4328,-0.9213 -1.0945,-2.3631 -1.6536,-3.6949 -0.5592,-1.3318 -1.0063,-2.5384 -1.2744,-3.2437 -0.268,-0.7053 -0.566,-1.4603 -0.8882,-2.3585 -0.3222,-0.8982 -0.6059,-1.751 -0.9209,-2.6986 h 5e-4 c 0,0 -1.0919,-3.6034 -1.2062,-4.0333 -0.1141,-0.4299 -0.3429,-1.29 -0.6072,-2.3782 -0.2641,-1.0881 -0.5639,-2.4041 -0.8076,-3.5609 -0.2438,-1.1569 -0.4314,-2.1542 -0.7003,-4.0515 -0.2687,-1.8973 -0.6189,-4.6949 -0.8175,-6.659 -0.1627,-1.6092 -0.1966,-2.4294 -0.2315,-3.1389 z m 635.772,197.4597 c 0,0 19.8009,-0.1856 29.6954,0 9.4117,0.1764 18.8686,-0.055 28.2071,1.0567 9.7978,1.166 19.5952,2.9137 29.0075,5.8632 7.8481,2.4595 15.9401,5.0201 22.6291,9.7793 5.6304,4.0059 10.6228,9.2582 14.0079,15.2792 4.4328,7.8842 6.0136,16.734 7.5665,26.0821 1.5522,9.3442 2.1371,18.3365 2.4158,26.2284 0.069,1.9521 0.071,3.6613 0.1054,5.4906 -0.2822,6.0315 -0.6318,12.4476 -1.5213,19.0583 -0.9609,7.1397 -2.5379,14.4744 -5.2736,21.7697 -2.7357,7.2953 -6.6369,14.5906 -11.9786,21.9434 -5.3416,7.3527 -12.0788,14.6912 -19.791,20.5466 -7.7124,5.8554 -16.4369,10.2908 -25.617,13.2152 -9.1798,2.9242 -18.4119,4.1712 -27.6619,5.197 -9.2501,1.0258 -18.5744,1.8527 -28.545,2.3342 -9.9706,0.4816 -18.5984,0.4822 -25.2032,0.4822 -6.6048,0 -13.6518,-8e-4 -20.3186,-0.246 -6.6664,-0.2448 -13.8192,-0.821 -19.1482,-1.2676 l -0.074,0.053 c 0,0 -0.1237,0.5215 -0.1514,0.6232 21.5764,-92.9858 22.6678,-191.433 22.7221,-193.4883 z m 46.7373,0.2166 c 2.7518,0.094 5.4973,0.2656 8.2367,0.5148 -2.7398,-0.2494 -5.4853,-0.4204 -8.2367,-0.5148 z m 14.8678,1.2697 c 2.4223,0.3271 4.8374,0.7021 7.2482,1.1193 -2.411,-0.4172 -4.826,-0.7921 -7.2482,-1.1193 z m 13.425,2.311 c 3.1803,0.6775 6.3316,1.4645 9.4496,2.3689 -3.118,-0.9045 -6.2696,-1.6912 -9.4496,-2.3689 z m 15.2745,4.1393 c 1.6807,0.5396 3.344,1.1205 5.01,1.7172 -1.6664,-0.5967 -3.3297,-1.1778 -5.01,-1.7172 z m 34.108,25.6025 c 0.4763,0.9385 0.9203,1.889 1.3281,2.8521 -0.4076,-0.963 -0.8519,-1.9134 -1.3281,-2.8521 z m 4.6747,13.699 c 0.5888,2.5925 1.114,5.2369 1.5776,7.9328 -0.4637,-2.6948 -0.988,-5.3401 -1.5776,-7.9328 z m 2.558,14.1262 c 0.3464,2.409 0.6408,4.7791 0.8784,7.1148 -0.2368,-2.335 -0.5329,-4.7061 -0.8784,-7.1148 z m 0.1084,50.1422 c -0.2838,1.8188 -0.6176,3.6455 -0.9978,5.4818 0.3796,-1.8364 0.7144,-3.6633 0.9978,-5.4818 z m -2.0876,10.1678 c -0.5972,2.3159 -1.2956,4.6347 -2.0992,6.9547 0.8028,-2.3201 1.5027,-4.6389 2.0992,-6.9547 z m -3.5012,10.7079 c -0.997,2.488 -2.1349,4.9771 -3.4188,7.4683 1.2828,-2.4911 2.4227,-4.9801 3.4188,-7.4683 z m -5.2984,10.9264 c -1.4364,2.5161 -3.0324,5.0369 -4.7928,7.5629 1.7585,-2.5258 3.3578,-5.0468 4.7928,-7.5629 z m -7.1923,10.8676 c -1.9711,2.6124 -4.1101,5.1932 -6.4078,7.7092 2.2966,-2.5166 4.4377,-5.0968 6.4078,-7.7092 z m -62.4928,36.1942 c -1.6454,0.2392 -3.2913,0.4697 -4.9381,0.6718 1.6467,-0.202 3.2926,-0.4327 4.9381,-0.6718 z m -13.7666,1.6361 c -6.3873,0.6605 -12.9039,1.203 -19.6324,1.6061 6.7263,-0.4045 13.2459,-0.9447 19.6324,-1.6061 z m -82.9339,1.3394 c 2.1674,0.1679 4.3204,0.2956 6.659,0.4408 -2.3432,-0.1431 -4.4776,-0.2732 -6.659,-0.4408 z m 52.4531,0.7592 c -5.0724,0.1564 -9.6362,0.2488 -13.7129,0.2625 4.0313,-0.011 8.6758,-0.1149 13.7129,-0.2625 z m -31.2973,0.2119 c 1.5027,0.02 2.9653,0.046 4.4648,0.054 -1.4996,-0.01 -2.9622,-0.034 -4.4648,-0.054 z"
         sodipodi:nodetypes="sccscsccccsssssccsssccsssssssssscsscssscssssssssssscsssssssssssssssssccssssscssssssssscccccccccssssssssssssssssssssssssssssssssssssccssssscccccssssssscssssssssscccccccccccccccccccccccccccccccccccccccccccccccccccccc" />
    </g>
  </g>
</svg>
