<?xml version="1.0" encoding="utf-8"?>

<!DOCTYPE svg PUBLIC "-//W3C//DTD SVG 1.1//EN" "http://www.w3.org/Graphics/SVG/1.1/DTD/svg11.dtd">
<svg version="1.1" id="Layer_1" xmlns="http://www.w3.org/2000/svg" xmlns:xlink="http://www.w3.org/1999/xlink" x="0px" y="0px"
	 viewBox="128.02 70.6273 1153.98 906.5455" enable-background="new 128.02 70.6273 1153.98 906.5455" xml:space="preserve">
<g id="_x23_000000ff">
	<path d="M576.41,86.66c1.95-2.32,3.8701-4.68,5.79-7.03c10.77,45.13,21.79,90.21,32.63,135.33c1.39,6.05,3.09,12.02,4.21,18.13
		c0.96-1.05,1.94-2.1,2.92-3.15c7.11,6.04,14.27,12.03,21.41,18.04C595.18,305,547.23,362.23,499.01,419.23
		c66.3,55.89,132.59,111.79,198.98,167.56c48.67-34.88,96.84-70.47,145.57-105.24c0.08-0.9,0.14-1.79,0.18-2.68
		c-4.82-5.18-8.58-11.27-12.72-16.99c-0.4-0.22-1.18-0.67-1.58-0.9c2.44-0.47,2.55-3.26,3.74-5c6.39-13.4,13.22-26.6,19.6-40.01
		c1.02-1.31,1.5-2.88,1.81-4.48l0.75-0.04c-0.07-3.86,2.35-7,3.91-10.36c0.55-1.4,1.14-2.78,1.97-4.04
		c3.66-8.12,7.89-15.97,11.58-24.07c0.77-1.28,1.39-2.64,2.01-3.99c0.72-1.34,1.33-2.73,1.93-4.13c3.68-7.14,6.97-14.47,10.57-21.65
		c1.32-2.7,2.51-5.45,4-8.06c0.52-1.41,1.06-2.83,1.94-4.06c0.56-1.4,1.13-2.79,1.94-4.07c3.74-8.09,7.88-15.98,11.62-24.07
		c0.79-1.27,1.36-2.66,1.93-4.04c0.84-1.26,1.4-2.66,1.97-4.05c4.94-9.87,9.61-19.88,14.57-29.74c0.54-1.4,1.14-2.78,1.93-4.07
		c0.6-1.37,1.22-2.74,1.97-4.05c3.07-6.73,6.57-13.26,9.64-19.99c0.72-1.33,1.32-2.72,1.93-4.1c0.89-1.22,1.42-2.63,1.94-4.03
		c0.83-1.25,1.48-2.6,2-4.01c0.87-1.24,1.45-2.64,1.96-4.06c0.79-1.67,1.66-3.3,2.54-4.93c2.32-5.72,5.52-11.1,8.11-16.73
		c0.53-1.41,1.1-2.81,1.93-4.07c0.58-1.38,1.18-2.77,1.94-4.07c0.65-1.35,1.29-2.71,1.98-4.04c3.15-6.69,6.52-13.27,9.68-19.95
		c0.69-1.34,1.31-2.72,1.95-4.1c0.78-1.27,1.41-2.62,1.98-4c4.94-9.88,9.51-19.95,14.54-29.78c0.51-1.41,1.11-2.8,1.92-4.07
		c0.59-1.38,1.21-2.75,1.98-4.05c2.98-6.75,6.67-13.18,9.5-20.01c0.58,0.2,1.74,0.6,2.32,0.8c5.14,7.82,11.11,15.07,16.58,22.66
		c1.55,2.36,4.1901,4.35,4.0701,7.45c-2.8501,3.31-4.53,7.41-6.89,11.06c-3.7401,6.76-7.79,13.34-11.5601,20.08
		c-2.6299,4.67-5.47,9.22-8.02,13.93c-3.52,5.95-6.9,11.99-10.44,17.94c-3.74,6.76-7.8,13.34-11.53,20.1
		c-3.54,5.95-6.93,11.99-10.45,17.94c-3.7401,6.77-7.79,13.36-11.55,20.1c-2.68,4.64-5.45,9.22-8.03,13.91
		c-3.56,5.93-6.91,11.98-10.43,17.94c-2.64,4.65-5.32,9.29-8.02,13.91c-4.63,8.06-9.3,16.11-13.98,24.14
		c-3.76,6.74-7.78,13.34-11.54,20.08c-3.52,5.96-6.91,11.99-10.43,17.94c-9.15,16.03-18.5,31.94-27.66,47.96
		c-3.03,1.84-0.78,7.47,2.55,6.7c14.01-23.12,28.78-45.81,43.06-68.78c4.21-6.56,8.28-13.2,12.49-19.77
		c7.1-11.45,14.4-22.79,21.5-34.25c4.23-6.54,8.28-13.2,12.5-19.75c3.31-5.33,6.62-10.65,10.02-15.92
		c3.74-6.16,7.74-12.15,11.49-18.31c11.36-17.99,22.7-35.99,34-54.01c4.23-6.54,8.27-13.19,12.5-19.73
		c3.72-6.35,8.1-12.31,11.53-18.82c0.73,0.16,1.48,0.33,2.23,0.51c0.63,1.88,1.61,3.61,2.92,5.11c6.0399,7.53,11.23,15.76,17.61,23
		c0.01,0.82,0.0299,1.64,0.0599,2.47c-16.13,20.92-31.6699,42.32-47.5699,63.43c-45.89,61.41-91.69,122.93-137.65,184.27
		c-0.01,0.63-0.03,1.89-0.04,2.51c1.02,0.97,1.91,2.06,2.75,3.2c54.91-67.34,109.61-134.83,164.4799-202.2
		c9.6001-12.18,19.88-23.85,29.13-36.3c0.8301,0.13,1.6801,0.25,2.54,0.38c0.15,0.56,0.4401,1.67,0.58,2.23
		c6.8301,8.42,12.7101,17.59,19.7401,25.84c0.0599,0.84,0.1299,1.69,0.21,2.54c-7.99,7.86-15.85,15.85-23.4301,24.11
		c-8.3199,8.63-16.84,17.07-24.9199,25.93c-26.1201,26.29-51.3,53.47-77.39,79.79c-8.89,9.39-17.83,18.74-26.91,27.96
		c-10.85,11.81-22.35,23-33.47,34.56c-7.51,8.18-15.28,16.12-23.19,23.92c-0.02,0.42-0.06,1.27-0.08,1.69
		c0.92,1.09,1.76,2.24,2.55,3.45c1.06-0.46,2.21-0.86,3-1.77c17.37-17.39,35.81-33.65,53.26-50.96c8.87-8.05,17.37-16.5,26.23-24.57
		c17.27-17.09,35.44-33.23,52.7-50.33c8.41-7.51,16.3-15.58,24.71-23.1c19-18.85,39.14-36.5,57.92-55.58
		c0.85,0.06,1.72,0.12,2.6,0.19c0.1,0.51,0.3101,1.54,0.42,2.06c6.4,7.85,12.04,16.3,18.2999,24.27
		c1.0901,1.21,1.7001,2.71,2.1001,4.3c-78.28,61.82-156.28,123.93-234.52,185.79c1.7,0.48,2.39,2.13,3.21,3.55
		c0.99-0.12,2-0.23,3.02-0.35c2.81-2.99,6.45-4.99,9.69-7.47c69.96-50.43,139.7499-101.1,209.7499-151.49
		c6.4601-5,13.54-9.22,19.64-14.66c0.7101-0.02,1.4401-0.04,2.1901-0.05c5.0699,8.45,11.65,15.93,17.2899,24.01
		c1.3301,2.25,3.9901,3.93,4.2001,6.69c-1.74,1.42-3.73,2.46-5.66,3.55c-19.3199,11.46-38.6,22.99-57.9199,34.43
		c-2.02,1.2-4.04,2.4-6.0701,3.57c-1.33,0.82-2.65,1.62-3.96,2.43c-2.0601,1.13-4.0701,2.36-6.0801,3.56
		c-18,10.65-35.9099,21.46-53.96,32.01c-1.3199,0.82-2.64,1.63-3.95,2.43c-2.0601,1.15-4.01,2.48-6.1301,3.5
		c-1.3,0.83-2.58,1.67-3.85,2.53c-2.1,1.08-4.13,2.27-6.11,3.54c-6.76,3.91-13.44,7.95-20.14,11.96
		c-11.31,6.61-22.46,13.51-33.83,20.03c-1.32,0.81-2.64,1.62-3.94,2.45c-2.06,1.13-4.08,2.35-6.1,3.54
		c-1.32,0.81-2.65,1.61-3.96,2.43c-11.74,6.88-23.46,13.81-35.07,20.9c-0.5699,0.22-1.7,0.65-2.27,0.87c2.37,1,3.93,3.47,5.35,5.54
		c0.29-2.12,2.42-2.75,3.99-3.72c1.32-0.64,2.65-1.31,3.94-2.03c4.73-2.49,9.35-5.16,14.14-7.53c3.84-2.36,8.03-4.11,11.88-6.46
		c4.76-2.43,9.39-5.09,14.15-7.51c3.85-2.36,8.02-4.15,11.92-6.44c1.3-0.67,2.62-1.34,3.91-2.07c8.64-4.72,17.39-9.26,26.03-13.99
		c4.79-2.34,9.36-5.13,14.12-7.53c3.62-2.13,7.41-3.95,11.1299-5.91c1.55-0.88,3.1001-1.74,4.67-2.61c3.5-1.65,6.79-3.73,10.25-5.45
		c1.28-0.73,2.58-1.4,3.91-2.06c3.88-2.31,8.0399-4.1,11.9199-6.42c4.7301-2.44,9.37-5.07,14.1001-7.55
		c1.2699-0.73,2.5699-1.41,3.8899-2.08c2.67-1.46,5.4-2.82,8.0601-4.32c1.3-0.68,2.61-1.37,3.9-2.1c4.74-2.45,9.36-5.12,14.12-7.53
		c3.87-2.33,8.0599-4.08,11.91-6.45c4.7699-2.39,9.38-5.07,14.13-7.51c3.8999-2.29,8.0299-4.14,11.9199-6.44
		c1.29-0.69,2.6-1.36,3.92-2.04c3.4399-1.78,6.7899-3.75,10.25-5.51c1.26-0.72,2.5499-1.4,3.86-2.06c3.89-2.3,8.0599-4.08,11.9-6.46
		c2.96-1.3,5.5599-3.76,9.0399-3.34c4.37,7.52,10.28,14.09,15.27,21.23c1.9301,3.14,5.28,5.62,5.77,9.46
		c-3.6799,1.6-7.38,3.15-11.11,4.62c-4.8101,2.48-10.02,4.06-14.8101,6.57c-1.71,0.53-3.4099,1.08-4.9099,2.05
		c-2.79,1.08-5.5,2.31-8.27,3.4c-1.84,1.04-3.91,1.53-5.72,2.58c-2.77,1.13-5.5,2.33-8.26,3.42c-4.5801,2.19-9.3,4.08-14,5.99
		c-1.8401,1.03-3.89,1.55-5.7201,2.58c-2.75,1.17-5.5,2.36-8.2899,3.42c-4.5601,2.24-9.29,4.11-13.99,6.01
		c-4.5901,2.18-9.28,4.14-14,5.99c-4.61,2.11-9.26,4.19-14,6c-2.9301,1.55-6.04,2.7-9.0801,3.99c-1.58,0.84-3.26,1.42-4.9299,1.98
		c-2.91,1.66-6.11,2.69-9.16,4.04c-1.5699,0.78-3.1799,1.43-4.8199,1.98c-2.9301,1.56-6.04,2.7-9.0801,4
		c-1.58,0.85-3.25,1.45-4.9299,1.98c-4.77,2.54-9.98,4.15-14.79,6.58c-4.69,1.97-9.42,3.83-14,6.01c-4.68,1.96-9.43,3.79-13.99,5.99
		c-4.69,1.95-9.41,3.84-14,6c-2.8,1.09-5.52,2.34-8.29,3.47c-1.54,0.88-3.22,1.45-4.89,1.98c-2.93,1.59-6.06,2.71-9.11,4.02
		c-1.52,0.89-3.21,1.44-4.8701,1.98c-2.92,1.6-6.08,2.68-9.12,4.02c-1.54,0.88-3.22,1.45-4.88,1.99c-2.91,1.6-6.08,2.65-9.1,4.01
		c-1.8,1.11-4,1.34-5.72,2.59c-1.3,0.47-2.6,0.91-3.89,1.36c0.52,1.23,1.04,2.47,1.56,3.71c3.09,0.78,6.44,0.04,9.08-1.71
		c5.4-1.75,10.7599-3.76,15.94-6.04c1.41-0.43,2.83-0.84,4.2599-1.27c1.34-1.1,3.09-1.37,4.69-1.94c3.92-1.25,7.56-3.37,11.66-4.03
		l0.06-0.81c1.55-0.35,3.11-0.74,4.65-1.2c3.77-1.91,7.95-2.87,11.73-4.8c1.5-0.46,3.04-0.86,4.59-1.18l0.09-0.84
		c1.53-0.35,3.09-0.71,4.62-1.17c3.66-2.12,8.02-2.63,11.69-4.77c1.39-0.43,2.82-0.83,4.23-1.26c1.26-1.31,3.23-1.02,4.88-1.38
		c0.54-0.9,1.34-1.45,2.38-1.65c2.94-0.93,5.72-2.28,8.73-3.03c1.46-1.12,3.29-1.47,5.04-1.95c5.4299-2.57,11.37-4.05,16.76-6.7
		c1.41-0.44,2.85-0.84,4.2899-1.27c3.64-2.14,8.01-2.62,11.66-4.75c1.39-0.45,2.79-0.86,4.22-1.26c5.41-2.63,11.3501-4.11,16.78-6.7
		c1.41-0.47,2.85-0.89,4.29-1.33c5.4299-2.6,11.38-4.09,16.76-6.71c1.4-0.44,2.84-0.84,4.27-1.26
		c5.1699-2.3,10.5699-4.23,15.95-6.07c1.47-1.11,3.29-1.45,5.04-1.93c3.7899-1.84,7.9099-2.9,11.72-4.73
		c1.5-0.49,3.04-0.9,4.61-1.23l0.1-0.81c3.9501-0.63,7.4501-2.66,11.23-3.89c1.6801-0.67,3.6101-0.92,5.0901-2.08
		c1.39-0.45,2.83-0.85,4.26-1.26c5.36-2.64,11.3199-4.08,16.6899-6.7c1.41-0.46,2.85-0.88,4.3-1.32
		c5.4099-2.62,11.37-4.05,16.76-6.65c1.45-0.51,2.9299-0.95,4.4099-1.41c1.5701-0.84,3.2301-1.49,4.9301-2.07
		c6.26,7.66,11.87,15.85,17.9,23.7c1.4299,1.74,2.37,3.97,4.4,5.15c0,0.81-0.01,2.43-0.01,3.24c-2.87,0.4-5.9,0.52-8.4601,1.99
		c-7.0299,1.76-14.0699,3.77-20.9,6.09c-11.34,2.57-22.2999,6.86-33.6899,9.17l-0.04,0.82c-2.22,0.35-4.3999,0.75-6.5699,1.26
		c-2.17,1.47-4.89,1.47-7.36,1.93l-0.05,0.85c-2.51,0.39-5.2,0.47-7.37,1.91c-2.17,0.54-4.38,0.91-6.5599,1.27l-0.05,0.83
		c-4.84,0.25-9.09,2.99-13.95,3.19l-0.03,0.85c-11.37,2.31-22.3301,6.49-33.62,9.19c-2.16,1.19-4.64,1.45-6.99,2
		c-2.15,1.2-4.64,1.41-6.9701,2.02c-2.1399,1.22-4.6499,1.38-6.98,2.01c-2.14,1.26-4.6899,1.37-7.0299,2
		c-2.14,1.25-4.65,1.4-6.9801,2.02c-2.1799,1.44-4.9299,1.39-7.3999,1.87l-0.0601,0.84c-2.3199,0.34-4.62,0.79-6.91,1.19
		l-0.0399,0.82c-2.3401,0.37-4.66,0.82-6.98,1.21l-0.03,0.83c-4.4401,0.31-8.42,2.53-12.8101,3.13c-0.38,0.2-1.15,0.6-1.53,0.79
		c-4.2299,0.64-8.0999,2.62-12.33,3.22c-2.14,1.21-4.61,1.46-6.95,2.06c-2.25,1.3-4.9,1.49-7.41,1.87l-0.05,0.82
		c-2.21,0.31-4.4,0.75-6.55,1.3c-2.39,1.53-5.46,1.1-7.84,2.63c-2.36,0.57-4.86,0.77-6.99,1.99c-2.04,0.47-4.07,0.91-6.07,1.45
		c-4.69,1.61-9.52,3.17-14.45,3.89l-0.01,0.83c-2.54,0.63-6.03,0.06-7.56,2.56c-6.87,0.24-13.04,3.88-19.86,4.51
		c-0.11,2.19,1.14,3.88,2.57,5.39c1.55-0.04,2.97-0.45,4.27-1.23c2.5-0.53,5.02-0.9,7.56-1.25l0.03-0.82
		c2.67-0.3,5.31-0.77,7.97-1.17l0.05-0.83c5.78-0.22,11.04-3.01,16.83-3.28l0.06-0.81c10.82-1.57,21.15-5.71,32-7.13l0.06-0.82
		c2.65-0.35,5.28-0.82,7.94-1.18l0.06-0.81c2.54-0.31,5.07-0.75,7.58-1.3c2.42-1.41,5.35-1.24,8-1.99
		c6.0701-2.04,12.51-2.98,18.67-4.82c4.91-0.91,9.61-2.83,14.65-3.12l0.0399-0.83c8-0.98,15.5901-4.03,23.5701-5.25
		c2.5499-1.45,5.63-1.31,8.45-1.86v-0.84c2.67-0.31,5.3301-0.77,8.01-1.16l0.04-0.83c13.38-2.13,26.2999-6.67,39.63-9.18
		c9.5499-2.61,19.25-5.53,29.1899-6.55c-1.4399-0.2-4.3099-0.59-5.75-0.79c3.4-0.54,7.26,0.45,10.3301-1.39
		c2.49-0.57,5.0099-0.94,7.5599-1.27l0.03-0.81c2.6699-0.31,5.3199-0.77,8-1.16l0.02-0.84c6.6799-0.68,13.0499-3.03,19.61-4.44
		c12.3099-2.84,24.48-6.36,36.87-8.88c1.34-1.4,3.34-0.77,5.0699-0.81c5.03,8.18,11.39,15.49,16.92,23.35
		c2.1899,2.42,3.48,5.87,6.53,7.35c-3.17,0.74-6.4,1.17-9.63,1.46c-3.53,1.53-7.55,1.08-11.25,1.96
		c-3.79,1.46-7.9601,1.24-11.9,1.98c-4.04,1.62-8.5601,1.25-12.78,2.15c-3.96,1.48-8.3199,1.41-12.48,1.86l0.02,0.84
		c-4.02,0.16-7.96,1.02-11.97,1.17l-0.05,0.84c-4.13,0.59-8.5601,0.28-12.4301,1.9c-7.63,0.44-14.9399,3.01-22.6,3.22l-0.01,0.85
		c-4.3099,0.12-8.52,1.08-12.8199,1.26l-0.0601,0.84c-3.71,0.15-7.35,0.88-11.0399,1.09l-0.0901,0.84
		c-4.13,0.5-8.5499,0.24-12.4199,1.87c-3.99,0.66-8.15,0.54-11.97,2c-7.4,0.71-14.5801,2.64-21.9701,3.4
		c-3.61,1.46-7.63,1.09-11.35,2.04c-3.9,1-7.9299,1.29-11.89,1.89c-3.83,1.46-8.03,1.23-12,2.02c-3.4,1.61-7.4199,0.96-11.01,1.99
		c-4.2899,1.38-8.9299,1.41-13.39,1.89l-0.0499,0.83c-3.99,0.23-7.91,1.06-11.9,1.19l-0.06,0.84c-3.85,0.24-7.66,0.84-11.48,1.33
		c-3.5,1.6-7.51,1.09-11.17,2.06c-3.9,1.06-7.95,1.28-11.93,1.87c-3.71,1.67-8.05,1.06-11.97,2.02c-3.52,1.44-7.45,1.12-11.13,1.9
		c-3.78,1.54-8.02,1.2-11.99,2c-4.02,1.64-8.54,1.26-12.75,2.16c-3.48,1.56-7.48,1.1-11.14,1.93c-3.84,1.4301-8.05,1.2-12.04,1.95
		c-3.48,1.54-7.45,1.12-11.11,1.97c-4.1,1.51-8.57,1.25-12.81,2.12c-3.72,1.63-8,1.13-11.92,2.01c-2.7,0.93-6.97,2.41-8.88-0.54
		c-3.76-5.39-7.71-10.65-11.5-16.02c-0.93,0.08-1.84,0.17-2.74,0.27c-7.7,6.52-16.29,11.94-24.33,18.05
		c-36.17,26.21-72.32,52.46-108.5,78.66c-1.85,1.54-3.82,2.93-6.02,3.91c10.2,9.48,21.24,18.03,31.77,27.14
		c123.28,103.85,246.59,207.67,369.85,311.53c-6.9401,8.1-13.78,16.28-20.63,24.46C967.66,855.81,834.27,743.49,700.89,631.15
		c-2.41-1.94-4.6-4.17-7.21-5.85c-2.31,0.1-3.78,2.17-5.56,3.36C576.95,709.27,465.79,789.9,354.63,870.5
		c-2.17,1.8-4.76,3.06-6.66,5.18c-1.07,0.01-2.14,0.02-3.2,0.03c-2.26-4.4-5.66-8.06-8.39-12.16c-2.11-2.48-3.45-5.59-5.99-7.66
		c0.03-0.76,0.08-2.26,0.1-3.01c2.04-0.66,3.69-2.01,5.33-3.32c107.76-78.14,215.5-156.3,323.26-234.43
		c3.78-2.76,7.52-5.59,11.49-8.09c0-0.37,0.01-1.1,0.02-1.47C606.48,551.69,542.47,497.69,478.41,443.75
		c-55.4,65.79-110.77,131.61-166.23,197.34c-7.1-6.05-14.28-12-21.38-18.05c1.89-2.23,3.76-4.46,5.66-6.68
		c-34.84-1.43-69.68-2.87-104.52-4.24c-17.48-0.95-35-1.19-52.46-2.34c1.89-2.09,3.72-4.22,5.48-6.41
		c51.85,2.65,103.68,5.46,155.53,8.2c1.88-2.19,3.71-4.42,5.49-6.69c-51.22-3.15-102.4-7.1-153.61-10.45
		c1.9-2.25,3.81-4.51,5.75-6.73c50.58,4.38,101.21,8.2,151.78,12.63c2.4-2.73,4.73-5.52,6.96-8.39
		c-49.88-4.81-99.72-10.26-149.58-15.37c1.93-2.1,3.47-4.61,5.73-6.39c12.07,0.92,24.09,2.75,36.14,4.02
		c37.15,4.34,74.32,8.71,111.47,13.07c2.27-1.85,3.9-4.35,5.8-6.56c-48.75-6.39-97.44-13.32-146.2-19.61
		c1.9-2.16,3.74-4.37,5.46-6.67c48.35,6.84,96.57,14.59,144.92,21.4c2.25-2.71,4.53-5.39,6.8-8.08
		c-47.45-8.04-94.82-16.49-142.26-24.58c1.96-2.19,3.84-4.43,5.67-6.72c46.84,8.9,93.69,17.7,140.54,26.49
		c1.88-2.14,3.74-4.29,5.59-6.45c-46.21-9.75-92.49-19.25-138.7-29.03c1.93-2.12,3.46-4.67,5.79-6.37
		c16.01,3.1,31.87,7.1,47.83,10.52c29.7,6.68,59.42,13.33,89.11,20.03c2.25-2.75,4.57-5.44,6.92-8.1
		c-44.86-11.42-89.79-22.57-134.66-33.94c1.84-2.27,3.72-4.51,5.7-6.65c44.32,11.94,88.66,23.78,132.99,35.67
		c1.84-2.2,3.7-4.39,5.55-6.59c-43.8-12.5-87.43-25.54-131.23-38.02c1.92-2.22,3.8-4.48,5.65-6.76
		c40.02,12.37,80.05,24.7,120.08,37.06c3.21,1.01,6.42,2.04,9.71,2.78c1.73-2.16,3.52-4.27,5.36-6.34
		c-42.55-14.23-85.13-28.36-127.7-42.52c1.92-2.25,3.85-4.49,5.83-6.68c41.93,14.89,83.96,29.51,125.92,44.32
		c1.86-2.19,3.7-4.4,5.51-6.63c-41.39-15.5-82.76-31.05-124.04-46.8c1.87-2.13,3.69-4.3,5.45-6.52
		c41.02,15.9,81.79,32.49,122.76,48.53c2.25-2.77,4.55-5.48,6.79-8.23c-40.03-17.17-80.05-34.37-119.99-51.75
		c1.88-2.13,3.71-4.31,5.46-6.55c39.62,17.63,79.08,35.67,118.62,53.51c1.86-2.18,3.71-4.38,5.57-6.57
		c-38.87-18.6-77.62-37.45-116.51-55.99c1.85-2.27,3.73-4.52,5.63-6.75c38.31,19.26,76.62,38.52,114.86,57.9
		c2.36-2.67,4.61-5.42,6.97-8.09c-37.37-20.53-74.9-40.8-112.4-61.09c1.81-2.28,3.66-4.53,5.53-6.77
		c37.05,20.85,73.97,41.93,110.97,62.87c1.88-2.17,3.72-4.36,5.53-6.58c-36.3-21.75-72.54-43.61-108.84-65.35
		c1.84-2.33,3.74-4.61,5.73-6.81c35.62,22.63,71.52,44.79,107.18,67.34c2.36-2.74,4.71-5.5,6.93-8.36
		c-35.02-23.24-69.77-46.9-104.74-70.22c1.84-2.32,3.74-4.61,5.72-6.82c34.27,24.25,68.82,48.12,103.13,72.32
		c1.84-2.2,3.71-4.38,5.59-6.56c-33.73-24.99-67.53-49.9-101.28-74.86c1.96-2.18,3.84-4.44,5.6-6.78
		c33.3,25.53,66.46,51.25,99.84,76.66c2.72-3.29,5.49-6.54,8.23-9.82c-32.21-26.77-64.32-53.65-96.59-80.33
		c1.84-2.31,3.71-4.59,5.62-6.84c31.71,27.41,63.37,54.87,95.08,82.29c1.87-2.2,3.73-4.4,5.58-6.6
		c-31.07-28.2-61.98-56.61-93.09-84.79c1.93-2.22,3.82-4.48,5.64-6.8c30.57,28.85,61.03,57.82,91.54,86.73
		c2.3-2.74,4.61-5.47,6.92-8.2c-29.64-29.96-59.15-60.04-88.89-89.89c1.89-2.23,3.75-4.47,5.56-6.76
		c29.32,30.41,58.3,61.16,87.46,91.72c1.85-2.2,3.71-4.39,5.57-6.57c-28.42-31.4-56.71-62.93-85.28-94.19
		c1.75-2.46,3.72-4.73,5.79-6.93c27.69,32.16,55.76,64,83.49,96.12c2.46-2.66,4.79-5.43,7.11-8.21
		c-27.11-33.11-54.22-66.24-81.19-99.47c1.92-2.23,3.83-4.46,5.73-6.7c26.46,33.79,52.98,67.55,79.58,101.23
		c1.8-2.15,3.63-4.28,5.51-6.37c-25.62-34.8-51.65-69.31-77.48-103.95c1.85-2.24,3.69-4.49,5.47-6.78
		c7.51,9.65,14.35,19.83,21.6,29.69c18.17,25.33,36.43,50.59,54.52,75.98c2.35-2.78,4.76-5.51,6.99-8.38
		c-24.48-36.26-48.93-72.53-73.32-108.85c1.92-2.25,3.78-4.53,5.63-6.83c23.92,36.93,47.93,73.8,71.73,110.81
		c1.94-2.15,3.84-4.32,5.72-6.51c-23.25-37.85-46.54-75.68-69.77-113.55c1.99-2.22,3.92-4.48,5.79-6.8
		c22.51,38.58,45.5,76.87,68.06,115.42c1.8701-2.25,3.76-4.49,5.66-6.73c-22.13-39.22-44.07-78.54-66.09-117.82
		c1.9-2.27,3.8-4.55,5.65-6.86c21.57,39.92,43.02,79.92,64.58,119.85c1.83-2.24,3.67-4.46,5.53-6.67
		c-20.71-40.85-41.73-81.54-62.31-122.44c1.91-2.24,3.79-4.51,5.69-6.77c20.15,41.47,40.57,82.82,60.75,124.28
		c2.4-2.75,4.73-5.56,7.04-8.37c-19.53-42.42-38.77-84.98-58.26-127.42c1.93-2.3,3.84-4.61,5.79-6.9
		c18.78,43.21,37.75,86.34,56.62,129.5c1.86-2.24,3.71-4.48,5.61-6.69c-18.28-43.95-36.29-88.01-54.6-131.94
		c1.92-2.29,3.83-4.6,5.69-6.94c15.4,38.56,30.55,77.22,45.86,115.83c2.27,6.07,4.98,11.98,7,18.14c2.55-2.7,4.91-5.58,7.22-8.48
		c-16.95-45.64-33.66-91.38-50.32-137.12c1.88-2.21,3.68-4.52,5.88-6.44c15.93,46.22,32.43,92.24,48.33,138.48
		c2.25-1.77,3.96-4.1,5.76-6.3c-15.38-47.25-30.97-94.44-46.56-141.62c1.87-2.38,3.81-4.71,5.74-7.05
		c14.91,47.91,30.21,95.7,44.88,143.68c2.5-2.66,4.8-5.5,7.15-8.29c-13.18-45.99-26.51-91.93-39.74-137.91
		c-0.79-2.91-1.89-5.74-2.36-8.73c1.1801-2.8,3.6801-4.78,5.64-7.04c13.37,49.62,27.11,99.14,40.66,148.71
		c1.86-2.19,3.7-4.4,5.54-6.61C602.31,187.59,589.25,137.15,576.41,86.66z"/>
</g>
</svg>
