<?xml version="1.0" encoding="UTF-8" standalone="no"?>
<!DOCTYPE svg PUBLIC "-//W3C//DTD SVG 1.1//EN" "http://www.w3.org/Graphics/SVG/1.1/DTD/svg11.dtd">
<svg width="100%" height="100%" viewBox="0 0 1280 1280" version="1.1" xmlns="http://www.w3.org/2000/svg" xmlns:xlink="http://www.w3.org/1999/xlink" xml:space="preserve" xmlns:serif="http://www.serif.com/" style="fill-rule:evenodd;clip-rule:evenodd;stroke-linejoin:round;stroke-miterlimit:2;">
    <g transform="matrix(0.196557,0,0,1.04665,137.444,9.7234)">
        <path d="M991.972,714.928L991.972,737.966L290.591,737.966L526.165,648.447L290.591,558.928L725.263,559.14L725.263,714.928L991.972,714.928ZM4369.95,559.155L4836.03,558.928L4600.45,648.447L4836.03,737.966L4134.65,737.966L4134.65,714.928L4375.89,714.928L4369.95,559.155Z" style="fill:rgb(6,3,3);"/>
    </g>
    <g transform="matrix(1.82271,0,0,1.9752,-520.958,-1370.78)">
        <path d="M485.863,973.238L485.863,889.284L587.611,860.502C592.463,863.808 598.284,865.67 605.262,865.774C606.176,866.963 607.086,868.171 607.844,869.455C607.922,869.588 608.001,869.721 608.08,869.854L503.442,899.729L503.442,973.238L485.863,973.238ZM772.062,973.238L772.062,899.729L679.319,873.25C679.336,873.114 679.353,872.978 679.372,872.843C679.448,872.283 679.334,871.701 679.526,871.194C680.163,869.522 680.426,867.922 680.211,866.232C684.966,866.214 689.429,865.208 693.61,863.462L784.895,889.284L784.895,973.238L772.062,973.238ZM784.895,1077.76L784.895,1127.11L635.379,1169.4L485.863,1127.11L485.863,1077.76L503.442,1077.76L503.442,1113.12L637.752,1151.47L772.062,1113.12L772.062,1077.76L784.895,1077.76ZM603.95,855.88L635.379,846.99L671.038,857.077C670.987,857.113 670.938,857.15 670.889,857.187C669.531,858.216 668.344,859.887 668.717,862.611C668.717,862.617 668.718,862.623 668.719,862.629C668.937,864.178 669.182,865.738 669.618,867.241C669.689,867.486 669.582,867.706 669.489,867.949C669.487,867.953 669.486,867.958 669.484,867.962C669.204,868.702 669.084,869.498 668.986,870.3L637.752,861.382L618.381,866.913C618.006,866.187 617.603,865.472 617.185,864.764L617.183,864.761C615.904,862.593 614.282,860.588 612.754,858.552L612.751,858.548C611.663,857.101 608.985,855.871 607.141,855.939L607.129,855.94C606.028,855.983 604.969,855.962 603.95,855.88Z"/>
    </g>
    <g id="path2587" transform="matrix(1.09028,0,0,1.09028,5666.19,-1435.5)">
        <path d="M-4766.47,1822.53C-4755.61,1809.62 -4738,1788.88 -4737.76,1788.59C-4725.18,1773.06 -4711.25,1759.02 -4693.91,1748.78C-4690.14,1746.56 -4686.41,1744.23 -4682.8,1741.75C-4679.91,1739.77 -4677.22,1737.48 -4674.45,1735.33C-4671.9,1733.35 -4669.34,1731.39 -4666.84,1729.34C-4666.23,1728.85 -4665.51,1728.11 -4665.42,1727.41C-4664.09,1716.63 -4660.87,1706.33 -4657.8,1695.99C-4654.68,1685.51 -4651.41,1675.08 -4648.36,1664.58C-4646.53,1658.24 -4646.15,1651.68 -4646.08,1645.1C-4646.02,1639.58 -4648.35,1634.85 -4650.85,1630.26C-4652.84,1626.61 -4655.39,1623.25 -4657.76,1619.82C-4658.1,1619.33 -4658.91,1618.88 -4659.48,1618.9C-4679.92,1619.77 -4693.55,1609.38 -4702.78,1592.1C-4707.41,1583.46 -4711.42,1574.43 -4712.84,1564.66C-4713.52,1559.99 -4712.54,1555.07 -4712.28,1550.27C-4712.25,1549.79 -4711.98,1549.31 -4711.77,1548.85C-4710.38,1545.72 -4708.68,1545.26 -4705.7,1546.8C-4699.87,1549.82 -4693.99,1552.77 -4688.07,1555.61C-4679.92,1559.5 -4671.62,1563.07 -4663.56,1567.13C-4656.26,1570.81 -4650.46,1576.42 -4645.42,1582.84C-4645.12,1583.23 -4644.79,1583.6 -4644.45,1584.01C-4643.11,1582.72 -4643.95,1581.76 -4644.68,1580.75C-4651.18,1571.68 -4659.23,1564.17 -4668.35,1557.9C-4679.71,1550.09 -4691.36,1542.68 -4702.8,1534.96C-4706.84,1532.24 -4710.73,1529.25 -4714.49,1526.13C-4720.35,1521.26 -4726.17,1516.33 -4731.79,1511.17C-4745.7,1498.42 -4754.65,1482.66 -4759.3,1464.36C-4761.22,1456.8 -4764.16,1449.64 -4767.47,1442.57C-4772.1,1432.72 -4774.94,1422.31 -4774.8,1411.31C-4774.69,1401.93 -4774.55,1392.53 -4773.86,1383.18C-4773.52,1378.66 -4772.02,1374.19 -4770.75,1369.78C-4770.35,1368.38 -4769.22,1366.99 -4768.05,1366.07C-4765.75,1364.24 -4763.73,1365 -4763.36,1367.92C-4762.94,1371.11 -4762.93,1374.38 -4762.95,1377.61C-4763.04,1387.05 -4763.48,1396.51 -4763.27,1405.94C-4763.1,1414.41 -4761.21,1422.64 -4758.03,1430.53C-4756.51,1434.3 -4756.37,1434.45 -4752.55,1432.98C-4750.38,1432.14 -4748.29,1430.92 -4746.4,1429.55C-4743.23,1427.24 -4742.07,1423.88 -4741.71,1420.01C-4740.95,1411.83 -4740.07,1403.66 -4739,1395.52C-4738.38,1390.76 -4737.34,1386.04 -4736.44,1381.32C-4736.29,1380.62 -4735.95,1379.97 -4735.66,1379.31C-4735.06,1377.88 -4734.17,1376.67 -4732.44,1377.13C-4730.78,1377.56 -4730.63,1379.05 -4730.81,1380.47C-4731.29,1384.18 -4732.15,1387.87 -4732.29,1391.59C-4732.49,1396.62 -4732.49,1401.7 -4731.94,1406.69C-4731.47,1411.06 -4728.37,1412.09 -4725.42,1408.84C-4721.03,1404.02 -4717.16,1398.71 -4712.92,1393.72C-4708.44,1388.46 -4703.79,1383.34 -4699.21,1378.16C-4699.01,1377.96 -4698.79,1377.77 -4698.57,1377.58C-4697.51,1376.64 -4696.34,1375.71 -4694.95,1376.76C-4693.52,1377.86 -4693.87,1379.44 -4694.69,1380.66C-4697.32,1384.53 -4700.12,1388.28 -4702.78,1392.12C-4710.02,1402.53 -4717.22,1412.96 -4724.43,1423.38C-4725.58,1425.04 -4726.66,1426.75 -4727.88,1428.35C-4736.23,1439.31 -4737.71,1451.52 -4734.47,1464.59C-4733.65,1467.9 -4732.78,1471.19 -4731.54,1474.42C-4731.17,1470.31 -4730.9,1466.18 -4730.4,1462.09C-4729,1450.62 -4727.22,1439.24 -4721.55,1428.92C-4721.29,1428.47 -4721.17,1427.88 -4720.8,1427.62C-4720.02,1427.1 -4719.01,1426.27 -4718.31,1426.45C-4717.48,1426.65 -4716.43,1427.7 -4716.28,1428.53C-4716.02,1429.95 -4716.19,1431.54 -4716.51,1432.98C-4718.15,1440.05 -4720.33,1447.03 -4721.51,1454.17C-4723.5,1466.3 -4724.16,1478.56 -4723.12,1490.85C-4723.04,1491.76 -4722.82,1492.73 -4722.38,1493.51C-4717.86,1501.55 -4711.99,1508.2 -4704.06,1513.18C-4687.1,1523.82 -4668.91,1531.74 -4650.25,1538.69C-4647.45,1539.73 -4644.8,1541.16 -4641.74,1542.56C-4642.14,1539.56 -4642.59,1536.77 -4642.87,1533.96C-4643.45,1528.23 -4644.07,1522.49 -4644.44,1516.74C-4644.9,1509.68 -4645.33,1502.61 -4645.38,1495.53C-4645.46,1484.24 -4643.38,1473.3 -4639.03,1462.84C-4638.59,1461.78 -4638.25,1460.75 -4636.61,1461.04C-4634.79,1461.36 -4634,1462.18 -4634.02,1464.05C-4634.13,1477.27 -4634.62,1490.5 -4634.19,1503.7C-4633.53,1523.4 -4630.89,1542.87 -4624.77,1561.71C-4624.14,1563.65 -4622.93,1565.42 -4621.86,1567.19C-4621.57,1567.65 -4620.83,1568.09 -4620.31,1568.08C-4612.85,1567.9 -4607.48,1571.69 -4603.25,1577.38C-4601.98,1579.09 -4600.53,1579.4 -4598.58,1579.71C-4592.84,1580.61 -4588.4,1579.05 -4584.26,1574.8C-4580.06,1570.5 -4574.61,1569.37 -4568.76,1571.57C-4567.84,1571.92 -4566.85,1572.09 -4565.96,1572.33C-4565.76,1572.19 -4565.57,1572.13 -4565.52,1572.01C-4558.99,1556.57 -4552.41,1541.14 -4545.95,1525.68C-4540.86,1513.49 -4540.99,1500.98 -4543.96,1488.33C-4544.82,1484.69 -4545.68,1481.05 -4546.41,1477.38C-4546.61,1476.45 -4546.61,1475.2 -4546.16,1474.47C-4545.61,1473.62 -4544.31,1472.56 -4543.56,1472.71C-4542.41,1472.94 -4540.93,1473.91 -4540.51,1474.95C-4539.08,1478.55 -4538.01,1482.29 -4536.87,1486C-4533.04,1498.52 -4533.51,1511.22 -4535.39,1523.95C-4536.31,1530.22 -4537.5,1536.43 -4538.57,1542.68C-4538.62,1542.97 -4538.57,1543.24 -4538.57,1543.96C-4533.76,1540.38 -4528.76,1537.46 -4524.81,1533.49C-4518.24,1526.86 -4512.31,1519.58 -4506.18,1512.52C-4502.24,1507.99 -4501.48,1502.24 -4500.7,1496.62C-4499.39,1487.25 -4501.88,1478.3 -4504.3,1469.41C-4506.04,1463.03 -4508.15,1456.75 -4509.92,1450.38C-4510.61,1447.87 -4510.84,1445.23 -4511.28,1442.64C-4511.05,1442.5 -4510.82,1442.35 -4510.58,1442.2C-4509.65,1442.85 -4508.41,1443.31 -4507.82,1444.2C-4505.19,1448.13 -4502.45,1452.04 -4500.3,1456.24C-4496.34,1463.95 -4493.49,1472.1 -4492.38,1480.78C-4492.35,1481.03 -4492.18,1481.27 -4491.68,1481.54C-4490.87,1477.22 -4489.98,1472.91 -4489.28,1468.57C-4488.11,1461.4 -4487.13,1454.19 -4485.95,1447.01C-4484.83,1440.22 -4486.27,1433.69 -4487.49,1427.09C-4490.89,1408.79 -4498.49,1392.32 -4508.57,1376.86C-4510.28,1374.25 -4511.36,1371.2 -4512.45,1368.24C-4512.71,1367.51 -4511.91,1366.39 -4511.61,1365.44C-4510.8,1365.73 -4509.68,1365.75 -4509.23,1366.31C-4500.68,1376.99 -4492.13,1387.67 -4483.76,1398.49C-4478.83,1404.87 -4475.38,1412.08 -4473.02,1419.8C-4472.43,1421.74 -4471.29,1422.78 -4469.53,1423.53C-4463.64,1426.06 -4457.46,1422.17 -4455.64,1417.44C-4450.46,1403.94 -4449.68,1390.09 -4451.01,1375.93C-4451.4,1371.78 -4451.97,1367.64 -4452.42,1363.5C-4452.51,1362.79 -4452.51,1362.03 -4452.34,1361.34C-4451.98,1359.94 -4450.51,1359.58 -4449.5,1360.64C-4449.12,1361.04 -4448.82,1361.58 -4448.63,1362.11C-4444.01,1374.92 -4442.06,1388.07 -4442.6,1401.76C-4443.02,1412.49 -4447.42,1421.66 -4451.7,1431.02C-4454.13,1436.33 -4456.8,1441.56 -4458.68,1447.06C-4460.37,1451.99 -4461.17,1457.22 -4462.28,1462.34C-4466.1,1479.85 -4472.16,1496.57 -4481.49,1511.82C-4485.59,1518.51 -4491.34,1524.2 -4496.47,1530.23C-4502.84,1537.7 -4510.15,1544.18 -4517.64,1550.53C-4527.84,1559.19 -4537.56,1568.41 -4547.51,1577.39C-4548.68,1578.45 -4549.89,1579.47 -4551.22,1580.63C-4550.2,1581.89 -4549.22,1583.09 -4548.07,1584.5C-4546.31,1583.05 -4544.65,1581.72 -4543.02,1580.34C-4533.1,1571.93 -4521.85,1565.78 -4509.92,1560.86C-4502.04,1557.61 -4493.99,1554.79 -4486.01,1551.83C-4483.47,1550.89 -4482.63,1551.6 -4482.7,1554.39C-4482.96,1564.87 -4486.35,1574.59 -4489.64,1584.39C-4493.37,1595.5 -4500.41,1603.99 -4509.8,1610.38C-4518.9,1616.57 -4529.03,1620.33 -4540.32,1619.71C-4542.1,1619.63 -4543.89,1619.33 -4545.63,1618.95C-4547.45,1618.55 -4548.3,1619.21 -4548.07,1621C-4547.76,1623.41 -4547.43,1625.85 -4546.8,1628.2C-4546.19,1630.49 -4546.44,1632.54 -4547.22,1634.73C-4547.73,1636.21 -4547.68,1637.89 -4547.89,1639.48C-4548.15,1641.51 -4548.09,1643.65 -4548.79,1645.52C-4549.89,1648.47 -4550.07,1651.32 -4549.61,1654.4C-4547.31,1669.73 -4542.03,1684.23 -4537.63,1698.97C-4536.66,1702.2 -4535.76,1705.46 -4534.89,1708.72C-4534.22,1711.22 -4536.14,1712.74 -4537.31,1714.44C-4539.14,1717.09 -4541.29,1719.51 -4543.24,1722.07C-4545.17,1724.61 -4548.06,1724.66 -4550.79,1725.06C-4553.4,1725.45 -4555.86,1728.54 -4558.71,1728.88C-4558.54,1731.7 -4558.46,1731.59 -4558.41,1734.31C-4558.11,1751.06 -4557.55,1767.81 -4557.7,1784.56C-4557.79,1792.52 -4558.47,1800.65 -4560.26,1808.38C-4561.35,1813.11 -4562.48,1817.83 -4563.72,1822.53L-4766.47,1822.53Z"/>
    </g>
    <g transform="matrix(0.972911,0,0,0.946837,17.5708,40.0267)">
        <path d="M991.972,559.27L991.972,737.966L290.591,737.966L290.591,558.928L991.972,559.27ZM743.123,669.953L729.827,662.954L729.827,684.797L774.033,684.797L780.315,671.997L780.315,648.093L774.138,635.709L748.046,626.448L746.787,623.648L746.787,618.372L748.046,615.679L764.82,615.679L778.221,622.572L778.221,600.728L736.213,600.728L729.827,613.528L729.827,632.909L736.109,645.401L761.992,654.554L763.355,657.354L763.355,667.153L761.992,669.953L743.123,669.953ZM820.967,684.797L814.366,671.341L814.366,614.291L821.072,600.728L787.662,600.728L794.263,614.398L794.263,671.126L787.662,684.797L820.967,684.797ZM829.048,672.104L835.435,684.797L885.089,684.797L878.489,671.244L878.489,654.769L885.089,641.201L855.025,641.201L861.632,654.877L861.632,665.538L863.831,669.953L850.41,669.953L849.256,667.476L849.256,618.372L850.515,615.679L866.344,615.679L879.64,622.572L879.64,600.728L835.435,600.728L829.048,613.528L829.048,672.104ZM920.297,684.797L913.587,671.234L913.587,644.108L936.859,684.797L951.83,684.797L951.83,614.291L958.535,600.728L929.522,600.728L936.127,614.398L936.127,642.924L913.064,600.728L891.388,600.728L897.989,614.398L897.989,671.234L891.388,684.797L920.297,684.797ZM381.874,672.104L388.261,684.797L431.737,684.797L438.019,672.104L438.019,613.421L431.737,600.728L388.261,600.728L381.874,613.528L381.874,672.104ZM402.187,667.476L402.187,618.372L403.445,615.679L416.448,615.679L417.811,618.372L417.811,667.476L416.762,669.953L403.34,669.953L402.187,667.476ZM376.203,684.797L376.203,662.955L363.001,669.953L348.125,669.953L350.428,665.539L350.428,614.293L357.134,600.728L323.619,600.728L330.22,614.401L330.22,671.029L323.619,684.797L376.203,684.797ZM446.624,672.104L453.011,684.797L502.665,684.797L496.065,671.244L496.065,654.769L502.665,641.201L472.601,641.201L479.208,654.877L479.208,665.538L481.407,669.953L467.986,669.953L466.832,667.476L466.832,618.372L468.091,615.679L483.92,615.679L497.216,622.572L497.216,600.728L453.011,600.728L446.624,613.528L446.624,672.104ZM667.906,600.728L674.507,614.389L674.507,671.244L667.906,684.797L722.794,684.797L722.794,662.954L709.593,669.953L692.516,669.953L694.715,665.538L694.715,647.985L698.172,647.985L711.479,654.662L711.479,626.125L698.068,633.017L694.715,633.017L694.715,619.987L692.516,615.679L709.593,615.679L722.794,622.572L722.794,600.728L667.906,600.728ZM509.593,672.104L515.98,684.797L559.456,684.797L565.738,672.104L565.738,613.421L559.456,600.728L515.98,600.728L509.593,613.528L509.593,672.104ZM529.906,667.476L529.906,618.372L531.164,615.679L544.167,615.679L545.53,618.372L545.53,667.476L544.482,669.953L531.059,669.953L529.906,667.476ZM653.543,684.797L659.93,672.104L659.93,613.421L653.543,600.728L597.184,600.728L603.784,614.389L603.784,671.459L597.184,684.797L653.543,684.797ZM638.359,615.679L639.722,618.372L639.722,667.476L638.673,669.953L621.689,669.953L623.993,665.538L623.993,619.987L621.794,615.679L638.359,615.679Z" style="fill:rgb(6,3,3);"/>
    </g>
    <g transform="matrix(1.55177,0,0,1.69505,-344.479,-1092.04)">
        <path d="M485.863,969.643L485.863,889.284L602.832,856.197C602.772,859.665 602.54,863.115 601.483,866.455C599.345,873.196 597.053,879.895 594.867,886.62L594.866,886.622C592.79,893.015 590.656,899.392 589.562,906.009C588.16,907.035 586.734,908.033 585.319,909.042C583.47,910.359 581.683,911.763 579.755,912.974L579.752,912.976C577.333,914.496 574.84,915.919 572.312,917.281L572.307,917.284C559.479,924.217 549.137,933.682 539.83,944.201C539.502,944.561 522.851,962.507 516.356,969.643L485.863,969.643ZM532.668,969.643C540.1,961.578 549.36,951.597 549.502,951.439C549.51,951.43 549.517,951.422 549.524,951.414C557.893,941.954 567.12,933.367 578.657,927.133C581.431,925.637 584.166,924.073 586.821,922.404C588.955,921.064 590.946,919.524 592.992,918.066L592.993,918.066C594.819,916.764 596.661,915.476 598.454,914.133C600.049,912.946 601.46,910.867 601.694,909.179L601.696,909.166C602.592,902.55 604.778,896.231 606.84,889.88C609.034,883.132 611.334,876.408 613.48,869.642L613.481,869.639C614.931,865.06 615.28,860.332 615.334,855.576C615.345,854.599 615.266,853.649 615.114,852.723L635.379,846.99L670.669,856.973C670.364,858.727 670.386,860.49 670.686,862.341L670.688,862.35C672.348,872.475 676.125,882.065 679.301,891.805C679.799,893.336 680.273,894.874 680.734,896.416C680.594,896.586 680.462,896.75 680.365,896.879C679.27,898.328 677.992,899.67 676.796,901.067C676.346,901.13 675.58,901.236 675.122,901.298L675.119,901.299C674.007,901.45 672.891,901.805 671.795,902.339C671.03,902.712 669.59,903.572 669.186,903.816C666.182,904.391 664.046,906.906 664.236,909.76C664.348,911.438 664.409,911.376 664.438,912.994L664.438,913.001C664.65,923.723 665.043,934.446 664.934,945.164C664.878,949.873 664.453,954.685 663.3,959.259C662.426,962.732 661.513,966.202 660.485,969.643L532.668,969.643ZM673.404,969.643C674.135,967.047 674.816,964.439 675.473,961.829C676.826,956.458 677.36,950.813 677.425,945.284L677.425,945.275C677.536,934.478 677.144,923.676 676.93,912.875C677.163,912.737 677.366,912.616 677.502,912.534C680.78,912.064 683.965,911.32 686.317,908.49L686.317,908.489C687.743,906.772 689.308,905.146 690.648,903.372L690.657,903.36C692.444,900.982 694.268,898.476 693.247,894.967L693.244,894.956C692.615,892.811 691.965,890.667 691.272,888.538L691.271,888.536C688.264,879.312 684.615,870.247 683.042,860.659C683.032,860.594 683.022,860.529 683.013,860.465L784.895,889.284L784.895,969.643L673.404,969.643ZM784.895,1091.44L784.895,1127.11L635.379,1169.4L485.863,1127.11L485.863,1091.44L784.895,1091.44ZM634.425,1104.74L628.45,1121.58L609.115,1121.58L624.757,1131.98L618.782,1148.82L634.425,1138.41L650.067,1148.82L644.092,1131.98L659.735,1121.58L640.4,1121.58L634.425,1104.74Z" style="fill:rgb(6,3,3);"/>
    </g>
</svg>
