<?xml version="1.0" encoding="UTF-8" standalone="no"?>
<!-- Created with Inkscape (http://www.inkscape.org/) -->

<svg
   width="270"
   height="180"
   viewBox="0 0 270 180"
   version="1.1"
   id="svg1"
   inkscape:version="1.3 (0e150ed6c4, 2023-07-21)"
   sodipodi:docname="EU-flag.svg"
   xmlns:inkscape="http://www.inkscape.org/namespaces/inkscape"
   xmlns:sodipodi="http://sodipodi.sourceforge.net/DTD/sodipodi-0.dtd"
   xmlns="http://www.w3.org/2000/svg"
   xmlns:svg="http://www.w3.org/2000/svg">
  <sodipodi:namedview
     id="namedview1"
     pagecolor="#ffffff"
     bordercolor="#999999"
     borderopacity="1"
     inkscape:showpageshadow="2"
     inkscape:pageopacity="0"
     inkscape:pagecheckerboard="0"
     inkscape:deskcolor="#d1d1d1"
     inkscape:document-units="px"
     showgrid="true"
     showguides="true"
     guidecolor="#000000"
     guideopacity="0.98823529"
     inkscape:zoom="6.4006258"
     inkscape:cx="95.771885"
     inkscape:cy="62.572006"
     inkscape:current-layer="layer1">
    <sodipodi:guide
       position="0,180"
       orientation="0,270"
       id="guide1"
       inkscape:locked="false" />
    <sodipodi:guide
       position="270,180"
       orientation="180,0"
       id="guide2"
       inkscape:locked="false" />
    <sodipodi:guide
       position="270,0"
       orientation="0,-270"
       id="guide3"
       inkscape:locked="false" />
    <sodipodi:guide
       position="0,0"
       orientation="-180,0"
       id="guide4"
       inkscape:locked="false" />
    <inkscape:grid
       id="grid4"
       units="px"
       originx="0"
       originy="0"
       spacingx="10"
       spacingy="10"
       empcolor="#0099e5"
       empopacity="0.85098039"
       color="#4ee500"
       opacity="0.69803922"
       empspacing="5"
       dotted="false"
       gridanglex="30"
       gridanglez="30"
       visible="true" />
    <sodipodi:guide
       position="135,90"
       orientation="-1,0"
       id="guide5"
       inkscape:locked="false"
       inkscape:label=""
       inkscape:color="rgb(0,0,0)" />
    <sodipodi:guide
       position="135,90"
       orientation="0,1"
       id="guide6"
       inkscape:locked="false"
       inkscape:label=""
       inkscape:color="rgb(0,0,0)" />
  </sodipodi:namedview>
  <defs
     id="defs1" />
  <g
     inkscape:label="Layer 1"
     inkscape:groupmode="layer"
     id="layer1">
    <rect
       style="fill:#003399;fill-opacity:1;stroke:none"
       id="rect4"
       width="270"
       height="180"
       x="0"
       y="9.5367432e-07" />
    <path
       sodipodi:type="star"
       style="fill:#ffcc00;fill-opacity:1;stroke:none;image-rendering:auto"
       id="use8"
       inkscape:flatsided="false"
       sodipodi:sides="5"
       sodipodi:cx="135"
       sodipodi:cy="86.922668"
       sodipodi:r1="3.0773277"
       sodipodi:r2="1.1755393"
       sodipodi:arg1="1.5707963"
       sodipodi:arg2="2.1991149"
       inkscape:rounded="0"
       inkscape:randomized="0"
       d="m 135,89.999996 -0.69096,-2.126296 -2.23575,-8.5e-5 1.80871,-1.314208 -0.69081,-2.126349 1.80881,1.314071 1.80881,-1.314071 -0.69081,2.126349 1.80871,1.314208 -2.23575,8.5e-5 z"
       inkscape:transform-center-y="-0.075880085"
       transform="matrix(-1.0181809,-3.4168015,3.1336387,-1.1101861,0.070184,588.82427)"
       inkscape:label="path7"
       inkscape:transform-center-x="-0.19018539" />
    <path
       sodipodi:type="star"
       style="fill:#ffcc00;fill-opacity:1;stroke:none;image-rendering:auto"
       id="use9"
       inkscape:flatsided="false"
       sodipodi:sides="5"
       sodipodi:cx="135"
       sodipodi:cy="86.922668"
       sodipodi:r1="3.0773277"
       sodipodi:r2="1.1755393"
       sodipodi:arg1="1.5707963"
       sodipodi:arg2="2.1991149"
       inkscape:rounded="0"
       inkscape:randomized="0"
       d="m 135,89.999996 -0.69096,-2.126296 -2.23575,-8.5e-5 1.80871,-1.314208 -0.69081,-2.126349 1.80881,1.314071 1.80881,-1.314071 -0.69081,2.126349 1.80871,1.314208 -2.23575,8.5e-5 z"
       inkscape:transform-center-y="-0.075880085"
       transform="matrix(-1.0181809,-3.4168015,3.1336387,-1.1101861,0.070184,708.82427)"
       inkscape:label="path7"
       inkscape:transform-center-x="-0.19018539" />
    <path
       sodipodi:type="star"
       style="fill:#ffcc00;fill-opacity:1;stroke:none;image-rendering:auto"
       id="use10"
       inkscape:flatsided="false"
       sodipodi:sides="5"
       sodipodi:cx="135"
       sodipodi:cy="86.922668"
       sodipodi:r1="3.0773277"
       sodipodi:r2="1.1755393"
       sodipodi:arg1="1.5707963"
       sodipodi:arg2="2.1991149"
       inkscape:rounded="0"
       inkscape:randomized="0"
       d="m 135,89.999996 -0.69096,-2.126296 -2.23575,-8.5e-5 1.80871,-1.314208 -0.69081,-2.126349 1.80881,1.314071 1.80881,-1.314071 -0.69081,2.126349 1.80871,1.314208 -2.23575,8.5e-5 z"
       inkscape:transform-center-y="-0.075880085"
       transform="matrix(-1.0181809,-3.4168015,3.1336387,-1.1101861,60.070184,648.82427)"
       inkscape:label="path7"
       inkscape:transform-center-x="-0.19018539" />
    <path
       sodipodi:type="star"
       style="fill:#ffcc00;fill-opacity:1;stroke:none;image-rendering:auto"
       id="use11"
       inkscape:flatsided="false"
       sodipodi:sides="5"
       sodipodi:cx="135"
       sodipodi:cy="86.922668"
       sodipodi:r1="3.0773277"
       sodipodi:r2="1.1755393"
       sodipodi:arg1="1.5707963"
       sodipodi:arg2="2.1991149"
       inkscape:rounded="0"
       inkscape:randomized="0"
       d="m 135,89.999996 -0.69096,-2.126296 -2.23575,-8.5e-5 1.80871,-1.314208 -0.69081,-2.126349 1.80881,1.314071 1.80881,-1.314071 -0.69081,2.126349 1.80871,1.314208 -2.23575,8.5e-5 z"
       inkscape:transform-center-y="-0.075880085"
       transform="matrix(-1.0181809,-3.4168015,3.1336387,-1.1101861,-59.929816,648.82427)"
       inkscape:label="path7"
       inkscape:transform-center-x="-0.19018539" />
    <path
       sodipodi:type="star"
       style="fill:#ffcc00;fill-opacity:1;stroke:none;image-rendering:auto"
       id="use12"
       inkscape:flatsided="false"
       sodipodi:sides="5"
       sodipodi:cx="135"
       sodipodi:cy="86.922668"
       sodipodi:r1="3.0773277"
       sodipodi:r2="1.1755393"
       sodipodi:arg1="1.5707963"
       sodipodi:arg2="2.1991149"
       inkscape:rounded="0"
       inkscape:randomized="0"
       d="m 135,89.999996 -0.69096,-2.126296 -2.23575,-8.5e-5 1.80871,-1.314208 -0.69081,-2.126349 1.80881,1.314071 1.80881,-1.314071 -0.69081,2.126349 1.80871,1.314208 -2.23575,8.5e-5 z"
       inkscape:transform-center-y="-0.075880085"
       transform="matrix(-1.0181809,-3.4168015,3.1336387,-1.1101861,30.070184,700.82427)"
       inkscape:label="path7"
       inkscape:transform-center-x="-0.19018539" />
    <path
       sodipodi:type="star"
       style="fill:#ffcc00;fill-opacity:1;stroke:none;image-rendering:auto"
       id="use13"
       inkscape:flatsided="false"
       sodipodi:sides="5"
       sodipodi:cx="135"
       sodipodi:cy="86.922668"
       sodipodi:r1="3.0773277"
       sodipodi:r2="1.1755393"
       sodipodi:arg1="1.5707963"
       sodipodi:arg2="2.1991149"
       inkscape:rounded="0"
       inkscape:randomized="0"
       d="m 135,89.999996 -0.69096,-2.126296 -2.23575,-8.5e-5 1.80871,-1.314208 -0.69081,-2.126349 1.80881,1.314071 1.80881,-1.314071 -0.69081,2.126349 1.80871,1.314208 -2.23575,8.5e-5 z"
       inkscape:transform-center-y="-0.075880085"
       transform="matrix(-1.0181809,-3.4168015,3.1336387,-1.1101861,-29.929816,596.82427)"
       inkscape:label="path7"
       inkscape:transform-center-x="-0.19018539" />
    <path
       sodipodi:type="star"
       style="fill:#ffcc00;fill-opacity:1;stroke:none;image-rendering:auto"
       id="use14"
       inkscape:flatsided="false"
       sodipodi:sides="5"
       sodipodi:cx="135"
       sodipodi:cy="86.922668"
       sodipodi:r1="3.0773277"
       sodipodi:r2="1.1755393"
       sodipodi:arg1="1.5707963"
       sodipodi:arg2="2.1991149"
       inkscape:rounded="0"
       inkscape:randomized="0"
       d="m 135,89.999996 -0.69096,-2.126296 -2.23575,-8.5e-5 1.80871,-1.314208 -0.69081,-2.126349 1.80881,1.314071 1.80881,-1.314071 -0.69081,2.126349 1.80871,1.314208 -2.23575,8.5e-5 z"
       inkscape:transform-center-y="-0.075880085"
       transform="matrix(-1.0181809,-3.4168015,3.1336387,-1.1101861,-51.929816,618.82427)"
       inkscape:label="path7"
       inkscape:transform-center-x="-0.19018539" />
    <path
       sodipodi:type="star"
       style="fill:#ffcc00;fill-opacity:1;stroke:none;image-rendering:auto"
       id="use15"
       inkscape:flatsided="false"
       sodipodi:sides="5"
       sodipodi:cx="135"
       sodipodi:cy="86.922668"
       sodipodi:r1="3.0773277"
       sodipodi:r2="1.1755393"
       sodipodi:arg1="1.5707963"
       sodipodi:arg2="2.1991149"
       inkscape:rounded="0"
       inkscape:randomized="0"
       d="m 135,89.999996 -0.69096,-2.126296 -2.23575,-8.5e-5 1.80871,-1.314208 -0.69081,-2.126349 1.80881,1.314071 1.80881,-1.314071 -0.69081,2.126349 1.80871,1.314208 -2.23575,8.5e-5 z"
       inkscape:transform-center-y="-0.075880085"
       transform="matrix(-1.0181809,-3.4168015,3.1336387,-1.1101861,52.070184,678.82427)"
       inkscape:label="path7"
       inkscape:transform-center-x="-0.19018539" />
    <path
       sodipodi:type="star"
       style="fill:#ffcc00;fill-opacity:1;stroke:none;image-rendering:auto"
       id="use16"
       inkscape:flatsided="false"
       sodipodi:sides="5"
       sodipodi:cx="135"
       sodipodi:cy="86.922668"
       sodipodi:r1="3.0773277"
       sodipodi:r2="1.1755393"
       sodipodi:arg1="1.5707963"
       sodipodi:arg2="2.1991149"
       inkscape:rounded="0"
       inkscape:randomized="0"
       d="m 135,89.999996 -0.69096,-2.126296 -2.23575,-8.5e-5 1.80871,-1.314208 -0.69081,-2.126349 1.80881,1.314071 1.80881,-1.314071 -0.69081,2.126349 1.80871,1.314208 -2.23575,8.5e-5 z"
       inkscape:transform-center-y="-0.075880085"
       transform="matrix(-1.0181809,-3.4168015,3.1336387,-1.1101861,30.070184,596.82427)"
       inkscape:label="path7"
       inkscape:transform-center-x="-0.19018539" />
    <path
       sodipodi:type="star"
       style="fill:#ffcc00;fill-opacity:1;stroke:none;image-rendering:auto"
       id="use17"
       inkscape:flatsided="false"
       sodipodi:sides="5"
       sodipodi:cx="135"
       sodipodi:cy="86.922668"
       sodipodi:r1="3.0773277"
       sodipodi:r2="1.1755393"
       sodipodi:arg1="1.5707963"
       sodipodi:arg2="2.1991149"
       inkscape:rounded="0"
       inkscape:randomized="0"
       d="m 135,89.999996 -0.69096,-2.126296 -2.23575,-8.5e-5 1.80871,-1.314208 -0.69081,-2.126349 1.80881,1.314071 1.80881,-1.314071 -0.69081,2.126349 1.80871,1.314208 -2.23575,8.5e-5 z"
       inkscape:transform-center-y="-0.075880085"
       transform="matrix(-1.0181809,-3.4168015,3.1336387,-1.1101861,52.070184,618.82427)"
       inkscape:label="path7"
       inkscape:transform-center-x="-0.19018539" />
    <path
       sodipodi:type="star"
       style="fill:#ffcc00;fill-opacity:1;stroke:none;image-rendering:auto"
       id="use18"
       inkscape:flatsided="false"
       sodipodi:sides="5"
       sodipodi:cx="135"
       sodipodi:cy="86.922668"
       sodipodi:r1="3.0773277"
       sodipodi:r2="1.1755393"
       sodipodi:arg1="1.5707963"
       sodipodi:arg2="2.1991149"
       inkscape:rounded="0"
       inkscape:randomized="0"
       d="m 135,89.999996 -0.69096,-2.126296 -2.23575,-8.5e-5 1.80871,-1.314208 -0.69081,-2.126349 1.80881,1.314071 1.80881,-1.314071 -0.69081,2.126349 1.80871,1.314208 -2.23575,8.5e-5 z"
       inkscape:transform-center-y="-0.075880085"
       transform="matrix(-1.0181809,-3.4168015,3.1336387,-1.1101861,-51.929816,678.82427)"
       inkscape:label="path7"
       inkscape:transform-center-x="-0.19018539" />
    <path
       sodipodi:type="star"
       style="fill:#ffcc00;fill-opacity:1;stroke:none;image-rendering:auto"
       id="use19"
       inkscape:flatsided="false"
       sodipodi:sides="5"
       sodipodi:cx="135"
       sodipodi:cy="86.922668"
       sodipodi:r1="3.0773277"
       sodipodi:r2="1.1755393"
       sodipodi:arg1="1.5707963"
       sodipodi:arg2="2.1991149"
       inkscape:rounded="0"
       inkscape:randomized="0"
       d="m 135,89.999996 -0.69096,-2.126296 -2.23575,-8.5e-5 1.80871,-1.314208 -0.69081,-2.126349 1.80881,1.314071 1.80881,-1.314071 -0.69081,2.126349 1.80871,1.314208 -2.23575,8.5e-5 z"
       inkscape:transform-center-y="-0.075880085"
       transform="matrix(-1.0181809,-3.4168015,3.1336387,-1.1101861,-29.929816,700.82427)"
       inkscape:label="path7"
       inkscape:transform-center-x="-0.19018539" />
  </g>
</svg>
