<?xml version="1.0" encoding="UTF-8" standalone="no"?>
<!-- Created with Inkscape (http://www.inkscape.org/) -->

<svg
   width="500"
   height="300"
   viewBox="0 0 500 300"
   version="1.1"
   id="svg1"
   xml:space="preserve"
   inkscape:version="1.3 (0e150ed6c4, 2023-07-21)"
   sodipodi:docname="fiji mountain.svg"
   xmlns:inkscape="http://www.inkscape.org/namespaces/inkscape"
   xmlns:sodipodi="http://sodipodi.sourceforge.net/DTD/sodipodi-0.dtd"
   xmlns="http://www.w3.org/2000/svg"
   xmlns:svg="http://www.w3.org/2000/svg"><sodipodi:namedview
     id="namedview1"
     pagecolor="#ffffff"
     bordercolor="#999999"
     borderopacity="1"
     inkscape:showpageshadow="2"
     inkscape:pageopacity="0"
     inkscape:pagecheckerboard="0"
     inkscape:deskcolor="#d1d1d1"
     inkscape:document-units="px"
     inkscape:zoom="4.200361"
     inkscape:cx="243.90761"
     inkscape:cy="189.62656"
     inkscape:current-layer="layer1"
     showgrid="false" /><defs
     id="defs1" /><g
     inkscape:label="Layer 1"
     inkscape:groupmode="layer"
     id="layer1"><path
       id="rect2"
       style="fill:#000000;stroke:#000000;stroke-width:1.39336;stroke-dasharray:none;stroke-opacity:1"
       d="m 213.14131,110.39259 -11.71494,6.42863 -22.35684,12.65245 -0.0904,43.02161 h 2.87805 c 2.48561,0 4.46973,0.41219 5.95234,1.23653 1.48264,0.78311 2.4638,1.7105 2.94347,2.78214 0.47969,1.07165 0.71953,3.75077 0.71953,8.03735 v 23.74107 H 160.14098 V 184.5513 c 0,-4.20414 0.2398,-6.80084 0.71948,-7.79005 0.65411,-1.40138 1.54805,-2.39059 2.68184,-2.96762 1.56984,-0.86557 3.64117,-1.29835 6.21397,-1.29835 h 5.20517 l 0.67789,-41.13132 -25.33495,8.21641 c -23.93444,10.89405 -16.53899,6.87916 -23.93444,10.89405 l -0.0462,22.02086 h 2.94348 c 2.48558,0 4.44789,0.41219 5.88693,1.23653 1.48263,0.78311 2.46377,1.7105 2.94346,2.78214 0.47968,1.07165 0.71952,3.75077 0.71952,8.03735 v 55.14854 c 0,4.20413 -0.23984,6.80083 -0.71952,7.79004 -0.61052,1.40137 -1.48263,2.3906 -2.61643,2.96763 -1.56984,0.86555 -3.64116,1.29834 -6.21396,1.29834 h -2.94348 v 2.28755 h 46.37593 v -2.28755 h -2.94346 c -2.48557,0 -4.46969,-0.39157 -5.95234,-1.17469 -1.43902,-0.82435 -2.42019,-1.77234 -2.94347,-2.84398 -0.47967,-1.07165 -0.71948,-3.75077 -0.71948,-8.03734 v -25.9668 h 31.33154 v 25.9668 c 0,4.20413 -0.23984,6.80083 -0.71953,7.79004 -0.6541,1.40137 -1.54805,2.3906 -2.68181,2.96763 -1.52623,0.86555 -3.59758,1.29834 -6.214,1.29834 h -2.87805 v 2.28755 h 46.31053 v -2.28755 h -2.87807 c -2.48556,0 -4.4697,-0.39157 -5.95233,-1.17469 -1.48265,-0.82435 -2.4638,-1.77234 -2.94346,-2.84398 -0.47967,-1.07165 -0.71951,-3.75077 -0.71951,-8.03734 V 184.5513 c 0,-4.20414 0.23984,-6.80084 0.71951,-7.79005 0.6541,-1.40138 1.54803,-2.39059 2.68182,-2.96762 1.52623,-0.86557 3.59757,-1.29835 6.21397,-1.29835 l 4.06844,0.11904 0.37082,-63.05216 z m 17.42251,-0.4494 -0.14367,13.70012 -0.0285,48.85197 h 2.81265 c 2.48558,0 4.4697,0.41219 5.95233,1.23653 1.48264,0.78311 2.46379,1.7105 2.94347,2.78214 0.47968,1.03043 0.71952,3.66833 0.71952,7.91372 v 53.04643 c -10e-6,3.75077 -0.0436,5.85284 -0.13082,6.30623 -0.47969,1.93721 -1.15559,3.44164 -2.02771,4.51329 -0.87215,1.07164 -2.15856,1.9372 -3.85923,2.59667 -1.70066,0.61825 -3.53216,0.90681 -5.49447,0.86556 h -0.91574 v 2.28755 h 30.3504 v -2.28755 c -4.05543,0 -7.04252,-0.63887 -8.96122,-1.9166 -1.8751,-1.31895 -3.09608,-3.00885 -3.66297,-5.0697 -0.21803,-0.94799 -0.32706,-3.48284 -0.32706,-7.60457 v -59.04356 l 34.53667,75.92198 h 1.56983 l 34.0134,-76.4784 v 62.13484 c 0,4.20413 -0.23985,6.80083 -0.71952,7.79004 -0.65411,1.40137 -1.52624,2.3906 -2.61641,2.96763 -1.56985,0.86555 -3.663,1.29834 -6.2794,1.29834 h -2.87804 v 2.28755 h 46.31053 v -2.28755 h -2.87808 c -2.48559,0 -4.4697,-0.39157 -5.95233,-1.17469 -1.48264,-0.82435 -2.46381,-1.77234 -2.94347,-2.84398 -0.47967,-1.07165 -0.71951,-3.75077 -0.71951,-8.03734 v -55.27217 c 0,-4.16295 0.23984,-6.73902 0.71951,-7.72823 0.6541,-1.36017 1.52624,-2.32878 2.61641,-2.90581 1.56984,-0.86557 6.12623,-0.41922 6.12623,-0.41922 l 0.12085,-14.19605 c -4.56793,-0.64784 -11.47014,-2.06384 -14.19248,-3.34693 -5.72484,-2.69821 -15.06091,-6.97405 -25.18876,-11.63414 l -0.1058,27.85975 -26.0718,54.83395 -23.94179,-51.22977 0.14427,-56.87059 z m 31.58694,10.07466 -0.46844,50.26039 c 2.01813,-0.0342 32.6846,0.25869 44.48802,0.56638 l 0.68587,-27.52302 c -1.31138,-0.60245 -13.50328,-6.55249 -13.50328,-6.55249 0,0 -1.40658,-0.88626 -15.00784,-7.97915 -4.84725,-2.52781 -12.86448,-6.64006 -16.19433,-8.77211 z m -142.38534,34.94986 c -0.0374,0.003 -15.89279,3.52406 -25.07635,5.45325 l 9.18356,-1.92919 -15.096325,3.17128 c -5.402783,1.55974 -11.62422,2.52145 -18.482269,3.88229 l -0.190459,0.0401 -25.400378,1.8075 -0.01154,5.10243 h 2.943465 c 2.485591,0 4.447906,0.41219 5.886932,1.23653 1.482634,0.78311 2.46379,1.7105 2.943465,2.78214 0.479676,1.07165 0.719515,3.75077 0.719515,8.03735 v 55.14853 c 0,4.20414 -0.239839,6.80084 -0.719515,7.79005 -0.610496,1.40137 -1.482636,2.3906 -2.616414,2.96763 -1.569846,0.86555 -3.641179,1.29835 -6.213983,1.29835 h -2.943466 v 2.28755 h 46.375937 v -2.28752 H 88.12413 c -2.485592,0 -4.46971,-0.39158 -5.952342,-1.1747 -1.439027,-0.82436 -2.420184,-1.77234 -2.943466,-2.84399 -0.479674,-1.07164 -0.719514,-3.75077 -0.719514,-8.03734 v -25.6577 h 2.551004 c 4.665934,0 8.8304,1.27775 12.493376,3.83321 3.706571,2.51424 5.974141,7.74882 6.802672,15.70373 h 2.28936 v -42.10335 h -2.28936 c -0.523281,4.49267 -1.657061,8.05797 -3.401332,10.69585 -1.700672,2.63789 -3.793803,4.51327 -6.279395,5.62614 -2.48559,1.11286 -5.690704,1.6693 -9.615321,1.6693 H 78.508808 V 175.0302 h 8.241704 c 7.064313,0 11.904677,0.30913 14.521088,0.92739 4.75316,1.11287 8.37252,3.02947 10.85815,5.74979 2.52916,2.72036 4.09902,6.90388 4.70952,12.55062 h 5.06258 l 0.48239,-40.83772 z m 231.72383,4.32595 c 0,0 -0.0404,43.07411 -0.0404,48.47685 0,7.58393 2.10149,20.63583 6.0697,27.35424 4.01181,6.71837 9.68074,11.87051 17.00668,15.45641 7.36958,3.58587 15.78572,5.37883 25.24838,5.37883 7.19516,0 13.47456,-1.09224 18.83818,-3.27675 5.40728,-2.22573 10.59651,-5.79102 15.56769,-10.69586 v -7.23361 c -5.14562,5.64675 -10.05139,9.62422 -14.71732,11.93237 -4.62235,2.30815 -9.72436,3.46224 -15.30604,3.46224 -6.80267,0 -12.34075,-1.56626 -16.61422,-4.69875 -4.27349,-3.17373 -7.41319,-7.83125 -9.41907,-13.97262 -2.00593,-6.18256 -3.12625,-16.26502 -3.12625,-23.76652 0,-7.62518 1.37363,-17.20999 4.12084,-23.43377 2.13676,-4.86362 5.5163,-8.79987 10.1386,-11.80871 4.62235,-3.00886 10.02214,-5.36643 15.24063,-4.51328 0.54641,0.0893 11.44546,2.3816 11.99703,2.40937 l -45.75454,-8.67096 z m 65.00443,11.07044 c 2.13258,0.93921 4.0975,2.15108 5.79459,3.64955 6.56834,5.79959 8.92596,15.75161 10.84465,23.33557 h 2.55101 l 0.18468,-21.24439 -19.34415,-5.73345 z"
       sodipodi:nodetypes="ccccscssccsccscccccscsssccsccccsccsccsccsccccscsssccsccccccsccsccsccccccccsccccsccsccccscsssccccscccccccccccscccccccccscsssccsccccsccscsccccccssccsccccscssccsccccsccscssccsccscccc" /><rect
       style="fill:none;fill-opacity:0;stroke:#000000;stroke-width:3.24927;stroke-linecap:square;stroke-dasharray:none;stroke-opacity:1"
       id="rect1"
       width="455.97028"
       height="263.06519"
       x="22.014864"
       y="14.926933" /><path
       style="fill:#ffffff;stroke:none;stroke-width:2.01042;stroke-dasharray:none;stroke-opacity:1"
       d="m 173.9838,132.44015 -21.91108,6.56673 c -2.11124,2.02506 -5.5052,8.41562 3.4937,1.94757 0.87943,1.32009 12.53884,-4.84814 12.53884,-4.84814 l 5.13151,-1.46225 z"
       id="path4"
       inkscape:transform-center-x="5.2849611"
       inkscape:transform-center-y="1.1351233"
       sodipodi:nodetypes="cccccc" /><path
       style="fill:#ffffff;stroke:none;stroke-width:1.455;stroke-dasharray:none;stroke-opacity:1"
       d="M 172.55287,137.45306 Z"
       id="path5" /><path
       style="fill:#ffffff;stroke:none;stroke-width:1.90922;stroke-dasharray:none;stroke-opacity:1"
       d="m 274.29451,130.17955 -9.62325,-4.14467 c -1.62101,-6.13062 1.16289,-3.20683 1.16289,-3.20683 l 17.82022,11.09856 z"
       id="path6"
       sodipodi:nodetypes="ccccc"
       inkscape:transform-center-x="-2.7420643"
       inkscape:transform-center-y="1.1589364" /><path
       style="fill:#ffffff;stroke:none;stroke-width:1.56737;stroke-dasharray:none;stroke-opacity:1"
       d="m 225.87398,109.94319 -2.6701,0.17859 -7.45785,0.26788 -13.81085,7.05432 c 0,0 5.37714,-3.19183 1.87837,-0.95945 -3.49875,2.23237 7.14955,-1.62482 -7.21858,4.70984 -38.44011,16.94759 0.36829,6.60783 0.36829,6.60783 0,0 14.33533,-10.02875 10.58833,-4.28616 -7.45788,11.42976 9.11516,-7.50079 9.11516,-7.50079 0,0 3.50793,-3.91108 0,0 -4.11035,4.58276 2.76217,14.5551 2.76217,14.5551 0,0 -6.01972,-20.66565 1.10487,-3.21463 7.33032,17.95494 5.34019,-17.41253 5.34019,-17.41253 z"
       id="path1"
       sodipodi:nodetypes="ccccsscscscsc" /><path
       style="fill:#ffffff;stroke:none;stroke-width:1.455;stroke-dasharray:none;stroke-opacity:1"
       d="m 234.22828,111.50601 c 0,0 24.68632,6.69271 23.20888,8.37493 -2.34276,2.66748 1.65367,3.24063 1.65367,3.24063 l -11.44742,0.22892 c 0,0 -10.33163,-14.66109 -14.92581,0.8916 -2.38001,8.05705 -1.26101,-13.58468 -1.26101,-13.58468 z"
       id="path2"
       sodipodi:nodetypes="csccscc" /></g></svg>
