<?xml version="1.0" encoding="UTF-8" standalone="no"?>
<!-- Created with Inkscape (http://www.inkscape.org/) -->

<svg
   width="490.77112"
   height="490.77115"
   viewBox="0 0 490.77113 490.77115"
   version="1.1"
   id="svg1"
   xml:space="preserve"
   inkscape:version="1.3 (0e150ed6c4, 2023-07-21)"
   sodipodi:docname="NP_YIN_yang.svg"
   inkscape:export-filename="NP_YIN_yang.svg"
   inkscape:export-xdpi="96"
   inkscape:export-ydpi="96"
   xmlns:inkscape="http://www.inkscape.org/namespaces/inkscape"
   xmlns:sodipodi="http://sodipodi.sourceforge.net/DTD/sodipodi-0.dtd"
   xmlns="http://www.w3.org/2000/svg"
   xmlns:svg="http://www.w3.org/2000/svg"><sodipodi:namedview
     id="namedview1"
     pagecolor="#ffffff"
     bordercolor="#999999"
     borderopacity="1"
     inkscape:showpageshadow="2"
     inkscape:pageopacity="0"
     inkscape:pagecheckerboard="0"
     inkscape:deskcolor="#d1d1d1"
     inkscape:document-units="px"
     inkscape:zoom="0.72567364"
     inkscape:cx="681.43581"
     inkscape:cy="521.58433"
     inkscape:current-layer="layer1" /><defs
     id="defs1"><linearGradient
       id="swatch33"
       inkscape:swatch="solid"><stop
         style="stop-color:#ff00ff;stop-opacity:1;"
         offset="0"
         id="stop33" /></linearGradient><linearGradient
       id="swatch32"
       inkscape:swatch="solid"><stop
         style="stop-color:#ff00ff;stop-opacity:1;"
         offset="0"
         id="stop32" /></linearGradient></defs><g
     inkscape:label="Layer 1"
     inkscape:groupmode="layer"
     id="layer1"
     transform="translate(-5.9922924,-1.8583762)"><path
       style="display:inline;opacity:1;mix-blend-mode:normal;fill:#d40000;fill-opacity:1;stroke:#c87137;stroke-width:2.078;stroke-dasharray:none;stroke-opacity:0.13"
       d="m 219.99895,372.26313 -10.23883,-6.28591 -8.07499,-7.68136 -8.07497,-7.68137 -5.59197,-10.54888 -5.59197,-10.54888 0.0864,-17.9331 0.0864,-17.93309 5.52389,-10.68276 5.5239,-10.68277 8.8153,-7.98279 8.81529,-7.98279 7.22609,-3.02634 7.22607,-3.02634 19.88824,-4.10177 19.88825,-4.10176 8.1835,-4.18472 8.18352,-4.18472 9.58136,-9.60386 9.58137,-9.60386 4.25587,-11.40155 4.25588,-11.40156 1.36759,-10.33358 1.36758,-10.33358 -3.59283,-12.83481 -3.59282,-12.83482 -6.25947,-7.61163 -6.25946,-7.61164 -8.78409,-5.95789 -8.78409,-5.95787 -9.47176,-3.74991 -9.47176,-3.74991 -13.68142,0.13813 -13.68143,0.13813 -16.41872,4.24613 -16.41874,4.24615 -15.15379,7.9684 -15.15377,7.96843 -13.86551,13.71586 -13.86553,13.71586 -8.09148,14.60179 -8.0915,14.60181 -4.0698,13.88017 -4.06981,13.88019 -0.0389,25.31731 -0.0389,25.31733 5.5439,14.49289 5.5439,14.4929 7.70196,12.70855 7.70196,12.70856 15.97716,16.10428 15.97717,16.10427 15.78302,8.24685 15.78303,8.24685 11.57982,3.60733 11.57984,3.60732 1.81949,-1.10688 1.81947,-1.10689 z"
       id="path16"
       inkscape:label="path16"
       inkscape:highlight-color="#eb80ee" /><circle
       style="fill:#0000ff;fill-opacity:0.49;stroke:none;stroke-width:3.376;stroke-dasharray:none;stroke-opacity:0.49"
       id="path44"
       cy="244.59636"
       cx="249.07603"
       r="140.83971" /><circle
       style="fill:none;fill-opacity:0.33;stroke:#000000;stroke-width:10.176;stroke-dasharray:none;stroke-opacity:1"
       id="path45"
       cx="251.37785"
       cy="247.24394"
       r="240.29756" /><path
       id="path66"
       style="fill:#ff00ff;fill-opacity:0.82;stroke:#f9f9f9;stroke-width:6.56821;stroke-dasharray:none;stroke-opacity:1"
       inkscape:transform-center-x="1.9689988"
       inkscape:transform-center-y="0.73305168"
       d="m 181.16596,397.72409 v 0 l -0.17818,7.98608 c -1.6096,-0.83804 -3.83225,-2.08479 -6.8195,-3.84126 z m 27.00518,52.72584 -6.42174,-4.03633 -2.79326,-6.89197 -2.79326,-6.89197 v -6.12847 -6.12847 l 2.64621,-6.52914 2.6462,-6.52916 6.23264,-5.40661 6.23264,-5.40662 h 9.48365 9.48365 l 6.8575,6.20718 6.85751,6.2072 v 3.67477 3.67479 l -1.82386,1.16207 -1.82385,1.16206 -6.67725,-6.04404 -6.67726,-6.04403 h -6.87809 -6.87808 l -4.02081,5.26972 -4.0208,5.26972 v 8.50871 8.50872 l 3.395,4.13628 3.395,4.13629 4.89453,1.18812 4.89452,1.18813 8.67921,-6.0093 8.6792,-6.00931 1.79665,1.85221 1.79664,1.85221 -2.23582,5.05884 -2.23581,5.05885 -6.34457,3.98793 -6.34455,3.98793 h -6.79 -6.79 z m 50.98889,1.96313 -1.3846,-2.30962 -1.02305,-26.00472 -1.02307,-26.00469 3.54227,0.70358 3.54227,0.70358 1.39984,5.39635 1.39986,5.39637 0.67966,21.54765 0.67967,21.54768 -3.21413,0.66671 -3.21411,0.66672 z m 24.66933,-1.67836 -2.35825,-1.50256 -4.87761,-24.7389 -4.87761,-24.7389 2.47849,-2.41016 2.4785,-2.41016 17.46,-5.21687 17.46,-5.21687 2.425,4.5e-4 2.425,4.6e-4 v 2.77497 2.77496 l -13.095,5.59195 -13.095,5.59194 -3.34926,2.90039 -3.34924,2.90039 1.12114,1.87015 1.12115,1.87016 12.60278,-1.39139 12.60279,-1.39138 -0.67468,3.46164 -0.67468,3.46164 -10.67,4.44985 -10.67,4.44984 0.64084,13.12512 0.64084,13.12513 -1.70347,1.08536 -1.70346,1.08536 z m -105.05822,-10.10203 -2.00826,-3.86851 v -4.0978 -4.09778 l -9.961,-5.20374 -9.961,-5.20372 -6.49444,3.60565 -6.49445,3.60568 -2.34977,-2.42245 -2.34976,-2.42243 5.71021,-6.17277 5.71021,-6.17275 12.61,-10.57028 12.61,-10.57028 4.365,-2.34051 4.365,-2.34053 3.88,2.14074 3.88,2.14074 v 8.78491 8.78491 l -1.98378,15.64472 -1.98378,15.64472 -0.96318,4.5 -0.96319,4.5 h -2.80478 -2.80478 z m 164.14835,-29.67049 -8.58306,-13.80458 -5.03844,-9.75741 -5.03845,-9.75741 1.96507,-2.02584 1.96505,-2.02583 3.34162,2.14679 3.3416,2.14682 12.17335,20.65869 12.17336,20.65868 -0.69412,2.14955 -0.69412,2.14955 -3.16439,0.63278 -3.1644,0.63279 z m 22.02339,-7.8684 -2.91,-1.09163 -5.5082,-5.25047 -5.5082,-5.25049 -2.96085,-5.84732 -2.96084,-5.84734 0.10048,-7.50564 0.10047,-7.50565 2.93442,-5.85002 2.9344,-5.85002 4.60609,-3.11137 4.60609,-3.11136 3.73807,-0.41594 3.73807,-0.41595 5.19642,0.23031 5.19644,0.23031 3.0664,3.16124 3.06639,3.16124 -1.10231,1.83876 -1.10233,1.83875 h -8.70368 -8.7037 l -4.99252,5.14693 -4.99252,5.14693 1.11778,7.10113 1.11779,7.10113 3.47791,4.02797 3.47793,4.02797 6.3493,2.7699 6.34931,2.76989 3.79123,-2.09176 3.79124,-2.09176 1.98445,-3.82268 1.98447,-3.82268 v -5.9679 -5.96792 l 1.17756,-3.16358 1.17756,-3.16357 h 3.63547 3.63553 l 1.24364,5.10857 1.24371,5.10857 -1.1299,7.17822 -1.12989,7.17822 -4.44186,4.97098 -4.44182,4.97096 -6.24269,2.74225 -6.2427,2.74223 -4.4273,-0.15788 -4.42731,-0.15791 z m -228.81582,-6.80014 -4.74584,-1.95402 -8.62948,-7.2899 -8.62948,-7.28992 -5.69691,3.3707 -5.69691,3.37069 h -2.752784 -2.75278 v -2.8334 -2.83339 l 17.845014,-17.16661 17.84501,-17.1666 h 2.75007 2.75007 l 9.53234,7.21379 9.53234,7.2138 2.85258,5.68689 2.85258,5.68689 -0.0432,6.59932 -0.0432,6.59931 -3.35187,4.26593 -3.3518,4.26591 -4.23747,2.23409 -4.23745,2.23407 -3.52255,-0.12676 -3.52253,-0.12679 z m 13.08782,-12.19245 2.328,-2.39999 v -3.86386 -3.86384 l -6.92813,-6.73615 -6.92814,-6.73616 h -2.13411 -2.13411 l -3.54776,3.30998 -3.54775,3.30997 v 3.48285 3.48284 l 6.8575,6.20719 6.8575,6.20718 h 3.4245 3.4245 z m -61.692004,-187.39213 -14.55,-5.58675 -8.245,-4.3512 -8.245,-4.35121 v -2.64938 -2.64938 l 3.395,-3.1149 3.395,-3.11489 18.65756,-1.41302 18.657564,-1.41301 2.43164,-1.54931 2.43162,-1.54931 -13.707574,-8.39538 -13.70758,-8.39538 -2.21363,-2.74976 -2.21363,-2.74976 1.2515,-2.08761 1.25151,-2.08761 h 3.29085 3.29084 l 18.240644,10.58945 18.24066,10.58945 2.65562,4.12327 2.65562,4.12328 -3.44661,4.26174 -3.4466,4.26175 -18.331014,2.09014 -18.33102,2.09014 -0.78281,0.80702 -0.7828,0.80702 13.91028,7.22176 13.910294,7.22176 -0.73772,2.28161 -0.73771,2.28161 -1.81875,0.5223 -1.81875,0.52231 z m 299.937564,-1.37143 -1.17756,-3.16358 v -4.54882 -4.54882 l 6.48296,-8.78762 6.48301,-8.78759 2.3153,-4.5 2.3152,-4.5 -0.5532,0.009 -0.5532,0.009 -11.64007,4.94327 -11.64,4.94327 -2.425,0.0475 -2.425,0.048 v -3.73423 -3.73422 l 7.45066,-5.08312 7.45067,-5.08312 15.58584,-8.07876 15.5858,-8.07877 4.1235,4.52501 4.1236,4.52501 v 1.02705 1.02705 l -13.58,17.8302 -13.58,17.83019 v 2.72784 2.72783 l 2.5633,-1.01408 2.5633,-1.01407 16.1855,-5.27114 16.1856,-5.27116 1.8787,1.93681 1.8787,1.93681 -1.0675,2.86774 -1.0673,2.86773 -22.5958,8.26669 -22.59567,8.26671 h -3.5469 -3.54688 z m -21.59006,-44.90731 -1.24147,-2.07088 4.40175,-10.94848 4.40175,-10.94847 -3.96537,-5.48065 -3.96536,-5.48064 -3.39452,-0.68737 -3.39452,-0.68738 -6.45701,6.45194 -6.45701,6.45194 -3.10572,-1.22865 -3.10571,-1.22862 2.77793,-5.53593 2.77791,-5.53593 15.4972,-17.000003 15.49718,-17 8.40666,6.050859 8.40666,6.050859 6.36612,8.604625 6.3661,8.60462 v 6.84452 6.84452 l -3.7777,3.8945 -3.77766,3.8945 -7.52125,2.08789 -7.52119,2.08788 -6.28168,9.01761 -6.28168,9.01762 h -1.70497 -1.70495 z m 27.79007,-34.35897 0.63213,-3.38392 -4.39252,-6.12497 -4.39253,-6.12496 -4.35159,-2.93946 -4.35159,-2.939453 -3.02074,3.114163 -3.02073,3.11416 v 2.09244 2.09244 l 7.6879,7.92567 7.6879,7.92566 3.44482,-0.68393 3.44483,-0.68393 z m -281.88757,31.60656 -5.82,-2.66672 -4.41133,-4.93474 -4.411344,-4.93474 -1.80945,-6.50435 -1.80946,-6.50433 1.11718,-5.75865 1.11717,-5.75866 6.076544,-7.24693 6.07654,-7.246903 8.92108,-1.03664 8.92108,-1.036632 8.6757,3.956365 8.67571,3.95637 3.51983,7.64691 3.51983,7.64692 v 7.27714 7.27713 l -3.47088,5.46109 -3.47089,5.46108 -7.38637,3.88479 -7.38637,3.88479 -5.41228,-0.0783 -5.41229,-0.0783 z m 22.795,-13.48356 3.395,-4.13629 v -6.33342 -6.33342 l -2.98019,-4.3864 -2.98019,-4.38641 -7.60188,-2.34802 -7.60188,-2.34802 -4.90713,3.31471 -4.90713,3.31472 -1.27949,5.25556 -1.27949,5.25557 1.75929,5.15726 1.75931,5.15726 6.71582,4.66577 6.71582,4.66576 4.89857,-1.18917 4.89857,-1.18917 z m 21.52233,-20.20682 -4.18267,-6.48633 -7.58319,-13.000003 -7.58319,-13 -1.189,-3.287094 -1.18901,-3.287094 4.24497,-4.111282 4.24497,-4.111281 13.21586,-7.101625 13.21586,-7.101624 h 5.50658 5.50658 l 5.19046,6.359296 5.19047,6.359297 -1.26169,8.673808 -1.2617,8.673808 6.85484,8.256027 6.85485,8.256027 -1.02565,1.71087 -1.02566,1.71087 h -3.18815 -3.18815 l -6.25491,-6.250003 -6.25491,-6.25 h -4.96287 -4.96286 l -4.87959,3.296106 -4.87957,3.296104 0.0688,2.453903 0.0688,2.45389 2.77252,5 2.77251,5 0.0688,4.5 0.0688,4.5 -3.395,-0.0137 -3.395,-0.0137 z m 11.75665,-34.019234 7.57399,-4.467099 2.09313,-3.462473 2.09313,-3.462472 -3.35435,-3.458091 -3.35434,-3.458091 -10.74281,5.431717 -10.74281,5.431717 -1.11252,2.988847 -1.11252,2.988846 1.11667,3 1.11667,3 4.42589,-0.0329 4.42589,-0.0329 z m 146.17102,29.216184 -13.095,-7.20073 v -4.836283 -4.83628 l 9.56502,-20.904995 9.56503,-20.904995 h 4.0634 4.06341 l 13.15824,6.831321 13.15823,6.83132 2.61912,3.253443 2.6191,3.253443 -1.92194,1.98138 -1.92193,1.98138 -13.11469,-6.066143 -13.11468,-6.066144 h -1.75915 -1.75916 v 3.762622 3.762623 l 6.9541,5.468199 6.95411,5.468199 -1.87152,1.929394 -1.87151,1.929394 -7.5076,-2.149062 -7.50758,-2.149061 -1.40518,-0.01115 -1.40518,-0.01115 -2.95982,5.90068 -2.95982,5.90068 v 1.605002 1.604998 l 11.64,7.501115 11.64,7.50111 v 2.99321 2.99321 l -4.365,-0.058 -4.365,-0.058 z m -28.09901,-12.368323 -2.04215,-1.31496 1.63252,-10.606593 1.63251,-10.606594 -1.07699,-2.893406 -1.077,-2.893407 -1.24744,-0.0871 -1.24744,-0.0871 -8.34808,-1.663781 -8.34807,-1.66378 -2.57223,2.651792 -2.57225,2.651793 -1.26129,8.59909 -1.2613,8.59909 -1.6876,2.791435 -1.68759,2.791434 -3.22477,-1.275731 -3.22476,-1.27573 1.25712,-14.515704 1.25712,-14.515708 1.70542,-11.764856 1.70544,-11.764856 0.95275,-0.982221 0.95275,-0.982221 2.99366,1.184307 2.99368,1.184308 v 6.016663 6.016664 l 4.365,2.916224 4.365,2.916224 9.63648,0.629882 9.6365,0.629882 3.47377,-7.5 3.47378,-7.5 h 2.78025 2.78023 l 1.21624,2.02878 1.21624,2.02878 -2.23829,11.47122 -2.23828,11.47122 -3.85599,13.342407 -3.85599,13.342403 -2.45839,0.97256 -2.45841,0.972553 z m -67.67015,-3.195975 -1.19619,-3.213647 -4.20355,-19.452669 -4.20353,-19.452669 h -8.66629 -8.66628 v -3 -3 l 10.48601,-3.584749 10.48602,-3.58475 12.79398,-0.41525 12.79399,-0.415251 v 2.935922 2.935921 l -7.76,2.288845 -7.76,2.288845 0.81486,12.775233 0.81486,12.775234 0.15514,10.821628 0.15514,10.821632 -2.42398,0.84468 -2.42399,0.84469 z" /></g></svg>
