<?xml version="1.0" encoding="UTF-8" standalone="no"?>
<!-- Created with Inkscape (http://www.inkscape.org/) -->

<svg
   width="3102.1204"
   height="2985.0806"
   viewBox="0 0 820.76934 789.80256"
   version="1.1"
   id="svg1"
   sodipodi:docname="coffee_cup_inkspace_file.svg"
   inkscape:version="1.3 (0e150ed6c4, 2023-07-21)"
   inkscape:export-filename="coffee_cup.svg"
   inkscape:export-xdpi="5.52"
   inkscape:export-ydpi="5.52"
   xmlns:inkscape="http://www.inkscape.org/namespaces/inkscape"
   xmlns:sodipodi="http://sodipodi.sourceforge.net/DTD/sodipodi-0.dtd"
   xmlns="http://www.w3.org/2000/svg"
   xmlns:svg="http://www.w3.org/2000/svg">
  <sodipodi:namedview
     id="namedview1"
     pagecolor="#ffffff"
     bordercolor="#9999ae"
     borderopacity="0.17647059"
     inkscape:showpageshadow="2"
     inkscape:pageopacity="0"
     inkscape:pagecheckerboard="0"
     inkscape:deskcolor="#d1d1d1"
     inkscape:document-units="px"
     showgrid="false"
     showguides="true"
     inkscape:zoom="0.45254834"
     inkscape:cx="3834.9494"
     inkscape:cy="-4238.2213"
     inkscape:current-layer="g36">
    <inkscape:grid
       id="grid965"
       units="px"
       originx="-7434.747"
       originy="9720.344"
       spacingx="2.6458333"
       spacingy="2.6458333"
       empcolor="#ff209d"
       empopacity="1"
       color="#00ddd2"
       opacity="0.71372549"
       empspacing="5"
       dotted="false"
       gridanglex="30"
       gridanglez="30"
       visible="false" />
    <inkscape:page
       x="-1.5173242e-05"
       y="-1.0382758e-05"
       width="820.76935"
       height="789.80255"
       id="page4"
       margin="0"
       bleed="0" />
  </sodipodi:namedview>
  <defs
     id="defs1">
    <linearGradient
       id="swatch24"
       inkscape:swatch="solid">
      <stop
         style="stop-color:#000000;stop-opacity:0.99416059;"
         offset="0"
         id="stop25" />
    </linearGradient>
  </defs>
  <g
     inkscape:label="Layer 1"
     inkscape:groupmode="layer"
     id="layer1"
     transform="translate(-1872.0487,2571.841)">
    <g
       id="g36"
       transform="matrix(0.8,0,0,0.8,705.58452,-2275.2761)"
       style="fill:#0000ff;fill-opacity:0.484672;stroke:none">
      <ellipse
         style="opacity:1;fill:#87aade;fill-opacity:0.484672;stroke:none;stroke-width:0.105564;stroke-linejoin:bevel;stroke-opacity:1"
         id="path14"
         transform="matrix(0.57484359,0.81826331,0.9832882,-0.18205583,0,0)"
         cx="187.86722"
         cy="1761.2988"
         rx="235.57321"
         ry="363.02155" />
      <ellipse
         style="opacity:1;fill:#000000;fill-opacity:0.835037;stroke:none;stroke-width:0.116463;stroke-linejoin:bevel"
         id="path6"
         cx="1723.1576"
         cy="-238.04826"
         rx="298.51291"
         ry="196.83047"
         transform="matrix(0.97919428,-0.202925,-0.64084712,-0.76766853,0,0)" />
      <path
         id="path19"
         style="opacity:1;fill:#000080;fill-opacity:0.908029;stroke:none;stroke-width:0.14334;stroke-linejoin:bevel;stroke-opacity:1"
         d="m 1458.1738,-172.33861 c -0.061,-0.9678 -0.025,-0.5411 0.022,0.3791 0,0.094 0.031,0.3862 0.036,0.4916 -0.016,-0.2519 -0.047,-0.6963 -0.058,-0.8707 z m 0.058,0.8707 v 0 c 0,0.08 0.024,0.2895 0.028,0.374 -0.01,-0.1153 -0.018,-0.2658 -0.025,-0.374 z m 0.025,0.374 c 0.072,1.1057 0.1603,2.4714 0.2397,3.5851 0.1069,1.5004 0.1646,2.139 0.3914,3.6864 0.2268,1.5475 0.622,4.0034 1.2306,139.317098 0.6086,135.313702 1.4311,403.479602 127.5374,538.503302 126.1063,135.0236 377.4874,136.8948 504.0035,4.5236 24.3191,-25.4444 43.9871,-55.8895 59.9653,-90.3006 l 0.081,0.1214 c 3.6717,-0.041 6.1275,0.059 12.4463,0.086 6.3176,0.027 18.9475,0.108 31.2009,0.1486 12.2534,0.041 26.2025,0.042 36.6211,0.042 2.3171,0 6.0337,-0.1004 8.8109,-0.098 6.6827,0 13.5837,-0.084 21.0452,-0.2352 3.4656,-0.067 6.5077,0.027 9.7584,-0.1091 8.6763,-0.3623 17.3576,-0.8404 26.0211,-1.5077 3.5872,-0.2765 7.1664,-0.6241 10.739,-1.0342 1.6928,-0.1941 3.3997,-0.2582 5.0881,-0.4902 2.0575,-0.2828 4.0978,-0.7054 6.1528,-1.0206 2.5839,-0.3965 5.1613,-0.8273 7.7366,-1.2836 3.4899,-0.618 6.9548,-1.3029 10.4179,-2.0509 3.7675,-0.8138 7.5107,-1.7188 11.2307,-2.7149 1.4187,-0.3798 2.8729,-0.6261 4.2833,-1.0355 1.7017,-0.4939 3.3701,-1.1274 5.0694,-1.6433 3.4847,-1.0581 6.9473,-2.1851 10.3954,-3.3699 8.531,-2.9306 16.946,-6.1722 24.899,-10.3721 0.981,-0.5181 1.8819,-1.1899 2.8545,-1.7273 3.8558,-2.1311 7.6315,-4.4146 11.317,-6.8491 6.5017,-4.2929 12.7811,-8.9111 18.5093,-14.1458 10.1101,-9.239 19.356,-19.744 26.3963,-31.4968 0.7399,-1.2351 1.3367,-2.5493 2.0277,-3.8117 0.4809,-0.8789 0.9526,-1.7626 1.4113,-2.6536 3.2231,-6.2579 5.855,-12.7945 8.2238,-19.4607 1.4715,-4.1409 2.8465,-8.3077 4.1205,-12.5038 0.4952,-1.6313 1.1259,-3.2302 1.602,-4.8615 3.4375,-11.7802 5.4919,-23.9065 7.3057,-36.0643 0.1219,-0.8164 0.2488,-1.6308 0.3675,-2.4475 0.5497,-3.7781 1.1832,-7.5472 1.7022,-11.3217 0.3508,-2.5518 0.5369,-5.1229 0.8184,-7.683 0.1153,-1.0497 0.2304,-2.0994 0.3359,-3.1503 0.8792,-8.7522 1.5569,-17.5264 2.0974,-26.3033 0.1457,-2.3654 0.1258,-4.739 0.2539,-7.1061 0.4166,-7.6951 0.6964,-15.3954 0.8242,-23.0994 0.039,-2.3572 0.2502,-4.7101 0.2525,-7.0674 0,-2.5015 -0.2082,-4.998 -0.2525,-7.4989 -0.1162,-6.5783 -0.337,-13.1537 -0.6653,-19.7262 -0.1244,-2.4893 -0.1133,-4.9837 -0.252,-7.4718 -0.9116,-16.3557 -1.1197,-32.8437 -3.813,-49.013802 -0.3104,-1.8632 -0.7773,-3.7102 -1.111,-5.5746 -0.6748,-3.7698 -1.4294,-7.5236 -2.2474,-11.2706 -2.0299,-9.2968 -4.4289,-18.5005 -8.0234,-27.2735 -0.3907,-0.9537 -0.9494,-1.8392 -1.3629,-2.7854 -1.4881,-3.4051 -3.1219,-6.7491 -4.9028,-10.0239 -0.9388,-1.7264 -1.9037,-3.4068 -2.923,-5.0863 -2.0455,-3.3709 -4.2522,-6.6311 -6.6191,-9.7675 -0.5552,-0.7356 -0.9801,-1.5699 -1.5529,-2.2905 -0.5455,-0.6864 -1.2332,-1.2512 -1.8009,-1.9198 -1.967,-2.3175 -4.0503,-4.5347 -6.2419,-6.6546 -1.5624,-1.5112 -3.1499,-2.9635 -4.7975,-4.3847997 -1.6823,-1.4517 -3.3913,-2.8634 -5.1379,-4.231 -1.011,-0.7914 -1.9483,-1.6831 -2.974,-2.4488 -0.8342,-0.6228 -1.7698,-1.0963 -2.6258,-1.68789996 -2.0086,-1.3888 -4.0618,-2.71130004 -6.1637,-3.96230004 -4.7694,-2.8378 -9.651,-5.4988 -14.5798,-8.0266003 -5.1327,-2.6324 -10.3789,-5.0584 -15.6968,-7.3084 -1.3882,-0.5874 -2.786,-1.1482 -4.1909,-1.6923 -1.3195,-0.511 -2.6001,-1.1231 -3.9358,-1.5898 -1.2858,-0.4492 -2.6173,-0.7517 -3.9191,-1.151 -1.1185,-0.3434 -2.2397,-0.6771 -3.3679,-0.9896 -5.0372,-1.3947 -10.1241,-2.6217 -15.2324,-3.704 -3.1862,-0.675 -6.4089,-1.1699 -9.6363,-1.5922 -1.8082,-0.2366 -3.6336,-0.3172 -5.4454,-0.5278 -5.0141,-0.5832 -10.0378,-1.0698 -15.0708,-1.4598 -1.7909,-0.1386 -3.5706,-0.4045 -5.3627,-0.5194 -2.5542,-0.1638 -5.1166,-0.1296 -7.6733,-0.2416 -6.2694,-0.2745 -12.5415,-0.4777 -18.8174,-0.593 -2.5658,-0.047 -5.1288,-0.1961 -7.6939,-0.2422 -10.8001,-0.1941 -20.9707,-0.1206 -32.4024,-0.1466 -11.4319,-0.026 -24.3583,-0.079 -30.8179,-0.098 v 0 c -3.2253,-0.01 -4.7845,-0.018 -5.561,-0.01 l -0.01,5e-4 c -0.223,-0.013 -0.3527,-0.015 -0.7155,-0.02 0,8e-4 -0.1272,-0.027 -0.015,0 0.1394,0.01 -0.072,0 -0.08,-0.018 l 7e-4,-0.065 0.4718,-113.911798 c -0.5909,0.8694 -0.5392,1.739 -0.9878,2.9378 -0.4485,1.1988 -0.7548,2.7258 -1.1865,4.5198 -0.4316,1.794 -0.9886,3.8534 -1.5387,5.7516 -0.5501,1.8981 -1.093,3.634 -2.1058,6.4427 -1.0129,2.8087 -2.4755,6.6376 -3.95,10.1893 -1.4747,3.5517 -2.8836,6.6381 -5.6366,11.4554 -2.7531,4.8173 -6.8313,11.322998 -11.4883,17.598998 -4.6571,6.2761 -9.8924,12.322 -15.651,18.1934 -5.7585,5.8713 -12.0397,11.5681 -18.6002,16.8013 -6.5607,5.2331 -13.3997,10.002 -19.1448,13.9223 -5.7451,3.9202 -10.3959,6.9909 -14.7162,9.5788 -4.3204,2.5879 -8.3108,4.6927 -11.9605,6.614 -3.6499,1.9212 -6.9589,3.6592 -11.0981,5.7083 -4.1394,2.0491 -9.1087,4.4095 -13.9424,6.5571 -4.8335,2.1475003 -9.5312,4.0819003 -15.2865,6.3885003 -5.7552,2.3065 -12.5677,4.98550004 -21.9243,8.1577 -9.3567,3.1723 -21.2569,6.8379997 -32.7565,9.9780997 -11.4995,3.1401 -22.5976,5.7539 -35.7665,8.3561 -13.1688,2.6022 -28.4087,5.1928 -44.3223,7.2134 -15.9136,2.0205 -32.4989,3.4708 -49.9853,4.3983 -17.4864,0.9274 -35.8704,1.3317 -54.7886,0.8759 -18.9182,-0.4558 -38.367,-1.7711 -57.0152,-3.7711 -18.6484,-2 -36.4934,-4.684 -54.3346,-8.0331 -17.8413,-3.3491 -35.6753,-7.3625 -55.8939,-13.2982997 -20.2184,-5.9358 -42.8177,-13.7929 -63.3243,-22.7544003 -20.5065,-8.9615 -38.9165,-19.0264 -53.5026,-28.404 -14.5858,-9.3775 -25.3999,-18.1101 -33.3467,-24.9945 -7.947,-6.8845 -13.1324,-12.005 -18.3916,-17.8607 -5.2595,-5.8558 -10.4599,-12.3029 -14.0354,-17.139198 -3.5755,-4.8362 -5.4266,-7.874 -7.1223,-10.7551 -1.6957,-2.8811 -2.7946,-4.8724 -3.5353,-6.2535 -0.7407,-1.3811 -1.4833,-2.8225 -2.1446,-4.1348 -0.6615,-1.3122 -1.1598,-2.3326 -1.7008,-3.4842 -0.541,-1.1517 -1.3682,-2.9539 -2.067,-4.6186 -0.699,-1.6648 -1.2579,-3.1731 -1.593,-4.0547 -0.3351,-0.8816 -0.7075,-1.8253 -1.1103,-2.9481 -0.4028,-1.1228 -0.7574,-2.1888 -1.1511,-3.3732 h 6e-4 c 0,0 -1.3649,-4.5043 -1.5077,-5.0417 -0.1427,-0.5373 -0.4287,-1.6125 -0.759,-2.9727 -0.3302,-1.3601 -0.7049,-3.0052 -1.0096,-4.4512 -0.3047,-1.4461 -0.5392,-2.6927 -0.8753,-5.0643 -0.3359,-2.3717 -0.7737,-5.8686 -1.0219,-8.3238 -0.2034,-2.0115 -0.2458,-3.0367 -0.2894,-3.9236 z m 794.715,246.824598 c 0,0 24.7512,-0.232 37.1193,0 11.7646,0.2205 23.5857,-0.069 35.2588,1.3209 12.2473,1.4575 24.4941,3.6421 36.2594,7.329 9.8102,3.0744 19.9251,6.2751 28.2864,12.2241 7.038,5.007402 13.2785,11.572702 17.5099,19.099002 5.541,9.8553 7.517,20.9175 9.4581,32.6026 1.9402,11.6803 2.6714,22.9207 3.0198,32.7855 0.086,2.4401 0.089,4.5767 0.1317,6.8633 -0.3527,7.5393 -0.7898,15.5595 -1.9016,23.8228 -1.2011,8.9247 -3.1724,18.0931 -6.592,27.2122 -3.4196,9.1191 -8.2962,18.2382 -14.9733,27.4292 -6.677,9.1909 -15.0985,18.364 -24.7387,25.6832 -9.6405,7.3193 -20.5461,12.8636 -32.0213,16.519 -11.4747,3.6553 -23.0148,5.2141 -34.5774,6.4963 -11.5626,1.2823 -23.2179,2.3159 -35.6812,2.9178 -12.4632,0.6019 -23.248,0.6027 -31.504,0.6027 -8.256,0 -17.0647,-10e-4 -25.3983,-0.3075 -8.3329,-0.306 -17.2739,-1.0262 -23.9352,-1.5845 l -0.093,0.066 c 0,0 -0.1546,0.6519 -0.1893,0.779 26.9705,-116.2322 28.3348,-239.291202 28.4027,-241.860402 z m 58.4216,0.2708 c 3.4398,0.118 6.8717,0.3319 10.2959,0.6434 -3.4247,-0.3117 -6.8566,-0.5254 -10.2959,-0.6434 z m 18.5848,1.5871 c 3.0279,0.4089 6.0467,0.8776 9.0602,1.3991 -3.0137,-0.5215 -6.0324,-0.9901 -9.0602,-1.3991 z m 16.7813,2.8887 c 3.9753,0.8469 7.9145,1.8307 11.8119,2.9611 -3.8975,-1.1306 -7.8369,-2.114 -11.8119,-2.9611 z m 19.0931,5.1741 c 2.1008,0.6745 4.18,1.4007 6.2625,2.1465 -2.083,-0.7458 -4.1621,-1.4722 -6.2625,-2.1465 z m 42.635,32.003202 c 0.5954,1.1731 1.1504,2.3612 1.6601,3.5651 -0.5095,-1.2038 -1.0649,-2.3918 -1.6601,-3.5651 z m 5.8433,17.1237 c 0.736,3.2406 1.3925,6.5462 1.9721,9.916 -0.5797,-3.3685 -1.235,-6.6751 -1.9721,-9.916 z m 3.1975,17.6578 c 0.4331,3.0112 0.801,5.9738 1.0981,8.8935 -0.2961,-2.9188 -0.6662,-5.8826 -1.0981,-8.8935 z m 0.1356,62.6777 c -0.3548,2.2735 -0.7721,4.5569 -1.2473,6.8523 0.4745,-2.2955 0.893,-4.5791 1.2473,-6.8523 z m -2.6096,12.7098 c -0.7464,2.8948 -1.6195,5.7933 -2.6239,8.6933 1.0034,-2.9001 1.8783,-5.7986 2.6239,-8.6933 z m -4.3764,13.3849 c -1.2463,3.11 -2.6687,6.2213 -4.2736,9.3353 1.6035,-3.1139 3.0284,-6.2251 4.2736,-9.3353 z m -6.623,13.658 c -1.7955,3.1451 -3.7905,6.2961 -5.9911,9.4536 2.1982,-3.1573 4.1973,-6.3085 5.9911,-9.4536 z m -8.9904,13.5845 c -2.4639,3.2654 -5.1377,6.4915 -8.0098,9.6364 2.8708,-3.1457 5.5472,-6.3709 8.0098,-9.6364 z m -78.116,45.2427 c -2.0568,0.299 -4.1142,0.5871 -6.1727,0.8397 2.0584,-0.2525 4.1158,-0.5408 6.1727,-0.8397 z m -17.2083,2.0451 c -7.9841,0.8256 -16.1299,1.5037 -24.5405,2.0076 8.4079,-0.5056 16.5574,-1.1808 24.5405,-2.0076 z m -103.6674,1.6743 c 2.7093,0.2098 5.4006,0.3695 8.3238,0.551 -2.929,-0.1789 -5.597,-0.3416 -8.3238,-0.551 z m 65.5664,0.9489 c -6.3405,0.1955 -12.0452,0.311 -17.1411,0.3282 5.0391,-0.014 10.8447,-0.1436 17.1411,-0.3282 z m -39.1216,0.2649 c 1.8784,0.025 3.7066,0.057 5.581,0.068 -1.8745,-0.01 -3.7027,-0.043 -5.581,-0.068 z"
         sodipodi:nodetypes="sccscsccccsssssccsssccsssssssssscsscssscssssssssssscsssssssssssssssssccssssscssssssssscccccccccssssssssssssssssssssssssssssssssssssccssssscccccssssssscssssssssscccccccccccccccccccccccccccccccccccccccccccccccccccccc" />
    </g>
  </g>
</svg>
