<?xml version="1.0" encoding="UTF-8" standalone="no"?>
<!-- Created with Inkscape (http://www.inkscape.org/) -->

<svg
   width="935"
   height="272"
   viewBox="0 0 962.00003 0"
   version="1.1"
   id="svg1"
   inkscape:version="1.3 (0e150ed6c4, 2023-07-21)"
   sodipodi:docname="jarets_name.svg"
   xmlns:inkscape="http://www.inkscape.org/namespaces/inkscape"
   xmlns:sodipodi="http://sodipodi.sourceforge.net/DTD/sodipodi-0.dtd"
   xmlns:xlink="http://www.w3.org/1999/xlink"
   xmlns="http://www.w3.org/2000/svg"
   xmlns:svg="http://www.w3.org/2000/svg">
  <sodipodi:namedview
     id="namedview1"
     pagecolor="#ffffff"
     bordercolor="#999999"
     borderopacity="1"
     inkscape:showpageshadow="2"
     inkscape:pageopacity="0"
     inkscape:pagecheckerboard="0"
     inkscape:deskcolor="#d1d1d1"
     inkscape:document-units="px"
     showgrid="false"
     showguides="true"
     inkscape:zoom="2"
     inkscape:cx="529"
     inkscape:cy="-201.5"
     inkscape:current-layer="layer1">
    <inkscape:grid
       id="grid1"
       units="px"
       originx="790.84375"
       originy="289.50214"
       spacingx="0.26458333"
       spacingy="0.26458334"
       empcolor="#e499e5"
       empopacity="0.60784314"
       color="#0099e5"
       opacity="0.65098039"
       empspacing="5"
       dotted="false"
       gridanglex="30"
       gridanglez="30"
       visible="false" />
    <sodipodi:guide
       position="3284.17,-1603.717"
       orientation="0,-1"
       id="guide130"
       inkscape:locked="false" />
    <sodipodi:guide
       position="1276.6939,-814.51763"
       orientation="0,-1"
       id="guide132"
       inkscape:locked="false" />
    <sodipodi:guide
       position="1611.0993,-804.5619"
       orientation="0,1"
       id="guide136"
       inkscape:locked="false"
       inkscape:label=""
       inkscape:color="rgb(165,29,45)" />
    <sodipodi:guide
       position="1962.5391,-797.6205"
       orientation="-1,0"
       id="guide137"
       inkscape:locked="false"
       inkscape:label=""
       inkscape:color="rgb(38,162,105)" />
    <sodipodi:guide
       position="4216.3135,-1122.0889"
       orientation="0,-1"
       id="guide270"
       inkscape:locked="false" />
    <sodipodi:guide
       position="6992,-1691.8745"
       orientation="1,0"
       id="guide271"
       inkscape:locked="false" />
    <sodipodi:guide
       position="7303,-1340.8744"
       orientation="0,-1"
       id="guide272"
       inkscape:locked="false" />
    <sodipodi:guide
       position="4253.5,-1497.1245"
       orientation="0,-1"
       id="guide273"
       inkscape:locked="false" />
    <sodipodi:guide
       position="3922.5,-1385.8745"
       orientation="1,0"
       id="guide276"
       inkscape:locked="false" />
    <sodipodi:guide
       position="4610.5001,-1273.8745"
       orientation="1,0"
       id="guide277"
       inkscape:locked="false" />
    <sodipodi:guide
       position="43.49999,-495"
       orientation="0,-1"
       id="guide341"
       inkscape:locked="false" />
    <inkscape:page
       x="0"
       y="0"
       width="935"
       height="272"
       id="page347"
       margin="0 0 0 0"
       bleed="0" />
    <inkscape:page
       x="-3.0000002"
       y="-616"
       width="942"
       height="263"
       id="page349"
       margin="0"
       bleed="0" />
    <inkscape:page
       x="-1.6568606"
       y="-285.87347"
       width="967.06128"
       height="249.80066"
       id="page350"
       margin="0"
       bleed="0" />
    <sodipodi:guide
       position="-191.30301,-365.58716"
       orientation="0,-1"
       id="guide402"
       inkscape:locked="false" />
  </sodipodi:namedview>
  <defs
     id="defs1">
    <linearGradient
       id="linearGradient440"
       inkscape:collect="always">
      <stop
         style="stop-color:#29fa11;stop-opacity:1;"
         offset="0.14123006"
         id="stop440" />
      <stop
         style="stop-color:#e0e346;stop-opacity:1;"
         offset="0.36104783"
         id="stop442" />
      <stop
         style="stop-color:#ff0000;stop-opacity:1;"
         offset="1"
         id="stop441" />
    </linearGradient>
    <inkscape:path-effect
       effect="envelope"
       id="path-effect145"
       is_visible="true"
       lpeversion="1"
       yy="true"
       xx="true"
       bendpath1="m 1100.2485,516.61419 h 142.8358"
       bendpath2="M 1243.0843,516.61419 V 659.45002"
       bendpath3="m 1100.2485,659.45002 h 142.8358"
       bendpath4="M 1100.2485,516.61419 V 659.45002" />
    <inkscape:perspective
       sodipodi:type="inkscape:persp3d"
       inkscape:vp_x="0 : 123.43723 : 1"
       inkscape:vp_y="0 : 1000 : 0"
       inkscape:vp_z="694.32623 : 123.43723 : 1"
       inkscape:persp3d-origin="347.16312 : -4.70852 : 1"
       id="perspective114" />
    <inkscape:path-effect
       effect="bspline"
       id="path-effect2"
       is_visible="true"
       lpeversion="1.3"
       weight="33.333333"
       steps="2"
       helper_size="0"
       apply_no_weight="true"
       apply_with_weight="true"
       only_selected="false"
       uniform="false" />
    <inkscape:path-effect
       effect="fill_between_many"
       method="d"
       linkedpaths="#path137,0,1|#rect135,0,1"
       id="path-effect143"
       is_visible="true"
       lpeversion="0"
       join="true"
       close="true"
       autoreverse="true" />
    <inkscape:path-effect
       effect="fill_between_many"
       method="originald"
       linkedpaths="#path137,0,1|#rect135,0,1"
       id="path-effect144"
       is_visible="true"
       lpeversion="0"
       join="true"
       close="true"
       autoreverse="true" />
    <radialGradient
       inkscape:collect="always"
       xlink:href="#linearGradient440"
       id="radialGradient441"
       cx="-538.85244"
       cy="-160.13813"
       fx="-538.85244"
       fy="-160.13813"
       r="199.94498"
       gradientTransform="matrix(1,0,0,0.32561426,0,-107.99487)"
       gradientUnits="userSpaceOnUse" />
  </defs>
  <g
     inkscape:label="Layer 1"
     inkscape:groupmode="layer"
     id="layer1"
     transform="translate(790.8437,289.50213)">
    <g
       id="g315"
       inkscape:label="jaret-black-test"
       transform="translate(-929.845,-845.93323)">
      <path
         style="fill:#000000;fill-opacity:1;stroke:#000000;stroke-width:0.674216;stroke-linejoin:bevel;stroke-dasharray:none;stroke-opacity:1"
         d="m 246.44612,14.7343 -0.3429,107.9007 -49.2887,-2.6985 -3.0704,23.7732 70.2476,0.01 -0.017,-128.9766 z"
         id="path282"
         sodipodi:nodetypes="ccccccc" />
      <path
         id="path283"
         style="fill:#000000;fill-opacity:1;stroke:#000000;stroke-width:0.674787;stroke-linejoin:bevel;stroke-dasharray:none;stroke-opacity:1"
         d="m 290.21222,14.762 -15.6718,128.9383 20.5487,0.024 2.261,-54.1456 22.8964,-0.1901 1.7135,54.312 20.8388,0.024 -16.1896,-128.9615 z m 12.5805,19.6002 11.1009,-1e-4 4.57,31.416 -20.0363,1e-4 z"
         sodipodi:nodetypes="cccccccccccccc" />
      <path
         id="path284"
         style="fill:#000000;fill-opacity:1;stroke:#000000;stroke-width:0.674787;stroke-linejoin:bevel;stroke-dasharray:none;stroke-opacity:1"
         d="m 352.52272,14.6255 c -0.098,43.1353 0.026,85.9449 -0.072,129.0801 l 17.6813,-0.013 c 0,0 -0.2625,-66.2626 -0.1593,-72.1461 3.3101,0.023 9.2281,-0.012 10.4076,0.011 l 15.0886,52.1542 5.9741,19.9804 18.1434,0.039 c -1.7032,-5.2493 -4.571,-15.5716 -4.571,-15.5716 l -6.2116,-21.1172 -11.2666,-35.4832 c 4.4148,-0.2145 6.0515,-0.5243 7.5795,-1.1238 1.1394,-0.447 2.7222,-2.2686 3.4063,-3.326 1.0942,-1.6912 2.0292,-2.9969 2.6935,-5.5031 1.1953,-4.5091 1.7736,-8.3441 1.9814,-10.9501 0.2561,-3.2115 0.2869,-7.4439 -0.036,-11.9173 -0.2855,-3.9621 -0.6188,-6.8115 -2.3011,-11.5996 -1.8773,-5.3433 -3.6691,-6.4723 -4.1015,-7.1452 -1.8544,-2.8862 -9.5035,-5.2088 -12.9393,-5.2418 -9.7019,-0.093 -23.5733,-0.031 -23.5733,-0.031 z m 17.4695,11.492 17.1067,0.1158 c 11.9232,-0.069 11.7518,32.967 0.4165,33.2205 0,0 -9.7788,-0.1121 -17.5793,-0.1258 z"
         sodipodi:nodetypes="cccccccccccssssssssccscccs" />
      <path
         style="fill:#000000;fill-opacity:1;stroke:#000000;stroke-width:0.674787;stroke-linejoin:bevel;stroke-dasharray:none;stroke-opacity:1"
         d="m 491.45652,14.6079 h -63.4349 l 0.039,129.437 63.3956,-0.01 -0.1457,-27.6946 -46.3383,0.019 -0.065,-25.6976 37.1998,0.048 0.059,-23.1377 -37.3262,0.1106 0.055,-25.7287 46.5413,-0.071 z"
         id="path285"
         sodipodi:nodetypes="ccccccccccccc" />
      <path
         style="fill:#000000;fill-opacity:1;stroke:#000000;stroke-width:0.674787;stroke-linejoin:bevel;stroke-dasharray:none;stroke-opacity:1"
         d="m 531.02982,41.4511 v 102.2491 c 12.6178,-0.1264 5.4527,0.1032 17.9277,0.024 V 41.4071 l 26.0438,0.024 -0.3808,-26.7276 -68.8741,-0.048 0.3331,26.799 z"
         id="path286"
         sodipodi:nodetypes="ccccccccc" />
      <path
         id="path288"
         style="fill:#000000;fill-opacity:1;stroke:#000000;stroke-width:0.675177;stroke-linejoin:bevel;stroke-dasharray:none;stroke-opacity:1"
         d="m 997.9875,13.98224 -70.45168,0.039 0.1281,129.6553 70.37298,-0.079 z m -15.7988,15.7783 0.013,97.9295 -38.74978,0.08 -0.072,-92.3859 0.011,-5.5773 z"
         sodipodi:nodetypes="ccccccccccc" />
      <path
         id="path289"
         style="fill:#000000;fill-opacity:1;stroke:#000000;stroke-width:0.674787;stroke-linejoin:bevel;stroke-dasharray:none;stroke-opacity:1"
         d="m 645.93342,14.6876 -15.6718,128.9454 20.5487,0.024 2.2611,-54.6168 22.8964,-0.1901 1.7134,54.7832 20.8388,0.024 -16.0825,-128.9686 z m 11.5488,19.1361 12.1326,-1e-4 4.2335,31.416 -20.7769,1e-4 z"
         sodipodi:nodetypes="cccccccccccccc" />
      <path
         id="path290"
         style="fill:#000000;fill-opacity:1;stroke:#000000;stroke-width:0.674787;stroke-linejoin:bevel;stroke-dasharray:none;stroke-opacity:1"
         d="m 712.23042,14.7177 c -0.098,43.1353 0.026,85.8527 -0.072,128.9879 l 15.7964,0.038 c 0,0 -0.5318,-64.7964 -0.4286,-70.6799 9.0821,0.063 18.919,0.3086 20.8838,0 4.7709,-0.4037 7.763,-1.4071 11.0756,-3.1388 2.7138,-1.4923 3.9661,-2.7995 5.4499,-4.5129 1.5678,-2.2425 2.5538,-4.2145 3.6225,-7.0952 0.6932,-1.6824 1.042,-7.6484 1.083,-8.3231 0.081,-1.3306 0.2087,-6.0654 0.1978,-8.1365 -0.01,-1.6937 -0.1927,-5.489 -0.3066,-6.9504 -0.2043,-2.6214 -0.7679,-5.4382 -1.6853,-8.3371 -0.8896,-2.8107 -2.1893,-5.419 -3.5985,-7.0121 -1.2361,-1.3974 -3.8917,-4.8537 -12.8744,-4.8609 l -23.5734,-0.019 z m 15.4163,10.8613 20.7755,0.1157 c 11.9232,-0.069 11.7518,32.9671 0.4165,33.2206 0,0 -13.5991,-0.1458 -21.3996,-0.1595 z"
         sodipodi:nodetypes="ccccccccssssssccscccs" />
      <path
         id="path291"
         style="fill:#000000;fill-opacity:1;stroke:#000000;stroke-width:0.674787;stroke-linejoin:bevel;stroke-dasharray:none;stroke-opacity:1"
         d="m 786.94852,14.6876 -15.6718,128.9454 20.5487,0.024 2.261,-54.6168 21.6847,-0.1901 1.7135,54.7832 20.704,0.024 -14.736,-128.9686 z m 11.5488,19.1361 12.1326,-1e-4 4.2334,31.416 -20.7768,1e-4 z"
         sodipodi:nodetypes="cccccccccccccc" />
      <path
         id="path292"
         style="fill:#000000;fill-opacity:1;stroke:#000000;stroke-width:0.674787;stroke-linejoin:bevel;stroke-dasharray:none;stroke-opacity:1"
         d="m 850.21462,14.6255 c -0.098,43.1353 0.026,85.9449 -0.072,129.0801 l 17.6813,-0.013 c 0,0 -0.2625,-66.2626 -0.1594,-72.1461 3.3102,0.023 9.2282,-0.012 10.4077,0.011 l 15.0886,52.1542 5.9741,19.9804 18.1434,0.039 c -1.7032,-5.2493 -4.571,-15.5716 -4.571,-15.5716 l -6.2116,-21.1172 -11.2666,-35.4832 c 4.4148,-0.2145 6.0515,-0.5243 7.5795,-1.1238 1.1394,-0.447 2.7222,-2.2686 3.4063,-3.326 1.0942,-1.6912 2.0291,-2.9969 2.6935,-5.5031 1.1953,-4.5091 1.7736,-8.3441 1.9814,-10.9501 0.2561,-3.2115 0.2869,-7.4439 -0.036,-11.9173 -0.2856,-3.9621 -0.6189,-6.8115 -2.3011,-11.5996 -1.8773,-5.3433 -3.6692,-6.4723 -4.1015,-7.1452 -1.8544,-2.8862 -9.5035,-5.2088 -12.9393,-5.2418 -9.7019,-0.093 -23.5733,-0.031 -23.5733,-0.031 z m 17.4695,11.492 17.1067,0.1158 c 11.9232,-0.069 11.7518,32.967 0.4164,33.2205 0,0 -9.7787,-0.1121 -17.5792,-0.1258 z"
         sodipodi:nodetypes="cccccccccccssssssssccscccs" />
    </g>
    <g
       id="g281"
       transform="translate(-940.2892,-960.4127)"
       style="fill:#000000;fill-opacity:1;stroke:#000000;stroke-opacity:1"
       inkscape:label="jaret-color-test">
      <path
         style="fill:#ff0000;fill-opacity:1;stroke:#000000;stroke-width:0.674216;stroke-linejoin:bevel;stroke-dasharray:none;stroke-opacity:1"
         d="m 246.44612,116.9843 -0.3429,107.9007 -49.2887,-2.6985 -3.0704,23.7732 70.2476,0.01 -0.017,-128.9766 z"
         id="path249"
         sodipodi:nodetypes="ccccccc" />
      <path
         id="path250"
         style="fill:#ff0000;fill-opacity:1;stroke:#000000;stroke-width:0.674787;stroke-linejoin:bevel;stroke-dasharray:none;stroke-opacity:1"
         d="m 290.21222,117.012 -15.6718,128.9383 20.5487,0.024 2.261,-54.1456 22.8964,-0.1901 1.7135,54.312 20.8388,0.024 -16.1896,-128.9615 z m 12.5805,19.6002 11.1009,-1e-4 4.57,31.416 -20.0363,1e-4 z"
         sodipodi:nodetypes="cccccccccccccc" />
      <path
         id="path254"
         style="fill:#ff0000;fill-opacity:1;stroke:#000000;stroke-width:0.674787;stroke-linejoin:bevel;stroke-dasharray:none;stroke-opacity:1"
         d="m 352.52272,118.8755 c -0.098,43.1353 0.026,85.9449 -0.072,129.0801 l 17.6813,-0.013 c 0,0 -0.2625,-66.2626 -0.1593,-72.1461 3.3101,0.023 9.2281,-0.012 10.4076,0.011 l 15.0886,52.1542 5.9741,19.9804 18.1434,0.039 c -1.7032,-5.2493 -4.571,-15.5716 -4.571,-15.5716 l -6.2116,-21.1172 -11.2666,-35.4832 c 4.4148,-0.2145 6.0515,-0.5243 7.5795,-1.1238 1.1394,-0.447 2.7222,-2.2686 3.4063,-3.326 1.0942,-1.6912 2.0292,-2.9969 2.6935,-5.5031 1.1953,-4.5091 1.7736,-8.3441 1.9814,-10.9501 0.2561,-3.2115 0.2869,-7.4439 -0.036,-11.9173 -0.2855,-3.9621 -0.6188,-6.8115 -2.3011,-11.5996 -1.8773,-5.3433 -3.6691,-6.4723 -4.1015,-7.1452 -1.8544,-2.8862 -9.5035,-5.2088 -12.9393,-5.2418 -9.7019,-0.093 -23.5733,-0.031 -23.5733,-0.031 z m 17.4695,11.492 17.1067,0.1158 c 11.9232,-0.069 11.7518,32.967 0.4165,33.2205 0,0 -9.7788,-0.1121 -17.5793,-0.1258 z"
         sodipodi:nodetypes="cccccccccccssssssssccscccs" />
      <path
         style="fill:#ff0000;fill-opacity:1;stroke:#000000;stroke-width:0.674787;stroke-linejoin:bevel;stroke-dasharray:none;stroke-opacity:1"
         d="m 491.45652,116.68112 h -63.4349 l 0.039,129.437 63.3956,-0.01 -0.1457,-27.6946 -46.3383,0.019 -0.065,-25.6976 37.1998,0.048 0.059,-23.1377 -37.3262,0.1106 0.055,-25.7287 46.5413,-0.071 z"
         id="path256"
         sodipodi:nodetypes="ccccccccccccc" />
      <path
         style="fill:#ff0000;fill-opacity:1;stroke:#000000;stroke-width:0.674787;stroke-linejoin:bevel;stroke-dasharray:none;stroke-opacity:1"
         d="m 531.02982,143.7011 v 102.2491 c 12.6178,-0.1264 5.4527,0.1032 17.9277,0.024 V 143.6571 l 26.0438,0.024 -0.3808,-26.7276 -68.8741,-0.048 0.3331,26.799 z"
         id="path257"
         sodipodi:nodetypes="ccccccccc" />
      <path
         style="fill:#f2f2f2;fill-opacity:1;stroke:none;stroke-width:0.674787;stroke-linejoin:bevel;stroke-dasharray:none;stroke-opacity:1"
         d="m 496.25932,117.7623 2.2848,16.3745"
         id="path258" />
      <path
         id="path269"
         style="fill:#ff0000;fill-opacity:1;stroke:#000000;stroke-width:0.675177;stroke-linejoin:bevel;stroke-dasharray:none;stroke-opacity:1"
         d="m 999.9875,120.40902 -70.45168,0.039 0.1281,129.6553 70.37298,-0.079 z m -15.7988,15.7783 0.013,97.9295 -38.74978,0.08 -0.072,-92.3859 0.011,-5.5773 z"
         sodipodi:nodetypes="ccccccccccc" />
      <path
         id="path277"
         style="fill:#ff0000;fill-opacity:1;stroke:#000000;stroke-width:0.674787;stroke-linejoin:bevel;stroke-dasharray:none;stroke-opacity:1"
         d="m 645.93342,116.9376 -15.6718,128.9454 20.5487,0.024 2.2611,-54.6168 22.8964,-0.1901 1.7134,54.7832 20.8388,0.024 -16.0825,-128.9686 z m 11.5488,19.1361 12.1326,-1e-4 4.2335,31.416 -20.7769,1e-4 z"
         sodipodi:nodetypes="cccccccccccccc" />
      <path
         id="path279"
         style="fill:#ff0000;fill-opacity:1;stroke:#000000;stroke-width:0.674787;stroke-linejoin:bevel;stroke-dasharray:none;stroke-opacity:1"
         d="m 714.23042,118.9677 c -0.098,43.1353 0.026,85.8527 -0.072,128.9879 l 15.7964,0.038 c 0,0 -0.5318,-64.7964 -0.4286,-70.6799 9.0821,0.063 18.919,0.3086 20.8838,0 4.7709,-0.4037 7.763,-1.4071 11.0756,-3.1388 2.7138,-1.4923 3.9661,-2.7995 5.4499,-4.5129 1.5678,-2.2425 2.5538,-4.2145 3.6225,-7.0952 0.6932,-1.6824 1.042,-7.6484 1.083,-8.3231 0.081,-1.3306 0.2087,-6.0654 0.1978,-8.1365 -0.01,-1.6937 -0.1927,-5.489 -0.3066,-6.9504 -0.2043,-2.6214 -0.7679,-5.4382 -1.6853,-8.3371 -0.8896,-2.8107 -2.1893,-5.419 -3.5985,-7.0121 -1.2361,-1.3974 -3.8917,-4.8537 -12.8744,-4.8609 l -23.5734,-0.019 z m 15.4163,10.8613 20.7755,0.1157 c 11.9232,-0.069 11.7518,32.9671 0.4165,33.2206 0,0 -13.5991,-0.1458 -21.3996,-0.1595 z"
         sodipodi:nodetypes="ccccccccssssssccscccs" />
      <path
         id="path281"
         style="fill:#ff0000;fill-opacity:1;stroke:#000000;stroke-width:0.674787;stroke-linejoin:bevel;stroke-dasharray:none;stroke-opacity:1"
         d="m 852.21462,118.8755 c -0.098,43.1353 0.026,85.9449 -0.072,129.0801 l 17.6813,-0.013 c 0,0 -0.2625,-66.2626 -0.1594,-72.1461 3.3102,0.023 9.2282,-0.012 10.4077,0.011 l 15.0886,52.1542 5.9741,19.9804 18.1434,0.039 c -1.7032,-5.2493 -4.571,-15.5716 -4.571,-15.5716 l -6.2116,-21.1172 -11.2666,-35.4832 c 4.4148,-0.2145 6.0515,-0.5243 7.5795,-1.1238 1.1394,-0.447 2.7222,-2.2686 3.4063,-3.326 1.0942,-1.6912 2.0291,-2.9969 2.6935,-5.5031 1.1953,-4.5091 1.7736,-8.3441 1.9814,-10.9501 0.2561,-3.2115 0.2869,-7.4439 -0.036,-11.9173 -0.2856,-3.9621 -0.6189,-6.8115 -2.3011,-11.5996 -1.8773,-5.3433 -3.6692,-6.4723 -4.1015,-7.1452 -1.8544,-2.8862 -9.5035,-5.2088 -12.9393,-5.2418 -9.7019,-0.093 -23.5733,-0.031 -23.5733,-0.031 z m 17.4695,11.492 17.1067,0.1158 c 11.9232,-0.069 11.7518,32.967 0.4164,33.2205 0,0 -9.7787,-0.1121 -17.5792,-0.1258 z"
         sodipodi:nodetypes="cccccccccccssssssssccscccs" />
      <path
         id="path280"
         style="fill:#ff0000;fill-opacity:1;stroke:#000000;stroke-width:0.674787;stroke-linejoin:bevel;stroke-dasharray:none;stroke-opacity:1"
         d="m 786.94852,116.9376 -15.6718,128.9454 20.5487,0.024 2.261,-54.6168 21.6847,-0.1901 1.7135,54.7832 20.704,0.024 -14.736,-128.9686 z m 11.5488,19.1361 12.1326,-1e-4 4.2334,31.416 -20.7768,1e-4 z"
         sodipodi:nodetypes="cccccccccccccc" />
    </g>
    <g
       id="g340"
       inkscape:label="letter-J"
       transform="translate(-875.71579,-536.71804)">
      <path
         id="path293"
         style="fill:#000000;fill-opacity:1;stroke:#000000;stroke-width:0.674216;stroke-linejoin:bevel;stroke-dasharray:none;stroke-opacity:1"
         d="m 255.35745,312.19513 -3.20118,4 -5.71093,-0.004 -0.3418,109.9004 -49.28906,-2.69727 -2.11133,16.34375 -10.74805,1.5957 9.78907,5.83203 6.6621,0.002 63.58594,0.01 -0.0176,-125.30468 v -5.67188 z"
         inkscape:label="bottom-J-1"
         transform="translate(-46.701787,0.00367)"
         sodipodi:nodetypes="ccccccccccccc" />
    </g>
    <g
       id="g331"
       inkscape:label="letter-A-1"
       transform="translate(-874.61827,-538.70107)">
      <path
         id="path294"
         style="fill:#000000;fill-opacity:1;stroke:#000000;stroke-width:0.674787;stroke-linejoin:bevel;stroke-dasharray:none;stroke-opacity:1"
         d="m 274.51392,314.26937 0.2481,3.95898 -27.9375,-0.002 -15.1914,124.99023 -7.96097,-0.008 7.48047,3.95703 7.3242,0.008 13.2246,0.0156 2.2598,-54.14649 22.8965,-0.18945 1.5898,50.36328 -1.9629,-0.002 -6.6191,-0.008 8.707,3.95898 3.082,0.004 2.4317,0.002 15.3242,0.0176 -15.959,-127.11914 -0.2304,-1.8418 z m -15.1094,23.55859 h 11.1016 l 4.5684,31.41602 h -20.0352 z"
         inkscape:label="bottom-A-1" />
    </g>
    <g
       id="g333"
       inkscape:label="letter-R-1"
       transform="translate(-872.6994,-538.65023)">
      <path
         id="path295"
         style="fill:#000000;fill-opacity:1;stroke:#000000;stroke-width:0.674787;stroke-linejoin:bevel;stroke-dasharray:none;stroke-opacity:1"
         d="m 312.52346,318.08185 c -0.095,41.80698 0.0118,83.31742 -0.0703,125.10547 l -8.70898,0.006 8.70703,3.96875 6.96289,-0.004 10.71875,-0.008 c 0,0 -0.26336,-66.26299 -0.16016,-72.14649 3.3101,0.023 9.22872,-0.0113 10.4082,0.0117 l 15.08789,52.1543 4.79297,16.02539 -7.52539,-0.0156 8.70703,3.96875 7.11524,0.0156 11.02734,0.0234 c -1.7032,-5.2493 -4.57031,-15.57031 -4.57031,-15.57031 l -6.21094,-21.11719 -11.26758,-35.48438 c 4.4148,-0.2145 6.05208,-0.52354 7.58008,-1.12304 1.1394,-0.447 2.72215,-2.26878 3.40625,-3.32618 1.0942,-1.69118 2.02906,-2.99575 2.69336,-5.50195 1.1953,-4.50908 1.77267,-8.34517 1.98047,-10.95117 0.2561,-3.2115 0.28774,-7.44457 -0.0352,-11.91797 -0.2855,-3.9621 -0.61848,-6.81151 -2.30078,-11.59961 -1.87728,-5.34328 -3.66916,-6.47163 -4.10156,-7.14453 -1.8544,-2.8862 -9.50367,-5.20919 -12.93945,-5.24219 -9.70188,-0.093 -23.57422,-0.0312 -23.57422,-0.0312 z m 17.46875,11.49219 17.10742,0.11718 c 11.92318,-0.069 11.7513,32.96525 0.41602,33.21875 0,0 -9.7796,-0.1113 -17.58008,-0.125 z"
         inkscape:label="black-R" />
    </g>
    <g
       id="g339"
       inkscape:label="letter E"
       transform="translate(-906.20885,-538.79128)">
      <path
         id="path296"
         style="fill:#000000;fill-opacity:1;stroke:#000000;stroke-width:0.674787;stroke-linejoin:bevel;stroke-dasharray:none;stroke-opacity:1"
         d="m 482.78323,313.88654 -0.004,3.99023 h -54.75781 l 0.0371,125.44336 -8.67188,0.002 8.67383,3.99219 h 8.29297 l -0.002,-0.002 55.10547,-0.008 -0.11719,-22.28125 -0.0293,-5.41407 -8.67383,-3.99023 0.0215,3.99414 -37.68555,0.0156 -0.0664,-25.69726 37.20118,0.0469 0.043,-16.6875 0.0156,-6.44921 -8.67383,-3.99219 -0.0117,4.01758 -28.64062,0.0859 0.0547,-25.72851 46.54101,-0.0723 0.0156,-20.45117 0.006,-6.82422 z"
         inkscape:label="black-E"
         transform="translate(3e-6)" />
    </g>
    <g
       id="g338"
       inkscape:label="letter-T"
       transform="translate(-905.71579,-538.31569)">
      <path
         id="path297"
         style="fill:#000000;fill-opacity:1;stroke:#000000;stroke-width:0.674787;stroke-linejoin:bevel;stroke-dasharray:none;stroke-opacity:1"
         d="m 566.08987,313.83771 0.0625,4.31641 -60.40625,-0.041 0.2793,22.47461 h -8.47657 l 8.53125,4.32422 h 6.72852 l -0.002,-0.002 18.22265,-0.002 v 97.9375 l -8.52929,-0.0117 8.52929,4.32422 6.83594,-0.0332 c 3.10047,0.0178 2.28526,0.11255 11.0918,0.0566 V 344.86505 l 26.04492,0.0234 -0.29102,-20.44336 -0.0898,-6.28516 z"
         inkscape:label="black-T"
         transform="translate(2.9999999e-6)" />
    </g>
    <g
       id="g336"
       inkscape:label="letter-O"
       transform="translate(-931.32189,-534.9221)">
      <path
         id="path298"
         style="fill:#000000;fill-opacity:1;stroke:#000000;stroke-width:0.675177;stroke-linejoin:bevel;stroke-dasharray:none;stroke-opacity:1"
         d="m 1015.4922,313.12872 v 4.31446 l -61.95702,0.0352 0.125,125.33399 -8.49023,0.01 8.49414,4.3125 70.37301,-0.0801 -0.049,-129.61524 -8.4941,-4.31055 z m -7.3027,20.08985 0.012,97.92773 -38.75,0.0801 -0.0703,-92.38476 0.01,-5.57813 z"
         inkscape:label="black-O" />
    </g>
    <g
       id="g337"
       inkscape:label="letter-P"
       transform="translate(-936.02899,-537.70335)">
      <path
         id="path300"
         style="fill:#000000;fill-opacity:1;stroke:#000000;stroke-width:0.674787;stroke-linejoin:bevel;stroke-dasharray:none;stroke-opacity:1"
         inkscape:label="black-P"
         d="m 775.66967,317.10747 3.57812,1.90625 1.23438,1.60742 c -1.42935,-0.28416 -3.10399,-0.46519 -5.10938,-0.4668 l -23.57227,-0.0195 -15.57031,0.041 c -0.0945,41.60746 0.01,82.83814 -0.0703,124.41797 l -8.35547,-0.0195 8.35352,4.58789 11.76367,0.0293 4.0332,0.01 c 0,0 -0.53289,-64.79619 -0.42969,-70.67969 9.08208,0.063 18.91997,0.3086 20.88477,0 4.77089,-0.4037 7.76358,-1.40697 11.07617,-3.13867 2.7138,-1.4923 3.96542,-2.80027 5.44922,-4.51367 1.5678,-2.2425 2.55435,-4.21502 3.62305,-7.0957 0.6932,-1.6824 1.04103,-7.64757 1.08203,-8.32227 0.081,-1.3306 0.20816,-6.06562 0.19726,-8.13672 -0.003,-0.56225 -0.0592,-1.22068 -0.0918,-2.08398 l -0.18553,-0.32613 0.19884,0.51251 -0.0328,-1.62969 c -0.0615,-1.3572 -0.13781,-2.68592 -0.19532,-3.42383 -0.0944,-1.21154 -0.2745,-2.46839 -0.52148,-3.75195 l -0.29297,-1.28516 c 0.10596,0.78644 -0.33073,-1.54948 -0.57422,-2.27734 -0.0987,-0.34087 -0.18625,-0.6781 -0.29492,-1.02149 -0.20656,-0.65262 -0.44039,-1.28956 -0.6875,-1.91015 l -0.69336,-1.61133 -2.46875,-3.67969 c -0.18512,-0.27593 -0.2891,-0.40496 -0.71094,-0.8457 -0.69595,-0.69895 -1.70449,-1.49431 -3.19726,-2.19532 -0.32187,-0.21759 -0.99805,-0.67773 -0.99805,-0.67773 l -6.9433,-3.75643 z m -24.02344,13.92969 20.77539,0.11523 c 11.92318,-0.069 11.75128,32.96721 0.41601,33.2207 0,0 -13.59795,-0.14645 -21.39843,-0.16015 z"
         sodipodi:nodetypes="ccccccccccccccccccccccscccsccscccccccccc" />
    </g>
    <g
       id="g330"
       inkscape:label="letter-A-3"
       transform="translate(-1133.0387,-726.81853)">
      <path
         id="path323"
         style="fill:#000000;fill-opacity:1;stroke:#000000;stroke-width:0.674787;stroke-linejoin:bevel;stroke-dasharray:none;stroke-opacity:1"
         d="m 1036.4024,504.76154 0.248,3.95898 -27.9375,-0.002 -15.19139,124.99023 -7.96094,-0.008 7.48047,3.95703 7.32426,0.008 13.2246,0.0156 2.2597,-54.14649 22.8965,-0.18945 1.5899,50.36328 -1.9629,-0.002 -6.6192,-0.008 8.7071,3.95898 3.082,0.004 2.4316,0.002 15.3242,0.0176 -15.9589,-127.11914 -0.2305,-1.8418 z m -15.1094,23.55859 h 11.1016 l 4.5683,31.41602 h -20.0351 z"
         inkscape:label="bottom-A-3" />
    </g>
    <g
       id="g332"
       inkscape:label="letter-A-2"
       transform="translate(-1275.2307,-726.70241)">
      <path
         id="path435"
         style="fill:#000000;fill-opacity:1;stroke:#000000;stroke-width:0.674787;stroke-linejoin:bevel;stroke-dasharray:none;stroke-opacity:1"
         d="m 637.51392,316.26937 0.2481,3.95898 -27.9375,-0.002 -15.1914,124.99023 -7.96097,-0.008 7.48047,3.95703 7.3242,0.008 13.2246,0.0156 2.2598,-54.14649 22.8965,-0.18945 1.5898,50.36328 -1.9629,-0.002 -6.6191,-0.008 8.707,3.95898 3.082,0.004 2.4317,0.002 15.3242,0.0176 -15.959,-127.11914 -0.2304,-1.8418 z m -15.1094,23.55859 h 11.1016 l 4.5684,31.41602 h -20.0352 z"
         inkscape:label="bottom-A-2"
         transform="translate(400.61243,188.00134)" />
    </g>
    <g
       id="g334"
       inkscape:label="letter-R-2"
       transform="translate(-1234.4147,-691.75609)">
      <path
         id="path333"
         style="fill:#000000;fill-opacity:1;stroke:#000000;stroke-width:0.674787;stroke-linejoin:bevel;stroke-dasharray:none;stroke-opacity:1"
         d="m 1176.8082,474.04084 c -0.095,41.80698 0.012,83.31742 -0.07,125.10547 l -8.7089,0.006 8.707,3.96875 6.9629,-0.004 10.7187,-0.008 c 0,0 -0.2633,-66.26299 -0.1601,-72.14649 3.3101,0.023 9.2287,-0.0113 10.4082,0.0117 l 15.0879,52.1543 4.7929,16.02539 -7.5254,-0.0156 8.7071,3.96875 7.1152,0.0156 11.0274,0.0234 c -1.7032,-5.2493 -4.5704,-15.57031 -4.5704,-15.57031 l -6.2109,-21.11719 -11.2676,-35.48438 c 4.4148,-0.2145 6.0521,-0.52354 7.5801,-1.12304 1.1394,-0.447 2.7222,-2.26878 3.4063,-3.32618 1.0942,-1.69118 2.029,-2.99575 2.6933,-5.50195 1.1953,-4.50908 1.7727,-8.34517 1.9805,-10.95117 0.2561,-3.2115 0.2877,-7.44457 -0.035,-11.91797 -0.2855,-3.9621 -0.6185,-6.81151 -2.3008,-11.59961 -1.8772,-5.34328 -3.6691,-6.47163 -4.1015,-7.14453 -1.8544,-2.8862 -9.5037,-5.20919 -12.9395,-5.24219 -9.7018,-0.093 -23.5742,-0.0312 -23.5742,-0.0312 z m 17.4687,11.49219 17.1074,0.11718 c 11.9232,-0.069 11.7513,32.96525 0.416,33.21875 0,0 -9.7796,-0.1113 -17.58,-0.125 z"
         inkscape:label="black-R" />
    </g>
    <g
       id="g432"
       inkscape:label="name-lg">
      <g
         id="g430"
         inkscape:label="first-lg">
        <g
           id="g402"
           inkscape:label="letter-J-lg"
           transform="translate(98.42625,-880.2706)">
          <path
             id="path350"
             style="fill:#000000;fill-opacity:1;stroke:#000000;stroke-width:0.674216;stroke-linejoin:bevel;stroke-dasharray:none;stroke-opacity:1"
             d="m -793.76948,346.29279 0.002,20.22071 h -1.08789 l -0.3418,107.90039 -49.28906,-2.69922 -0.45703,3.54297 h -19.05859 l 16.44531,20.23046 67.08789,0.01 h 3.16016 l -0.0137,-103.92578 -0.004,-25.05078 z" />
          <path
             style="fill:#ff0000;fill-opacity:1;stroke:#000000;stroke-width:0.674216;stroke-linejoin:bevel;stroke-dasharray:none;stroke-opacity:1"
             d="m -811.29894,346.28307 -0.3429,107.9007 -49.2887,-2.6985 -3.0704,23.7732 70.2476,0.01 -0.017,-128.9766 z"
             id="path360"
             sodipodi:nodetypes="ccccccc" />
        </g>
        <g
           id="g404"
           inkscape:label="letter-A-lg"
           transform="translate(162,-882.5)">
          <path
             id="path351"
             style="fill:#000000;fill-opacity:1;stroke:#000000;stroke-width:0.674787;stroke-linejoin:bevel;stroke-dasharray:none;stroke-opacity:1"
             d="m -784.39448,348.53693 2.53906,20.22852 h -26.49219 l -13.21484,108.72656 -14.90039,-0.0176 12.44336,20.22852 20.54883,0.0234 2.26172,-54.14454 22.89648,-0.1914 1.07617,34.09765 -11.80664,-0.0137 12.44336,20.22852 20.83984,0.0254 v -0.002 l -16.18945,-128.96094 z m -11.37109,39.82813 h 11.0996 l 4.57032,31.41601 h -20.03711 z" />
          <path
             id="path361"
             style="fill:#ff0000;fill-opacity:1;stroke:#000000;stroke-width:0.674787;stroke-linejoin:bevel;stroke-dasharray:none;stroke-opacity:1"
             d="m -820.79124,348.53527 -15.6718,128.9383 20.5487,0.024 2.261,-54.1456 22.8964,-0.1901 1.7135,54.312 20.8388,0.024 -16.1896,-128.9615 z m 12.5805,19.6002 11.1009,-10e-5 4.57,31.416 -20.0363,10e-5 z"
             sodipodi:nodetypes="cccccccccccccc" />
        </g>
        <g
           id="g412"
           inkscape:label="letter-E-lg"
           transform="translate(138.93934,-882.5)">
          <path
             id="path353"
             style="fill:#000000;fill-opacity:1;stroke:#000000;stroke-width:0.674787;stroke-linejoin:bevel;stroke-dasharray:none;stroke-opacity:1"
             d="m -587.9687,348.49787 0.3125,22.0957 h -46.52539 l 0.0312,106.61524 -16.31836,0.16406 16.32617,21.97266 v 0.68554 l 63.39453,-0.01 -0.0449,-8.48242 0.0742,0.084 -0.0859,-2.64258 -0.0879,-16.65429 h -0.66797 l -16.1582,-22.20313 0.125,22.21094 -29.63867,0.0117 -0.0645,-25.69727 37.19921,0.0469 0.002,-0.45118 0.002,0.004 -0.002,-0.33594 0.0586,-22.35351 h -0.22851 l -16.57813,-22.18555 v 22.23633 l -20.51953,0.0606 0.0547,-25.73047 46.54101,-0.0703 v -0.43554 l 0.0488,0.0644 v -26.5 l -0.0293,-0.0391 v -0.36524 h -0.28125 z" />
          <path
             style="fill:#ff0000;fill-opacity:1;stroke:#000000;stroke-width:0.674787;stroke-linejoin:bevel;stroke-dasharray:none;stroke-opacity:1"
             d="m -587.49428,348.14771 h -63.4349 l 0.039,129.437 63.3956,-0.01 -0.1457,-27.6946 -46.3383,0.019 -0.065,-25.6976 37.1998,0.048 0.059,-23.1377 -37.3262,0.1106 0.055,-25.7287 46.5413,-0.071 z"
             id="path363"
             sodipodi:nodetypes="ccccccccccccc" />
        </g>
        <g
           id="g414"
           inkscape:label="letter-T-lg"
           transform="translate(136.93934,-882.5)">
          <path
             id="path354"
             style="fill:#000000;fill-opacity:1;stroke:#000000;stroke-width:0.674787;stroke-linejoin:bevel;stroke-dasharray:none;stroke-opacity:1"
             d="m -494.41987,348.26154 0.11133,16.23828 -50.2461,-0.0351 0.13477,10.81054 -18.23633,-0.49609 18.38477,16.26172 0.0488,0.002 0.002,0.22071 h 3.83593 l 2.30079,0.13085 -0.043,-0.13085 18.85547,-0.004 v 86.38867 l -0.78125,-0.69336 -17.67774,0.35352 18.45899,15.69922 v 0.50195 c 10.98468,-0.11004 7.66245,0.0383 14.67187,0.0293 l 3.28516,0.0332 -0.0449,-0.0391 c 0.008,-5e-5 0.008,5e-5 0.0156,0 V 391.21662 l 26.04492,0.0234 -0.38086,-26.72852 h -0.41601 z" />
          <path
             style="fill:#ff0000;fill-opacity:1;stroke:#000000;stroke-width:0.674787;stroke-linejoin:bevel;stroke-dasharray:none;stroke-opacity:1"
             d="m -537.71524,375.03021 v 102.2491 c 12.6178,-0.1264 5.4527,0.1032 17.9277,0.024 v -102.3171 l 26.0438,0.024 -0.3808,-26.7276 -68.8741,-0.048 0.3331,26.799 z"
             id="path364"
             sodipodi:nodetypes="ccccccccc" />
        </g>
        <g
           id="g409"
           inkscape:label="letter-R-lg-1"
           transform="translate(150.53033,-882.5)">
          <path
             id="path352"
             style="fill:#000000;fill-opacity:1;stroke:#000000;stroke-width:0.674787;stroke-linejoin:bevel;stroke-dasharray:none;stroke-opacity:1"
             d="m -688.65229,353.79084 2.3457,3.14648 3.02734,8.21485 0.55664,3.98047 c -1.4618,-0.35295 -2.82541,-0.57441 -3.82226,-0.58399 -4.36448,-0.0418 -9.46905,-0.046 -13.87891,-0.0449 l -0.0547,-0.2832 -1.21289,-3.20703 -1.54492,-2.42579 -1.66015,-1.52148 -3.41602,-1.03711 -17.10547,-0.11523 -0.0156,8.52148 -2.40821,-0.0137 c -0.0828,36.44755 -0.0268,72.69287 -0.0605,109.06836 l -15.0586,0.0117 15.04688,20 17.68164,-0.0137 c 0,0 -0.26336,-66.26304 -0.16016,-72.14648 3.3101,0.023 9.22871,-0.0113 10.40821,0.0117 l 15.08789,52.1543 -9.07227,-0.0195 15.04688,20 18.14257,0.0391 c -1.7032,-5.2493 -4.57031,-15.57227 -4.57031,-15.57227 l -6.21094,-21.11719 -8.08593,-25.46093 -3.18164,-10.02149 c 4.41474,-0.2145 6.05207,-0.5236 7.58007,-1.12304 1.1394,-0.447 2.72215,-2.26878 3.40625,-3.32618 1.0942,-1.6912 2.02906,-2.99776 2.69336,-5.5039 1.1953,-4.5091 1.77267,-8.34322 1.98047,-10.94922 0.2561,-3.2115 0.28779,-7.44463 -0.0352,-11.91797 -0.2855,-3.9621 -0.61849,-6.81151 -2.30079,-11.59961 -1.87724,-5.34324 -3.66916,-6.47163 -4.10156,-7.14453 z m -21.72071,26.12305 8.55274,0.0566 8.55469,0.0586 c 5.77912,-0.0334 8.6904,7.71556 8.89257,15.73438 l -2.51562,5.14257 -3.40625,3.32618 -7.57813,1.12304 c 0,0 -4.7562,7.78323 -12.55664,7.76953 l 0.0391,-22.96484 z" />
          <path
             id="path362"
             style="fill:#ff0000;fill-opacity:1;stroke:#000000;stroke-width:0.674787;stroke-linejoin:bevel;stroke-dasharray:none;stroke-opacity:1"
             d="m -742.88817,348.42157 c -0.098,43.1353 0.026,85.9449 -0.072,129.0801 l 17.6813,-0.013 c 0,0 -0.2625,-66.2626 -0.1593,-72.1461 3.3101,0.023 9.2281,-0.012 10.4076,0.011 l 15.0886,52.1542 5.9741,19.9804 18.1434,0.039 c -1.7032,-5.2493 -4.571,-15.5716 -4.571,-15.5716 l -6.2116,-21.1172 -11.2666,-35.4832 c 4.4148,-0.2145 6.0515,-0.5243 7.5795,-1.1238 1.1394,-0.447 2.7222,-2.2686 3.4063,-3.326 1.0942,-1.6912 2.0292,-2.9969 2.6935,-5.5031 1.1953,-4.5091 1.7736,-8.3441 1.9814,-10.9501 0.2561,-3.2115 0.2869,-7.4439 -0.036,-11.9173 -0.2855,-3.9621 -0.6188,-6.8115 -2.3011,-11.5996 -1.8773,-5.3433 -3.6691,-6.4723 -4.1015,-7.1452 -1.8544,-2.8862 -9.5035,-5.2088 -12.9393,-5.2418 -9.7019,-0.093 -23.5733,-0.031 -23.5733,-0.031 z m 17.4695,11.492 17.1067,0.1158 c 11.9232,-0.069 11.7518,32.967 0.4165,33.2205 0,0 -9.7788,-0.1121 -17.5793,-0.1258 z"
             sodipodi:nodetypes="cccccccccccssssssssccscccs" />
        </g>
      </g>
      <g
         id="g431"
         inkscape:label="last-lg">
        <path
           id="path355"
           style="fill:#000000;fill-opacity:1;stroke:#000000;stroke-width:0.675177;stroke-linejoin:bevel;stroke-dasharray:none;stroke-opacity:1"
           d="m 116.32003,-534.42896 -0.13672,21.85156 -15.26367,0.008 v -8.01172 l -38.89258,-0.17773 5.59375,8.20898 h -0.23828 l -5.53125,-8.03125 0.17578,18.5625 0.36523,0.56836 0.0918,93.89844 -16.189451,-0.24609 16.214841,24.05664 0.63924,0.79051 69.73382,-0.0209 -0.0352,-88.82813 -0.4933,-39.84765 z m 0.0215,37.61914 0.13281,13.35156 -0.002,0.7793 -0.17578,75.63086 0.002,0.31054 -38.00781,-0.57617 -0.0957,-68.49112 0.003,-0.75865 0.0928,-20.15257 -0.0332,-0.0469 z"
           sodipodi:nodetypes="ccccccccccccccccccccccccccccc" />
        <path
           id="path366"
           style="fill:#ff0000;fill-opacity:1;stroke:#000000;stroke-width:0.675177;stroke-linejoin:bevel;stroke-dasharray:none;stroke-opacity:1"
           d="m 116.38815,-534.51908 -70.451691,0.039 0.1281,129.6553 70.372991,-0.079 0.0833,-129.34454 z m -15.7988,15.7783 -0.0754,98.59242 -37.99221,0.08 c -0.0102,-26.42536 -1.10165,-52.69988 -0.62039,-79.07762 l -0.12081,-13.7212 0.011,-5.8273 z"
           sodipodi:nodetypes="ccccccccccccc" />
        <g
           id="g423"
           inkscape:label="letter-P-lg"
           transform="translate(-61.203101,-882.14644)">
          <path
             id="path357"
             style="fill:#000000;fill-opacity:1;stroke:#000000;stroke-width:0.674787;stroke-linejoin:bevel;stroke-dasharray:none;stroke-opacity:1"
             d="m -88.7187,351.62287 4.625,6.625 1.75,7.5 0.09375,0.98828 c -1.002368,-0.11534 -2.100701,-0.18652 -3.326172,-0.1875 l -9.808977,-0.008 -0.635378,-1.73361 -1.401427,-2.88821 -1.548449,-1.70069 -2.109487,-1.27289 c -1.58981,-0.24778 -15.02859,0.11088 -22.76386,0.17743 l -0.11355,4.68302 0.11355,-4.55802 -0.1875,7.31836 -0.68945,0.002 c -0.084,36.97075 -0.0251,73.67178 -0.0625,110.55469 h -14.31055 l 14.30078,17.9082 c -3.9e-4,0.17569 4e-4,0.3497 0,0.52539 l 15.79688,0.0391 c 0,0 -0.53094,-64.79818 -0.42774,-70.68164 9.08206,0.063 18.918022,0.3086 20.882814,0 0.13631,-0.0115 0.257172,-0.0285 0.390625,-0.041 h 0.931641 l 1.480469,-0.30469 c 0.849256,-0.13716 1.646425,-0.30232 2.40039,-0.49414 l 0.369141,-0.0762 0.140625,-0.0586 c 1.90692,-0.52899 3.593641,-1.23896 5.363281,-2.16407 0.119531,-0.0657 0.200451,-0.1283 0.314453,-0.19336 l 0.806641,-0.33398 0.564453,-0.50391 c 1.61902,-1.09854 2.629713,-2.17106 3.763672,-3.48046 0.876741,-1.25405 1.564145,-2.43927 2.193359,-3.73047 l 0.353516,-0.53516 0.150391,-0.54492 c 0.311095,-0.70917 0.616971,-1.45276 0.925781,-2.28516 0.271105,-0.65797 0.472865,-2.00104 0.640625,-3.39648 l 0.283203,-1.02344 0.5,-11.875 -0.21875,-2.49414 c -0.06538,-1.74584 -0.153818,-3.63765 -0.230469,-4.62109 -0.08803,-1.12952 -0.25746,-2.30099 -0.478515,-3.49414 l -0.447266,-1.89063 -0.5,-2.05273 c -0.08807,-0.30076 -0.163984,-0.59775 -0.259766,-0.90039 -0.719406,-2.27299 -1.713447,-4.38265 -2.810546,-5.96094 l -0.429688,-0.96094 z m -20.65234,25.80859 2.81054,0.0137 5.9668,0.0215 0.68945,0.0156 11.375,0.0625 c 2.96162,-0.0171 5.174622,2.01211 6.658203,5.07031 l -0.472656,7.00781 -3.375,8.5 c 0,0 1.999988,-0.625 -2.375,2.5 -4.374988,3.125 -5.875,3.625 -5.875,3.625 0,0 -1.380322,0.91014 -4.761318,1.67932 -3.092539,0.70356 -10.314829,0.86477 -10.758209,0.83435 l 0.11719,-18.59961 0.0273,-1.19531 z"
             sodipodi:nodetypes="ccccsccccccccccccccccccccccccccccccccccccscccscccccccccccscscccc" />
          <path
             id="path368"
             style="fill:#ff0000;fill-opacity:1;stroke:#000000;stroke-width:0.674787;stroke-linejoin:bevel;stroke-dasharray:none;stroke-opacity:1"
             d="m -139.16435,348.33922 c -0.098,43.1353 0.026,85.8527 -0.072,128.9879 l 15.7964,0.038 c 0,0 -0.5318,-64.7964 -0.4286,-70.6799 9.0821,0.063 18.919,0.3086 20.8838,0 6.382659,-0.85141 7.763003,-1.4071 11.075603,-3.1388 2.7138,-1.4923 4.187071,-3.10886 5.670871,-4.82226 0.309276,-0.59762 0.419174,-0.81004 0.560054,-1.07059 1.233874,-2.28195 1.896985,-3.16936 2.841475,-5.71525 0.6932,-1.6824 1.042,-7.6484 1.083,-8.3231 0.081,-1.3306 0.2087,-6.0654 0.1978,-8.1365 -0.01,-1.6937 -0.1927,-5.489 -0.3066,-6.9504 -0.2043,-2.6214 -0.7679,-5.4382 -1.6853,-8.3371 -0.8896,-2.8107 -2.1893,-5.419 -3.5985,-7.0121 -1.2361,-1.3974 -3.8917,-4.8537 -12.874403,-4.8609 l -23.5734,-0.019 z m 15.4163,10.8613 20.7534,-0.19366 c 11.923206,-0.069 11.773903,33.27646 0.4386,33.52996 0,0 -13.5991,-0.1458 -21.3996,-0.1595 z"
             sodipodi:nodetypes="cccccccscssssssccscccs" />
        </g>
        <g
           id="g415"
           inkscape:label="letter-A-lg-2"
           transform="translate(551.9798,-882.32322)">
          <path
             id="path414"
             style="fill:#000000;fill-opacity:1;stroke:#000000;stroke-width:0.674787;stroke-linejoin:bevel;stroke-dasharray:none;stroke-opacity:1"
             d="m -784.39448,348.53693 2.53906,20.22852 h -26.49219 l -13.21484,108.72656 -14.90039,-0.0176 12.44336,20.22852 20.54883,0.0234 2.26172,-54.14454 22.89648,-0.1914 1.07617,34.09765 -11.80664,-0.0137 12.44336,20.22852 20.83984,0.0254 v -0.002 l -16.18945,-128.96094 z m -11.37109,39.82813 h 11.0996 l 4.57032,31.41601 h -20.03711 z" />
          <path
             id="path415"
             style="fill:#ff0000;fill-opacity:1;stroke:#000000;stroke-width:0.674787;stroke-linejoin:bevel;stroke-dasharray:none;stroke-opacity:1"
             d="m -820.79124,348.53527 -15.6718,128.9383 20.5487,0.024 2.261,-54.1456 22.8964,-0.1901 1.7135,54.312 20.8388,0.024 -16.1896,-128.9615 z m 12.5805,19.6002 11.1009,-10e-5 4.57,31.416 -20.0363,10e-5 z"
             sodipodi:nodetypes="cccccccccccccc" />
        </g>
        <g
           id="g417"
           inkscape:label="letter-A-lg-3"
           transform="translate(768.58668,-906.36485)">
          <path
             id="path416"
             style="fill:#000000;fill-opacity:1;stroke:#000000;stroke-width:0.674787;stroke-linejoin:bevel;stroke-dasharray:none;stroke-opacity:1"
             d="m -849.44831,372.57856 2.53906,20.22852 h -26.49219 l -13.21484,108.72656 -14.90039,-0.0176 12.44336,20.22852 20.54883,0.0234 2.26172,-54.14454 22.89648,-0.1914 1.07617,34.09765 -11.80664,-0.0137 12.44336,20.22852 20.83984,0.0254 v -0.002 L -837.003,392.80695 Z m -11.37109,39.82813 h 11.0996 l 4.57032,31.41601 h -20.03711 z" />
          <path
             id="path417"
             style="fill:#ff0000;fill-opacity:1;stroke:#000000;stroke-width:0.674787;stroke-linejoin:bevel;stroke-dasharray:none;stroke-opacity:1"
             d="m -885.84507,372.5769 -15.6718,128.9383 20.5487,0.024 2.261,-54.1456 22.8964,-0.1901 1.7135,54.312 20.8388,0.024 -16.1896,-128.9615 z m 12.5805,19.6002 11.1009,-10e-5 4.57,31.416 -20.0363,10e-5 z"
             sodipodi:nodetypes="cccccccccccccc" />
        </g>
        <g
           id="g419"
           inkscape:label="letter-R-lg-2"
           transform="translate(693.63337,-882.32322)">
          <path
             id="path418"
             style="fill:#000000;fill-opacity:1;stroke:#000000;stroke-width:0.674787;stroke-linejoin:bevel;stroke-dasharray:none;stroke-opacity:1"
             d="m -688.65229,353.79084 2.3457,3.14648 3.02734,8.21485 0.55664,3.98047 c -1.4618,-0.35295 -2.82541,-0.57441 -3.82226,-0.58399 -4.36448,-0.0418 -9.46905,-0.046 -13.87891,-0.0449 l -0.0547,-0.2832 -1.21289,-3.20703 -1.54492,-2.42579 -1.66015,-1.52148 -3.41602,-1.03711 -17.10547,-0.11523 -0.0156,8.52148 -2.40821,-0.0137 c -0.0828,36.44755 -0.0268,72.69287 -0.0605,109.06836 l -15.0586,0.0117 15.04688,20 17.68164,-0.0137 c 0,0 -0.26336,-66.26304 -0.16016,-72.14648 3.3101,0.023 9.22871,-0.0113 10.40821,0.0117 l 15.08789,52.1543 -9.07227,-0.0195 15.04688,20 18.14257,0.0391 c -1.7032,-5.2493 -4.57031,-15.57227 -4.57031,-15.57227 l -6.21094,-21.11719 -8.08593,-25.46093 -3.18164,-10.02149 c 4.41474,-0.2145 6.05207,-0.5236 7.58007,-1.12304 1.1394,-0.447 2.72215,-2.26878 3.40625,-3.32618 1.0942,-1.6912 2.02906,-2.99776 2.69336,-5.5039 1.1953,-4.5091 1.77267,-8.34322 1.98047,-10.94922 0.2561,-3.2115 0.28779,-7.44463 -0.0352,-11.91797 -0.2855,-3.9621 -0.61849,-6.81151 -2.30079,-11.59961 -1.87724,-5.34324 -3.66916,-6.47163 -4.10156,-7.14453 z m -21.72071,26.12305 8.55274,0.0566 8.55469,0.0586 c 5.77912,-0.0334 8.6904,7.71556 8.89257,15.73438 l -2.51562,5.14257 -3.40625,3.32618 -7.57813,1.12304 c 0,0 -4.7562,7.78323 -12.55664,7.76953 l 0.0391,-22.96484 z" />
          <path
             id="path419"
             style="fill:#ff0000;fill-opacity:1;stroke:#000000;stroke-width:0.674787;stroke-linejoin:bevel;stroke-dasharray:none;stroke-opacity:1"
             d="m -742.88817,348.42157 c -0.098,43.1353 0.026,85.9449 -0.072,129.0801 l 17.6813,-0.013 c 0,0 -0.2625,-66.2626 -0.1593,-72.1461 3.3101,0.023 9.2281,-0.012 10.4076,0.011 l 15.0886,52.1542 5.9741,19.9804 18.1434,0.039 c -1.7032,-5.2493 -4.571,-15.5716 -4.571,-15.5716 l -6.2116,-21.1172 -11.2666,-35.4832 c 4.4148,-0.2145 6.0515,-0.5243 7.5795,-1.1238 1.1394,-0.447 2.7222,-2.2686 3.4063,-3.326 1.0942,-1.6912 2.0292,-2.9969 2.6935,-5.5031 1.1953,-4.5091 1.7736,-8.3441 1.9814,-10.9501 0.2561,-3.2115 0.2869,-7.4439 -0.036,-11.9173 -0.2855,-3.9621 -0.6188,-6.8115 -2.3011,-11.5996 -1.8773,-5.3433 -3.6691,-6.4723 -4.1015,-7.1452 -1.8544,-2.8862 -9.5035,-5.2088 -12.9393,-5.2418 -9.7019,-0.093 -23.5733,-0.031 -23.5733,-0.031 z m 17.4695,11.492 17.1067,0.1158 c 11.9232,-0.069 11.7518,32.967 0.4165,33.2205 0,0 -9.7788,-0.1121 -17.5793,-0.1258 z"
             sodipodi:nodetypes="cccccccccccssssssssccscccs" />
        </g>
        <path
           style="fill:#000000;fill-opacity:1;stroke:#000000;stroke-width:0.506;stroke-linejoin:bevel;stroke-dasharray:none;stroke-opacity:1"
           d="m 116.46875,-534.53338 0.0313,-0.125"
           id="path426"
           sodipodi:nodetypes="cc" />
      </g>
    </g>
    <g
       id="g437"
       inkscape:label="first-top"
       style="fill:url(#radialGradient441);fill-opacity:1">
      <path
         style="fill:url(#radialGradient441);fill-opacity:1;stroke:#000000;stroke-width:0.674979;stroke-linejoin:bevel;stroke-dasharray:none;stroke-opacity:1"
         d="m 237.53565,312.187 -0.34861,108.37082 -50.11072,-2.66026 -3.12161,23.43613 71.41917,0.01 -0.0173,-129.14788 z"
         id="path303"
         sodipodi:nodetypes="ccccccc"
         inkscape:label="top-J-1"
         transform="translate(-922.41759,-536.71437)" />
      <path
         id="path332"
         style="fill:url(#radialGradient441);fill-opacity:1;stroke:#000000;stroke-width:0.674787;stroke-linejoin:bevel;stroke-dasharray:none;stroke-opacity:1"
         d="m 238.92307,314.14331 -15.67182,128.9383 20.54872,0.024 2.261,-54.1456 22.8964,-0.1901 1.7135,54.312 20.8388,0.024 -16.1896,-128.9615 z m 12.5805,19.6002 11.1009,-1e-4 4.57,31.416 -20.0363,1e-4 z"
         sodipodi:nodetypes="cccccccccccccc"
         inkscape:label="top-A-1"
         transform="translate(-874.61827,-538.70107)" />
      <path
         id="path305"
         style="fill:url(#radialGradient441);fill-opacity:1;stroke:#000000;stroke-width:0.674787;stroke-linejoin:bevel;stroke-dasharray:none;stroke-opacity:1"
         d="m 303.8156,314.11296 c -0.098,43.1353 0.026,85.9449 -0.072,129.0801 l 17.6813,-0.013 c 0,0 -0.2625,-66.2626 -0.1593,-72.1461 3.3101,0.023 9.2281,-0.012 10.4076,0.011 l 15.0886,52.1542 5.9741,19.9804 18.1434,0.039 c -1.7032,-5.2493 -4.571,-15.5716 -4.571,-15.5716 l -6.2116,-21.1172 -11.2666,-35.4832 c 4.4148,-0.2145 6.0515,-0.5243 7.5795,-1.1238 1.1394,-0.447 2.7222,-2.2686 3.4063,-3.326 1.0942,-1.6912 2.0292,-2.9969 2.6935,-5.5031 1.1953,-4.5091 1.7736,-8.3441 1.9814,-10.9501 0.2561,-3.2115 0.2869,-7.4439 -0.036,-11.9173 -0.2855,-3.9621 -0.6188,-6.8115 -2.3011,-11.5996 -1.8773,-5.3433 -3.6691,-6.4723 -4.1015,-7.1452 -1.8544,-2.8862 -9.5035,-5.2088 -12.9393,-5.2418 -9.7019,-0.093 -23.5733,-0.031 -23.5733,-0.031 z m 17.4695,11.492 17.1067,0.1158 c 11.9232,-0.069 11.7518,32.967 0.4165,33.2205 0,0 -9.7788,-0.1121 -17.5793,-0.1258 z"
         sodipodi:nodetypes="cccccccccccssssssssccscccs"
         inkscape:label="red-R"
         transform="translate(-872.69941,-538.65023)" />
      <path
         style="fill:url(#radialGradient441);fill-opacity:1;stroke:#000000;stroke-width:0.674787;stroke-linejoin:bevel;stroke-dasharray:none;stroke-opacity:1"
         d="m 482.78237,313.88561 h -63.4349 l 0.039,129.437 63.3956,-0.01 -0.1457,-27.6946 -46.3383,0.019 -0.065,-25.6976 37.1998,0.048 0.059,-23.1377 -37.3262,0.1106 0.055,-25.7287 46.5413,-0.071 z"
         id="path306"
         sodipodi:nodetypes="ccccccccccccc"
         inkscape:label="red-E"
         transform="translate(-906.20886,-538.79128)" />
      <path
         style="fill:url(#radialGradient441);fill-opacity:1;stroke:#000000;stroke-width:0.674787;stroke-linejoin:bevel;stroke-dasharray:none;stroke-opacity:1"
         d="m 522.49948,340.585 v 102.2491 c 12.6178,-0.1264 5.4527,0.1032 17.9277,0.024 V 340.541 l 26.0438,0.024 -0.3808,-26.7276 -68.8741,-0.048 0.3331,26.799 z"
         id="path307"
         sodipodi:nodetypes="ccccccccc"
         inkscape:label="red-T"
         transform="translate(-905.7158,-538.31569)" />
    </g>
    <g
       id="g438"
       inkscape:label="last-top"
       style="stroke:#000000;stroke-opacity:1;fill:#ff0000;fill-opacity:1">
      <path
         id="path436"
         style="fill:#ff0000;fill-opacity:1;stroke:#000000;stroke-width:0.674787;stroke-linejoin:bevel;stroke-dasharray:none;stroke-opacity:1"
         d="m 601.92307,316.14331 -15.67182,128.9383 20.54872,0.024 2.261,-54.1456 22.8964,-0.1901 1.7135,54.312 20.8388,0.024 -16.1896,-128.9615 z m 12.5805,19.6002 11.1009,-1e-4 4.57,31.416 -20.0363,1e-4 z"
         sodipodi:nodetypes="cccccccccccccc"
         inkscape:label="top-A-2"
         transform="translate(-874.61827,-538.70107)" />
      <path
         id="path311"
         style="fill:#ff0000;fill-opacity:1;stroke:#000000;stroke-width:0.674787;stroke-linejoin:bevel;stroke-dasharray:none;stroke-opacity:1"
         d="m -208.27714,-222.24192 c -0.098,43.1353 0.026,85.8527 -0.072,128.9879 l 15.7964,0.038 c 0,0 -0.5318,-64.7964 -0.4286,-70.6799 9.0821,0.063 18.919,0.3086 20.8838,0 4.7709,-0.4037 7.763,-1.4071 11.0756,-3.1388 2.7138,-1.4923 3.9661,-2.7995 5.4499,-4.5129 1.5678,-2.2425 2.5538,-4.2145 3.6225,-7.0952 0.6932,-1.6824 1.042,-7.6484 1.083,-8.3231 0.081,-1.3306 0.2087,-6.0654 0.1978,-8.1365 -0.01,-1.6937 -0.1927,-5.489 -0.3066,-6.9504 -0.2043,-2.6214 -0.7679,-5.4382 -1.6853,-8.3371 -0.8896,-2.8107 -2.18929,-5.41901 -3.5985,-7.0121 -0.61796,-0.6986 -1.5907,-1.91179 -3.53141,-2.95134 -0.11857,-0.0635 -0.24076,-0.12638 -0.36669,-0.18844 -1.93592,-0.95399 -4.75869,-1.71772 -8.9763,-1.72112 l -23.5734,-0.019 z m 15.4163,10.8613 20.7755,0.1157 c 11.9232,-0.069 11.7518,32.9671 0.4165,33.2206 0,0 -13.5991,-0.1458 -21.3996,-0.1595 z"
         sodipodi:nodetypes="ccccccccssssssssccscccs"
         inkscape:label="red-P" />
      <path
         id="path324"
         style="fill:#ff0000;fill-opacity:1;stroke:#000000;stroke-width:0.674787;stroke-linejoin:bevel;stroke-dasharray:none;stroke-opacity:1"
         d="m 1000.0052,504.76077 -15.67182,128.9383 20.54872,0.024 2.261,-54.1456 22.8964,-0.1901 1.7135,54.312 20.8388,0.024 -16.1896,-128.9615 z m 12.5805,19.6002 11.1009,-10e-5 4.57,31.416 -20.0363,10e-5 z"
         sodipodi:nodetypes="cccccccccccccc"
         inkscape:label="red-A-3"
         transform="translate(-1132.569,-726.70241)" />
      <path
         id="path334"
         style="fill:#ff0000;fill-opacity:1;stroke:#000000;stroke-width:0.674787;stroke-linejoin:bevel;stroke-dasharray:none;stroke-opacity:1"
         d="m 1168.1003,470.07195 c -0.098,43.1353 0.026,85.9449 -0.072,129.0801 l 17.6813,-0.013 c 0,0 -0.2625,-66.2626 -0.1593,-72.1461 3.3101,0.023 9.2281,-0.012 10.4076,0.011 l 15.0886,52.1542 5.9741,19.9804 18.1434,0.039 c -1.7032,-5.2493 -4.571,-15.5716 -4.571,-15.5716 l -6.2116,-21.1172 -11.2666,-35.4832 c 4.4148,-0.2145 6.0515,-0.5243 7.5795,-1.1238 1.1394,-0.447 2.7222,-2.2686 3.4063,-3.326 1.0942,-1.6912 2.0292,-2.9969 2.6935,-5.5031 1.1953,-4.5091 1.7736,-8.3441 1.9814,-10.9501 0.2561,-3.2115 0.2869,-7.4439 -0.036,-11.9173 -0.2855,-3.9621 -0.6188,-6.8115 -2.3011,-11.5996 -1.8773,-5.3433 -3.6691,-6.4723 -4.1015,-7.1452 -1.8544,-2.8862 -9.5035,-5.2088 -12.9393,-5.2418 -9.7019,-0.093 -23.5733,-0.031 -23.5733,-0.031 z m 17.4695,11.492 17.1067,0.1158 c 11.9232,-0.069 11.7518,32.967 0.4165,33.2205 0,0 -9.7788,-0.1121 -17.5793,-0.1258 z"
         sodipodi:nodetypes="cccccccccccssssssssccscccs"
         inkscape:label="red-R"
         transform="translate(-1234.4147,-691.75609)" />
      <path
         id="path309"
         style="fill:#ff0000;fill-opacity:1;stroke:#000000;stroke-width:0.675177;stroke-linejoin:bevel;stroke-dasharray:none;stroke-opacity:1"
         d="m 84.40023,-221.73796 v 0 l -70.45112,0.039 0.1281,129.655296 70.37522,-0.079 z m -15.801,15.7783 0.013,97.9295 -38.74982,0.08 -0.072,-92.3859 0.011,-5.5773 z"
         sodipodi:nodetypes="cccccccccccc"
         inkscape:label="red-O" />
    </g>
  </g>
</svg>
