<?xml version="1.0" standalone="no"?>
<!DOCTYPE svg PUBLIC "-//W3C//DTD SVG 20010904//EN"
 "http://www.w3.org/TR/2001/REC-SVG-20010904/DTD/svg10.dtd">
<svg version="1.0" xmlns="http://www.w3.org/2000/svg"
 width="300.000000pt" height="396.000000pt" viewBox="0 0 300.000000 396.000000"
 preserveAspectRatio="xMidYMid meet">
<metadata>
Created by potrace 1.10, written by Peter Selinger 2001-2011
</metadata>
<g transform="translate(0.000000,396.000000) scale(0.100000,-0.100000)"
fill="#000000" stroke="none">
<path d="M2222 3782 c-10 -47 -22 -73 -46 -100 l-34 -36 -34 34 -34 35 0 -112
c1 -62 4 -113 8 -113 4 0 12 9 18 20 15 29 34 25 69 -15 30 -35 44 -72 57
-155 l7 -45 13 64 c17 82 50 150 81 164 22 10 28 8 49 -16 l24 -28 0 122 0
122 -21 -27 c-33 -42 -57 -51 -81 -29 -30 27 -50 72 -57 128 l-6 50 -13 -63z
m34 -89 c24 -46 71 -64 107 -41 l23 16 0 -69 c1 -72 -4 -80 -30 -53 -14 14
-18 14 -31 0 -9 -9 -22 -19 -30 -23 -7 -5 -24 -33 -38 -63 l-25 -55 -7 32 c-4
18 -24 51 -45 73 -32 34 -42 40 -64 34 -26 -6 -26 -6 -26 55 0 56 10 76 25 51
12 -20 45 -9 80 26 19 19 33 39 30 45 -4 5 -2 9 3 9 5 0 17 -17 28 -37z"/>
<path d="M1110 3802 c0 -31 -34 -96 -67 -127 -21 -20 -35 -25 -57 -21 l-28 6
4 -88 c8 -138 47 -225 123 -272 l35 -21 38 21 c21 12 44 31 51 42 10 15 2 12
-25 -10 -52 -43 -84 -42 -132 6 -47 47 -65 105 -47 150 16 36 28 40 122 40 62
0 74 -3 93 -23 22 -24 25 -69 6 -120 -4 -11 -1 -8 8 6 36 61 66 303 34 271
-35 -35 -106 20 -129 100 -15 51 -29 71 -29 40z m97 -161 c13 -6 30 -8 38 -5
12 5 15 -5 15 -59 0 -69 -8 -77 -45 -47 -25 21 -181 16 -206 -6 -26 -24 -33
-12 -35 57 l-2 59 33 0 c34 0 77 40 96 89 9 22 10 22 47 -27 20 -28 47 -56 59
-61z"/>
<path d="M740 3776 c0 -28 -35 -82 -73 -110 -27 -20 -29 -20 -58 -4 l-29 17
-1 -27 c-7 -193 51 -363 123 -362 7 0 1 8 -14 17 -29 19 -58 77 -58 119 0 54
52 117 89 107 11 -3 24 5 34 21 30 45 70 43 125 -7 l22 -20 0 97 0 97 -26 -20
c-15 -12 -32 -21 -39 -21 -21 0 -75 69 -75 95 0 14 -4 25 -10 25 -5 0 -10 -11
-10 -24z m43 -77 c15 -17 27 -28 27 -24 0 4 7 2 15 -5 11 -9 19 -9 28 -2 18
15 32 2 35 -33 3 -39 -12 -63 -30 -48 -26 22 -72 18 -101 -7 -15 -13 -37 -25
-49 -27 -26 -4 -78 -51 -78 -70 0 -7 -6 -10 -15 -7 -8 4 -15 10 -15 16 0 5 6
6 13 2 9 -6 9 -5 1 7 -7 8 -13 34 -14 59 -4 77 -3 80 34 80 27 0 41 8 72 44
22 24 41 45 44 45 3 1 18 -13 33 -30z"/>
<path d="M1514 3700 c3 -30 6 -81 6 -112 0 -54 2 -58 23 -58 28 0 67 -38 67
-66 1 -37 18 8 27 74 7 44 7 62 -1 62 -6 0 -4 5 4 10 8 5 11 10 6 10 -6 0 -5
5 1 11 22 22 5 38 -27 26 -34 -13 -59 4 -91 63 l-20 35 5 -55z m51 -50 c3 -5
17 -10 31 -10 23 0 24 -3 24 -60 0 -55 -10 -75 -25 -50 -3 6 -13 10 -21 10
-25 0 -48 28 -35 44 7 8 7 16 1 22 -11 11 -2 54 11 54 4 0 11 -4 14 -10z"/>
<path d="M1890 3658 l0 -97 35 -27 c37 -28 72 -78 85 -122 5 -17 9 34 9 137
l1 164 -23 -21 c-34 -32 -53 -27 -81 21 l-26 42 0 -97z m99 -7 c15 -7 23 -109
9 -117 -4 -3 -5 -11 -1 -19 8 -22 -15 -18 -29 5 -7 11 -18 20 -23 20 -6 0 -19
14 -29 31 -11 18 -14 29 -9 26 7 -4 9 9 5 38 l-5 44 34 -11 c19 -6 40 -14 48
-17z"/>
<path d="M1446 3722 c-4 -10 -20 -31 -36 -47 -26 -25 -33 -27 -55 -17 l-25 12
0 -53 c0 -61 18 -168 30 -180 4 -5 5 2 3 15 -7 34 31 78 68 78 l29 0 0 105 c0
104 -3 122 -14 87z m-10 -169 c-2 -2 -10 -6 -18 -7 -7 -1 -23 -7 -35 -14 -30
-17 -35 -15 -32 11 2 12 1 27 -3 32 -3 6 -4 22 -1 38 4 20 11 27 27 27 12 0
31 6 42 14 18 14 19 12 22 -41 2 -30 1 -57 -2 -60z"/>
<path d="M1792 3675 c-23 -27 -42 -31 -71 -15 -17 9 -19 1 -23 -118 -3 -70 -3
-129 -2 -131 2 -2 9 17 16 43 7 26 22 56 34 67 l22 20 35 -33 c35 -33 157
-195 157 -209 0 -4 14 -9 30 -11 24 -4 30 -1 30 13 0 12 -5 16 -14 13 -20 -8
-108 96 -143 169 -32 65 -47 130 -44 185 1 17 0 32 -2 32 -2 0 -13 -11 -25
-25z m8 -71 c0 -19 5 -34 12 -34 6 0 8 -3 5 -6 -3 -4 -2 -15 4 -26 10 -18 8
-18 -28 2 -22 11 -39 16 -41 10 -6 -17 -30 -11 -34 8 -2 9 -2 31 0 49 4 30 7
32 43 31 38 0 39 -2 39 -34z"/>
<path d="M515 3628 c-40 -129 -74 -209 -102 -236 -8 -8 -11 -17 -8 -21 12 -11
63 60 74 104 6 23 17 45 25 48 11 4 14 -10 15 -66 1 -39 6 -76 11 -81 6 -6 10
-18 10 -28 0 -10 5 -18 10 -18 6 0 10 -33 10 -80 0 -44 -3 -80 -7 -80 -5 0
-19 12 -32 25 -13 14 -34 25 -46 25 -13 0 -27 5 -30 10 -6 10 -51 -16 -83 -47
-18 -17 -29 -16 -36 2 -8 23 -28 18 -64 -14 -37 -35 -39 -42 -27 -98 11 -55
-13 -38 -44 30 -16 34 -32 76 -35 94 -7 31 -7 32 31 31 21 0 50 5 65 11 34 13
108 79 108 97 0 7 7 17 16 22 13 7 13 10 1 20 -12 10 -17 6 -28 -20 -18 -44
-76 -96 -117 -104 -18 -4 -50 -4 -71 -1 l-38 5 7 -32 c12 -45 26 -87 41 -121
22 -49 103 -178 148 -234 22 -29 41 -59 41 -67 0 -8 5 -14 10 -14 6 0 10 5 10
10 0 17 32 11 67 -12 44 -31 83 -105 83 -158 0 -34 -6 -48 -34 -76 -56 -56
-135 -46 -206 26 -26 26 -75 94 -90 123 -8 16 -16 24 -18 18 -5 -14 45 -196
62 -229 21 -37 19 -19 -4 58 -23 76 -22 70 -11 70 6 0 18 -13 28 -30 9 -16 23
-30 30 -30 7 0 13 -4 13 -9 0 -16 69 -42 114 -43 29 0 56 7 79 21 44 27 47 27
47 -6 0 -14 2 -24 4 -22 2 2 7 54 11 114 7 130 14 204 21 226 3 13 -6 15 -58
15 -46 0 -74 6 -104 22 -58 30 -140 125 -160 184 -15 46 -15 49 5 82 19 30 64
58 58 36 -1 -5 7 -15 17 -23 17 -13 22 -11 49 19 43 50 87 48 141 -9 22 -23
46 -50 51 -61 20 -36 6 193 -15 249 -19 50 -32 150 -31 238 0 46 -6 60 -14 35z
m-260 -616 c-3 -3 -11 0 -18 7 -9 10 -8 11 6 5 10 -3 15 -9 12 -12z m25 -38
c0 -21 -17 -17 -23 5 -3 14 -1 18 9 14 8 -3 14 -11 14 -19z m98 -94 c7 0 12
-3 12 -8 0 -13 55 -32 105 -34 l50 -3 1 -61 c0 -68 -10 -74 -39 -25 -26 45
-76 83 -98 76 -19 -6 -27 1 -103 89 -39 47 -18 52 23 7 21 -23 43 -41 49 -41z"/>
<path d="M2455 3084 c0 -276 1 -501 3 -500 1 2 4 25 7 51 5 62 18 75 40 38 9
-15 34 -41 56 -56 21 -16 39 -33 39 -38 0 -5 5 -9 10 -9 23 0 6 27 -36 59
-103 78 -127 194 -57 272 35 39 39 40 82 35 58 -7 67 -7 117 0 88 13 140 -46
130 -146 -9 -86 -28 -121 -102 -189 -37 -33 -62 -61 -57 -61 5 0 18 9 28 20
10 11 22 20 26 20 5 0 27 20 50 45 23 25 46 45 52 45 6 0 8 -18 4 -46 -3 -33
-2 -43 6 -35 7 7 12 130 15 374 4 358 4 362 -15 345 -58 -53 -131 18 -174 167
-16 57 -17 59 -27 34 -6 -15 -27 -40 -47 -57 -21 -16 -32 -33 -26 -36 5 -4 25
7 45 24 37 33 40 32 51 -19 4 -19 13 -41 19 -48 6 -7 25 -30 41 -52 31 -40 61
-56 89 -45 18 7 17 10 22 -71 2 -33 5 -68 8 -77 8 -34 -10 -18 -33 29 -25 51
-70 105 -83 97 -4 -3 -8 0 -8 6 0 6 -4 9 -9 5 -5 -3 -12 -2 -15 3 -2 4 -17 7
-33 6 -15 -1 -38 -3 -49 -3 -33 -1 -101 -61 -118 -104 -32 -76 -35 -47 -27
275 1 29 4 36 16 32 8 -4 15 -12 15 -18 0 -7 11 -18 25 -24 33 -15 32 -6 -2
27 -42 41 -54 58 -67 94 -9 27 -11 -76 -11 -469z m272 158 c40 -22 69 -59 88
-113 25 -69 21 -79 -26 -79 -44 0 -72 -11 -106 -43 l-23 -20 -24 26 c-23 25
-80 47 -123 47 -30 0 -29 21 1 85 48 103 132 141 213 97z m122 -256 c-1 -35 1
-68 5 -75 13 -20 -7 -12 -35 15 -26 25 -34 27 -148 30 l-120 3 -32 -30 c-17
-16 -34 -29 -38 -29 -3 0 -6 32 -6 71 l0 71 54 -5 c35 -4 67 -15 93 -33 35
-25 42 -26 61 -14 45 28 99 51 111 47 7 -3 19 -1 27 4 26 16 30 9 28 -55z"/>
<path d="M1420 3331 c0 -5 5 -13 10 -16 6 -3 10 -2 10 4 0 5 -4 13 -10 16 -5
3 -10 2 -10 -4z"/>
<path d="M1450 3304 c0 -10 38 -21 49 -15 9 6 3 10 -18 13 -17 2 -31 3 -31 2z"/>
<path d="M1145 3128 c-17 -79 -69 -145 -104 -133 -18 6 -19 3 -14 -49 11 -104
-35 -292 -85 -348 -14 -17 -10 -18 77 -18 l92 0 -33 43 c-68 84 -77 150 -29
198 33 33 45 35 82 15 22 -11 29 -11 44 0 30 22 69 17 98 -14 23 -24 27 -37
27 -84 0 -52 -3 -59 -46 -107 l-46 -51 96 0 c53 0 96 2 96 5 0 2 -13 24 -30
47 -38 55 -73 190 -74 290 -1 71 -3 77 -19 72 -28 -9 -72 39 -97 107 -13 32
-24 59 -25 59 -2 0 -7 -15 -10 -32z m80 -132 c36 -20 57 -44 50 -56 -5 -8 -13
-6 -26 6 -36 33 -62 40 -108 32 -42 -8 -91 -40 -91 -60 0 -5 15 -15 33 -23 39
-18 72 -43 66 -50 -3 -3 -15 4 -26 14 -18 17 -23 18 -39 6 -33 -25 -41 -17
-43 37 -1 52 17 88 45 88 7 0 27 23 44 52 l32 52 22 -44 c12 -24 30 -48 41
-54z m12 -61 l28 -24 -26 -1 c-15 0 -38 -9 -52 -20 l-26 -20 -33 20 c-18 11
-42 20 -53 20 -18 1 -17 3 8 25 22 19 39 25 77 25 38 0 55 -6 77 -25z m41 -77
l-3 -23 -20 23 c-11 12 -26 22 -35 22 -8 0 1 8 20 18 33 16 35 16 38 0 2 -10
2 -28 0 -40z m-244 -206 c3 -9 12 -26 20 -37 15 -20 15 -21 -32 -15 -34 4 -46
10 -44 20 2 8 8 17 13 18 5 2 9 12 9 23 0 22 25 16 34 -9z m306 -4 c0 -10 5
-18 10 -18 6 0 10 -8 10 -18 0 -14 -9 -18 -40 -19 -48 -2 -55 7 -35 46 17 33
55 39 55 9z"/>
<path d="M785 3115 c-11 -49 -36 -109 -52 -127 -24 -26 -50 -22 -75 12 -12 17
-24 30 -27 30 -3 0 -6 -47 -6 -105 0 -58 2 -105 4 -105 3 0 15 9 27 21 27 25
55 19 79 -18 22 -33 55 -147 56 -193 0 -24 6 -7 18 50 21 100 32 127 60 158
27 27 48 28 75 3 l21 -20 0 109 0 109 -28 -35 c-50 -60 -85 -39 -123 73 -21
63 -23 65 -29 38z m55 -133 c22 -29 63 -38 83 -18 24 24 27 20 27 -39 l0 -55
-32 4 c-28 3 -38 -2 -65 -32 -18 -20 -33 -41 -33 -48 0 -20 -22 -64 -32 -64
-4 0 -8 11 -8 25 0 33 -22 74 -51 99 -25 21 -69 30 -69 15 0 -5 -4 -9 -10 -9
-11 0 -8 105 3 117 4 3 7 2 7 -4 0 -16 48 -25 70 -13 11 6 29 31 41 56 l20 46
17 -29 c9 -17 24 -39 32 -51z"/>
<path d="M1527 3096 c-32 -77 -93 -114 -154 -93 -21 8 -21 6 -18 -95 4 -120
17 -187 48 -243 23 -41 78 -85 106 -85 13 1 12 3 -3 12 -64 37 -101 105 -90
164 4 20 21 51 40 70 28 30 38 35 62 30 21 -5 33 -2 47 14 27 30 62 25 101
-14 l34 -34 0 121 0 120 -23 -21 c-28 -26 -45 -27 -73 -4 -26 21 -44 54 -44
81 0 34 -14 24 -33 -23z m69 -75 c20 -16 36 -20 55 -16 l28 6 0 -57 c0 -72 -4
-78 -34 -58 -13 9 -30 12 -36 8 -8 -4 -9 -3 -5 4 4 7 2 12 -3 12 -6 0 -11 -4
-11 -10 0 -5 -6 -10 -14 -10 -8 0 -16 -5 -18 -12 -2 -6 -19 -11 -38 -11 -40 0
-91 -42 -121 -97 l-18 -35 -1 53 c-1 57 -2 165 -1 183 1 8 5 8 15 0 20 -17 80
15 125 65 32 34 35 36 42 17 4 -11 20 -30 35 -42z"/>
<path d="M1591 3124 c0 -11 3 -14 6 -6 3 7 2 16 -1 19 -3 4 -6 -2 -5 -13z"/>
<path d="M1885 3062 c-9 -43 -56 -92 -88 -92 -15 0 -30 7 -33 15 -25 65 -17
-76 12 -195 21 -90 31 -102 26 -31 -4 52 -2 60 19 75 13 9 35 16 50 16 l26 0
1 120 c2 120 -1 144 -13 92z m-7 -120 l-1 -58 -48 -26 c-55 -31 -59 -28 -59
54 0 39 3 48 13 40 15 -12 46 -1 71 27 11 11 20 21 22 21 1 0 2 -26 2 -58z"/>
<path d="M1960 2972 l0 -122 25 6 c19 5 32 -1 56 -25 28 -28 31 -37 26 -71 -3
-23 -1 -38 4 -34 5 3 9 16 9 29 0 13 4 34 9 47 5 13 12 61 16 106 l7 84 -26
-17 c-24 -16 -28 -16 -52 0 -14 9 -36 40 -50 68 l-24 52 0 -123z m46 3 c4 -8
15 -15 25 -15 10 0 19 -5 19 -10 0 -6 8 -10 18 -8 11 2 17 -3 16 -14 0 -10 -1
-38 -2 -63 -2 -49 -1 -49 -49 -5 -9 8 -24 15 -32 15 -9 0 -16 9 -16 20 -1 11
-5 27 -10 34 -5 9 -5 16 2 18 6 2 9 13 6 23 -6 23 15 27 23 5z"/>
<path d="M2290 3084 c0 -5 -16 -26 -36 -46 -25 -27 -44 -38 -65 -38 -28 0 -29
-2 -29 -44 0 -121 -53 -282 -113 -343 l-31 -33 27 0 c20 0 27 5 27 19 0 11 7
26 15 35 9 8 15 19 15 23 -1 4 3 9 9 11 6 2 11 -1 11 -8 0 -6 9 -20 20 -32 29
-31 25 -37 -22 -31 -29 4 -39 3 -34 -5 5 -8 56 -12 161 -11 l155 0 0 69 c0 38
2 77 5 87 6 17 5 17 -7 -1 -54 -79 -121 -125 -182 -126 -29 0 -86 42 -86 63 0
5 29 71 64 146 66 140 111 259 101 269 -3 3 -5 1 -5 -4z m-37 -96 c-6 -7 -13
-26 -17 -43 -4 -16 -13 -37 -21 -45 -7 -8 -15 -24 -17 -35 -2 -11 -10 -19 -17
-17 -9 2 -11 -3 -8 -13 4 -8 2 -15 -3 -15 -6 0 -7 17 -3 43 4 23 7 59 8 80 0
33 4 39 30 46 45 14 59 13 48 -1z m134 -384 c-12 -12 -87 -11 -98 2 -9 11 -8
14 7 14 11 0 35 14 54 30 l35 30 3 -36 c2 -20 2 -38 -1 -40z"/>
<path d="M2801 2814 c0 -11 3 -14 6 -6 3 7 2 16 -1 19 -3 4 -6 -2 -5 -13z"/>
<path d="M1826 2660 c26 -45 79 -80 118 -79 29 1 28 2 -9 9 -29 6 -51 20 -84
56 -40 44 -43 45 -25 14z"/>
<path d="M2000 2625 c-13 -14 -19 -25 -13 -25 12 0 48 38 41 45 -2 3 -15 -6
-28 -20z"/>
<path d="M2440 2550 c0 -5 5 -10 10 -10 6 0 10 5 10 10 0 6 -4 10 -10 10 -5 0
-10 -4 -10 -10z"/>
<path d="M2592 2430 c0 -14 2 -19 5 -12 2 6 2 18 0 25 -3 6 -5 1 -5 -13z"/>
<path d="M2841 2414 c0 -11 3 -14 6 -6 3 7 2 16 -1 19 -3 4 -6 -2 -5 -13z"/>
<path d="M387 2413 c-12 -12 -7 -43 13 -85 24 -50 24 -52 5 -44 -13 5 -14 2
-2 -22 8 -15 22 -57 32 -94 10 -38 22 -68 26 -68 13 0 11 28 -7 90 -8 30 -17
69 -20 85 -3 17 -14 50 -25 74 -18 41 -18 61 1 61 8 0 34 -70 44 -120 3 -14 3
0 1 32 -2 31 -8 66 -15 77 -10 20 -40 28 -53 14z"/>
<path d="M2516 2375 c4 -22 10 -67 14 -100 l7 -60 1 50 c1 28 -5 73 -13 100
-13 44 -14 46 -9 10z"/>
<path d="M1530 2375 c-7 -8 -22 -15 -34 -15 -34 0 -102 -49 -125 -91 -19 -33
-21 -49 -17 -122 5 -81 4 -85 -19 -97 -13 -7 -22 -17 -19 -22 4 -5 16 -1 28
10 11 11 35 27 51 36 17 10 22 15 13 12 -10 -3 -26 -9 -35 -12 -10 -3 -2 3 17
14 47 26 134 46 168 38 20 -5 23 -4 12 4 -22 15 81 12 158 -4 67 -15 101 -33
42 -22 l-35 6 39 -15 c21 -8 45 -20 53 -26 7 -7 16 -9 20 -5 3 3 1 6 -5 6 -7
0 -11 6 -10 13 2 6 -4 11 -13 9 -9 -1 -16 4 -16 10 -3 70 -17 176 -24 190 -20
37 -77 69 -134 75 -30 3 -58 10 -61 14 -8 14 -40 10 -54 -6z m106 -24 c28 -4
62 -16 78 -28 l27 -22 -62 5 c-39 3 -67 0 -76 -7 -9 -8 -17 -9 -24 -2 -11 11
-59 5 -59 -7 0 -4 -17 -8 -37 -8 -21 0 -51 -3 -68 -7 -29 -8 -30 -7 -13 12 21
22 98 63 121 63 9 0 19 5 22 11 4 6 14 7 24 3 9 -4 39 -10 67 -13z m14 -81
c-12 -7 -12 -12 4 -29 10 -11 16 -28 14 -38 -4 -23 -43 -29 -52 -8 -4 13 -1
15 14 10 26 -8 26 9 0 42 -25 31 -25 40 -2 46 24 5 41 -11 22 -23z m-65 -36
c19 -65 17 -76 -14 -81 -46 -7 -60 28 -45 106 4 21 12 31 25 31 13 0 22 -15
34 -56z m144 50 c33 -7 43 -24 13 -24 -14 0 -17 -7 -14 -45 3 -28 0 -45 -7
-45 -6 0 -11 10 -12 23 -2 51 -7 71 -17 75 -14 4 -16 22 -3 22 5 0 23 -3 40
-6z m-239 -13 c0 -5 -7 -11 -15 -15 -19 -7 -20 -26 -2 -26 8 0 19 10 25 23 9
18 11 19 11 4 1 -10 -8 -27 -19 -39 -24 -26 -25 -38 -5 -38 20 0 19 -16 -1
-24 -25 -9 -31 -1 -37 56 -5 36 -3 54 6 60 16 10 37 10 37 -1z m-75 -21 c3 -5
3 -15 -1 -21 -4 -8 -9 -7 -15 2 -4 7 -12 10 -16 5 -4 -5 -2 -11 6 -14 7 -2 22
-13 33 -24 17 -17 18 -22 5 -41 -27 -41 -44 -33 -50 24 -4 33 -2 58 4 66 14
16 26 17 34 3z m199 -6 c3 -8 2 -12 -4 -9 -6 3 -10 10 -10 16 0 14 7 11 14 -7z
m76 -5 c0 -6 -4 -7 -10 -4 -5 3 -10 11 -10 16 0 6 5 7 10 4 6 -3 10 -11 10
-16z m81 -16 c5 -81 4 -88 -11 -85 -8 2 -35 6 -61 9 -43 5 -45 7 -30 22 13 14
18 14 29 4 26 -25 50 -9 54 35 2 33 17 45 19 15z m-134 -69 c-3 -3 -12 -4 -19
-1 -8 3 -5 6 6 6 11 1 17 -2 13 -5z"/>
<path d="M1540 2245 c0 -8 7 -15 15 -15 9 0 12 6 9 15 -4 8 -10 15 -15 15 -5
0 -9 -7 -9 -15z"/>
<path d="M1540 2189 c0 -11 4 -17 10 -14 6 4 17 2 24 -4 11 -9 12 -6 8 14 -6
32 -42 35 -42 4z"/>
<path d="M1392 2181 c2 -7 7 -12 11 -12 12 1 9 15 -3 20 -7 2 -11 -2 -8 -8z"/>
<path d="M2575 2354 c-13 -81 -17 -100 -22 -119 -3 -13 -2 -17 5 -10 10 10 34
156 27 163 -2 2 -7 -13 -10 -34z"/>
<path d="M2615 2353 c-9 -58 -77 -358 -106 -471 -11 -40 -19 -82 -18 -95 1
-30 73 253 113 446 18 86 29 157 25 157 -5 0 -11 -17 -14 -37z"/>
<path d="M2810 2318 c-43 -144 -118 -282 -243 -448 -31 -41 -57 -82 -57 -90 1
-10 4 -9 12 5 6 11 32 47 58 80 110 142 169 246 219 383 27 74 45 142 37 142
-2 0 -14 -33 -26 -72z"/>
<path d="M2782 2362 c-10 -7 -52 -78 -52 -89 0 -2 4 -3 9 -3 5 0 11 10 15 23
3 13 17 36 30 50 24 26 24 35 -2 19z"/>
<path d="M317 2353 c-13 -12 -7 -41 9 -47 20 -8 26 -7 43 3 10 7 11 13 2 30
-11 20 -41 28 -54 14z m37 -19 c8 -22 8 -24 -8 -24 -15 0 -28 24 -19 34 11 10
21 7 27 -10z"/>
<path d="M552 2340 c0 -14 2 -19 5 -12 2 6 2 18 0 25 -3 6 -5 1 -5 -13z"/>
<path d="M2657 2306 c-14 -11 -17 -22 -12 -49 8 -41 -2 -80 -17 -71 -6 4 -8 2
-4 -4 3 -6 2 -13 -4 -17 -6 -4 -8 -11 -4 -16 3 -5 0 -17 -7 -25 -6 -8 -9 -18
-5 -22 12 -11 35 27 53 88 9 30 23 62 30 71 12 14 12 19 -1 32 -8 8 -12 17 -9
21 11 11 -2 6 -20 -8z m23 -25 c0 -6 -4 -13 -10 -16 -5 -3 -10 1 -10 9 0 9 5
16 10 16 6 0 10 -4 10 -9z"/>
<path d="M300 2281 c0 -6 4 -13 10 -16 6 -3 7 1 4 9 -7 18 -14 21 -14 7z"/>
<path d="M555 2239 c14 -144 37 -360 44 -409 l9 -55 1 58 c1 47 -24 288 -43
420 -8 52 -16 41 -11 -14z"/>
<path d="M365 2260 c3 -5 8 -10 11 -10 2 0 4 5 4 10 0 6 -5 10 -11 10 -5 0 -7
-4 -4 -10z"/>
<path d="M2726 2245 c-3 -9 -6 -22 -5 -28 0 -7 5 -1 10 12 5 13 8 26 5 28 -2
2 -6 -3 -10 -12z"/>
<path d="M321 2248 c-2 -16 63 -167 101 -238 47 -85 116 -186 147 -214 34 -31
24 -10 -23 49 -66 80 -128 192 -214 385 -6 14 -11 22 -11 18z"/>
<path d="M387 2233 c-9 -9 -9 -41 1 -46 4 -3 7 8 7 24 0 16 0 29 -1 29 0 0 -4
-3 -7 -7z"/>
<path d="M506 2215 c-16 -12 -22 -12 -28 -2 -4 6 -8 8 -8 2 0 -30 17 -34 40
-10 26 28 25 32 -4 10z"/>
<path d="M2710 2190 c0 -6 7 -10 15 -10 8 0 15 2 15 4 0 2 -7 6 -15 10 -8 3
-15 1 -15 -4z"/>
<path d="M404 2165 c-8 -33 2 -71 25 -94 11 -11 16 -23 13 -27 -4 -4 -1 -4 6
1 10 5 11 10 3 18 -16 16 -13 32 3 18 17 -14 40 10 33 36 -4 14 -5 14 -6 -4
-1 -25 -16 -38 -26 -23 -4 6 -11 7 -17 4 -7 -5 -9 -1 -5 9 3 10 2 17 -3 17 -5
0 -6 7 -3 17 5 12 3 14 -7 8 -10 -6 -11 -2 -6 19 3 14 4 26 1 26 -2 0 -7 -11
-11 -25z"/>
<path d="M2649 2135 c-15 -34 -21 -55 -14 -55 15 0 48 72 43 93 -2 10 -14 -7
-29 -38z"/>
<path d="M1608 2123 c12 -2 32 -2 45 0 12 2 2 4 -23 4 -25 0 -35 -2 -22 -4z"/>
<path d="M1480 2110 c-20 -6 -21 -8 -5 -8 11 0 31 4 45 8 20 6 21 8 5 8 -11 0
-31 -4 -45 -8z"/>
<path d="M1698 2113 c6 -2 18 -2 25 0 6 3 1 5 -13 5 -14 0 -19 -2 -12 -5z"/>
<path d="M548 2085 c-6 -7 -4 -66 7 -155 5 -44 24 -95 24 -65 0 50 -25 226
-31 220z"/>
<path d="M1535 2059 c-70 -10 -152 -38 -167 -56 -8 -11 -17 -9 -44 7 -46 29
-74 12 -75 -45 -1 -38 -2 -38 -11 15 -11 62 -22 80 -48 80 -23 0 -30 -19 -32
-88 -1 -49 -2 -51 -5 -15 -3 30 -8 40 -18 37 -7 -3 -16 -1 -20 5 -10 17 -43
13 -53 -6 -6 -10 -6 -27 0 -45 14 -39 3 -60 -11 -22 -10 26 -16 30 -36 26 -20
-3 -25 -11 -25 -32 0 -16 -2 -34 -3 -42 -2 -7 -2 -10 1 -5 5 10 73 -132 103
-215 13 -38 27 -68 31 -68 4 0 4 -7 1 -17 -4 -10 -2 -14 5 -9 6 4 21 -7 34
-25 26 -35 84 -68 124 -71 l27 -3 -9 -175 c-5 -96 -9 -244 -9 -327 0 -139 -2
-152 -17 -147 -24 7 -48 -44 -45 -94 1 -22 5 -38 10 -35 4 2 7 -1 7 -7 0 -7
11 -21 25 -32 35 -27 50 -57 36 -71 -16 -16 -13 -39 9 -67 26 -33 25 -44 -7
-76 l-28 -26 28 18 c61 38 218 8 225 -43 l3 -21 -61 19 c-56 17 -202 28 -187
13 3 -3 -8 -26 -24 -52 -27 -43 -28 -47 -12 -64 12 -13 31 -18 71 -18 64 0
107 18 152 65 41 42 50 43 50 8 0 -45 11 -18 15 38 2 30 5 63 5 74 1 19 1 19
15 1 13 -17 15 -17 39 7 14 15 26 31 26 37 0 6 5 8 11 5 6 -4 8 -13 5 -20 -7
-19 29 -71 53 -78 12 -3 21 -1 21 4 0 5 9 9 19 9 11 0 23 5 26 11 11 16 31
-20 39 -68 6 -40 5 -43 -20 -49 -15 -4 -35 -2 -45 5 -26 15 -26 15 -21 -18 4
-27 8 -30 56 -34 28 -2 69 -11 91 -20 65 -26 293 -18 288 10 -1 5 9 16 23 23
29 16 40 51 25 77 -9 15 -10 12 -5 -13 5 -27 1 -34 -28 -55 -30 -22 -42 -24
-153 -23 -91 0 -131 5 -168 19 -46 17 -47 19 -30 37 13 14 14 21 5 30 -7 7
-12 22 -12 34 0 13 -4 26 -10 29 -13 8 -13 42 1 51 6 3 15 1 19 -6 6 -9 14 -8
37 3 16 8 47 18 68 22 32 5 27 1 -25 -18 -36 -13 -64 -29 -62 -35 3 -17 -9
-15 -25 5 -12 16 -13 15 -2 -7 7 -14 12 -32 11 -42 -4 -21 11 -29 56 -33 20
-2 62 -10 92 -20 61 -18 130 -14 167 10 34 23 28 40 -24 70 -56 31 -83 29
-185 -16 -74 -32 -98 -36 -98 -15 0 26 55 61 128 80 69 18 73 18 99 1 l28 -18
-19 21 c-13 16 -31 22 -58 22 -24 0 -37 4 -33 10 13 20 -24 21 -81 1 -32 -12
-62 -21 -66 -21 -4 0 -13 18 -19 40 -11 37 -10 43 7 59 20 19 104 51 135 51
22 0 20 45 -5 83 -13 19 -17 37 -12 60 4 23 3 28 -4 17 -8 -12 -10 -11 -10 7
0 13 -9 28 -20 35 -14 9 -20 23 -20 48 l1 35 23 -37 c23 -39 35 -40 37 -4 0
12 8 33 17 47 79 123 77 118 75 216 -1 84 -5 99 -38 169 -20 42 -41 103 -45
135 -12 84 -42 119 -122 141 -35 10 -86 19 -115 20 -41 2 -49 6 -41 16 9 10
13 10 19 1 5 -9 21 -3 58 20 53 34 63 45 34 34 -16 -6 -16 -4 1 15 l19 22 46
-33 c32 -23 49 -45 58 -73 13 -38 13 -38 8 -4 -6 38 -33 71 -83 102 l-32 20
43 33 c24 18 44 41 44 49 0 17 -43 34 -54 22 -4 -3 3 -6 15 -6 12 0 22 -4 22
-10 0 -5 -13 -10 -28 -10 -22 0 -39 -12 -72 -51 -23 -27 -44 -48 -46 -46 -10
10 52 116 68 116 9 1 20 6 24 12 4 8 -1 9 -17 4 -22 -7 -21 -5 9 27 29 30 32
40 32 92 0 57 -1 58 -25 54 -17 -4 -25 -1 -25 9 0 9 5 11 13 7 8 -5 8 -2 -2 9
-15 18 -26 23 -16 7 3 -5 1 -10 -4 -10 -6 0 -11 5 -11 10 0 27 -138 44 -235
29z m-318 -95 c23 -142 24 -147 33 -138 5 5 12 45 16 89 3 44 8 83 10 87 16
25 23 -5 26 -109 2 -65 8 -127 13 -137 6 -15 5 -18 -6 -12 -8 4 -5 1 5 -8 18
-14 22 -13 53 14 18 17 38 30 43 30 14 0 21 -18 10 -25 -6 -4 -28 -34 -51 -68
-29 -46 -38 -69 -34 -87 3 -15 2 -20 -3 -12 -7 10 -13 8 -26 -7 -24 -26 -80
-45 -111 -37 -27 7 -66 67 -96 149 -11 28 -35 84 -53 122 -42 87 -49 112 -37
119 5 3 24 -20 41 -51 35 -63 58 -93 72 -93 13 0 9 39 -9 73 -20 39 -43 124
-35 131 12 13 19 4 42 -46 38 -88 54 -118 62 -118 5 0 5 50 2 111 -6 92 -5
111 6 107 9 -3 19 -35 27 -84z m363 76 c-11 -7 -11 -10 -2 -10 7 0 10 -5 6
-11 -4 -8 -9 -7 -15 2 -9 15 -3 29 14 29 7 0 6 -4 -3 -10z m-36 -23 c16 -25
-12 -69 -51 -80 -45 -13 -80 -2 -85 28 -6 28 17 47 73 63 41 12 50 11 63 -11z
m179 12 c22 -6 37 -16 37 -25 0 -73 -106 -80 -138 -10 -19 43 21 58 101 35z
m-388 -38 c3 -5 1 -12 -5 -16 -5 -3 -10 1 -10 9 0 18 6 21 15 7z m280 -25 c21
-31 66 -50 104 -41 33 7 46 20 54 50 2 11 5 1 6 -22 0 -23 -3 -44 -8 -47 -5
-3 -7 -14 -4 -25 4 -18 6 -18 27 3 12 11 21 24 19 28 -2 5 1 16 6 25 9 15 10
14 11 -10 0 -19 -11 -40 -34 -63 -19 -20 -38 -49 -41 -65 -4 -17 -32 -57 -62
-89 -49 -53 -60 -60 -93 -60 -31 0 -51 10 -99 48 -33 26 -60 55 -61 64 0 9 -6
21 -14 25 -8 4 -17 24 -21 45 -6 30 -4 37 12 41 15 4 15 5 -3 6 -23 1 -34 26
-33 71 l1 25 7 -25 c15 -55 123 -52 167 5 31 41 38 43 59 11z m215 15 c0 -5
-7 -14 -15 -21 -8 -7 -15 -23 -15 -36 0 -13 -4 -24 -8 -24 -11 0 -2 61 10 78
12 14 28 16 28 3z m-464 -26 c10 -26 -1 -35 -13 -10 -6 14 -7 25 -2 25 5 0 12
-7 15 -15z m-39 -17 c-3 -8 -6 -5 -6 6 -1 11 2 17 5 13 3 -3 4 -12 1 -19z m58
-67 c4 -17 4 -31 0 -31 -15 0 -44 47 -45 73 0 27 0 27 19 8 10 -10 22 -33 26
-50z m-10 -51 c25 0 24 -29 -2 -50 -36 -28 -47 -21 -48 31 -2 56 5 68 23 41 8
-12 20 -22 27 -22z m505 -34 c0 -2 -23 -21 -51 -41 -28 -20 -48 -39 -45 -42 3
-4 0 -13 -8 -22 -8 -9 -15 -20 -14 -25 0 -13 -54 -46 -65 -39 -6 3 -1 12 9 20
10 8 19 18 19 23 0 5 21 33 48 64 31 36 57 56 75 59 15 2 28 5 30 6 1 0 2 -1
2 -3z m-426 -73 c8 -16 15 -21 16 -14 0 10 11 4 33 -16 17 -17 42 -36 55 -42
35 -19 88 -3 122 35 33 38 38 30 14 -21 -18 -39 -58 -69 -94 -71 -30 -1 -63
14 -55 25 3 5 -4 20 -16 32 l-20 24 17 -27 c9 -16 12 -28 7 -28 -5 0 -20 18
-32 41 -13 22 -26 38 -29 35 -3 -3 -14 2 -25 11 -10 10 -21 17 -23 16 -14 -9
-23 -1 -12 12 19 21 25 19 42 -12z m-15 -37 c15 -8 45 -34 66 -58 21 -23 48
-44 59 -45 11 -2 25 -8 32 -14 8 -7 13 -6 17 3 2 7 7 10 11 7 3 -3 0 -19 -9
-35 -8 -16 -15 -48 -15 -71 0 -32 -4 -43 -15 -43 -8 0 -15 -7 -15 -16 0 -10 6
-14 15 -10 9 3 15 0 15 -9 0 -8 7 -15 15 -15 8 0 15 7 15 15 0 8 7 15 15 15 8
0 15 5 15 10 0 6 -9 10 -19 10 -17 0 -19 7 -17 58 4 82 17 102 69 102 57 0
153 -26 188 -50 29 -21 43 -54 54 -128 4 -23 20 -68 35 -100 16 -31 33 -69 39
-83 9 -25 8 -26 -32 -25 -23 0 -57 -7 -75 -16 -29 -15 -34 -15 -39 -2 -3 8 2
23 11 33 23 25 20 38 -4 16 -35 -31 -45 -7 -42 97 1 51 7 108 12 129 6 22 7
46 1 60 -8 21 -9 19 -14 -21 -10 -76 -19 -193 -18 -227 1 -27 -5 -35 -42 -56
-70 -41 -151 -60 -229 -54 -79 7 -158 38 -158 63 0 11 5 14 17 10 16 -6 16 -6
0 12 -18 20 -58 122 -56 144 0 10 2 10 6 1 2 -7 9 -13 13 -13 5 0 -2 19 -15
42 -16 29 -21 47 -15 58 7 14 4 16 -20 12 -15 -2 -36 1 -47 7 -17 10 -17 10 0
11 9 0 17 4 17 10 0 6 -9 6 -23 1 -15 -6 -31 -5 -46 4 -22 11 -22 12 19 18 24
3 56 15 72 27 28 21 39 15 16 -9 -11 -11 -10 -13 2 -9 8 2 19 22 23 44 12 55
38 104 54 104 8 0 26 -6 42 -14z m-103 -308 c2 -18 6 -62 10 -98 7 -55 9 -60
15 -35 5 25 7 21 8 -23 0 -29 -8 -96 -20 -149 -12 -58 -19 -112 -15 -134 3
-21 0 -53 -8 -75 l-14 -39 -7 50 c-5 28 -3 139 4 250 6 110 11 222 11 249 0
54 11 56 16 4z m489 -225 c4 -42 13 -101 21 -131 8 -30 12 -63 9 -73 -3 -9 -1
-20 5 -24 5 -3 10 -22 10 -40 0 -27 -7 -39 -30 -57 -16 -12 -30 -26 -30 -31 0
-4 12 1 26 12 27 21 59 27 68 13 2 -4 7 -27 9 -50 3 -23 14 -53 25 -67 31 -39
19 -58 -48 -78 -32 -9 -71 -28 -87 -41 -27 -23 -27 -26 -16 -67 11 -40 10 -46
-9 -67 -21 -22 -48 -30 -48 -14 0 5 11 19 25 32 14 13 25 28 25 34 -1 6 -21
-11 -45 -38 -46 -52 -60 -53 -70 -6 -9 39 28 104 87 155 40 34 41 36 9 18 -32
-17 -101 -96 -101 -115 0 -5 -4 -7 -8 -4 -11 6 -24 312 -16 343 4 13 9 21 13
19 4 -3 13 0 21 6 12 8 12 9 -2 4 -37 -11 -16 10 26 27 24 10 52 25 62 33 18
14 17 14 -4 4 -29 -14 -41 -6 -14 9 11 6 23 18 26 28 5 13 0 11 -21 -8 -15
-14 -54 -42 -85 -62 -54 -34 -75 -56 -45 -44 9 3 12 -36 11 -177 0 -204 1
-194 -19 -220 -15 -19 -15 -19 -40 4 l-25 23 0 -36 c0 -20 -5 -37 -11 -37 -13
0 -4 49 17 88 8 15 14 46 14 68 0 38 -3 43 -36 59 -43 20 -87 16 -147 -15
l-40 -21 -21 20 -20 21 30 32 c43 46 77 98 65 98 -6 0 -11 -4 -11 -8 0 -4 -14
-23 -31 -42 -17 -19 -28 -27 -25 -18 3 10 1 30 -5 46 -8 23 -5 40 11 83 15 38
20 65 16 92 -5 28 25 227 38 254 1 1 28 -8 61 -19 49 -17 77 -19 154 -15 l94
4 -6 -56 c-5 -44 -12 -61 -32 -78 -14 -13 -30 -23 -34 -23 -4 0 -5 26 -3 59 3
37 0 61 -7 65 -8 5 -10 -4 -5 -31 3 -21 1 -57 -4 -80 -7 -32 -7 -41 2 -36 6 4
28 17 49 30 l37 23 -5 -42 c-5 -39 -4 -40 5 -13 6 17 10 41 9 55 -1 14 -1 51
0 82 l1 57 44 19 c24 11 47 25 50 31 16 25 24 7 31 -66z m30 14 c3 -18 1 -45
-4 -62 -9 -29 -9 -28 -10 15 -1 25 -4 56 -8 69 -4 17 -3 22 5 17 6 -4 14 -21
17 -39z m160 -21 c4 -24 3 -55 -1 -68 -4 -12 -8 -30 -9 -39 -1 -9 -11 -31 -22
-49 l-20 -32 3 54 c3 36 1 47 -5 33 -5 -11 -6 -24 -4 -28 3 -4 -3 -41 -13 -83
l-18 -75 -18 36 c-11 20 -25 38 -33 41 -10 4 -11 13 -3 42 15 55 28 62 28 16
1 -21 7 -52 15 -69 18 -40 18 -21 0 67 -17 79 -35 111 -35 63 0 -28 -20 -75
-20 -48 0 6 -3 20 -6 30 -4 12 -3 14 3 6 5 -8 9 9 9 44 0 48 3 58 27 79 20 17
40 24 72 24 l44 0 6 -44z m-296 -210 c-2 -2 -15 -9 -29 -15 -24 -11 -24 -11
-6 3 16 13 49 24 35 12z m-415 -164 c8 -53 7 -85 -4 -102 -9 -13 -13 -12 -30
8 -28 34 -36 87 -16 117 21 32 42 23 50 -23z m223 -144 c16 -13 16 -42 1 -107
-11 -47 -13 -50 -29 -36 -12 11 -38 16 -88 16 -68 0 -72 2 -86 29 -21 41 -20
45 23 71 76 45 145 56 179 27z m-32 -161 c7 -6 2 -8 -15 -3 -14 3 -40 6 -58 6
-18 0 -31 4 -28 9 7 11 87 2 101 -12z m604 -68 c41 -19 42 -22 27 -37 -22 -22
-139 -22 -180 0 l-28 15 41 17 c23 9 47 14 52 11 5 -4 9 -1 9 4 0 17 32 13 79
-10z m-642 -20 c33 -12 29 -24 -21 -59 -37 -25 -55 -30 -101 -30 -66 0 -75 12
-45 63 21 36 23 37 83 36 34 -1 72 -5 84 -10z"/>
<path d="M1270 1851 c0 -5 5 -13 10 -16 6 -3 10 -2 10 4 0 5 -4 13 -10 16 -5
3 -10 2 -10 -4z"/>
<path d="M1145 1820 c3 -5 8 -10 11 -10 2 0 4 5 4 10 0 6 -5 10 -11 10 -5 0
-7 -4 -4 -10z"/>
<path d="M1247 1794 c-8 -8 1 -24 14 -24 5 0 9 7 9 15 0 15 -12 20 -23 9z"/>
<path d="M1210 1780 c0 -5 5 -10 10 -10 6 0 10 5 10 10 0 6 -4 10 -10 10 -5 0
-10 -4 -10 -10z"/>
<path d="M1175 1770 c-3 -5 -1 -10 4 -10 6 0 11 5 11 10 0 6 -2 10 -4 10 -3 0
-8 -4 -11 -10z"/>
<path d="M1140 1744 c0 -8 5 -12 10 -9 6 4 8 11 5 16 -9 14 -15 11 -15 -7z"/>
<path d="M1173 1731 c-51 -31 -53 -81 -4 -125 22 -20 80 -18 107 5 24 19 18
86 -11 114 -29 30 -50 31 -92 6z m47 1 c0 -5 10 -8 23 -8 17 1 21 -4 20 -21
-2 -13 2 -23 7 -23 16 0 12 -46 -5 -60 -13 -10 -19 -10 -35 5 -11 10 -17 22
-14 26 10 17 24 9 25 -13 1 -18 3 -17 8 7 4 17 6 31 5 33 -1 2 -21 -6 -43 -16
-23 -11 -41 -16 -41 -11 0 5 4 9 9 9 5 0 11 10 14 21 5 17 11 20 31 17 14 -3
26 -1 26 3 0 10 -16 12 -65 10 l-30 -1 25 14 c29 17 40 20 40 8z m-35 -42 c-4
-6 -11 -7 -17 -4 -6 4 -8 2 -5 -4 4 -5 4 -18 0 -29 -6 -16 -8 -15 -13 7 -6 25
4 40 28 40 7 0 10 -5 7 -10z m30 -70 c17 -19 17 -20 1 -20 -10 0 -27 5 -38 11
-17 9 -18 13 -7 20 20 12 24 11 44 -11z"/>
<path d="M1105 1720 c3 -5 8 -10 11 -10 2 0 4 5 4 10 0 6 -5 10 -11 10 -5 0
-7 -4 -4 -10z"/>
<path d="M1235 1570 c3 -5 8 -10 11 -10 2 0 4 5 4 10 0 6 -5 10 -11 10 -5 0
-7 -4 -4 -10z"/>
<path d="M1506 1884 c-8 -22 57 -48 100 -39 37 6 75 55 44 55 -5 0 -10 -6 -10
-13 0 -8 -12 -19 -26 -26 -32 -14 -98 5 -90 26 3 7 1 13 -3 13 -5 0 -12 -7
-15 -16z"/>
<path d="M1537 1818 c-10 -5 -14 -14 -11 -20 4 -7 2 -8 -4 -4 -7 4 -20 2 -29
-3 -16 -9 -14 -10 9 -11 15 0 29 -4 32 -8 3 -5 30 -10 61 -11 42 -2 57 2 61
13 3 9 15 16 25 16 10 0 19 5 19 12 0 6 -3 8 -6 5 -4 -3 -16 -1 -28 5 -27 15
-107 19 -129 6z m53 -8 c8 -5 11 -10 5 -10 -5 0 -17 5 -25 10 -8 5 -10 10 -5
10 6 0 17 -5 25 -10z m47 4 c-3 -3 -12 -4 -19 -1 -8 3 -5 6 6 6 11 1 17 -2 13
-5z m-19 -17 c17 3 32 1 32 -4 0 -5 -21 -11 -46 -12 -26 0 -50 -4 -54 -6 -5
-3 -11 -1 -15 5 -3 5 -1 10 5 10 6 0 8 4 5 10 -4 6 2 7 17 1 13 -5 38 -6 56
-4z"/>
<path d="M1570 1728 c0 -11 58 -10 64 0 3 5 -11 8 -29 8 -19 -1 -35 -4 -35 -8z"/>
<path d="M1355 1890 c3 -5 8 -10 11 -10 2 0 4 5 4 10 0 6 -5 10 -11 10 -5 0
-7 -4 -4 -10z"/>
<path d="M1344 1786 c-10 -8 -16 -17 -12 -21 4 -4 17 2 29 14 26 24 13 29 -17
7z"/>
<path d="M1745 1680 c-10 -11 -15 -20 -10 -20 4 0 1 -8 -6 -17 -13 -16 -12
-17 3 -5 10 8 16 18 15 22 -1 5 7 16 18 24 11 8 15 16 9 16 -6 0 -19 -9 -29
-20z"/>
<path d="M1397 1630 c3 -11 0 -34 -6 -52 -10 -30 -9 -31 4 -14 16 21 21 86 6
86 -5 0 -7 -9 -4 -20z"/>
<path d="M1550 1561 c0 -5 7 -14 15 -21 8 -7 15 -27 16 -44 1 -29 1 -30 8 -6
4 14 6 32 4 40 -5 18 -43 45 -43 31z"/>
<path d="M1360 1500 c-8 -5 -12 -11 -9 -14 3 -3 14 1 25 9 21 16 8 20 -16 5z"/>
<path d="M1344 1441 c21 -23 26 -26 26 -11 0 5 -10 15 -22 21 -23 12 -23 12
-4 -10z"/>
<path d="M1780 1259 c0 -5 5 -7 10 -4 6 3 10 8 10 11 0 2 -4 4 -10 4 -5 0 -10
-5 -10 -11z"/>
<path d="M1389 1096 c-9 -31 -15 -56 -13 -56 9 0 35 76 32 93 -2 10 -10 -7
-19 -37z"/>
<path d="M1380 961 c-11 -23 -18 -41 -16 -41 8 0 48 71 43 76 -3 3 -15 -12
-27 -35z"/>
<path d="M1830 2035 c-7 -8 -9 -15 -6 -15 4 0 14 7 22 15 9 8 11 15 6 15 -5 0
-15 -7 -22 -15z"/>
<path d="M961 1924 c0 -11 3 -14 6 -6 3 7 2 16 -1 19 -3 4 -6 -2 -5 -13z"/>
<path d="M2478 1549 c-9 -22 7 -43 26 -36 18 7 21 32 6 42 -5 3 -10 -4 -11
-17 -1 -23 -1 -22 -8 2 -5 19 -8 21 -13 9z"/>
<path d="M596 1504 c-11 -29 -6 -44 14 -44 16 0 20 6 19 33 -2 30 -2 30 -6 5
-2 -16 -9 -28 -14 -28 -5 0 -7 11 -3 25 7 28 0 34 -10 9z"/>
<path d="M1294 1350 c0 -58 1 -81 3 -52 2 28 2 76 0 105 -2 28 -3 5 -3 -53z"/>
<path d="M581 1402 c-13 -25 5 -52 34 -52 15 0 26 7 30 20 13 41 -44 70 -64
32z m47 -25 c2 -10 -3 -17 -11 -17 -16 0 -30 24 -19 34 10 10 27 1 30 -17z"/>
<path d="M1282 1190 c0 -14 2 -19 5 -12 2 6 2 18 0 25 -3 6 -5 1 -5 -13z"/>
<path d="M1242 984 c-26 -143 -31 -184 -22 -179 4 3 10 31 13 64 4 33 14 94
22 136 9 42 15 81 13 87 -2 6 -14 -42 -26 -108z"/>
<path d="M1981 568 c0 -9 -4 -25 -7 -35 -5 -14 -4 -15 5 -7 7 7 11 22 8 35 -2
13 -5 16 -6 7z"/>
<path d="M1570 340 c0 -20 -104 -121 -134 -129 -30 -8 -129 -7 -191 3 l-30 5
28 -11 c15 -7 27 -15 27 -20 0 -4 40 -8 90 -8 l90 0 50 50 c28 28 57 50 65 50
10 0 15 11 15 35 0 19 -2 35 -5 35 -3 0 -5 -4 -5 -10z"/>
</g>
</svg>
