<?xml version="1.0" encoding="UTF-8" standalone="no"?>
<!-- Created with Inkscape (http://www.inkscape.org/) -->

<svg
   width="521.98224"
   height="356.36719"
   viewBox="0 0 104.39645 71.273435"
   version="1.1"
   id="svg1"
   inkscape:version="1.3 (0e150ed6c4, 2023-07-21)"
   sodipodi:docname="phone on new grid.svg"
   xmlns:inkscape="http://www.inkscape.org/namespaces/inkscape"
   xmlns:sodipodi="http://sodipodi.sourceforge.net/DTD/sodipodi-0.dtd"
   xmlns:xlink="http://www.w3.org/1999/xlink"
   xmlns="http://www.w3.org/2000/svg"
   xmlns:svg="http://www.w3.org/2000/svg">
  <sodipodi:namedview
     id="namedview1"
     pagecolor="#ffffff"
     bordercolor="#2c2a19"
     borderopacity="1"
     inkscape:showpageshadow="2"
     inkscape:pageopacity="0"
     inkscape:pagecheckerboard="0"
     inkscape:deskcolor="#5a5a5a"
     inkscape:document-units="px"
     showgrid="false"
     guidecolor="#7602cb"
     guideopacity="1"
     guidehicolor="#443ea6"
     guidehiopacity="1"
     showguides="true"
     inkscape:zoom="0.32"
     inkscape:cx="1225"
     inkscape:cy="2203.125"
     inkscape:current-layer="layer1"
     labelstyle="below">
    <inkscape:page
       x="-3.0863534e-06"
       y="-1.4539929e-06"
       width="104.39645"
       height="71.273438"
       id="page8"
       margin="122.84322 0 417.8186"
       bleed="0" />
    <inkscape:grid
       type="axonomgrid"
       id="grid2"
       units="px"
       originx="-1167.7745"
       originy="-125.27784"
       spacingx="0"
       spacingy="2"
       empcolor="#4d4d4c"
       empopacity="0.38823529"
       color="#0072e5"
       opacity="0.25098039"
       empspacing="5"
       dotted="false"
       gridanglex="30"
       gridanglez="30"
       visible="false" />
  </sodipodi:namedview>
  <defs
     id="defs1">
    <color-profile
       name="sRGB-IEC61966-2.1"
       xlink:href="file:///C:/WINDOWS/system32/spool/drivers/color/sRGB%20Color%20Space%20Profile.icm"
       id="color-profile3" />
    <color-profile
       name="Agfa-:-Swop-Standard"
       xlink:href="file:///C:/WINDOWS/system32/spool/drivers/color/RSWOP.icm"
       id="color-profile4" />
  </defs>
  <g
     inkscape:label="Layer 1"
     inkscape:groupmode="layer"
     id="layer1"
     transform="translate(-207.2187,81.690085)">
    <g
       id="g678"
       transform="translate(203.28136,-13.313659)"
       sodipodi:insensitive="true">
      <g
         id="g670"
         transform="matrix(1.0286935,0.01508452,-0.13106543,0.78119219,10.987432,16.419799)">
        <g
           id="g676"
           transform="matrix(0.99408905,-0.04565288,0.02706292,1.0047032,1.5900581,-3.0406561)">
          <g
             id="g677">
            <path
               id="path653"
               style="fill:#ff6600;fill-opacity:1;stroke:none;stroke-width:0.12;stroke-linejoin:bevel;stroke-dasharray:none;stroke-opacity:1"
               d="m 23.538885,-75.919067 c -0.07035,5.45e-4 -0.142175,0.0065 -0.212891,0.0078 l -0.128515,-0.0023 -0.165625,0.01367 c -0.489045,0.01835 -0.980186,0.05812 -1.46211,0.164063 -0.01266,0.002 -0.03397,0.0049 -0.04414,0.0066 l -0.133984,0.03789 c -0.102035,0.02589 -0.203628,0.05344 -0.304297,0.08555 l -0.08672,0.02422 -0.149219,0.05859 c -0.06267,0.02362 -0.125177,0.04732 -0.187109,0.07383 l -1.054688,0.414843 0.345703,-0.0918 0.127344,-0.01484 c -0.07465,0.04662 -0.150885,0.08825 -0.223828,0.140625 -1.732038,1.243569 -2.530872,2.080041 -2.832422,4.364453 -0.397055,4.431733 0.382457,8.813335 4.564453,10.635547 2.487318,1.43605 5.662815,3.31639 9.538281,5.507031 2.845218,1.608272 6.050376,3.49298 9.514456,5.492968 l 3.63906,4.902344 v 0.885156 0.65 1.1625 l 1.55703,-0.6 v -0.13125 -0.8375 -0.675 -0.725 -0.3875 l 0.0711,0.0035 -0.0711,-0.0207 v -1.226563 c 4.25408,2.456092 8.23364,-1.400797 8.59102,-6.30664 0.0796,-1.092789 -0.0203,-2.237452 -0.33711,-3.376172 -0.62626,-2.250641 -2.09945,-4.477639 -4.70469,-6.23125 -0.36401,-0.245022 -0.74998,-0.480535 -1.15898,-0.705859 l -9.64024,-5.59375 -11.770702,-6.829688 c -0.661952,-0.379032 -1.341811,-0.624907 -2.018359,-0.757031 l 3.9e-4,-0.0012 -0.01523,-0.0023 c -0.196128,-0.03782 -0.391706,-0.06349 -0.586719,-0.08242 l -0.06133,-0.0086 -0.04492,-7.81e-4 c -0.185525,-0.01485 -0.370487,-0.02447 -0.553906,-0.02305 z" />
            <path
               id="path649"
               style="fill:#ffcc00;fill-opacity:1;stroke:none;stroke-width:0.12;stroke-linejoin:bevel;stroke-dasharray:none;stroke-opacity:1"
               d="m 22.133512,-75.16741 c -1.252189,0.0097 -2.569079,0.121356 -3.679687,0.91875 -1.73205,1.243574 -2.531263,2.080032 -2.832812,4.364453 -0.39706,4.431759 0.382827,8.813331 4.564843,10.635547 2.487327,1.436061 5.662404,3.31638 9.53789,5.507031 2.845227,1.608283 6.050358,3.492971 9.514448,5.492969 l 5.1961,7 v -4 c 4.2541,2.456101 8.23403,-1.400773 8.59141,-6.306641 0.25893,-3.554445 -1.38385,-7.659391 -6.20117,-10.313281 L 25.41359,-74.292019 c -1.076439,-0.616369 -2.200399,-0.883784 -3.280078,-0.875391 z" />
            <path
               style="fill:#ffffff;fill-opacity:1;stroke:none;stroke-width:0.12;stroke-linejoin:bevel;stroke-dasharray:none;stroke-opacity:1"
               d="m 38.355637,-57.042831 c 0.11698,2.763045 1.50121,5.220808 3.95257,6.501022 l 0.35926,0.207422 c 1.37577,0.536608 2.6139,0.05407 3.37258,-0.722987 0.48833,-0.500165 0.77803,-1.122348 0.77792,-1.673304 l 2.7e-4,-1.304569 c 0,-4 -1.25687,-4.659147 -3.58655,-5.973387 -2.44692,-1.10582 -4.40059,-0.457373 -4.87605,2.965803 z"
               id="path650"
               sodipodi:nodetypes="cccscccc" />
            <path
               style="fill:#ffffff;fill-opacity:1;stroke:none;stroke-width:0.12;stroke-linejoin:bevel;stroke-dasharray:none;stroke-opacity:1"
               d="m 18.554322,-68.05419 c 0.11698,2.763045 1.50121,5.220808 3.95257,6.501022 l 0.35926,0.207422 c 2.2613,0.882005 4.15054,-0.266271 4.1505,-2.396291 v -1.066347 c 0.0216,-2.813164 -1.2566,-4.897369 -3.58628,-6.211609 -2.44692,-1.10582 -4.40059,-0.457373 -4.87605,2.965803 z"
               id="path643"
               sodipodi:nodetypes="ccccccc" />
            <path
               style="fill:#ffffff;fill-opacity:1;stroke:none;stroke-width:0.12;stroke-linejoin:bevel;stroke-dasharray:none;stroke-opacity:1"
               d="m 28.402658,-62.93002 c 0.11698,2.763045 1.50121,5.220808 3.95257,6.501022 l 0.35926,0.207422 c 2.261295,0.882005 4.150535,-0.266271 4.150495,-2.396291 v -1.066347 c 0.0216,-2.813164 -1.2566,-4.897369 -3.586275,-6.211609 -2.44692,-1.10582 -4.40059,-0.457373 -4.87605,2.965803 z"
               id="path651"
               sodipodi:nodetypes="ccccccc" />
          </g>
        </g>
      </g>
      <g
         id="g674"
         transform="matrix(1.0288039,6.3050248e-4,-0.12007721,0.78295648,33.742354,-0.60510277)">
        <path
           id="path670"
           style="fill:#0044aa;fill-opacity:1;stroke:none;stroke-width:0.12;stroke-linejoin:bevel;stroke-dasharray:none;stroke-opacity:1"
           d="m 16.690018,-72.899017 c -0.07035,5.45e-4 -0.142175,0.0065 -0.212891,0.0078 l -0.128515,-0.0023 -0.165625,0.01367 c -0.489045,0.01835 -0.980186,0.05812 -1.46211,0.164063 -0.01266,0.002 -0.03397,0.0049 -0.04414,0.0066 l -0.133984,0.03789 c -0.102035,0.02589 -0.203628,0.05344 -0.304297,0.08555 l -0.08672,0.02422 -0.149219,0.05859 c -0.06267,0.02362 -0.125177,0.04732 -0.187109,0.07383 l -1.054688,0.414843 0.345703,-0.0918 0.127344,-0.01484 c -0.07465,0.04662 -0.150885,0.08825 -0.223828,0.140625 -1.732038,1.243569 -2.530872,2.080041 -2.832422,4.364453 -0.3970538,4.431733 0.382457,8.813335 4.564453,10.635547 2.487318,1.43605 5.662815,3.31639 9.538281,5.507031 2.845218,1.608272 6.050376,3.49298 9.514456,5.492968 l 3.63906,4.902344 v 0.885156 0.65 1.1625 l 1.55703,-0.6 v -0.13125 -0.8375 -0.675 -0.725 -0.3875 l 0.0711,0.0035 -0.0711,-0.0207 v -1.226563 c 4.25408,2.456092 8.23364,-1.400797 8.59102,-6.30664 0.0796,-1.092789 -0.0203,-2.237452 -0.33711,-3.376172 -0.62626,-2.250641 -2.09945,-4.477639 -4.70469,-6.23125 -0.36401,-0.245022 -0.74998,-0.480535 -1.15898,-0.705859 l -9.64024,-5.59375 -11.770702,-6.829688 c -0.661952,-0.379032 -1.341811,-0.624907 -2.018359,-0.757031 l 3.9e-4,-0.0012 -0.01523,-0.0023 C 17.740768,-72.822 17.54519,-72.84767 17.350177,-72.8666 l -0.06133,-0.0086 -0.04492,-7.81e-4 c -0.185525,-0.01485 -0.370487,-0.02447 -0.553906,-0.02305 z" />
        <path
           id="path671"
           style="fill:#00ccff;fill-opacity:1;stroke:none;stroke-width:0.12;stroke-linejoin:bevel;stroke-dasharray:none;stroke-opacity:1"
           d="m 15.284645,-72.14736 c -1.252189,0.0097 -2.569079,0.121356 -3.679687,0.91875 -1.7320488,1.243574 -2.5312628,2.080032 -2.8328128,4.364453 -0.39706,4.431759 0.382828,8.813331 4.5648438,10.635547 2.487327,1.436061 5.662404,3.31638 9.53789,5.507031 2.845227,1.608283 6.050358,3.492971 9.514448,5.492969 l 5.1961,7 v -4 c 4.2541,2.456101 8.23403,-1.400773 8.59141,-6.306641 0.25893,-3.554445 -1.38385,-7.659391 -6.20117,-10.313281 L 18.564723,-71.271969 c -1.076439,-0.616369 -2.200399,-0.883784 -3.280078,-0.875391 z" />
        <path
           style="fill:#ffffff;fill-opacity:1;stroke:none;stroke-width:0.12;stroke-linejoin:bevel;stroke-dasharray:none;stroke-opacity:1"
           d="m 31.734257,-53.567806 c 0.11698,2.763045 1.50121,5.220808 3.95257,6.501022 l 0.35926,0.207422 c 1.37577,0.536608 2.6139,0.05407 3.37258,-0.722987 0.48833,-0.500165 0.77803,-1.122348 0.77792,-1.673304 l 2.7e-4,-1.304569 c 0,-4 -1.25687,-4.659147 -3.58655,-5.973387 -2.44692,-1.10582 -4.40059,-0.457373 -4.87605,2.965803 z"
           id="path672"
           sodipodi:nodetypes="cccscccc" />
        <path
           style="fill:#ffffff;fill-opacity:1;stroke:none;stroke-width:0.12;stroke-linejoin:bevel;stroke-dasharray:none;stroke-opacity:1"
           d="m 11.477968,-64.730823 c 0.11698,2.763045 1.50121,5.220808 3.95257,6.501022 l 0.35926,0.207422 c 2.2613,0.882005 4.15054,-0.266271 4.1505,-2.396291 v -1.066347 c 0.0216,-2.813164 -1.2566,-4.897369 -3.58628,-6.211609 -2.44692,-1.10582 -4.40059,-0.457373 -4.87605,2.965803 z"
           id="path673"
           sodipodi:nodetypes="ccccccc" />
        <path
           style="fill:#ffffff;fill-opacity:1;stroke:none;stroke-width:0.12;stroke-linejoin:bevel;stroke-dasharray:none;stroke-opacity:1"
           d="m 21.477962,-59.530824 c 0.11698,2.763045 1.50121,5.220808 3.95257,6.501022 l 0.35926,0.207422 c 2.261295,0.882005 4.150535,-0.266271 4.150495,-2.396291 v -1.066347 c 0.0216,-2.813164 -1.2566,-4.897369 -3.586275,-6.211609 -2.44692,-1.10582 -4.40059,-0.457373 -4.87605,2.965803 z"
           id="path674"
           sodipodi:nodetypes="ccccccc" />
      </g>
    </g>
  </g>
</svg>
